<svg id="Layer_1" data-name="Layer 1" xmlns="http://www.w3.org/2000/svg" viewBox="0 0 637.33 635.77"><defs><style>.cls-1{fill:#c1e7f6;}.cls-2{fill:#1b3b53;}.cls-3{fill:#722b14;}.cls-4{fill:#263238;}.cls-5{fill:#653c2c;}.cls-6{fill:#c85743;}.cls-7{fill:#936243;}.cls-8{fill:#14110f;}.cls-9{fill:none;stroke:#000;stroke-miterlimit:10;stroke-width:0.5px;}.cls-10{fill:#465b65;}.cls-11{fill:#985d54;}.cls-12{fill:#de8b26;}.cls-13{fill:#a15a25;}.cls-14{fill:#122a3a;}.cls-15{fill:#221e1f;}.cls-16{fill:#643b29;}.cls-17{fill:#31150d;}.cls-18{fill:#f0edf6;}.cls-19,.cls-26{fill:#fff;}.cls-19{opacity:0.14;}.cls-20{fill:#5e9fae;}.cls-21{fill:#385456;}.cls-22{fill:#a03f22;}.cls-23{fill:#f2725f;}.cls-24{fill:#97712b;}.cls-25{fill:#dea726;}.cls-27{opacity:0.3;}.cls-28{fill:#632a11;}.cls-29{fill:#cd8c2a;}.cls-30{fill:#12100e;}.cls-31{fill:#b05e27;}.cls-32{fill:#af6b5b;}.cls-33{fill:#824e43;}.cls-34{fill:#6696a3;}.cls-35{fill:#593425;}</style></defs><circle class="cls-1" cx="319.06" cy="340.56" r="288.85"/><path class="cls-2" d="M463.62,590.6a290.27,290.27,0,0,0,55.19-41.47l-1.15-81L517,437l-3-31.84-131.79-2.42c0,.68-7.82,34.37-4.8,72,3.53,44,9.14,98.73,14.2,145.34a286.63,286.63,0,0,0,54.48-20.19l3.53-99.34s1.7-2.9,1.7.33c0,1.35,12.78,80,12.4,86.68C463.71,588.51,463.66,589.51,463.62,590.6Z"/><path class="cls-3" d="M574.76,254a5.19,5.19,0,0,0,1.48-7,109.05,109.05,0,0,0-22.19-31,84.8,84.8,0,0,0-30.79-19,79.11,79.11,0,0,0-35.89-3.14,161.77,161.77,0,0,1-37.46.44c-12.74-1.45-24.33-3.33-36.42-7.39-2.6-.88-10.57-3.39-11.09-1-.61,2.87,6.38,10,9,10.83,13.3,4.48,26.81,8.68,40.89,9.79a192.32,192.32,0,0,0,37.1-.79c11.29-1.69,22.22,1.24,33,5.1,21,8.09,35.77,21.72,45.47,41.57A5.08,5.08,0,0,0,574.76,254Z"/><path class="cls-4" d="M179.06,471l-32.08,9,0-1s-58.33,4.77-62.45,3.3c-2.64-.92-1.36,13.3.67,26.64q1.68,3,3.42,6a289.91,289.91,0,0,0,109.7,88.3c.8-10-2.39-35.82-5.74-55.61C189.19,527.47,179.06,471,179.06,471Z"/><path class="cls-5" d="M423.69,156.4a13.65,13.65,0,0,0-.91-3.44,8.32,8.32,0,0,0-2.73-3.48,5.94,5.94,0,0,0-3.88-1.21l.4.43c0-1.73-.17-3.45-.38-5.16a11,11,0,0,0-.3-2,5.07,5.07,0,0,0-.18,2c0,1.23.12,3.09.08,5V149l.41,0a5.42,5.42,0,0,1,3.36,1.12c2.38,1.7,3.16,4.44,3.54,6.36a19.27,19.27,0,0,0,.65,3.14A9.92,9.92,0,0,0,423.69,156.4Z"/><path class="cls-6" d="M328.78,320.3c-6-4.86,2.12-23.23-1.5-30.08-3.5-6.62-4.92-23.14-5.32-30.55,1.66-1.11,29-3.57,34.23-6.31,13.85-7.2,17.36-7.82,19.71-9.62,3.68-2.79,73.34-35.2,74.36-37l25.13,21.15S421.62,246.62,402,271.59C385.87,292.14,348.73,297.29,328.78,320.3Z"/><path class="cls-7" d="M76.31,308.43s7.81,16.78,7.45,24c-.09,1.75-6.58,14.44-6.58,14.44l31.27,1.27L143,326.4s-24.21-1.73-25.36-3.44-4.94-14.84-4.94-14.84"/><path class="cls-5" d="M120.05,305.34c-.6,2.16-1.08,4.35-1.77,6.47a.31.31,0,0,0,0,.09.24.24,0,0,0-.33.16c-.5,1.44-2,2.61-2.37,4.1-.32,1.28.57,2.56.92,3.87-.87.44-2.17.79-3.3,1.25-7.86,2.45-10.75,3.76-21.86-1-3.74-1.62-3.13-4-3.92-4.3C98,312.12,108.83,309,120.05,305.34Z"/><path class="cls-8" d="M63.52,295.34s-3.09-4.31-8.69-15.2c-5-9.74,8.39-23.57,17.66-28.3,5.09-2.61,23.79-6.24,29.15-5.57s9.85,6.16,13.36,15c0,0-5.78-8-11.42-5.93-4.6,1.7-20.38,4.31-23.77,7.28s-10.89,9.34-6.63,23.6c1.16,3.89-7,2.07-8.13,5S63.52,295.34,63.52,295.34Z"/><path class="cls-7" d="M76.71,309.31l-6.1-13.39L64.84,280.6l2.23-13.79,9.31-9,12.7-3.71s10.88-.8,14.33-1,7,2.95,10.53,6.59,5,11.14,5,11.14a6.63,6.63,0,0,1,.28,1.66c.32,3.1,1,5.69,1.13,8a5.68,5.68,0,0,0,1,2.92c2.45,3.37,3,5,3.41,7.41a29.27,29.27,0,0,1,.55,9c-.37,3-1,6.38-1.13,7,0,0-1.54,7-2.1,7.84a6.72,6.72,0,0,1-2,1.95c-.5.23-7.28,2.93-7.28,2.93l-3.23,1a8.7,8.7,0,0,1-3.4.31c-3.1-.33-12-1.42-14.59-2.22-3.49-1.07-9.57-8.26-9.57-8.26"/><path class="cls-8" d="M75.39,294.89c.45,1.19,2,6,2.47,7.11l-6.27,1.87c-3.19-3.52-7-7.66-8.07-8.53-1.67-1.38-4.53-9.7-5.6-12.84l-.24-.67c-1-3,.32-8.74,3.63-15.34C65,259.23,73.55,253,83.21,250.65c.92-.22,1.84-.41,2.75-.56a31.9,31.9,0,0,1,24.16,5.69,21.09,21.09,0,0,1,8.21,12.87,32,32,0,0,0-6.5-10.93c-3.74-3.91-7-4.31-9.16-4a7.19,7.19,0,0,0-3.24,1.39,22.78,22.78,0,0,1-7.06,2.11c-1.65.27-3,.4-3.34.43a11.78,11.78,0,0,0-5.09-.09c-4.74.78-11,3.68-11.76,6.1-.79,2.69-1.65,11.64-1.09,13.49"/><path class="cls-7" d="M77.4,309.44c-2.49,4.86-7.13-1.54-7.13-1.54-4.83-3.16-6.2-7.68-7-10.81s2.6-4.12,2.6-4.12c3-.57,4.75.59,10.13,9.59"/><path class="cls-8" d="M109.83,254.63c-3.15-2.72-8.55-5.69-11.87-8.2-1.15.24-6.67,1.81-7.83,2.12-11.89,3.16-25.56,14.79-25.74,19.53-.12,3,5,17.27,5.92,18.43a41.91,41.91,0,0,1,4.55,7.75c-1.2-5.59.81-12.86.72-14.88s-5.32-10.09-4.83-10.65S80.93,261.57,93,258.05a91.81,91.81,0,0,1,10.46-2.38S109.87,254.66,109.83,254.63Z"/><path class="cls-8" d="M92.58,284.85a2,2,0,0,0-2.21,2,2,2,0,0,0,.95,1.58,1.83,1.83,0,0,0,2.11-.25,2,2,0,0,0,.27-2.52,1.72,1.72,0,0,0-1.12-.79"/><path class="cls-8" d="M114.14,278.7a2,2,0,0,1,2.14-.24,1.82,1.82,0,0,1,.8.69,2,2,0,0,1,.07,1.83,1.81,1.81,0,0,1-1.89.95,2,2,0,0,1-1.62-1.95,1.79,1.79,0,0,1,.5-1.28"/><path class="cls-8" d="M109.74,283s2-3.76,4.1-4.59c3-1.21,4-.75,5.53.34a7.05,7.05,0,0,0-4.57,0C112.8,279.69,109.74,283,109.74,283Z"/><path class="cls-8" d="M99.7,285s-5.17-1.35-7.31-.73c-3.11.9-6.22,3.89-6.74,5.68,0,0,4-4.22,6.21-4.8S99.7,285,99.7,285Z"/><path class="cls-8" d="M95.89,274.33l.81,2.17c.2.55.71,1.8.91,2.35-1.93.2-3.78.1-5,.33-2.41.45-4.93.76-7.08,2A8.22,8.22,0,0,0,83,283.27c-.22.28-.71,1.33-1.22,1.3-.2,0-.25-1-.25-1.11-.09-2,1.17-3.34,2.9-4.48a35.63,35.63,0,0,1,11.5-4.65"/><path class="cls-8" d="M118.48,269.46l-1.33,0a27,27,0,0,0-10.54,2.22l.54,2.25c.14.58.36,1.62.5,2.19,1.47-.87,2.71-1.77,3.68-2.22a17.5,17.5,0,0,1,6.12-2l1.26-.05C119.11,270.63,118.8,269.55,118.48,269.46Z"/><path d="M111.69,295.68a3.62,3.62,0,0,1-3.27.75c-.24-.07-.88.26-.54.35a5.06,5.06,0,0,0,4.43-1.09c.1-.1,0-.19-.11-.19a.76.76,0,0,0-.51.18"/><path d="M107.41,296.63a5.88,5.88,0,0,0-2.13.09.46.46,0,0,0-.28.19c0,.07,0,.14.06.16a2.09,2.09,0,0,0,1.16-.07.42.42,0,0,0,.3-.23c0-.11-.1-.14-.19-.11a1.68,1.68,0,0,1-.94,0l-.22.36a4.87,4.87,0,0,1,1.9-.07.42.42,0,0,0,.35-.15c.06-.07.11-.2,0-.22"/><path d="M104.72,297.53a2.87,2.87,0,0,1-2.43-.35,2.43,2.43,0,0,1,.07-3.27c.09-.1,0-.17-.11-.16a.64.64,0,0,0-.4.22,3,3,0,0,0-.53,3,2.33,2.33,0,0,0,2.32,1.07,4.86,4.86,0,0,0,.93-.14c.12,0,.33-.14.36-.25s-.1-.13-.21-.1"/><path d="M113,294.82a.11.11,0,0,1,.06-.18,1,1,0,0,0,.55-.39l.29.2a3,3,0,0,0-1.11.83.22.22,0,0,1-.27,0c-.06,0-.15-.11-.09-.19"/><path d="M112.46,295.12a3.28,3.28,0,0,1,1.25-.92.28.28,0,0,1,.25,0,.13.13,0,0,1,0,.17"/><path d="M114.73,294.44a1.74,1.74,0,0,0,1.09-1.41,2.58,2.58,0,0,0-1.41-2.44.1.1,0,0,1,0-.18.29.29,0,0,1,.3,0,2.83,2.83,0,0,1,1.51,2,2,2,0,0,1-.71,2,2.06,2.06,0,0,1-.54.3.3.3,0,0,1-.3-.06c-.07-.08,0-.15.07-.17"/><path class="cls-9" d="M72.15,301c-4.76-5.3-6.64-4.71-6.64-4.71s-.77,1.87.84,4.54"/><path class="cls-9" d="M71.38,301.89c-1.74.41.62,3.1.41,4s-1.5-.86-2.51-3.15c0,0-1.09-3.19.29-4.32"/><path class="cls-10" d="M159.91,581.79c-1.16-5-2.31-9.79-3.24-14.41-2.08-10.29-3.54-19.7-4.95-27.91s-2.5-15.27-3.45-21.05-1.66-10.22-2.14-13.27c-.25-1.51-.44-2.66-.56-3.45l-.22-1.16a11.28,11.28,0,0,0,.15,1.17c.13.77.28,2,.5,3.45.46,3.06,1.14,7.53,2,13.29s2,12.88,3.34,21.08,2.87,17.59,4.86,27.94c.86,4.49,1.95,9.15,3.06,14Z"/><path class="cls-7" d="M173.47,313.68,211,292l-.86-55.8h16.34c-.44,7.25,14.76,62,9.51,69.74s-58.25,38.83-58.25,38.83Z"/><path class="cls-7" d="M228.48,228.65c.24,5.83-1.8,8-1.8,8l-16.35-.25A115.8,115.8,0,0,1,200.46,226s.63-10.6,1.78-13.27,2.82-5.59,4.78-5.72c1.35-.17,1-.24,2-1.17,0,0,1.38-1,3.71.3l1.6.88a6.63,6.63,0,0,1,4-.36,6.18,6.18,0,0,1,2.9,2.79,3.77,3.77,0,0,1,3.42.85c1.26,1.38.67,6.79.58,7.24A28.51,28.51,0,0,1,228.48,228.65Z"/><path class="cls-5" d="M221,212.55c-.3,2-.71,4.7-1.28,7.67l-.21,1.09c-.06.29-.1.19-.06.29a.6.6,0,0,0,.28.24,4.31,4.31,0,0,0,1.84.35,3,3,0,0,0,2.45-1.75c.91-1.66,1.12-2.94,1.23-2.92a1.83,1.83,0,0,1-.06.87,9,9,0,0,1-.75,2.27,4.85,4.85,0,0,1-1,1.38,2.81,2.81,0,0,1-1.88.77,4.74,4.74,0,0,1-2.17-.33,1.38,1.38,0,0,1-.52-.47.83.83,0,0,1-.13-.42,1.61,1.61,0,0,1,.06-.33l.21-1.11,1.47-7.64a15.1,15.1,0,0,1,.79-3.11A15.19,15.19,0,0,1,221,212.55Z"/><path class="cls-5" d="M214.51,209.61c0,1.72,0,4-.1,6.58l-.08.39a7.2,7.2,0,0,0,.19,3.48,2.74,2.74,0,0,0,2,1.7,4.4,4.4,0,0,0,1.91-.07,3.87,3.87,0,0,1,.72-.17s-.19.22-.63.41a3.85,3.85,0,0,1-2.09.3,3.2,3.2,0,0,1-2.44-2,7.37,7.37,0,0,1-.27-3.81l0-.23c.1-2.62.19-4.89.3-6.54a11.05,11.05,0,0,1,.31-2.69A10.72,10.72,0,0,1,214.51,209.61Z"/><path class="cls-5" d="M210.27,209.73h0l-1.56,8.12-.39,2,0-.24a3.8,3.8,0,0,0,3,1.89c1.11-.05,1.65-1.17,1.94-2a23.29,23.29,0,0,0,.73-2.81s.08.28.06.79a9.84,9.84,0,0,1-.41,2.15,4.87,4.87,0,0,1-.67,1.42,2.26,2.26,0,0,1-1.64,1,3.12,3.12,0,0,1-2-.54,6,6,0,0,1-1.62-1.55l-.07-.1,0-.14.39-2c.61-3.14,1.29-6,1.7-8.1l0,.11a22.56,22.56,0,0,1-.66-4A23.85,23.85,0,0,1,210.27,209.73Z"/><path class="cls-7" d="M222.76,234.41c-1-9.82-11.59-10.92-11.59-10.92L207.88,220s1.19-5,2-9.89-2.43-5.14-2.43-5.14-2.49,3-4.29,5.53-2.81,15-2.7,15.43,9.87,10.44,9.87,10.44"/><path class="cls-5" d="M222.66,233.18a7.45,7.45,0,0,0-.35-1.39,10.53,10.53,0,0,0-.75-1.88,11.62,11.62,0,0,0-3.71-4.14,16.25,16.25,0,0,0-6.67-2.6l.19,0-3.18-3.38c.54-2.28,1.07-4.7,1.54-7.24a27.55,27.55,0,0,0,.57-4.06,5.35,5.35,0,0,0-.44-2.16,3.17,3.17,0,0,0-1.64-1.64,1.64,1.64,0,0,0-.38-.1c-.08.19-.17.37-.26.56a2.29,2.29,0,0,1,.36.07,3.17,3.17,0,0,1,1.67,3.14,26,26,0,0,1-.54,3.93c-.49,2.55-1,5.09-1.52,7.39l0,.17.11.12,3.3,3.46H211l.1,0a15.78,15.78,0,0,1,6.47,2.38,11.56,11.56,0,0,1,3.65,3.84,17.76,17.76,0,0,1,1.57,4.71A6.43,6.43,0,0,0,222.66,233.18Z"/><path class="cls-7" d="M64.73,365.58l8.72,42s-3.3,17.13-5.28,34.73-27.69,63.74-27.69,63.74l-14.2-5.54,15-55.54s7-51,6.33-65.31,10.42-22.57,10.42-22.57Z"/><path class="cls-7" d="M40.31,505s.34,2,.93,4.78-2.07,6.44-2.81,8.85-3.19,8.14-3.19,8.14l-.61,5.78a5.17,5.17,0,0,1,2.2,2.89c1,2.35-1.85,2.23-1.85,2.23l-3.92-3-2-6.05-.29,6.76A6.81,6.81,0,0,1,31.06,537l.14.14a2,2,0,0,1,.44.68,2,2,0,0,1-1.17,2.57l-.84.33c.36.57,0,1.12-.51,1.59a3.73,3.73,0,0,1-4.24.34l-1.42-.79c1,3.06-2.91,2.21-2.91,2.21l-7.13-7.64s.74-15.44.64-15.95S26,501.09,26.28,500.51Z"/><path class="cls-5" d="M19.32,514a18,18,0,0,0-.28,6.16c.15,2.73.32,5.86.5,9.31a11.1,11.1,0,0,0,1,5.1,1.92,1.92,0,0,0,1.89,1.09c.71-.15,1.19-1,1.46-1.88a45.25,45.25,0,0,0,1-10.89v-.28l.27-.08A21.48,21.48,0,0,0,34.48,514c1.59-2.75,2-4.61,2.14-4.55a4.22,4.22,0,0,1-.25,1.31A19.11,19.11,0,0,1,35,514.23a21.15,21.15,0,0,1-9.49,9.1l.26-.41a42.55,42.55,0,0,1-.95,11.19,3.29,3.29,0,0,1-2.14,2.53,2.28,2.28,0,0,1-1.76-.34,3.54,3.54,0,0,1-1.13-1.18,11.57,11.57,0,0,1-1.1-5.56c-.12-3.44-.23-6.62-.3-9.3a16.52,16.52,0,0,1,.6-6.29,5.6,5.6,0,0,1,.8-1.58c.23-.37.43-.43.43-.43A17.08,17.08,0,0,0,19.32,514Z"/><path class="cls-11" d="M27,537.07c1.69,1.45,2.86,2.78,2.68,3s-1.65-.85-3.29-2.26a28,28,0,0,1-3-2.49C23.48,535.08,25.34,535.63,27,537.07Z"/><path class="cls-5" d="M18.47,525.4a30.18,30.18,0,0,1,0,3.56c0,.7-.12,1.38-.23,2.11a9.26,9.26,0,0,0-.17,2.1c.06,1.31,1.51,2,2.39,3.12a16.44,16.44,0,0,1,2.11,2.92,5.79,5.79,0,0,1,1,3.14c-.16,0-.49-1.17-1.6-2.78a19.14,19.14,0,0,0-2.14-2.69c-.45-.48-.94-.89-1.51-1.42a3.45,3.45,0,0,1-1.17-2.2,9.26,9.26,0,0,1,.19-2.35c.13-.65.2-1.39.27-2,.15-1.3.22-2.48.25-3.48a16.07,16.07,0,0,1,.17-3.25A8.8,8.8,0,0,1,18.47,525.4Z"/><path class="cls-12" d="M157,312.5l-11.65.82a52.32,52.32,0,0,0-17.22,4.23l-11.2,4.88S120.63,332.92,106,338s-21.63-3.82-21.63-3.82L54.18,357.14l9.72,30.41,16.83,40,5.33,20.17L81,491.59s3.31-4.24,26-1.47,77.38.81,78.17-5.85-25.36-159.07-26.65-162.9Z"/><path class="cls-12" d="M77,408.69l5-25.88s-23.7-30.72-28-25.54a32.31,32.31,0,0,0-6,12.7c-3.51,14.27-5.64,35.23-5.64,35.23Z"/><path class="cls-12" d="M193.41,340.17s-5.67,1.67-10,3.06-12.25,3.29-15.82,12.52a205.16,205.16,0,0,0-6.31,20.14L157,312.5s13.29-4.82,16-5.69,14.9-4.33,14.9-4.33Z"/><path class="cls-13" d="M166,360.37c0-.07.15-.61.2-.67l.2-.58c-1.22-10.38-2.67-19.88-3.42-26.76-.39-3.34-.72-6.07-1-8.06-.14-.89-.24-1.61-.32-2.19a4.85,4.85,0,0,0-.14-.76,2.92,2.92,0,0,0,0,.78c0,.57.06,1.29.17,2.2.19,2,.45,4.73.76,8.08.65,6.82,1.56,16.24,2.78,26.62.08.61.33,1.45.4,2.05"/><path class="cls-13" d="M66.14,391.85c2.94,7.11,5.18,13,5,13s-3-4.18-5.92-11.3-4.92-14.46-4.74-14.47S63.19,384.74,66.14,391.85Z"/><polygon class="cls-14" points="449.65 499.89 453.52 456.28 451.41 499.01 449.65 499.89"/><path class="cls-7" d="M407.77,170.91s1.8,18.41-1.43,25.78c-1,2.19-30.66,15.3-30.66,15.3l67.51,22.33,35.6-11.09S458.68,216.5,457.4,214c-3.52-6.92-1.31-41.45-1.31-41.45"/><path class="cls-7" d="M401.8,140.74s-3.79-7.36-6.37-7.34c-1.57,0-5.36,4.2-5.32,8.2.06,5.35,3.79,11.42,4.72,14.54s.77,7.61,4.93,7.58c1.65,0,3.68-3.46,3.68-3.46S402.66,145.59,401.8,140.74Z"/><path d="M400.69,148a35.58,35.58,0,0,0-3.33-5.85,11.54,11.54,0,0,0-2.42-2.56,3.44,3.44,0,0,0-1.3-.64.94.94,0,0,0-.78.11,2,2,0,0,0-.52.74,8.67,8.67,0,0,0-.36,6c.11.44,1.19.15,1.08-.29a9,9,0,0,1-.07-4.61,5.46,5.46,0,0,1,.45-1.12l.19-.32s.14-.18,0,0l-.64.22h.07s-.15,0,0,0l.13,0,.12,0,.17.08c.17.09.33.19.49.29a12.8,12.8,0,0,1,3.12,3.59,40.62,40.62,0,0,1,2.52,4.63c.2.42,1.27.09,1.08-.29Z"/><path d="M399,148.61c-3.23-.11-1.39,3.76-1.66,5.52a1,1,0,0,0-.06.23c0-.06,0,.08,0,.06s.48-.07.48-.07-.41-.62-.44-.68a13.69,13.69,0,0,1-.77-2.75,10.53,10.53,0,0,1-.21-3.26c.13-1.25.43-3.11,1.72-3.68.68-.3.08-.86-.47-.61a4.4,4.4,0,0,0-2.21,3.46,9.23,9.23,0,0,0-.15,3,20,20,0,0,0,.76,3.43,3.15,3.15,0,0,0,.93,1.69,1,1,0,0,0,1.43-.49,3.06,3.06,0,0,0,.07-1.59c-.06-.54-.78-3.54.23-3.5.25,0,.6-.07.71-.33a.33.33,0,0,0-.33-.44Z"/><path class="cls-7" d="M462.93,140.74s3.8-7.36,6.38-7.34c1.56,0,5.35,4.2,5.31,8.2-.06,5.35-3.79,11.42-4.72,14.54s-.77,7.61-4.93,7.58c-1.64,0-3.68-3.46-3.68-3.46S462.07,145.59,462.93,140.74Z"/><path d="M465.09,148.13a29.83,29.83,0,0,1,4.06-6.75,9.33,9.33,0,0,1,1.39-1.35l.09-.06.12-.09.27-.17.1-.05.2-.09c.11,0-.13,0,0,0s.14,0,0,0c.13,0,.07,0,0,0l-.3-.1a4.33,4.33,0,0,1,.71,1.54,9,9,0,0,1-.06,4.66c-.11.41,1,.25,1.08-.13a8.8,8.8,0,0,0-.2-5.58c-.22-.49-.42-1.09-1-1-1.56.2-2.85,1.73-3.75,2.87a33.33,33.33,0,0,0-3.69,6.29c-.23.49.86.38,1,0Z"/><path d="M465.92,149.41c1.21,0,.65,2.28.55,2.94s-.55,2.86.81,2.77c.67,0,1-.7,1.26-1.24a13.91,13.91,0,0,0,.84-3,10.83,10.83,0,0,0,.14-3.59c-.2-1.52-.71-3.3-2.23-4-.49-.21-1.26.48-.62.76,1.17.52,1.54,2,1.72,3.19a8.73,8.73,0,0,1,.05,2.7,18.26,18.26,0,0,1-.71,3.18,4.91,4.91,0,0,1-.42,1c0,.06-.17.19-.17.24l.13-.06c.83.24.26.06.26,0s-.1-.34-.11-.49a4.25,4.25,0,0,1,.06-.8c.07-.63.19-1.25.24-1.87a3.33,3.33,0,0,0-.18-1.8,1.54,1.54,0,0,0-1.54-.75c-.63,0-.82.87-.08.84Z"/><path class="cls-7" d="M466.6,144.24c-.54,5.83-1.66,11.26-1.93,17.36S463.9,175.69,463,178c-.49,1.17-2,2.21-2.9,3.08-5,4.71-11.14,9.53-17.52,12.15-2.78,1.15-10,1.15-10,1.15s-7.2,0-10-1.15c-3.91-1.6-7.44-4.46-10.91-6.85s-7.6-5.21-9.81-8.76c-.68-1.09-.61-2.56-.74-3.8-.44-4-.51-8.12-.69-12.17-.27-6.1-1.39-11.53-1.92-17.36s-1.19-30,.53-34.68,22.12-17.1,33.52-17.1c8,0,20.44,6.14,27.74,11.4,3.1,2.24,5.27,4.32,5.78,5.7C467.79,114.2,467.13,138.41,466.6,144.24Z"/><path class="cls-15" d="M434.61,159.39c-1.55.63-2.69.65-3.71-.24-.22-.2-1,0-.7.29,1.35,1.19,3.91,1,5.31,0a.17.17,0,0,0,0-.32c-.17-.08-.71.18-.86.29"/><path class="cls-15" d="M429.64,158.73a8,8,0,0,0-3.07-.22.65.65,0,0,0-.42.24c-.06.1-.06.21.06.26a3,3,0,0,0,1.68.09.59.59,0,0,0,.45-.31c.06-.16-.12-.23-.26-.2a2.39,2.39,0,0,1-1.35-.07l-.36.5a7.09,7.09,0,0,1,2.75.21.61.61,0,0,0,.52-.17c.09-.09.17-.27,0-.33"/><path class="cls-15" d="M436.08,159a7.91,7.91,0,0,1,3.06-.26.61.61,0,0,1,.42.24.15.15,0,0,1-.06.26,3.06,3.06,0,0,1-1.67.1.56.56,0,0,1-.45-.3c-.07-.16.12-.23.25-.2a2.39,2.39,0,0,0,1.35-.09l.36.5a7,7,0,0,0-2.73.24.61.61,0,0,1-.53-.16c-.09-.09-.18-.28,0-.33"/><path class="cls-15" d="M425.61,159.2a3.23,3.23,0,0,1-2.7-1.58,3.46,3.46,0,0,1,1.21-4.21c.14-.1.07-.24-.07-.27a.65.65,0,0,0-.54.14,4,4,0,0,0-1.65,3.57,3.15,3.15,0,0,0,2.33,2.59,4.25,4.25,0,0,0,1.12.2c.15,0,.43,0,.5-.21s-.06-.22-.2-.23"/><path class="cls-15" d="M440.21,159.24a3.19,3.19,0,0,0,2.69-1.59,3.45,3.45,0,0,0-1.21-4.2c-.13-.1-.06-.24.08-.27a.67.67,0,0,1,.54.14,4,4,0,0,1,1.64,3.57,3.15,3.15,0,0,1-2.33,2.59,4.25,4.25,0,0,1-1.12.2c-.15,0-.43-.05-.5-.21s.06-.22.21-.23"/><path class="cls-8" d="M416.09,137.84a2.68,2.68,0,0,0-2.9.53,2.64,2.64,0,0,0-.78,1.21,2.68,2.68,0,0,0,.64,2.43,2.47,2.47,0,0,0,2.84.5,2.74,2.74,0,0,0,1.35-3.19,2.44,2.44,0,0,0-1.15-1.48"/><path class="cls-8" d="M450.11,137.84a2.68,2.68,0,0,1,2.9.53,2.62,2.62,0,0,1,.78,1.21,2.68,2.68,0,0,1-.63,2.43,2.49,2.49,0,0,1-2.85.5,2.75,2.75,0,0,1-1.35-3.19,2.48,2.48,0,0,1,1.15-1.48"/><path class="cls-8" d="M441.37,142s5.91-4.29,8.93-4.57c4.4-.41,9.83,1.85,11.39,3.87,0,0-7.18-3.37-10.28-3S441.37,142,441.37,142Z"/><path class="cls-8" d="M425.17,141.7s-5.9-4.29-8.92-4.57c-4.41-.4-9.84,1.85-11.4,3.87,0,0,7.18-3.37,10.28-3S425.17,141.7,425.17,141.7Z"/><path class="cls-8" d="M425.52,126.19c0,1.06,0,2.11,0,3.17,0,.8,0,2.64,0,3.44-2.36-.69-4.49-1.72-6-2-3-.59-6.12-1.42-9.19-.93a9.84,9.84,0,0,0-4,1.45c-.39.25-1.44,1.35-2,1.06-.24-.11.16-1.41.2-1.54.8-2.61,2.88-3.68,5.41-4.29a41.34,41.34,0,0,1,15.6-.34"/><path class="cls-8" d="M441.18,126.19c0,1.06,0,2.11,0,3.17,0,.8,0,2.25,0,3,2.33-.69,4.33-1.5,5.84-1.8,3-.59,6.11-1.25,9.13-.76a9.58,9.58,0,0,1,3.93,1.45c.38.25,1.41,1.35,2,1.06.23-.11-.16-1.41-.2-1.54-.79-2.61-2.83-3.68-5.33-4.29a40,40,0,0,0-15.35-.34"/><path class="cls-8" d="M401.12,174.05a11.28,11.28,0,0,0,2.91,3.66c4.63,3.08,13.66,7.4,16.32,9.44a12.76,12.76,0,0,0,3.94,2.28,41,41,0,0,1,8.56-1.43,20.34,20.34,0,0,1,8.22,1.62s15.18-9.68,19.9-12.08c.33-.17,2.51-2.86,2.72-2.92,0,0,1.79,3.68-8.68,10.83-7.28,5-9.19,7.36-15,8.58s-13.88.81-17.43-.85c-5.5-2.56-18.1-11.86-20.08-14.3C401.22,177.31,401.12,174.05,401.12,174.05Z"/><path class="cls-8" d="M428.08,175.37l10.79-.41c-.24.61-1.08,5.09-5.67,4.61C429.13,179.15,430,177.17,428.08,175.37Z"/><path class="cls-16" d="M433.36,167c-5.29,0-13.87-.6-13.87-.6s1.6,10.19,13.87,10.19,13.88-10.19,13.88-10.19S438.66,167,433.36,167Z"/><path class="cls-17" d="M433.41,167c-2.51,0-12.66-.41-12.66-.41S424.1,172,433.21,172c9.87,0,12.77-5.33,12.77-5.33Z"/><path class="cls-18" d="M433.52,167.39c-2.51,0-10.18-.42-10.18-.42s2.76,2.69,10.31,2.69,10-2.61,10-2.61Z"/><path class="cls-16" d="M447.79,165.66a19.8,19.8,0,0,1-3,.31c-2.08-.18-4.6-.71-6.11-.82-2.58-.2-4.22.79-5.34.79s-2.76-1-5.33-.79c-1.51.11-4,.64-6.12.82a20,20,0,0,1-3-.31c-.37.09.35,2.75,14.43,2.75S448.17,165.75,447.79,165.66Z"/><path class="cls-8" d="M431.63,161.68l-.38,2.42a.84.84,0,0,1-.71.68c-2.47.34-11.86,1.62-14.1,1.59h-.16l-.7.61c-.84-.16.16-2.51,1-2.82a54.31,54.31,0,0,1,6-2.09,50.62,50.62,0,0,1,8.26-1.4A.85.85,0,0,1,431.63,161.68Z"/><path class="cls-8" d="M434,161.68l.71,2.5a.85.85,0,0,0,.72.67c2.47.32,11.88,1.52,14.11,1.47l.16,0,.71-.15c.84-.17.26-1.82-.54-2.12a57.8,57.8,0,0,0-15.05-3.37A.85.85,0,0,0,434,161.68Z"/><path class="cls-19" d="M458.43,149.4c-.86,1.21-13.11,1.72-15.84-.09-1.9-1.25-2.78-7.15-3.56-10.54,6.23-3.54,18.1-4.59,24.69-1.13a70.5,70.5,0,0,1-5.29,11.76Z"/><path class="cls-19" d="M408.42,149.4a72.16,72.16,0,0,1-5.29-11.76c6.59-3.46,18.47-2.41,24.69,1.13-.77,3.39-1.65,9.29-3.56,10.54-2.73,1.81-15,1.3-15.84.09Z"/><path class="cls-4" d="M398.23,140.51l4-.84.54,1.35a49.43,49.43,0,0,0,4.06,9c1.38,1.91,15.37,1.88,18,.12,2.42-1.6,3.53-8.48,4.18-11.09a16.06,16.06,0,0,1,4.52-1.05,24.77,24.77,0,0,1,4.26.77c.64,2.35,1.74,9.71,4.26,11.37s16.64,1.79,18-.12a50.11,50.11,0,0,0,4.06-9l.53-1.35a1.49,1.49,0,0,1,0-.63l4.11.86.32-1.13-3.94-1.35c.15-.41.31-.81.48-1.21l-3.19-1.1c-7.41-3.37-18.1-1.78-24.48,1.92a18.7,18.7,0,0,0-4.43-.66,21.64,21.64,0,0,0-4.64.65c-6.38-3.69-17.06-5.28-24.45-1.91l-3.2,1.1c.26.59.47,1.19.67,1.79l-4,1.38Zm40.8-1.74c6.23-3.54,18.1-4.59,24.69-1.13a70.5,70.5,0,0,1-5.29,11.76c-.86,1.21-13.11,1.72-15.84-.09C440.69,148.06,439.81,142.16,439,138.77Zm-35.9-1.13c6.59-3.46,18.47-2.41,24.69,1.13-.77,3.39-1.66,9.29-3.56,10.54-2.73,1.81-15,1.3-15.84.09A72.16,72.16,0,0,1,403.13,137.64Z"/><path class="cls-8" d="M466.6,144.24s-.74-26.16-.64-30.42-13.11-15.5-20-17.92,7.85-1.63,11.46-1,3.85,2.92,3.85,2.92,2.33.23,3.29,1.35l1,1.12s2.92.68,3,2,.51,4.27.51,4.27,2.32-.78,2.32,2.58.15,1.72.15,1.72,2,2.21,1,4-.66,1.57-.66,1.57a10.14,10.14,0,0,1,.86,2c.42,1.32,1.21,6.53-.2,9.67a16.39,16.39,0,0,0-1.36,6.24Z"/><path class="cls-8" d="M398.33,144.24s.74-26.16.64-30.42,13.11-15.5,20-17.92c7.12-2.51-7.66-1.67-11.45-1-3.61.68-3.86,2.92-3.86,2.92s-2.33.23-3.28,1.35l-1,1.12s-2.92.68-3,2-.52,4.27-.52,4.27-2.32-.78-2.32,2.58-.14,1.72-.14,1.72-2,2.21-1,4,.65,1.57.65,1.57a9.85,9.85,0,0,0-.85,2c-.42,1.32-1.21,6.53.2,9.67a16.49,16.49,0,0,1,1.35,6.24Z"/><path class="cls-8" d="M457.12,95s-4.66-2.56-6.07-2.37A3.08,3.08,0,0,0,449,93.83s-.48-1.85-2.19-1.63a13.2,13.2,0,0,0-2.37.45s-1.19-1.42-1.95-1.42a3.9,3.9,0,0,0-1.84,1,1.76,1.76,0,0,0-1.85-1c-1.3.21-1.62.86-1.62.86a1.86,1.86,0,0,0-2.07-.89,6.09,6.09,0,0,0-2.21,1s-1.36-1.59-2.23-1.06l-.87.52s-1-1.37-1.74-.63a7.38,7.38,0,0,1-1.3,1.06s-.32-.65-1.41-.43a4,4,0,0,0-1.52.56,5.7,5.7,0,0,0-1.95-.26c-.87.09-1,1.07-1,1.07a1.46,1.46,0,0,0-2.11-.81l-1.47.81a11.85,11.85,0,0,0-2.93,1.12c-1,.66-.54,2.72-.54,2.72L408,102.75S417.23,96,432,96a57.8,57.8,0,0,1,25.85,6.28Z"/><path class="cls-5" d="M450.54,116.83s-21-2.94-35.35,0"/><path class="cls-8" d="M441.37,95.53a5.65,5.65,0,0,1,2.35.69.78.78,0,0,1-.19,1.46c-.82.26-2-.18-2.6.28s.56,1.28.19,1.88c-.24.38-1,.5-1.44.77s-.75.85-1.28,1.2a2.77,2.77,0,0,1-2.13.27c-.71-.2-1.19-.7-1.16-1.2a.62.62,0,0,0,0-.38c-.32-.6-2,.06-2.62-.4-.29-.21-.22-.53-.32-.8a1.87,1.87,0,0,0-.57-.63L430,97.37a1.49,1.49,0,0,1-.48-.53c-.18-.42.26-.88.85-1.1a6.67,6.67,0,0,1,2-.29c2.7-.13,5.4-.18,8.11-.17"/><path class="cls-8" d="M423.26,95.05a5,5,0,0,0-2.35.79,1,1,0,0,0,.19,1.69c.83.29,2-.22,2.61.32s-.56,1.46-.19,2.16c.23.44,1,.58,1.43.89s.75,1,1.28,1.38a2.47,2.47,0,0,0,2.13.31,1.52,1.52,0,0,0,1.16-1.39.89.89,0,0,1,0-.43c.32-.69,2,.07,2.63-.46.29-.24.21-.61.32-.93a1.92,1.92,0,0,1,.57-.72l1.57-1.5a1.6,1.6,0,0,0,.48-.6c.18-.5-.26-1-.85-1.27a5.55,5.55,0,0,0-2-.34c-2.7-.14-5.41-.21-8.11-.19"/><path class="cls-8" d="M428,96.63a5,5,0,0,0-2.35.79,1,1,0,0,0,.19,1.68c.82.3,2-.21,2.61.32s-.57,1.47-.19,2.17c.23.44.95.58,1.43.89s.75,1,1.28,1.38a2.47,2.47,0,0,0,2.13.31,1.52,1.52,0,0,0,1.16-1.39.94.94,0,0,1,0-.44c.32-.68,2,.08,2.62-.45.3-.24.22-.61.33-.93a2,2,0,0,1,.56-.72l1.58-1.5a1.6,1.6,0,0,0,.48-.6c.18-.5-.26-1-.85-1.28a5.78,5.78,0,0,0-2-.33q-4-.23-8.12-.19"/><path class="cls-8" d="M450,165a3.69,3.69,0,0,1,1.53,2.31,3.52,3.52,0,0,1-.12,1l-.34,1.56a.54.54,0,0,1-.12.29.6.6,0,0,1-.31.15,2.54,2.54,0,0,1-1.09.11.86.86,0,0,1-.73-.73,1.13,1.13,0,0,0,0-.45c-.11-.27-.5-.24-.78-.31-.72-.19-.86-1.12-1.18-1.79a3.8,3.8,0,0,0-2.29-1.83,7.84,7.84,0,0,1-1.42-.54,1.45,1.45,0,0,1-.78-1.22"/><path class="cls-8" d="M416.42,165.47a3.74,3.74,0,0,0-1.53,2.3,4,4,0,0,0,.12,1l.34,1.56a.62.62,0,0,0,.12.29.68.68,0,0,0,.31.14,2.57,2.57,0,0,0,1.1.11.87.87,0,0,0,.73-.73,1.13,1.13,0,0,1,0-.45c.12-.27.5-.24.78-.31.72-.19.87-1.11,1.18-1.79a3.8,3.8,0,0,1,2.29-1.83,7.57,7.57,0,0,0,1.42-.54,1.42,1.42,0,0,0,.78-1.22"/><g id="freepik--character-1--inject-2"><path class="cls-7" d="M358.2,13.07c.57-.15,3.07,20.51,1.76,23.25S349.6,47.07,346.15,47.07s-8.2,5.08-9.21,6.82l-22.68-4.61,5.08-12.51-.62-15.72a17.71,17.71,0,0,1,2.21-9.37c1.75-3.07,4.24-6.34,6.6-5.38,4.3,1.75,4.3,3.07,4.3,3.07s4.07-3.7,5.45.6c0,0,5.29-3.91,7.84,1.17,0,0,5.85-3.52,7.41,4.49l.59,5.47S352.53,14.64,358.2,13.07Z"/><path class="cls-5" d="M339.92,38a9.82,9.82,0,0,1,2.42-2.83,22,22,0,0,1,11.38-5.36l-.33.38c0-2.61-.29-4.85-.33-6.49a8.94,8.94,0,0,1,.13-2.58,12.25,12.25,0,0,1,.36,2.55,59.22,59.22,0,0,1,.61,6.51v.34h-.32a22.17,22.17,0,0,0-3.42.84,24.77,24.77,0,0,0-7.68,4.19C340.87,37,339.92,38.06,339.92,38Z"/><path class="cls-5" d="M326.11,14.79a3.54,3.54,0,0,1,.55,1.24,5.49,5.49,0,0,1,.09,3.79c-.31.83-1.2,1.36-1.38,2.08a2.59,2.59,0,0,0,.74,2.36,3.75,3.75,0,0,0,5.31-.15l.07-.08A5.68,5.68,0,0,0,332.55,21c.09-1.09.11-2.18.11-3.19a46.82,46.82,0,0,0-.32-5.43,9.17,9.17,0,0,0-.88-3.49,9.58,9.58,0,0,0-.83-1c.05-.06.54.13,1.09.86a8.44,8.44,0,0,1,1.19,3.58,42.09,42.09,0,0,1,.49,5.49,30.12,30.12,0,0,1-.08,3.29,6.33,6.33,0,0,1-1.2,3.45,4.48,4.48,0,0,1-6.32.45l-.25-.24a3.22,3.22,0,0,1-.76-3.06,3.13,3.13,0,0,1,.83-1.2,3.35,3.35,0,0,0,.67-.91,5.49,5.49,0,0,0,.11-3.47A6.15,6.15,0,0,1,326.11,14.79Z"/><path class="cls-5" d="M331.48,24.54a4.17,4.17,0,0,0,.52.82,3.34,3.34,0,0,0,2.19,1.19,3.82,3.82,0,0,0,3.3-1.43,7.4,7.4,0,0,0,1.68-4.33,19.19,19.19,0,0,0-1.09-8.72,26.39,26.39,0,0,0-1.54-3.42,8.81,8.81,0,0,1,2,3.22,17.69,17.69,0,0,1,1.37,9A7.94,7.94,0,0,1,338,25.63,4.29,4.29,0,0,1,334,27.16a3.44,3.44,0,0,1-2.37-1.53C331.4,24.94,331.43,24.54,331.48,24.54Z"/><path class="cls-5" d="M338.38,25.07s.22.26.62.65a3.81,3.81,0,0,0,2.09,1,4,4,0,0,0,3.17-.89,6.29,6.29,0,0,0,2.09-3.59c.57-3.07-.4-5.86-.72-7.9a14.26,14.26,0,0,1-.46-3.38,14.84,14.84,0,0,1,1,3.24c.26,1,.6,2.21.86,3.61a11.87,11.87,0,0,1,.09,4.6,6.79,6.79,0,0,1-2.41,4,4.5,4.5,0,0,1-3.73.86,3.72,3.72,0,0,1-2.22-1.31C338.38,25.44,338.28,25.09,338.38,25.07Z"/><path class="cls-5" d="M346.29,24.49a8,8,0,0,1,.3,1,6.45,6.45,0,0,0,1.13,2.38A3.2,3.2,0,0,0,351,29.09,3.45,3.45,0,0,0,353,25.47a52.82,52.82,0,0,0-.79-9,33,33,0,0,1-.63-3.71,13,13,0,0,1,1.19,3.59,39.63,39.63,0,0,1,1,9.08,4.13,4.13,0,0,1-2.68,4.35,3.83,3.83,0,0,1-3.89-1.65,5.86,5.86,0,0,1-1-2.65A2.24,2.24,0,0,1,346.29,24.49Z"/><path class="cls-20" d="M502.45,285.63c3-20.26-4.47-61.6-4.47-61.6l-29.8-8.37-10.33-4c-18.77,7.07-41.64.64-50.34-18.72a2.2,2.2,0,0,1-.2-.88l-16.13-6.25s-19.05-7.15-27.78-14.28-33.63-47-33.63-47l12.58-71.85L316.28,39.8s-38.48,87.73-34.52,103.59S348.37,243,348.37,243l15.82,62.73,16.67,56.35s-7.15,3.18-3.17,14.29,9.08,15.94,4,18.26c-8.26,3.77-2.83,10.4-2.83,10.4l74,9.33a81.7,81.7,0,0,0,22.47-.29L516,408.36S499.49,305.49,502.45,285.63Z"/><path class="cls-21" d="M375.08,262.5a19.24,19.24,0,0,1,0-2.63v-3.08c0-1.21,0-2.56-.08-4.07a98,98,0,0,0-1-10.53,101.09,101.09,0,0,0-2.84-12.63,102.19,102.19,0,0,0-4.54-12.13,103.55,103.55,0,0,0-5-9.38c-.75-1.3-1.52-2.43-2.17-3.45s-1.22-1.87-1.65-2.56a14.64,14.64,0,0,1-1.43-2.21,16.8,16.8,0,0,1,1.65,2c.52.66,1.17,1.49,1.83,2.5s1.5,2.09,2.28,3.4a88.38,88.38,0,0,1,12.63,34.34,87.88,87.88,0,0,1,.86,10.63v4.09a16.81,16.81,0,0,1-.17,3.09A13.62,13.62,0,0,1,375.08,262.5Z"/><path class="cls-21" d="M316.28,129.76a17.21,17.21,0,0,1,6.7-3.84,17.54,17.54,0,0,1,7.6-1.44c0,.26-3.31.78-7.3,2.23S316.43,130,316.28,129.76Z"/></g><g id="freepik--Character--inject-2"><path class="cls-20" d="M532.29,345.52c5.1,1.81,11,2.79,16,.35h0a9.64,9.64,0,0,0,4.22-4.23c14.73-28.11,29.75-84.25,29.75-84.25l-22.95-11.62L528.3,301a1.28,1.28,0,0,1,.07.28,69.58,69.58,0,0,1,.42,13.76c-.2,4-.49,8.06-.39,12.1a47.22,47.22,0,0,0,2.16,12.7C531.24,342.07,531.49,343.35,532.29,345.52Z"/><path class="cls-20" d="M533.24,345.74c-.26-1.82,2.63-2.27,2.47-4.11-.77-9.18-.8-18.61,2-27.47,2.45-7.67,6.16-14.9,7.69-22.84L512,233a17.44,17.44,0,0,0-10.88-8.21l-6.36-1.57c-1.45,17.33-5.63,34.38-5.87,51.82-.15,10.36,1.55,20.65,3.9,30.72A158.54,158.54,0,0,0,502,333.44l-1.52-21C508.2,324.35,519,341.48,533.24,345.74Z"/><path class="cls-21" d="M539.46,281.34c0-.32-.05-.64-.07-1a.46.46,0,0,1-.07.07,22.2,22.2,0,0,0-6.19,15.18,8,8,0,0,0,.48,3.43A29.24,29.24,0,0,1,539.46,281.34Z"/><path class="cls-21" d="M507,356.19c-.13-.83-.24-1.76-.39-2.93-.34-2.72-.78-6.38-1.3-10.83-1-9.3-2.43-21.79-3.9-35.74s-2.72-26.61-3.59-35.76c-.4-4.48-.72-8.12-1-10.86-.09-1.18-.15-2.14-.2-3a3.56,3.56,0,0,1,0-1,4,4,0,0,1,.13,1c.13.86.25,1.78.42,2.95.43,2.68.87,6.35,1.41,10.79,1,9.06,2.43,21.77,3.9,35.74s2.7,26.61,3.57,35.76c.4,4.47.7,8.13.94,10.86"/><path class="cls-22" d="M537.71,202.59c-14-6-41.26,7.49-56.91,7.4-15.06,0-26,.45-40.88-2.45-11-2.2-27.79-10.33-37.24-22l-4.7,8.15c2.69,9.29,9.42,13.48,17.37,18.2,8.28,4.8,37.23,11.66,62.33,11.73,22.05.08,37.49-14.63,54.41-7.62"/><path class="cls-7" d="M580.28,236a93.7,93.7,0,0,0,3.65-9.29l-5.26-18.56L564.39,226s3.54,16.53,4,17.19C568.41,243.14,579.91,236,580.28,236Z"/><path class="cls-23" d="M540.22,190h0a27.72,27.72,0,1,1-15.38,36.05A27.71,27.71,0,0,1,540.22,190Z"/><path class="cls-24" d="M540.22,190h0a27.72,27.72,0,1,1-15.38,36.05A27.71,27.71,0,0,1,540.22,190Z"/><path class="cls-25" d="M538.6,186.84h0a27.72,27.72,0,1,1-15.39,36A27.71,27.71,0,0,1,538.61,186.83Z"/><path class="cls-4" d="M528.05,216.21a21.57,21.57,0,0,1,9.65-21.29,21.92,21.92,0,0,1,11-3.44,20.51,20.51,0,0,1,6.24.67,21,21,0,0,1,6,2.6,21.83,21.83,0,0,1,3.1,34.92,21.61,21.61,0,0,1-32-3.56,16.46,16.46,0,0,1-2.39-4.73,40.66,40.66,0,0,0,2.72,4.47c.37.49.76,1,1.16,1.42A21.13,21.13,0,0,0,563.28,229a19.56,19.56,0,0,0,3.84-4.61,20,20,0,0,0,2.42-5.76,20.77,20.77,0,0,0-9.19-22.84,19.51,19.51,0,0,0-5.74-2.48,20.23,20.23,0,0,0-6-.68,21,21,0,0,0-17.29,10.09,21.56,21.56,0,0,0-2.94,13.61,44.64,44.64,0,0,0,1.13,5.1A16,16,0,0,1,528.05,216.21Z"/><path class="cls-26" d="M551.64,186.54a27,27,0,0,1,9.9,3.11,21.47,21.47,0,0,1,8,6.66,9.77,9.77,0,0,1,1.94,3.84c-.15.08-.91-1.38-2.56-3.36a24,24,0,0,0-7.79-6.22,31.88,31.88,0,0,0-9.47-3.32c-2.55-.37-4.11-.05-4.2-.21A7.73,7.73,0,0,1,551.64,186.54Z"/><path class="cls-26" d="M543.1,186.94c.71-.15,1.4.06,1.41.27s-.47.68-1.2.81-1.26,0-1.39-.28S542.38,187.09,543.1,186.94Z"/><g class="cls-27"><path d="M546.77,204.05l6.49,18-4.19,1.5-5.28-14.68-3.59,1.3L539,206.84Z"/></g><path class="cls-7" d="M561.67,246.91l18.08,9.23,11.3-17.88s7.23-11,6.79-13.47a11.1,11.1,0,0,0-1.78-4.2s2.77-2.58,1.38-5.09a10.82,10.82,0,0,0-4.8-3.89s0-5.51-1.84-6.65-23.24-5.39-23.24-5.39-2.41,4.26.76,5.46l-3.93.61a3.2,3.2,0,0,0-.1.42,3.8,3.8,0,0,0,3.09,4.4l-4.83,1.27s.84,4.48,3.82,5.5l-4.48.86a7.7,7.7,0,0,0,3.38,6.32c3.46,2.12,11.61.66,11.61.66l3.94,5.32S569,238.3,566.16,241.55,561.67,246.91,561.67,246.91Z"/><path class="cls-5" d="M566,217.09a50.25,50.25,0,0,1,9.57-1.84,15.54,15.54,0,0,1,5.42.64,33.85,33.85,0,0,1,4.06,1.65c2.24,1,3.69,1.4,3.67,1.55s-1.6,0-4-.86c-1.28-.47-2.53-.95-4.07-1.39a16.48,16.48,0,0,0-5.09-.5,75.08,75.08,0,0,0-9.44,1.5,10.91,10.91,0,0,1-4,.33A23.42,23.42,0,0,1,566,217.09Z"/><path class="cls-5" d="M581,230.43l-.16.84a26.25,26.25,0,0,1-2.14-2.45,27.88,27.88,0,0,1-2.5-3.79l.65.21a13.07,13.07,0,0,1-5.34.64c-1.28-.1-2-.29-2-.41s.76-.11,2-.2a15.38,15.38,0,0,0,4.88-1l.4-.21.2.39a32.08,32.08,0,0,0,2.47,3.62c.64.8,1.39,1.68,2.06,2.41l.5.54-.65.32c-4.32,2-7.16,4.26-7.28,4A18.44,18.44,0,0,1,581,230.43Z"/><path class="cls-5" d="M583.9,211.67l-3.93-1a10.89,10.89,0,0,0-2.25-.49,15.92,15.92,0,0,0-2.49,0c-3.45.28-6.6,1-8.88,1.32a11.56,11.56,0,0,1-3.75.35,15.16,15.16,0,0,1,3.6-1.11,53.62,53.62,0,0,1,9-1.64,14.76,14.76,0,0,1,2.66,0,10.57,10.57,0,0,1,2.42.59l3.89,1.25a13.1,13.1,0,0,1,3.43,1.32A13.1,13.1,0,0,1,583.9,211.67Z"/><path class="cls-5" d="M584.63,206.6l-3.76-.76-2.22-.48-1.16-.28-.6-.11-.53,0c-3.21.08-6.19.45-8.43.62a14,14,0,0,1-3.54.09,11.17,11.17,0,0,1,3.46-.84,64.46,64.46,0,0,1,8.55-1,3.33,3.33,0,0,1,.7.07l.61.13,1.16.28,2.21.56,3.7,1c2.11.59,3.41,1,3.37,1.19A12.27,12.27,0,0,1,584.63,206.6Z"/></g><path class="cls-24" d="M553.85,211.3a.29.29,0,0,1-.24,0,.26.26,0,0,1-.15-.19l-.32-1.84-1.43.48a.33.33,0,0,1-.26,0,.32.32,0,0,1-.16-.2l-.17-.5a.39.39,0,0,1,0-.26.35.35,0,0,1,.21-.16l1.6-.54-.47-2.66-1.6.53a.33.33,0,0,1-.26,0,.34.34,0,0,1-.17-.2l-.16-.49a.33.33,0,0,1,0-.26.31.31,0,0,1,.2-.17l1.78-.59-.32-1.83a.52.52,0,0,1,0-.25.26.26,0,0,1,.18-.16l.54-.18a.29.29,0,0,1,.39.21l.32,1.83,2.14-.71-.32-1.84a.5.5,0,0,1,0-.24.3.3,0,0,1,.18-.17l.54-.17a.31.31,0,0,1,.25,0,.28.28,0,0,1,.14.19l.32,1.84,1.4-.47a.36.36,0,0,1,.27,0,.34.34,0,0,1,.17.2l.16.49a.29.29,0,0,1,0,.26.36.36,0,0,1-.21.17l-1.56.52.47,2.67,1.56-.52a.36.36,0,0,1,.27,0,.29.29,0,0,1,.17.2l.16.49a.29.29,0,0,1,0,.26.33.33,0,0,1-.21.17l-1.73.57.32,1.84a.32.32,0,0,1-.23.41l-.53.18a.36.36,0,0,1-.25,0,.28.28,0,0,1-.15-.2l-.32-1.83-2.12.71.32,1.83a.33.33,0,0,1-.23.42Zm.25-3.61,2.12-.71-.47-2.66-2.12.7Z"/><path class="cls-28" d="M359.63,278a16,16,0,0,0-2.18,3.66,45.7,45.7,0,0,0-4.68,19.91,16.46,16.46,0,0,0,.33,4.26,28.2,28.2,0,0,0,.21-4.24,57.76,57.76,0,0,1,1.42-10.06,59.32,59.32,0,0,1,3.2-9.65A39.3,39.3,0,0,0,359.63,278Z"/><path class="cls-6" d="M351.15,262.09l-21.8-6.95-5.8-1.45-.44-.28a3.79,3.79,0,0,0-.05,1.05l.06.56a19.77,19.77,0,0,1-15.92,9.31,48.22,48.22,0,0,1-6.75-.23c-7.36-.77-12.76-4.58-16.78-10.79l0-2.43-14,3.37L240,262.78l8.16,110.06-2.76,5.63a437.22,437.22,0,0,0-23.91,88.95c-5.17,32.83,2.45,103.18,8.33,147.87a288.71,288.71,0,0,0,89.25,14.07,292,292,0,0,0,29.88-1.53c.1-1.71.21-3.43.31-5.15.18-3.11,1.14-17.39,1.3-20.5.95-18.74,3.24-26.08,3.49-44.84.39-28.45,1.68-49.13.24-77.56-.79-15.45-2.8-38.91-4.89-54.23-1.07-7.82-2.29-15.62-3.6-23.41-1.17-6.89-3.25-13.82-1.9-20.82a228.2,228.2,0,0,0,3.87-31.08c7.14-8.79,8.36-16.47,8.46-18.89a109.83,109.83,0,0,0-1.94-22.64C349.11,285.35,351.15,262.09,351.15,262.09Z"/><path class="cls-7" d="M322.42,250.92c-.34-1.25.58-14.35.58-14.35l-19.54,2.13-19.27-3.83s-.25,14.51-.69,15.72S271.62,254,271.62,254s5.36,13,30.56,14.12,32.29-11.38,32.29-11.38S322.75,252.17,322.42,250.92Z"/><path class="cls-5" d="M284.2,235.64c.3.25,2.41,3.31,2.73,3.56,7.72,6,8.84,7.58,15.71,8.16,6.89,0,9.89-.79,17.6-7.37,2.59-2.22,2.08-3,2.64-3.43C310.52,236,296.59,236.09,284.2,235.64Z"/><path class="cls-7" d="M273.37,196.29s-3.48-5.87-5.6-5.73c-1.29.08,1.56,3.1,1.78,6.39.3,4.39-3,4.82-2.05,7.34s1.85,11.22,5.27,11c1.36-.09,2.87-3,2.87-3S274.3,200.24,273.37,196.29Z"/><path class="cls-29" d="M271.51,212.36a3.27,3.27,0,0,0-3.12,2.68,2.77,2.77,0,0,0,.48,1.93,2.39,2.39,0,0,0,1.22.92,3.52,3.52,0,0,0,3.14-.32c.17-.11.28-.34.08-.47a.75.75,0,0,0-.74.08,2,2,0,0,1-1.82.1,2.91,2.91,0,0,1-.49-.26l-.09-.06c.06,0-.06-.07-.08-.09s-.11-.13-.17-.2a2.36,2.36,0,0,1,0-2.92l.16-.17s.13-.12.11-.11l.21-.15.12-.07a2,2,0,0,1,.86-.23c.2,0,.55-.14.58-.38s-.29-.29-.46-.28Z"/><path class="cls-7" d="M335.36,198.82s3.39-5.92,5.51-5.81c1.29.06-1.51,3.12-1.69,6.41-.24,4.4,3,4.78,2.16,7.32s-1.7,11.24-5.12,11.07c-1.36-.07-2.91-3-2.91-3S334.48,202.79,335.36,198.82Z"/><path class="cls-7" d="M339.79,202.6v0c-.93,3.8-2,7.79-2.88,12.38-2.23,12.12-6.1,17.56-14.62,22.59-8.93,5.26-11.63,7.35-19.13,7.3-7.49-.6-10-2.92-18.43-8.94-8-5.75-11.43-11.51-12.59-23.78-.26-2.73-.63-5.26-1-7.67-.28-1.79-.56-3.51-.82-5.19,0,0,0-.05,0-.07v0c-.93-6.17-1.4-11.85.53-18.6,2-7,8.22-15.48,17.33-20.62h0a35.15,35.15,0,0,1,18.89-4.57c19.24.84,31.71,16.92,33.91,28.26C342.33,190.71,341.3,196.41,339.79,202.6Z"/><path d="M306.86,217a3.35,3.35,0,0,1-3.54-.33c-.21-.17-1,0-.67.21a4.73,4.73,0,0,0,4.82.36c.13-.08.12-.2,0-.27a.75.75,0,0,0-.57,0"/><path d="M302.16,216.54a7.62,7.62,0,0,0-2.58-.76.65.65,0,0,0-.41.11c-.07.06-.09.15,0,.21a2.81,2.81,0,0,0,1.42.39.52.52,0,0,0,.45-.15c.08-.12-.06-.2-.18-.21a2.24,2.24,0,0,1-1.14-.31l-.41.32a6.74,6.74,0,0,1,2.3.69.58.58,0,0,0,.48,0c.1-.06.21-.18.07-.26"/><path d="M298.62,216.5a2.91,2.91,0,0,1-2.32-1.38,2.62,2.62,0,0,1,1.21-3.31c.13-.08.07-.19-.05-.23a.63.63,0,0,0-.48.1,3.09,3.09,0,0,0-1.58,2.79,2.63,2.63,0,0,0,2,2.17,4.61,4.61,0,0,0,1,.2c.13,0,.38,0,.45-.15s-.05-.18-.17-.19"/><path d="M307.93,216.79a7.56,7.56,0,0,1,2.63-.53.6.6,0,0,1,.39.14c.08.07.09.17,0,.22a2.87,2.87,0,0,1-1.45.26.56.56,0,0,1-.43-.19c-.08-.12.08-.2.19-.19a2.21,2.21,0,0,0,1.17-.22l.38.36a6.77,6.77,0,0,0-2.36.49.56.56,0,0,1-.47-.08c-.09-.06-.19-.19,0-.26"/><path d="M311.46,217.06a2.89,2.89,0,0,0,2.42-1.17,2.62,2.62,0,0,0-.91-3.41c-.12-.09-.05-.19.07-.22a.66.66,0,0,1,.47.14,3.06,3.06,0,0,1,1.32,2.92,2.6,2.6,0,0,1-2.14,2,3.68,3.68,0,0,1-1,.12c-.13,0-.37-.06-.43-.19s.06-.17.19-.17"/><path class="cls-30" d="M314.66,190.17c0,.7-.05,1.39-.07,2.09,0,.53,0,1.06,0,1.59,1.94-.37,3.6-.6,4.86-.74a17.54,17.54,0,0,1,5.52-.15,15.47,15.47,0,0,1,3.46,1.15,10,10,0,0,1,1.81,1c1.26.92,1.75,1.91,2,1.83s-.09-.93-.12-1a8.25,8.25,0,0,0-2.62-3.63,10.85,10.85,0,0,0-3.5-1.64,40.56,40.56,0,0,0-11.26-.45"/><path class="cls-30" d="M321,198.83a2.38,2.38,0,0,1,2.52.57,2.2,2.2,0,0,1,.64,1.1,2.34,2.34,0,0,1-.65,2.11,2.18,2.18,0,0,1-2.52.33,2.4,2.4,0,0,1-1.06-2.85,2.17,2.17,0,0,1,1.07-1.26"/><path class="cls-30" d="M313.76,201.78s4.9-3.25,7.34-3.37c3.55-.17,7.84,1.84,9,3.52,0,0-5.66-3-8.16-2.78S313.76,201.78,313.76,201.78Z"/><path class="cls-30" d="M297.55,189.5c0,.69-.07,1.39-.11,2.08l-.09,1.59c-1.91-.54-3.54-.91-4.78-1.16a17.74,17.74,0,0,0-5.49-.63,15.72,15.72,0,0,0-3.54.85,9.6,9.6,0,0,0-1.89.81c-1.33.8-1.91,1.75-2.12,1.65s.17-.92.21-1a8.19,8.19,0,0,1,2.93-3.39,10.8,10.8,0,0,1,3.62-1.33,40.83,40.83,0,0,1,11.26.54"/><path class="cls-30" d="M290.51,197.58a2.36,2.36,0,0,0-2.57.35,2.28,2.28,0,0,0-.73,1,2.37,2.37,0,0,0,.46,2.16,2.19,2.19,0,0,0,2.49.55,2.41,2.41,0,0,0,1.31-2.75,2.18,2.18,0,0,0-1-1.34"/><path class="cls-30" d="M297.44,201.14s-4.6-3.66-7-4c-3.53-.48-8,1.14-9.3,2.71,0,0,5.9-2.46,8.37-2.05S297.44,201.14,297.44,201.14Z"/><path class="cls-31" d="M265.87,167.14a70,70,0,0,1,36.34-3.58c20.17,3.45,29.35,16.69,32.38,26a65.46,65.46,0,0,1,3,18.5s4.87,2.74,9.3-15.66c6.46-26.82-22.09-52-28.66-52.27S276.61,137.29,265.87,167.14Z"/><path class="cls-31" d="M269.85,159.4s-2.47-21.47,12.41-24.83,46.13-9.16,54.32,10.71Z"/><path class="cls-12" d="M267.18,203.18a12.84,12.84,0,0,1-3-5.68c-1.39-5.83-3.73-17.86-.87-23,1.24-2.25,2-9.09,2.2-11.1,1-10.54-1.62-7.42,13.75-18.76s17.79-7.93,40-5.53,28.28,9.89,25.65,30.68c0,0-29.6-9.93-44.07-2.9s-30.77,31-30.13,39.89C270.74,207,268.8,205,267.18,203.18Z"/><path class="cls-31" d="M262.11,185.06s23.93-28,50.44-27.09c0,0-33.73-5.9-49.84,17.93Z"/><path class="cls-31" d="M345.15,160.11s-25.77-10.67-35.78-11.93,31.7,2.16,35.51,6.89Z"/><ellipse class="cls-26" cx="304.65" cy="225.73" rx="1.85" ry="8.82" transform="translate(65.85 520.25) rotate(-87.5)"/><path class="cls-29" d="M337.63,216.28a2.29,2.29,0,0,1,2.22,1.95,2.18,2.18,0,0,1-.32,1.51,2.06,2.06,0,0,1-.35.43l-.06,0c-.1.07,0,0,0,0l-.29.16-.09,0-.07,0-.06,0-.13,0a1.86,1.86,0,0,1-.45.08,2.14,2.14,0,0,1-1.2-.31.67.67,0,0,0-.75.06c-.16.12-.27.42,0,.56a3.31,3.31,0,0,0,2.78.32,3,3,0,0,0,1.37-.84,2.92,2.92,0,0,0,0-3.84,3.19,3.19,0,0,0-2.24-1,.65.65,0,0,0-.67.32.35.35,0,0,0,.32.47Z"/><path class="cls-16" d="M304.93,223.92c-5.07-.23-13.25-1.16-13.25-1.16s1.1,9.81,12.85,10.33,13.7-9.17,13.7-9.17S310,224.14,304.93,223.92Z"/><path class="cls-17" d="M305,223.92c-2.41-.11-12.1-.93-12.1-.93s3,5.32,11.69,5.7c9.45.41,12.44-4.57,12.44-4.57Z"/><path class="cls-18" d="M305.07,224.27c-2.41-.1-9.72-.82-9.72-.82s2.52,2.68,9.75,3,9.63-2.08,9.63-2.08Z"/><path class="cls-16" d="M318.79,223.22a19.06,19.06,0,0,1-2.87.17c-2-.26-4.37-.87-5.81-1-2.46-.3-4.07.58-5.14.53s-2.59-1.06-5.07-1c-1.45,0-3.88.45-5.88.53a18.83,18.83,0,0,1-2.84-.42c-.36.07.22,2.64,13.69,3.23S319.14,223.32,318.79,223.22Z"/><path class="cls-6" d="M245.39,303.48s-7.09,19.11-5.2,28.25,13.15,20.43,13.15,20.43S257.16,313.65,245.39,303.48Z"/><path class="cls-7" d="M183.68,193.38,180.57,182s1.17-15,.38-17-3-11.74-3-11.74l-12-9.28a3.58,3.58,0,0,0-3,2.68s-4.6.43-5,3.72a2.63,2.63,0,0,0-3.31,1.7,2.57,2.57,0,0,0-.11,1.1,12.58,12.58,0,0,0,.27,2.94c-.61.27-4.19,1.88-3.88,3.75a29.48,29.48,0,0,0,3.14,8.1,3.19,3.19,0,0,0,2.65,1.47h0l2.05,4.87s2.54,8.15,5.15,11.7l1.83,2,2.53,11.22A28.93,28.93,0,0,0,183.68,193.38Z"/><path class="cls-32" d="M161.4,154.11a20.21,20.21,0,0,1,1.7-8l4.24,1.69a24.39,24.39,0,0,1-.84,4.06,5,5,0,0,1-2.63,3.63,1.82,1.82,0,0,1-2.34-.42A2.27,2.27,0,0,1,161.4,154.11Z"/><path class="cls-33" d="M167.34,147.84a2.06,2.06,0,0,1,0,.82,16.07,16.07,0,0,1-.45,2.17c-.11.47-.21.95-.33,1.51a5.8,5.8,0,0,1-.7,1.64,4.46,4.46,0,0,1-1.35,1.45,2.7,2.7,0,0,1-2.08.46,1.5,1.5,0,0,1-.94-.67,2.17,2.17,0,0,1-.21-1.06,12.8,12.8,0,0,1,.08-2A18.52,18.52,0,0,1,162,149c.27-.9.56-1.53.74-2.09a7,7,0,0,1,.35-.73,3.48,3.48,0,0,1-.22.78c-.17.49-.41,1.21-.66,2.1a22.83,22.83,0,0,0-.59,3.18,15.25,15.25,0,0,0-.07,1.91,1.84,1.84,0,0,0,.19.92,1,1,0,0,0,.73.51,2.34,2.34,0,0,0,1.83-.41,4.2,4.2,0,0,0,1.28-1.34,5.47,5.47,0,0,0,.69-1.54c.15-.52.25-1,.38-1.52.24-.9.44-1.62.53-2.13S167.33,147.85,167.34,147.84Z"/><path class="cls-33" d="M162.51,155.75a.53.53,0,0,1,0,.22,3.47,3.47,0,0,1,.06.64,5.61,5.61,0,0,1-.19,2.41,7.39,7.39,0,0,1-1.8,3.14,2.72,2.72,0,0,1-2,.84,2,2,0,0,1-1.12-.42,1.86,1.86,0,0,1-.6-1.07,10.23,10.23,0,0,1,0-2.28c0-.73.09-1.5.16-2.1.16-1.32.31-2.5.42-3.52s.19-1.83.22-2.38a5.27,5.27,0,0,1,.1-.89,4.37,4.37,0,0,1,.08.88,18.12,18.12,0,0,1-.13,2.41c-.09,1-.21,2.21-.34,3.53-.06.66-.11,1.36-.15,2.08a10.22,10.22,0,0,0,0,2.21,1.66,1.66,0,0,0,.5.89,1.55,1.55,0,0,0,.92.34,2.44,2.44,0,0,0,1.78-.74,7.71,7.71,0,0,0,1.79-2.95,6.75,6.75,0,0,0,.28-2.32C162.5,156.36,162.5,156.05,162.51,155.75Z"/><path class="cls-33" d="M161.17,161.54c.05.08.1.16.14.24a4.55,4.55,0,0,1,.3.72,8.69,8.69,0,0,1,.53,2.81,6.28,6.28,0,0,1-1.11,4.07,3.37,3.37,0,0,1-2.12,1.38,1.82,1.82,0,0,1-1.38-.31,2.57,2.57,0,0,1-.78-1.21,34.14,34.14,0,0,1-.87-5.13l-.39-4.21a22.28,22.28,0,0,0-.36-2.81A7.46,7.46,0,0,1,155,156l0,.27c0,.17.12.42.18.75.15.66.31,1.62.47,2.82s.32,2.63.52,4.19a38.16,38.16,0,0,0,.89,5.07,2.17,2.17,0,0,0,.66,1.05,1.49,1.49,0,0,0,1.14.26,3.18,3.18,0,0,0,1.88-1.26,6.22,6.22,0,0,0,1.13-3.87A11.93,11.93,0,0,0,161.17,161.54Z"/><path class="cls-34" d="M229.09,95l-.45-.69-.33.75a3.51,3.51,0,0,1-1.25,1.45l-.69.43.75.35a3.32,3.32,0,0,1,1.45,1.25l.43.68.35-.74A3.32,3.32,0,0,1,230.6,97l.67-.45-.73-.33A3.51,3.51,0,0,1,229.09,95Z"/><path class="cls-34" d="M250.29,86l-.25-.39-.2.42a2,2,0,0,1-.72.85l-.41.26.44.19a1.87,1.87,0,0,1,.83.72l.27.41.2-.43a1.92,1.92,0,0,1,.72-.85l.39-.26-.42-.19A2.07,2.07,0,0,1,250.29,86Z"/><path class="cls-34" d="M256.49,140.81l-.25-.39-.2.42a2,2,0,0,1-.72.85l-.39.25.42.2a2,2,0,0,1,.85.73l.25.4.2-.44a1.87,1.87,0,0,1,.72-.83l.41-.27-.44-.2A2,2,0,0,1,256.49,140.81Z"/><path class="cls-34" d="M140.15,113.69l-.45-.7-.33.75a3.43,3.43,0,0,1-1.26,1.46l-.68.44.73.33a3.38,3.38,0,0,1,1.47,1.25l.43.68.35-.73a3.33,3.33,0,0,1,1.25-1.45l.68-.45-.74-.33A3.65,3.65,0,0,1,140.15,113.69Z"/><path class="cls-34" d="M140.4,86l-.74-1.15-.57,1.26A5.84,5.84,0,0,1,137,88.53l-1.15.74,1.25.57A5.61,5.61,0,0,1,139.52,92l.74,1.15.56-1.26a5.72,5.72,0,0,1,2.11-2.43l1.16-.66-1.25-.57A5.62,5.62,0,0,1,140.4,86Z"/><path class="cls-34" d="M232.45,71.38l-.74-1.15-.56,1.26A5.78,5.78,0,0,1,229,73.92l-1.15.74,1.25.57a5.59,5.59,0,0,1,2.43,2.11l.74,1.15.57-1.26A5.78,5.78,0,0,1,235,74.8l1.15-.74-1.24-.57A5.7,5.7,0,0,1,232.45,71.38Z"/><path class="cls-34" d="M218.7,177.54l.17-1.21-1.1.51a5.32,5.32,0,0,1-2.79.37l-1.2-.17.5,1.1a5.14,5.14,0,0,1,.4,2.84l-.18,1.21,1.11-.51a5.19,5.19,0,0,1,2.73-.32l1.2.18-.5-1.11A5.12,5.12,0,0,1,218.7,177.54Z"/><path class="cls-6" d="M183.89,179l15.32,62.41L271.62,254c-.05,2.5-20.43,16-20.52,18.5-.38,10.91-1.3,21.87-4.46,32.37-.69,2.31,1.85,11.95.94,14.17-1.51-4.1-5.87-14.21-5.87-14.21s-9.86-12.89-63.48-40.66c-10.13-5.24-16.29-75.8-17.21-76.56S183.89,179,183.89,179Z"/><path class="cls-28" d="M228.41,279.73A36.1,36.1,0,0,0,231,283a70,70,0,0,1,5.76,8.25,67.35,67.35,0,0,1,4.46,9,36.38,36.38,0,0,0,1.6,3.88,15.91,15.91,0,0,0-1.09-4.07,52.89,52.89,0,0,0-10.3-17.42A17.21,17.21,0,0,0,228.41,279.73Z"/><path class="cls-25" d="M230.38,133.16c2.47,2,5,4,7.43,6.15a9.47,9.47,0,0,1,3.43,7.25,10.32,10.32,0,0,1-3.59,7.48c-6.47,6.54-14.77,12.46-24.22,13.06A25.26,25.26,0,0,1,195.85,161c-2-1.64.57-4.77,2.59-3.12a21.18,21.18,0,0,0,13.2,5.26,24.71,24.71,0,0,0,11.84-3.21,46.66,46.66,0,0,0,9.56-7,13.78,13.78,0,0,0,3.82-4.43,5.35,5.35,0,0,0-1.63-6c-2.42-2.12-4.95-4.11-7.43-6.16a2,2,0,0,1,2.58-3.12Z"/><path class="cls-25" d="M180.79,96.92c-2.33-1.92-4.65-3.86-7-5.78A5.77,5.77,0,0,0,169,89.59c-2.35.44-3.54,2.33-4.75,4.16-4.32,6.51-8,14.51-7,22.5a20.91,20.91,0,0,0,7.88,13.54c2,1.69-.59,4.81-2.58,3.21a25.57,25.57,0,0,1-9-14.2,28.72,28.72,0,0,1,1.13-14.65,51.62,51.62,0,0,1,6-12.29,13.51,13.51,0,0,1,5.34-5.49,9.33,9.33,0,0,1,8.62.46,75.32,75.32,0,0,1,8.7,7,2,2,0,0,1-2.58,3.06Z"/><path class="cls-25" d="M162.75,158.32l4.67,2.34h0l.09.11h.12l3.24,4.26s-6,8.38-7.73,16.6l-7.58-6.27-.21-.17-7.59-6.27C155.58,165.77,162.75,158.32,162.75,158.32Z"/><rect class="cls-25" x="165.06" y="149.04" width="6.78" height="21.26" rx="3.34" transform="translate(-61.96 187.64) rotate(-50.39)"/><path class="cls-25" d="M186.18,84.53l26.32,21.79,1.4,1.15L238.76,128c-.26.68-40.49,54.57-68.79,29.67h0C140.14,134.52,185.61,84.94,186.18,84.53Z"/><path class="cls-25" d="M165.48,179.76l-16.84-13.94a10.35,10.35,0,0,0-14.57,1.37l-.1.13h0l32.8,27.15h0l.11-.13a10.33,10.33,0,0,0-1.38-14.56Z"/><rect class="cls-35" x="128.49" y="162.39" width="27.52" height="57.19" transform="translate(-95.57 178.8) rotate(-50.39)"/><rect class="cls-24" x="135.84" y="170.36" width="13.5" height="40.47" transform="translate(-95.16 178.91) rotate(-50.39)"/><path class="cls-4" d="M160.05,157.09s2.61,2.27,5.89,5,5.94,4.9,6,4.85-2.64-2.22-5.86-4.93S160.08,157.09,160.05,157.09Z"/><path class="cls-4" d="M164.11,151.69s2.81,2.44,6.35,5.35,6.43,5.34,6.42,5.24-2.81-2.44-6.35-5.35S164.15,151.66,164.11,151.69Z"/><path class="cls-4" d="M148.78,165.77s3.5,3,7.88,6.69,8,6.47,8,6.47-3.49-3-7.88-6.69S148.8,165.74,148.78,165.77Z"/><path class="cls-10" d="M186.18,84.53l0,.16.29.43,1.14,1.66.82,1.2,1,1.39c.75,1,1.55,2.16,2.54,3.36.49.61,1,1.24,1.53,1.92s1.12,1.38,1.67,2l.92,1c.15.18.3.38.46.56l.48.53,2.05,2.21a125.52,125.52,0,0,0,9.77,9.25,129.62,129.62,0,0,0,10.74,8.06l2.53,1.63.61.39.62.37,1.24.66c.8.46,1.58.94,2.29,1.27l2.16,1.16c1.36.77,2.63,1.36,3.74,1.93l1.55.76,1.34.59,1.82.81.48.2.17.08-.15-.09-.48-.22-1.82-.84-1.32-.61c-.48-.22-1-.5-1.55-.77-1.11-.57-2.38-1.16-3.75-1.94L227,122.54l-2.27-1.28-1.2-.72-.63-.35-.6-.41-2.52-1.63A129.31,129.31,0,0,1,209,110.09a130.55,130.55,0,0,1-9.76-9.2l-2-2.19-.5-.54-.47-.55-.91-1.06c-.6-.68-1.2-1.37-1.67-2l-1.55-1.92c-1-1.2-1.8-2.34-2.55-3.32-.37-.5-.73-1-1-1.39s-.59-.84-.84-1.18l-1.16-1.65-.31-.43Z"/><polygon class="cls-24" points="201.22 119.07 191.62 123.36 182.65 117.89 183.77 128.34 175.8 135.18 186.08 137.34 190.13 147.03 195.35 137.92 205.83 137.08 198.78 129.29 201.22 119.07"/><path class="cls-10" d="M186.18,84.53l-.13.14-.39.43c-.34.37-.84.9-1.47,1.62-1.26,1.42-3.06,3.52-5.15,6.21s-4.52,5.95-6.95,9.76a97.18,97.18,0,0,0-7,12.87,63.41,63.41,0,0,0-4.51,13.94,40.3,40.3,0,0,0-.7,6.38l0,.74.07.72.07.72.06.7.25,2.67a26.16,26.16,0,0,0,2.46,7.67c.43.85.8,1.5,1.06,1.92l.31.49.11.16-.09-.17a1.93,1.93,0,0,0-.3-.49c-.25-.44-.61-1.08-1-1.93a25.92,25.92,0,0,1-2.39-7.67,26.37,26.37,0,0,1-.25-2.65l-.06-.71-.07-.7-.06-.73,0-.74a42.43,42.43,0,0,1,.72-6.35,63,63,0,0,1,4.49-13.9,101.07,101.07,0,0,1,7-12.85c2.42-3.8,4.83-7.09,6.91-9.79a73.83,73.83,0,0,1,5.17-6.22c.61-.73,1.11-1.28,1.45-1.62l.38-.42Z"/><path class="cls-26" d="M181.85,160.49l.14.08.42.23a11.74,11.74,0,0,0,1.71.64,12.45,12.45,0,0,0,2.84.39,17.54,17.54,0,0,0,3.82-.36,28.47,28.47,0,0,0,4.43-1.3l2.39-.93,2.5-1.14a69.48,69.48,0,0,0,10.4-6.26,103.28,103.28,0,0,0,9.39-7.7c2.74-2.52,5.14-4.93,7.12-6.93s3.53-3.68,4.61-4.88l1.24-1.33.31-.34a.69.69,0,0,0,.11-.13l-.11.11-.34.33-1.26,1.32c-1.09,1.14-2.71,2.79-4.66,4.8s-4.37,4.37-7.12,6.88a105,105,0,0,1-9.4,7.69A71.72,71.72,0,0,1,200,157.91c-.86.38-1.66.78-2.48,1.14l-2.39.95a29.27,29.27,0,0,1-4.4,1.31,18.58,18.58,0,0,1-3.79.36,13.72,13.72,0,0,1-2.84-.36,11.53,11.53,0,0,1-1.7-.62l-.42-.21Z"/><path class="cls-26" d="M175.44,162.87a1.85,1.85,0,0,1-.06,2.29,4.36,4.36,0,0,1-1.38,1.11l-.65.37a2,2,0,0,0,.71-.26,3.79,3.79,0,0,0,1.38-1.1,2.12,2.12,0,0,0,.34-1.79,1.15,1.15,0,0,0-.27-.48A.13.13,0,0,0,175.44,162.87Z"/><path class="cls-26" d="M163.74,179.79a3.33,3.33,0,0,0,.39.36,11.92,11.92,0,0,1,1,1,10.46,10.46,0,0,1,2.19,4.12,10.67,10.67,0,0,1,.2,4.67c-.11.59-.25,1.06-.33,1.38l-.17.51.07-.13c.06-.12.1-.2.16-.35a11.5,11.5,0,0,0,.39-1.39,10.27,10.27,0,0,0-.15-4.74,9.9,9.9,0,0,0-3.31-5.14,2.43,2.43,0,0,0-.32-.24Z"/><path class="cls-7" d="M178.61,165l-13.54-10.7a6.64,6.64,0,0,0-.09,7.34,19.36,19.36,0,0,0,5.47,5.5c-4.51,2.9-7.29,11.07-2.5,16.71"/><path class="cls-33" d="M166.38,181.32a.65.65,0,0,0-.13-.27,3.65,3.65,0,0,1-.35-.83,10.63,10.63,0,0,1-.57-3.25,12,12,0,0,1,1-5,11.24,11.24,0,0,1,4.1-5l0,.25a35.77,35.77,0,0,1-3.21-2.67,11.76,11.76,0,0,1-2.76-3.47,7.75,7.75,0,0,1-.77-3.64,5.54,5.54,0,0,1,1.17-3.32l.1-.12.11.09,9.63,7.74,2.78,2.27.73.6.25.23s-.1,0-.29-.18l-.76-.57-2.83-2.2-9.76-7.65.23,0a5.31,5.31,0,0,0-1.11,3.08,7.68,7.68,0,0,0,.74,3.5,11.5,11.5,0,0,0,2.59,3.4,36.13,36.13,0,0,0,3.12,2.68l.16.12-.18.12a11.06,11.06,0,0,0-4,4.82,12.07,12.07,0,0,0-1,4.88,11.11,11.11,0,0,0,.49,3.24C166.21,180.92,166.38,181.31,166.38,181.32Z"/><path class="cls-28" d="M306.43,346s-5.71-3.9-10.05-3.9a37.63,37.63,0,0,0-10,1.95s7.82-.87,11.08,0S306.43,346,306.43,346Z"/><path class="cls-8" d="M424.15,191a3.88,3.88,0,0,0,1.79.6l.7.22c2.07,0,4.14,0,6.2-.14a4.39,4.39,0,0,0,1.51-.26l.14-.07c1.53,0,3.06.08,4.59.07l.7-.19a4.23,4.23,0,0,0,1.79-.52.6.6,0,0,0-.15-1.12c-.62-.2-1.55.14-2-.21s.42-1,.14-1.44c-.18-.29-.73-.38-1.09-.59s-.58-.65-1-.91a2.14,2.14,0,0,0-1.62-.21c-.58,0-1.36.2-1.54-.2a.62.62,0,0,1,0-.33,1.16,1.16,0,0,0-.88-1.06,1.86,1.86,0,0,0-1.63.24c-.41.3-.55.77-1,1a3.29,3.29,0,0,1-.46.23,1.37,1.37,0,0,0-.54-.31,1.89,1.89,0,0,0-1.63.23c-.4.31-.54.77-1,1.06s-.92.34-1.1.67c-.28.54.62,1.21.15,1.66s-1.36,0-2,.24A.73.73,0,0,0,424.15,191Z"/><path d="M401.28,176.91a11.2,11.2,0,0,1,2.15,4.86c.65-.46,1.51.2,1.92.88s.83,1.54,1.62,1.62c.47,0,1-.19,1.37.09s.24.93.37,1.41c.41,1.54,3.26,1,3.78,2.53.16.45,0,1,.3,1.41.68,1,2.64-.15,3.43.8.31.38.28,1,.62,1.3.65.67,1.91-.09,2.7.41.55.36.62,1.2,1.17,1.58.7.49,1.74-.08,2.51.31s1,1.87,2,1.92c.72,0,1.19-.81,1.9-1,1.27-.29,2.25,1.75,3.52,1.39.44-.12.75-.51,1.18-.67,1.08-.38,2.2.9,3.31.6.76-.21,1.26-1.13,2.06-1.11.44,0,.81.31,1.24.43,0,0,1.49.86,2.2-.2l.7-1.06a3.94,3.94,0,0,0,2.07.08c.88-.3,1.76-1.9,1.76-1.9s2.19-.17,2.58-.77,1.05-1.49,1.05-1.49a6.4,6.4,0,0,0,2.21-.48,3.84,3.84,0,0,0,1-1.67s2.29,0,2.69-.6a7.68,7.68,0,0,0,.69-1.78,2.66,2.66,0,0,0,2.07,0c1-.5,1.43-2.71,1.43-2.71a8.51,8.51,0,0,0,1.83-.55c.5-.3,1.23-2.22,1.23-2.22s3.06-1.14,2.34-1.63,0-4.32,0-4.32-2,3.33-2.95,4-2.5.17-2.81,1-1.94,1.79-1.94,1.79a3.38,3.38,0,0,0-2.29,1.27,10.31,10.31,0,0,0-1.6,2.07s-.08-1.87-1.67-.29a11.12,11.12,0,0,1-2.38,2s-1.84-1.08-2.24-.1a9.44,9.44,0,0,1-1.9,2.37s-1.19-1.48-2.18-.39a9.36,9.36,0,0,1-2.38,1.79l-14.42-.09a1.44,1.44,0,0,0-1.08-.51c-.69,0-2.2-.08-2.2-.08s-.3-2-1.11-1.6a3.33,3.33,0,0,1-2,0,6.11,6.11,0,0,0-1.27-1.17c-.65-.41-1.8-1-1.8-1s.36-1.86-.79-1.6a3.32,3.32,0,0,1-2.23-.39s-.06-1.67-.93-1.39a10.63,10.63,0,0,1-2,.4,13.25,13.25,0,0,0-1.19-1.5l-1-.58s-1.28-2.44-1.88-2.45-1.58,0-1.58,0-1.08-2.74-1.77-2.34-1.45-2.52-1.45-2.52A3.72,3.72,0,0,0,401.28,176.91Z"/><path class="cls-16" d="M111.09,301.23c-3.74,1.08-9.93,2.38-9.93,2.38s3.36,7.36,12,4.86,7.58-10.53,7.58-10.53S114.83,300.15,111.09,301.23Z"/><path class="cls-17" d="M111.13,301.22c-1.78.51-9,2.27-9,2.27s3.55,3.4,10,1.54c7-2,7.86-6.63,7.86-6.63Z"/><path class="cls-18" d="M111.29,301.47c-1.78.52-7.28,1.77-7.28,1.77s2.53,1.46,7.86-.08,6.46-4,6.46-4Z"/><path class="cls-16" d="M121,297.26a15.9,15.9,0,0,1-2,.84c-1.51.29-2.55.15-3.64.38-1.86.38-2.8,1.46-3.59,1.69s-2.17-.19-3.94.49c-1,.39-3.57,1.55-5,2.11a13,13,0,0,1-2.17.38c-.25.14.84,2,10.79-.88S121.27,297.25,121,297.26Z"/></svg>