<svg id="Layer_1" data-name="Layer 1" xmlns="http://www.w3.org/2000/svg" viewBox="0 0 637.33 635.77"><defs><style>.cls-1{fill:#c1e7f6;}.cls-2{fill:#c85743;}.cls-3{fill:#936243;}.cls-4{fill:#c2b2d6;}.cls-5{fill:#665786;}.cls-12,.cls-6,.cls-9{fill:#14110f;}.cls-7{fill:#151210;}.cls-8{fill:none;stroke-width:1.11px;}.cls-12,.cls-8,.cls-9{stroke:#151210;stroke-miterlimit:10;}.cls-9{stroke-width:0.48px;}.cls-10{fill:#653c2c;}.cls-11{fill:#221e1f;}.cls-12{stroke-width:0.47px;}.cls-13{fill:#643b29;}.cls-14{fill:#31150d;}.cls-15{fill:#f0edf6;}.cls-16{fill:#812a23;}.cls-17{fill:#b05e27;}.cls-18{fill:#de8b26;}.cls-19{fill:#cd8c2a;}.cls-20{fill:#12100e;}.cls-21{fill:#7b4c45;}</style></defs><circle class="cls-1" cx="319.06" cy="340.56" r="288.85"/><path class="cls-2" d="M218.31,526.52c11.83-80.17,7.14-139,7.48-150.95.49-17.23-10.83-97.86-10.83-97.86l-19.18-2.21-12.7-1.82-13.81-3s-3.84-1.52-3.65-.63l-5.42-4.38c-6.56,11.61-9.64,13.54-23.94,14.71a102.57,102.57,0,0,1-14.42.15c-15.75-1-27.62-8.58-36.76-21.44l-.3-5.17L46.7,265.32l-6.67.29a289,289,0,0,0-9.82,74.95c0,116.11,68.49,216.21,167.29,262.1,11.79,5.27,24.41,10.49,37,14.17-5.15-28.45-14.38-72-14.64-72.94C218,536.93,217.27,533.62,218.31,526.52Z"/><path class="cls-3" d="M400.89,505.13c-1.3,46.54-6.17,94.12-4.73,113.88a241.65,241.65,0,0,0,25.36-8.3l19-115.18,11.84-84.09-44-10.55S402,464,400.89,505.13Z"/><path class="cls-4" d="M386.33,440.24,410.6,376c7.6-19.51,36-30.5,63.32-40l-14.33,16.37C481,359.11,491.14,381,484,402.21l-24.12,67.61Z"/><polygon class="cls-4" points="532.44 323.57 594.94 352.37 594.94 456.66 572.14 488.33 448.71 449.92 436.56 382.75 455.98 344.35 497.21 325.59 532.44 323.57"/><polygon class="cls-5" points="424.52 440.72 436.28 388.61 419.67 438.77 424.52 440.72"/><path class="cls-3" d="M532.44,323.57l21.09,10.84s-60.33,52.8-79.61,1.66l31.65-14.91Z"/><path class="cls-6" d="M439.22,267.55l.94-1c7.64-3.71,14-4.07,19,.64.07,0,10.07-5,19.93,7.71,8.56,11.06,6,18.52,6,18.52s6.75,2.64,8.3,5.73c3.5,7,3.36,20.41-2.77,22.33s-6.6,4.86-6.6,4.86-9.41,3-14.52,3.62-12.9-4.39-12.9-4.39-11.31,1.87-14.81-.49-5.74-10.39-5.74-10.39-11.87-.45-12.23-9.35c0,0-4.42-4.91,1.09-11.49a25.21,25.21,0,0,1,5.11-4.48s-2.1-2.46-1.23-9.45C429.23,276.9,433.42,270.37,439.22,267.55Z"/><path class="cls-7" d="M439.86,267.55a6.92,6.92,0,0,1,.82-.89,12.07,12.07,0,0,1,2.65-1.15,20.85,20.85,0,0,1,5.71-1.4,12.28,12.28,0,0,1,9.52,3.33c.26.24.81,0,1.06-.09-.19.1,0,0,.11,0s.42-.17.64-.24a11.27,11.27,0,0,1,2.51-.49,14.76,14.76,0,0,1,8.43,2c4.23,2.41,7.52,6.46,9.95,10.61a24.65,24.65,0,0,1,3.48,9.93,10.82,10.82,0,0,1-.27,4.35.18.18,0,0,0,.13.21,23.67,23.67,0,0,1,6.43,3.62c2.49,2.07,3.27,5.61,3.73,8.68a23.91,23.91,0,0,1-.47,10.24,9.41,9.41,0,0,1-1.93,3.69c-1.18,1.29-2.91,1.52-4.43,2.24s-4.17,2.23-4.53,4.24l.6-.41c-3.42,1.11-6.9,2.1-10.41,2.89a15.92,15.92,0,0,1-6.82.48,26.91,26.91,0,0,1-6.81-2.6c-.69-.35-1.38-.73-2-1.12a2.44,2.44,0,0,0-1-.46,13.15,13.15,0,0,0-2.71.35,48.14,48.14,0,0,1-6.24.34c-1.85,0-4.13-.09-5.69-1.23-1.93-1.41-3.08-3.87-4-6a34.69,34.69,0,0,1-1.5-4.18c0-.16-.28-.17-.41-.17a15.74,15.74,0,0,1-8.89-3.16,8.21,8.21,0,0,1-2.23-2.89,8.59,8.59,0,0,1-.54-1.72,8,8,0,0,0-.22-1.5c-.23-.5-.66-.94-.89-1.45a7.78,7.78,0,0,1-.72-3.52c.17-4.66,4.18-8.17,7.73-10.63.11-.08.2-.22.09-.35a6.06,6.06,0,0,1-1-2.45,14,14,0,0,1,3.23-13.4,20.4,20.4,0,0,1,6.68-5.53c.82-.41-.43-.55-.84-.34-4.5,2.25-9,6.76-10.42,11.69a16.64,16.64,0,0,0-.09,7.72,6.76,6.76,0,0,0,1.15,2.83l.1-.34c-3.29,2.29-6.8,5.32-7.78,9.39a8.49,8.49,0,0,0,1.22,6.58c.46.77.35,1.79.65,2.69a8.31,8.31,0,0,0,1.91,3.12,13.26,13.26,0,0,0,6.11,3.28,19.2,19.2,0,0,0,4.19.69l-.41-.17a33.09,33.09,0,0,0,2.23,5.77c1.17,2.35,2.67,4.74,5.34,5.47a25.2,25.2,0,0,0,8.4.39c1.72-.12,3.45-.3,5.16-.58l-.54-.09c3.86,2.45,8.89,5,13.58,4.46a76.56,76.56,0,0,0,14.57-3.65c.17-.05.56-.17.61-.4.44-2.48,4-3.78,6-4.46,2.68-.93,4.17-3.19,4.93-5.84a24.72,24.72,0,0,0,.4-10.59c-.53-3.25-1.42-6.69-4.12-8.79a23.78,23.78,0,0,0-4.13-2.5q-.77-.37-1.56-.72c-.15-.06-.31-.12-.45-.19s0,.11,0,.15c0-.41.19-.84.24-1.26a13.57,13.57,0,0,0,0-2.92,24.24,24.24,0,0,0-3.51-10.25c-2.43-4.15-5.63-8.11-9.79-10.61s-9.66-3.43-14.07-1.24l1.07-.09A13.6,13.6,0,0,0,449,263.44a25,25,0,0,0-6.37,1.66,12.11,12.11,0,0,0-3,1.4,9.94,9.94,0,0,0-1,1.06C438.21,268,439.58,267.85,439.86,267.55Z"/><path class="cls-8" d="M441.12,265.57s-17.77,5-18.26,16.72l.68,8.18s-8.27,1.75-7.79,7.54"/><path class="cls-3" d="M541.27,278.11s-9.59,27.91.24,44.31c1.87,3.12,12,12,12,12L533.83,347c-24.06,12.25-21.12,6.22-45.91-4.49L483,336.74s-3.11,1.6-2.45-2.64-5.53-30.36-5.53-30.36"/><path class="cls-9" d="M563.51,239.12s23-54.65-11.92-57.78a23.58,23.58,0,0,0-9.12-10.46c-8.23-5.29-16.83-.3-16.83-.3s-7.35-7.09-15-6.11S500,169.69,500,169.69,491.12,165,484.38,168s-11.62,9.42-11.62,9.42-5.53-1.06-9.07.47c-8.49,3.68-10,22.19-11.28,28.72,0,0,7.58-21.92,15-22.54s71.7,16.38,71.7,16.38L556,259Z"/><path class="cls-6" d="M600.86,287.68l.54,1.27c.3,8.48-2,14.47-8.3,17.15,0,.08.58,16.81-15.06,20.66-13.58,3.35-19.38-2-19.38-2s-5.15,5.09-8.6,5.26c-7.78.38-14.14-8.68-13.42-15.05s1-15.62,1-15.62-.31-6.7,1.22-11.61,8.83-10.31,8.83-10.31-4.1-8.42-.52-10.66,12.11-4.18,12.11-4.18,4.94-7.53,13.22-4.25c0,0,6.27-2.05,10.06,5.65a25,25,0,0,1,2,6.48s3.1-.92,9.14,2.71C596.36,274.76,600.63,281.23,600.86,287.68Z"/><path class="cls-7" d="M600.17,287.86a8.52,8.52,0,0,1,.53,1.25,12.53,12.53,0,0,1,0,3.35,22.75,22.75,0,0,1-1,5.62,12.27,12.27,0,0,1-6.88,7.73c-.2.09-.43.23-.42.47a22.48,22.48,0,0,1-3.34,12.2,17.55,17.55,0,0,1-9.05,7.31,28.12,28.12,0,0,1-15.2,1.15,12.45,12.45,0,0,1-5.52-2.43c-.29-.27-.93-.1-1.19.15a26.75,26.75,0,0,1-3.86,3.18,10.14,10.14,0,0,1-3.46,1.73,8,8,0,0,1-4.23-.51,15.17,15.17,0,0,1-9.25-12.33,24,24,0,0,1,.25-4.15c.15-1.56.26-3.12.37-4.69.16-2.51.29-5,.38-7.54.15-3.84,0-7.64.93-11.41,1.15-4.76,5.22-8.53,9-11.37.06-.05.18-.21.13-.3a23.94,23.94,0,0,1-1.3-3.39c-.54-1.79-1.17-4.23-.25-6a4.31,4.31,0,0,1,2.27-1.67,33,33,0,0,1,3.62-1.39c2-.66,4-1.21,6-1.7a2.42,2.42,0,0,0,1.6-1,12.14,12.14,0,0,1,3.32-2.9,9.13,9.13,0,0,1,7.38-.85,3.48,3.48,0,0,0,1.71.31,10.82,10.82,0,0,1,1.29-.17c6.32-.15,8.92,7.1,9.89,12.18.06.28.62.21.78.16a2.89,2.89,0,0,1,.46-.06,8.11,8.11,0,0,1,1.9.18,16.17,16.17,0,0,1,6.75,3c3.88,3.18,6.12,9,6.36,13.89,0,.44,1.4.16,1.37-.37a21.33,21.33,0,0,0-2.75-9.23,14.84,14.84,0,0,0-4.33-5.29c-2.52-1.67-6.75-3.73-9.94-2.82l.78.16c-.85-4.44-2.57-9.75-7-11.81a8.47,8.47,0,0,0-5.86-.49h.64a12.16,12.16,0,0,0-14.4,4.58l.54-.33a69.52,69.52,0,0,0-8.36,2.44,14.59,14.59,0,0,0-4.55,2.22,4.51,4.51,0,0,0-1.25,3.68,16.18,16.18,0,0,0,1.05,4.76c.19.53.39,1.05.61,1.57.06.12.13.44.23.51s-.19.35.22-.1a27.14,27.14,0,0,1-2.26,1.85,34.49,34.49,0,0,0-4.17,4.29c-2.81,3.49-3.49,7.61-3.71,12-.12,2.35,0,4.18-.14,6.42-.19,4.45-.58,8.86-.94,13.3a14.64,14.64,0,0,0,3.79,10.36c2.62,3.07,7,5.66,11.15,4.72,3.16-.71,6.08-3.17,8.34-5.4l-1.19.16a12.32,12.32,0,0,0,4.92,2.38c4.91,1.4,10.28.9,15.18-.32a20,20,0,0,0,10.8-6.6,23.9,23.9,0,0,0,4.86-14.6l-.42.47a13.47,13.47,0,0,0,7.41-7.6,21.31,21.31,0,0,0,1.26-6.13,22.58,22.58,0,0,0,.06-3.49,5.4,5.4,0,0,0-.56-1.67C601.34,287,600,287.43,600.17,287.86Z"/><path class="cls-10" d="M518.9,306.33s-5.71,15.39-34.06,19.37c0,0-4.57-.29-5.56-1l-1-6.62Z"/><path class="cls-3" d="M534.67,295.6c-12.1,11.4-37.36,24.41-53.06,26.21-15.39,1.77-20-3.69-22-6.11-10.48-13.26-16.93-26.37-20-41.11a35.54,35.54,0,0,1,0-12.51c1-6.42,3.26-18.7,3.7-24.89,1.13-15.75,9.28-28.75,19.09-41.21,20.44-26,58.22-22.76,73.52-13.78,17.87,10.49,24.71,29.24,24.19,48.49A52.11,52.11,0,0,1,556.84,248a55.58,55.58,0,0,0-7.72,8.89"/><path class="cls-6" d="M463.49,189.71s-4.92,9.14-14.75,27.58c2.53-5.92,4.4-15,10.3-23,20.61-28.12,74-19.46,89.26-9.88,17.82,11.21,23.06,31,22.41,51.77-.26,8.43-.37,13.81-3.47,20.56-.13.08-1.74,1.49-1.74,1.49s-17.16,1.77-23.64,11.53l.55-8.94s0-5.53-2.78-26.37c0,0-.09-3.28-4.73-16.77S524.6,200,524.6,200s-27.11-6.89-33.66-7.4S463.49,189.71,463.49,189.71Z"/><path class="cls-7" d="M462.85,189.7q-7.41,13.77-14.76,27.58l1.34-.08c1.76-4.18,3-8.57,4.7-12.77a45.51,45.51,0,0,1,7.51-12.61,43.83,43.83,0,0,1,17.83-11.91c13.74-5.14,29.27-5.26,43.61-3a88.56,88.56,0,0,1,17.77,4.51,41.5,41.5,0,0,1,16,10.94c12.73,14,14.29,34.26,12.74,52.23a39.56,39.56,0,0,1-1.12,6.83,32.1,32.1,0,0,1-1,3.19,5.63,5.63,0,0,1-1.41,2.54,9.19,9.19,0,0,0-.74.64c-.62.69-.07-.26.27.06-.05,0-.39.05-.44.05-.8.08-1.59.24-2.37.39-6.36,1.18-13,3.34-18,7.55a19.08,19.08,0,0,0-3.55,3.9l1.33-.08c.19-3,.54-6.09.55-9.13,0-2.41-.31-4.85-.54-7.25-.61-6.4-1.46-12.77-2.25-19.15a64.26,64.26,0,0,0-3-11.39c-2.27-7.09-4.78-14.37-9.47-20.28a12.16,12.16,0,0,0-2.55-2.71,6.29,6.29,0,0,0-1.82-.55c-9.8-2.45-19.67-5.08-29.66-6.69-4.61-.75-9.35-1-14-1.44q-7.5-.8-15-1.62l-.92-.1c-.43-.05-1.62.65-.85.74,9.11,1,18.22,2,27.36,2.83a102.79,102.79,0,0,1,13.47,2.54c5.3,1.19,10.57,2.46,15.84,3.76,1.36.34,2.72.76,4.1,1a1.67,1.67,0,0,1,.3.08c.08,0-.31-.19-.11,0a9.59,9.59,0,0,1,.88.81c4.28,4.3,7,10.23,9,15.85,1.93,5.39,4,11,4.91,16.68.89,5.23,1.38,10.57,2,15.85.39,3.57.78,7.15.94,10.73a9.94,9.94,0,0,1,0,1.1c-.15,2.24-.27,4.49-.41,6.74l-.11,1.79c0,.59,1.16.19,1.34-.08,4.16-6.14,11.88-9,18.84-10.48,1-.22,2-.41,3.09-.56a4,4,0,0,0,3.9-3,32.89,32.89,0,0,0,2.1-6.94,86.14,86.14,0,0,0,1-15.14,88.66,88.66,0,0,0-.91-13.91c-1.33-8.81-4.31-17.47-9.69-24.66A41.84,41.84,0,0,0,544,181.57a81.36,81.36,0,0,0-17.12-4.91C512.48,174,497,173.79,482.93,178A49.9,49.9,0,0,0,464,188.11c-7.06,6.24-10.8,14.63-13.81,23.38-.68,2-1.35,4-2.17,5.89-.18.44,1.16.25,1.34-.08q7.37-13.8,14.76-27.58C464.44,189.15,463.06,189.3,462.85,189.7Z"/><path class="cls-3" d="M537.5,287.84c7.24,8.88,15-3.35,15-3.35a39,39,0,0,0,11.55-25.22c.29-6.77-7.14-7.3-7.14-7.3-6.36.15-5.54,1-15.6,18.18"/><path class="cls-11" d="M548.1,270.69a45.45,45.45,0,0,1,6.26-10.12,9.68,9.68,0,0,1,3.49-2.81c-.18.07.45-.16.2-.06.07,0,.28,0,0,0l-.29-.12a6.59,6.59,0,0,1,1.06,2.37,13.57,13.57,0,0,1-.18,7.07c-.11.45,1,.31,1.06-.1a13.19,13.19,0,0,0-.22-8.4c-.25-.59-.53-1.56-1.3-1.49a4.78,4.78,0,0,0-2,.84,15.23,15.23,0,0,0-3.45,3.35,51.32,51.32,0,0,0-5.66,9.41c-.24.5.82.44,1,.07Z"/><path class="cls-11" d="M547,274.34c3.71.55-2.57,8.66.51,8.87.79.06,1.38-.68,1.78-1.25a18.55,18.55,0,0,0,2-3.9,16.85,16.85,0,0,0,1.36-5.47c.14-2.25,0-5.12-2.06-6.52-.35-.23-1.29.26-.82.57,1.73,1.18,1.91,3.67,1.85,5.57a14,14,0,0,1-.82,4.44,26.6,26.6,0,0,1-1.84,4.2,7.66,7.66,0,0,1-.79,1.24c0,.05-.37.32-.38.39l0,0c-.1.05,0,.06.21,0,0,0-.11-.08-.11-.12,0-.26-.14-.52-.11-.81a7,7,0,0,1,.28-1.22c.28-.92.63-1.82.89-2.74.5-1.69.68-3.68-1.5-4-.48-.07-1.09.6-.38.7Z"/><path class="cls-6" d="M500,248.17a4.77,4.77,0,0,1,5,1.58,4.7,4.7,0,0,1,1.11,2.33,4.75,4.75,0,0,1-1.68,4.15,4.4,4.4,0,0,1-5.14.23,4.89,4.89,0,0,1-1.66-5.95,4.34,4.34,0,0,1,2.37-2.34"/><path class="cls-6" d="M490,254.51s7.56-8.59,14.32-7.71c9.51,1.22,11,7,12.73,10.19,0,0-5.3-7.55-12.67-8.32C497.68,248,490,254.51,490,254.51Z"/><path class="cls-6" d="M453.79,241.2a4.78,4.78,0,0,0-5.24.26,4.61,4.61,0,0,0-1.65,2,4.75,4.75,0,0,0,.56,4.44,4.41,4.41,0,0,0,4.92,1.53,4.89,4.89,0,0,0,3.11-5.33,4.33,4.33,0,0,0-1.7-2.87"/><path class="cls-6" d="M466.8,251.5s-4.66-10.17-10.92-11c-8.81-1.14-11.59,4.12-13.88,6.75,0,0,6.59-6,13.37-4.95C461.53,243.29,466.8,251.5,466.8,251.5Z"/><path class="cls-6" d="M444.6,229v-.14a14.12,14.12,0,0,1,3.94-.89c7.07-.69,10.5,0,20.57,4.13l0,.24c-.18,1.34-.08.59-.27,1.93l-.42,3.07c-3-1.29-5.16-2.53-7.15-3.18-3.93-1.27-8.35-3.27-12.51-3.17a12.85,12.85,0,0,0-4.42.71C444.41,230.83,444.5,229.93,444.6,229Z"/><path class="cls-6" d="M492.64,235.37l-.23,1.94c-.12,1-.25,2.05-.36,3.08,3.39-.46,5.86-1.11,8-1.21,4.3-.22,9.28-1,13.46.18,2,.57,4.69,1.06,5.92,3.08.33.54,1,2.77,1.88,2.5.35-.1,0-1.82,0-2-.7-3.47-3.4-5.21-6.82-6.44-7-2.51-10.61-2.72-21.84-1.37"/><path d="M468.9,275.9a6.85,6.85,0,0,0,6.27.34c.43-.2,1.71.19,1.12.47a9.63,9.63,0,0,1-8.53-.6c-.21-.15-.15-.31.14-.37a1.53,1.53,0,0,1,1,.16"/><path d="M477.12,276.29a11.16,11.16,0,0,1,3.95-.51.87.87,0,0,1,.57.26c.1.11.11.25-.05.32a4.19,4.19,0,0,1-2.17.23.82.82,0,0,1-.62-.33c-.09-.19.14-.28.31-.26a3.36,3.36,0,0,0,1.75-.2c.17.2.35.39.52.58a9.76,9.76,0,0,0-3.53.47.84.84,0,0,1-.7-.17c-.13-.1-.26-.31,0-.39"/><path d="M482.37,277.08a5.36,5.36,0,0,0,4.36-1.41c1.35-1.63.61-4.73-1.19-6.09-.2-.14-.07-.29.15-.31a1.22,1.22,0,0,1,.81.27,5.77,5.77,0,0,1,1.95,5.41c-.42,1.53-2,2.44-3.94,2.67a7.87,7.87,0,0,1-1.75,0c-.24,0-.65-.14-.74-.34s.13-.25.35-.23"/><path d="M466.14,274.78a.2.2,0,0,0-.16-.32,1.87,1.87,0,0,1-1.16-.54l-.47.46a5.43,5.43,0,0,1,2.33,1.15.44.44,0,0,0,.51,0c.11-.07.24-.25.1-.37"/><path d="M467.29,275.14a6,6,0,0,0-2.61-1.28.51.51,0,0,0-.44.14.22.22,0,0,0,0,.32"/><path d="M462.89,274.61a3.21,3.21,0,0,1-2.47-2.21,4.61,4.61,0,0,1,1.78-4.86.18.18,0,0,0,0-.33.58.58,0,0,0-.56.11,5.15,5.15,0,0,0-2.14,4.05,3.63,3.63,0,0,0,2,3.36,3.8,3.8,0,0,0,1.09.37.58.58,0,0,0,.53-.19c.1-.18,0-.28-.18-.3"/><path class="cls-12" d="M458.79,183.85c3.21-2.1,9.34-4.71,14.9-4.82a5.12,5.12,0,0,1,.68,0l2.95,1.23.11,0-.11,0c-.53-.26-1.67-.9-1.16-1.54a2.38,2.38,0,0,1,1.21-.67,24.58,24.58,0,0,1,4.1-.75v0l.46,0,.46,0v0a23.9,23.9,0,0,1,4.17.07,2.46,2.46,0,0,1,1.31.46c.6.55-.42,1.37-.89,1.71l-.11.07.1-.06,2.71-1.71c.22-.05.44-.09.67-.12,6.78-1,17.9,3.71,19,4.47s.49,2.18.45,2.29l1.79-1.6s8.43,2.51,9.92,3.4a7.18,7.18,0,0,1,2.32,3.27s2.57.7,3.44.33,5.71,1.67,7.85,4.26c1.37,1.66,1.07,3.36,1.8,4.86h0c.42.84.66,1.4.66,1.4l4.93,1.2c4,1.53,3.69,9.53,3.69,9.53,8.33,8.65,9.36,16.52,6.67,25.31-1,3.39,8.6,5.92,2.59,6.29S542.9,264,542.9,264s-2.78-8.53-3.32-12,.31-13.79.31-13.79l-3-.17s-1.84-.58-4.31-4.31.88-11,.88-11l.8-4.3-5.68.87c-5.6-.49-6.41-6.45-6.41-6.45l.14-10-3,3.61a4.11,4.11,0,0,1-3.08,1.7c-8.61.06-10.06-5.19-10.06-5.19l-1.57-4.92-2,1.62c-2.14,2.08-8.92,5.56-12.62,4.32-1-.33-5.18-3-5.86-3.42a7.35,7.35,0,0,1-3-4.85c-1.92,2.17-4.52,4.45-7,4.77-3,.38-9.67-.35-10.6-1.68-.62-.9.34-1.1-.77-1a3.66,3.66,0,0,0-2.3,1.65s-2.47,8.42-9.94,12-8.39-15-1.46-18.12C449,193.42,449.39,183.48,458.79,183.85Z"/><path class="cls-9" d="M566.06,205.77s8.19,2.26,10.77,6.74c6.64,11.54,2.27,39.83-4.59,45.54l-6.75,1.32Z"/><path class="cls-8" d="M571.5,255s11.74-1.4,13.89,5.78l1,3.41s13-3.31,17.08,2.78,5.28,18.27,5.28,18.27"/><path class="cls-13" d="M472.33,287.77c7.35.92,19.38,1.5,19.38,1.5s-4.14,15.05-21.19,12.91-17.35-17.73-17.35-17.73S465,286.85,472.33,287.77Z"/><path class="cls-14" d="M472.26,287.76c3.49.44,17.66,1.58,17.66,1.58s-5.68,7.55-18.32,6c-13.71-1.72-16.73-10.24-16.73-10.24Z"/><path class="cls-15" d="M472,288.29c3.5.44,14.22,1.15,14.22,1.15s-4.34,3.55-14.83,2.24S458.1,286,458.1,286Z"/><path class="cls-13" d="M452.54,283.22c.38-.05,2.33.92,4.09,1,2.92.1,4.83-.48,6.95-.39,3.62.16,5.7,1.93,7.26,2.13s4-1,7.56-.27c2.07.43,7.16,1.88,10,2.5,1.72.38,3.84-.08,4.2.06s-1,4.07-20.56,1.62S452,283.29,452.54,283.22Z"/><path class="cls-4" d="M573.34,479.34,433.11,387.21s-20.38,41.3-17.53,62.88,12.38,22.6,15.77,32.55c9.79,28.7-11.27,112.16-16.05,130.35C482.16,590.15,537.27,541.3,573.34,479.34Z"/><path class="cls-5" d="M415.88,452.13s-3-26.73,17.46-70.67c0,0-16.11,34-20.91,69.28Z"/><path class="cls-3" d="M330.62,338.75c1.79-21.1,3-36.93,3-36.93l-34.06-7.1-8,28.81C304.51,328.72,317.44,334.26,330.62,338.75Z"/><path class="cls-3" d="M320.47,320.72l16.21-19.32s12.64-5.73,19.05-14.32A83.51,83.51,0,0,0,366.1,266.4L381,247.14s11.1-4.59,9.92-8.17-5.79-2.95-10.26-2.34-60.13,29.28-60.13,29.28a113.56,113.56,0,0,1,7.13-18.06c4.51-8.89.58-14.14-4.77-15.19s-11.24,12.82-10.56,18.56S302,264.41,298.68,274s.86,20.71.86,20.71C295.9,312.4,320.47,320.72,320.47,320.72Z"/><path class="cls-2" d="M292.81,312.62l-13.43,65.49-28.5-76.47C244.08,285,226.49,280,215,277.71l-28-1.52,32.75,175.1,24,35.82a40.44,40.44,0,0,0,22.81,18.06c17.66,5.64,36.19,0,46.42-15,7.9-11.51,13-35.06,13.82-49l10.56-120-9.34-.13a68.13,68.13,0,0,1-24.72-5.05Z"/><path class="cls-16" d="M227.29,460.62c3.52-6.1,30.53-22.14,26.29-58.61-2.22-19.18-9.88-71.37-9.88-71.37q4.63,23.19,9,46.45c1,5.3,2.09,10.59,2.92,15.92,1.5,9.56,3,18.09,1.13,27.72-1.46,7.53-3.59,15.81-8.33,22-6.75,8.8-18.81,21-18.81,21"/><path class="cls-16" d="M280.61,375.89s-3.45,11-12.91,74.26c0,0,2.8-50.87,10.37-77.84Z"/><path class="cls-16" d="M171.33,454.62s-16.13-7.78-30.65-7.78-33.34,7.78-33.34,7.78,26.69-4.5,34.31-3.89S171.33,454.62,171.33,454.62Z"/><path class="cls-3" d="M89.94,187.1s3.55,40-8.3,66.45c-1.65,3.7-36.73,12.22-36.73,12.22l37.58,17c19.62,5.66,64.09,7.2,83.66,1.37l19.09-9.42s-22.5-5.41-23.23-10.12,4.79-39.78,4.79-39.78"/><path class="cls-10" d="M162.36,256s-7.89-5.4-13.43-7.32-15.22-2.15-39.87-26.23c0,0,6,28.16,38.81,36.05,0,0,8.46,2.3,14.18,1.27Z"/><path class="cls-3" d="M201.66,88.11l.34.31a4.32,4.32,0,0,1-.29-.62ZM215.37,93c.18.22.38.44.59.66l0-.25S215.42,92.69,215.37,93ZM105.76,221.52c11.31,15.4,29.88,32.61,50.87,34.73,7.52.77,15.3-2.11,21.14-6.22,8.87-6.25,18.2-12.58,25.23-20.41,6.75-7.51,9.93-12.33,13.76-21.64,4-9.63,4.31-12.27,4.63-22.4A100,100,0,0,1,223.08,170c1.08-4.89,6-24.06,8.1-35.44s-7.1-30.82-7.1-30.82c-.21-3.18-1.57-5.6-2.88-8.32l-1.35-.2a1.34,1.34,0,0,1,.49,1.34A10.77,10.77,0,0,1,216,93.66v0c-2.16.63-4-.6-5.49-2.39-.05.31.19,1,.53,1a6.86,6.86,0,0,1-5.11-2.65c0,.31.2,1,.16,1.28A12.58,12.58,0,0,1,202,88.42c.25.45,8,.4,8,.62-2.07,0,.14,1-1.31-.77l-1.5-1.4c-1.73.06-1.82,1.08-3-.36.29.36-.42-3.54-.46-3.23-2-.3-1.45-.35-3-1.53,0,.31-5.8,1.19-5.84,1.5-1.68-.25-1.47,1.36-2.63-.08.29.36,1.41-1.11,1.7-.75-2.07,0-3,1.19-4.47-.61.29.36-6.15-4.38-6.15-4.38-2.06,0-1.82.7-3.32-.79.59.72-9.22-2-9-1.29-1.68-.25,2.29,6.64,1.09,5.51,0,.31-3.74-1.5-3.74-1.5-1.73.06.57,2-.59.54-.05.31.15,1.29.49,1.34-2.16.62-4.42-.34-6.26-1.88.58.72.83,1.38,1.12,1.74-1.68-.25-3.07-.14-4.57-1.63-.05.31.49,1.34.82,1.39a6.72,6.72,0,0,1-5.29-1.42c0,.31.54,1,.82,1.38A4.82,4.82,0,0,1,151,79.6l.83,1.39c-1.35-.2-2.45.27-4.38-.65,0,.31.59.72.54,1a12.91,12.91,0,0,1-3.32-.82c0,.31.87,1.08.53,1-1.34-.2-2.44.27-4-.6.29.36.53,1,.82,1.38-1.34-.2-2.73-.09-4-.91a2.36,2.36,0,0,0,.49,1.34c-1.34-.2-2.44.26-4-.6,0,.3.54,1,.83,1.38a17.77,17.77,0,0,1-4-.6c0,.31.58.72.87,1.08a11.13,11.13,0,0,1-4.32-1c-.1.61.19,1,.15,1.28-1-.15-1.64-.56-2.65-.71l-1.77.37c-5.63,5.47-8.38,26.21-8.38,26.21C103.47,117,96.9,133.4,96.36,139.31s-4.11,18.33-4.11,18.33c-1.36-2.41-4.37-7.6-5-10.22-.69-2.31.4-5-.29-7.3-2.29-5.39-9.25-4.85-13.41-2.32l-.76.93c-6.19,6.21-3.79,28.74-.93,35.75-.82,13.29,9.73,21.89,17.61,13.36l1.07,5.39"/><path class="cls-17" d="M224.72,116c-5.48-19.2-24.9-32.28-66.67-43.8s-77.32-.91-77.32-.91c28.85-58,90.36-46.78,104.13-44.72S250.18,87.14,231,140l-1.85,4.6S225.72,119.5,224.72,116Z"/><path class="cls-17" d="M71.68,57s-.43-44,30.36-47.59,86.76-10,99.11,31.9Z"/><path class="cls-18" d="M61.72,150.19c-2.62-3.56-.48-12.27-2.61-16.15-11.12-20.34-4-37.58,2.83-47.42,3-4.28,1-12.88,1.78-16.91,4.33-21.09,6.86-21.39,41.74-38.5,28.38-13.94,56.16-9,72.19-5.72,25.66,5.24,36.81,8.55,43.13,28.24.82,2.57-.74,4.31-.18,7.34.79,4.28,7.11,5.67,7.41,11,0,0-35.18,8.41-65.93,19.55S71.89,154.77,71.3,172.92C71.28,173.49,64.62,154.14,61.72,150.19Z"/><path class="cls-17" d="M53.6,107.75s57.76-52.94,111.2-45.51c0,0-67-19.09-104.61,25.7l-1,1.86a47.3,47.3,0,0,0-5.26,15.76Z"/><path class="cls-17" d="M221.23,61.87,217.81,60a94.19,94.19,0,0,0-25.35-9.56l-14.85-3.26s37.19-.95,43.89,9.43Z"/><path class="cls-19" d="M84.26,183c-3.67-.14-7.39,2.11-8.11,5.87A6.75,6.75,0,0,0,77.24,194,6,6,0,0,0,79.87,196a8.09,8.09,0,0,0,7-.22c.23-.11.4-.33.15-.49s-.77,0-1,.15a5.82,5.82,0,0,1-5.07-.14,5.53,5.53,0,0,1-2.05-1.52,6.43,6.43,0,0,1,.31-8.27,5.74,5.74,0,0,1,4.52-1.79c.27,0,.81-.11.95-.37s-.13-.35-.37-.36Z"/><path class="cls-20" d="M100.92,133.73l-6.27,29.76-8.58-14.83S96.65,138,100.92,133.73Z"/><path class="cls-11" d="M87.35,161c-2-.27-4.51.07-4.44,2.6.07,2.22,1.25,4.3,1.08,6.54-.06.7-.46,2.2-1.37,2.18-1.11,0-2.15-2-2.56-2.75a12.83,12.83,0,0,1-1.2-8.23c.5-2.51,1.54-6.57,4.38-7.35.88-.24.62-1.21-.26-1-2.94.8-4.32,3.85-5.1,6.53a14,14,0,0,0-.21,7.81c.55,2.12,2.47,6.93,5.51,5.9,2.62-.89,2.41-4,1.93-6.19a16.24,16.24,0,0,1-.75-3.83c0-1.51,1.28-1.37,2.49-1.2.71.1,1.46-.9.5-1Z"/><path class="cls-17" d="M84.69,117.33s-21.86,16.76-24.47,24.3L59.11,134A39.88,39.88,0,0,1,84.69,117.33Z"/><path d="M178.62,198.35a9.73,9.73,0,0,1-8.67-1.86c-.51-.42-2.4-.37-1.7.23,3,2.52,8.4,3.52,11.85,2.33.34-.12.32-.37-.06-.56a2.14,2.14,0,0,0-1.42-.14"/><path d="M167.28,195.85a16,16,0,0,0-5.2-2.15,1.25,1.25,0,0,0-.87.14c-.17.12-.24.3-.05.45a6.1,6.1,0,0,0,2.87,1.12,1.16,1.16,0,0,0,1-.22c.21-.23-.07-.44-.32-.47a4.73,4.73,0,0,1-2.31-.91l-.92.58a13.9,13.9,0,0,1,4.64,1.94,1.23,1.23,0,0,0,1,0c.21-.09.47-.33.19-.52"/><path d="M159.84,195c-2.17-.38-4.6-1.71-5.43-3.51-1.25-2.7.84-6.38,3.8-7.55.32-.13.2-.38-.09-.48a1.76,1.76,0,0,0-1.2.06,7.64,7.64,0,0,0-4.59,6.37c0,2.21,1.88,4,4.39,5a12,12,0,0,0,2.37.69c.33.06.94,0,1.14-.19s-.08-.39-.39-.44"/><path d="M182.79,197.84a.28.28,0,0,1,.33-.37,2.56,2.56,0,0,0,1.78-.3l.47.79a7.64,7.64,0,0,0-3.6.71.61.61,0,0,1-.68-.22c-.12-.13-.23-.43,0-.54"/><path d="M181.09,197.91a8.61,8.61,0,0,1,4-.77.73.73,0,0,1,.55.35.31.31,0,0,1-.08.44"/><path d="M187.27,198.81a4.5,4.5,0,0,0,4.18-2.07,6.4,6.4,0,0,0-.66-7.22.26.26,0,0,1,.18-.44.84.84,0,0,1,.72.35,7.2,7.2,0,0,1,1.43,6.27,5.06,5.06,0,0,1-3.92,3.81,5.2,5.2,0,0,1-1.62.09c-.21,0-.59-.18-.65-.45s.14-.36.34-.34"/><path class="cls-20" d="M208,158.78a5.32,5.32,0,0,1,5.37,1.72,5.19,5.19,0,0,1,.85,2.43,4.9,4.9,0,0,1-1.81,4.26,4.55,4.55,0,0,1-5.32.13,5.05,5.05,0,0,1-1.59-6.17,4.47,4.47,0,0,1,2.5-2.37"/><path class="cls-20" d="M190.36,162.52s10.16-5.8,14.87-5.57c6.88.33,14.68,5.34,16.58,9.06,0,0-10.22-7.27-15.08-7.36C202.09,158.55,190.36,162.52,190.36,162.52Z"/><path class="cls-20" d="M150.09,150.47c-1.72-1.24-4.77-1.43-6.15-.53a4.77,4.77,0,0,0-1.75,2,4.92,4.92,0,0,0,.49,4.6,4.57,4.57,0,0,0,5,1.68,5,5,0,0,0,3.32-5.44c-.05-.38.43-1-1-2"/><path class="cls-20" d="M161.14,157.23s-9.29-8.06-14.32-9C139.48,147,130,150,127.13,153.12c0,0,12.55-4.63,17.69-3.56C149.74,150.58,161.14,157.23,161.14,157.23Z"/><path class="cls-20" d="M195.51,140.3c-.11,1.39-.21,2.78-.31,4.17-.08,1.06-.16,2.12-.23,3.18,3.61-.62,6.69-1,9-1.16,4.91-.42,7.41-.62,10.19.07a27.18,27.18,0,0,1,6.26,2.54,17.45,17.45,0,0,1,3.24,2.06c2.25,1.91,3.07,3.93,3.47,3.79s-.08-1.87-.13-2a16.13,16.13,0,0,0-4.51-7.44,19.06,19.06,0,0,0-6.29-3.52c-2.72-.93-10.37-2.05-20.69-1.64"/><path class="cls-20" d="M163.83,133c-.21,1.37-.43,2.75-.65,4.12l-.51,3.15c-3.68-1.47-6.86-2.55-9.27-3.31-5.09-1.6-7.7-2.4-10.81-2.4a31.25,31.25,0,0,0-7.24,1,18.77,18.77,0,0,0-3.92,1.22c-2.83,1.31-4.18,3.07-4.57,2.84s.53-1.8.62-2a16.54,16.54,0,0,1,6.54-6.14,21.55,21.55,0,0,1,7.5-1.89c3.1-.24,11.48.52,22.31,3.43"/><path class="cls-13" d="M168.57,210.86c-9.9-1.48-25.76-5.18-25.76-5.18s-.37,25.2,22.59,28.63,29.32-20.89,29.32-20.89S178.48,212.34,168.57,210.86Z"/><path class="cls-14" d="M168.67,210.87c-4.71-.7-23.56-4.43-23.56-4.43s4,14.5,21,17c18.46,2.75,26.18-9.83,26.18-9.83Z"/><path class="cls-15" d="M168.76,211.7c-4.71-.71-18.91-3.74-18.91-3.74s4.29,6.57,18.42,8.68,19.45-2.86,19.45-2.86Z"/><path class="cls-13" d="M196,212c-.48-.21-3.37.4-5.67-.17-3.84-1-6.11-2.48-8.9-3.14-4.76-1.14-8.14.54-10.23.23s-4.84-2.91-9.73-3.21c-2.86-.18-10-.07-14-.27-2.37-.13-5-1.56-5.48-1.49-.73.08-.24,6,26.11,9.95S196.67,212.25,196,212Z"/><path class="cls-3" d="M373.58,394.7c2.26-.43,16.1,5.43,21.26,6.46,3.59.71,5.63,1.48,5.69,0s-9.36-6-15-8.78-6.61-3.42-6-6,7.55-1.4,14.37,2,24.1,8.81,24.1,8.81a4,4,0,0,0,5.09-2.38c1.72-4.86-4.73-9.9-5.72-14.33s-.9-7.77,1.61-9,3.95,5.9,12.29,12.86a63.07,63.07,0,0,1,15.92,19.85s12.91,23.48,3.26,29.1a29.78,29.78,0,0,1-19.2,3.69s-19.24-6.53-24.26-7.08-17.6-5.39-22.09-8.57-3.84-4.76-1.82-5.2,16.93,5.16,17.9,4.52.18-1.15.18-1.15l-23.23-7.84s-3.87-1.57-5-4a2.89,2.89,0,0,1,1.94-1.81c1.6-.51,16.55,3.35,16.55,3.35,8.36,2.63,9.45,1.89,9.56,1.52s-.67-.2-9.08-2.85c-5.39-1.71-10.19-3.48-12.86-4.43-3.32-1.19-3.49-1.48-4.87-2.68l-.81-.91S369.55,395.47,373.58,394.7Z"/><path class="cls-3" d="M600.84,389q-3.12-5-6.64-9.65a100,100,0,0,0-16.52-17.74c-17,21.5-18.94,45.69-25.82,75.18-2.62,11.23-7.93,46.15-10.56,57.38-2.09,8.89,2.21,9,2.68,17.87.06,1.17.13,2.34.21,3.52a32.91,32.91,0,0,0,3.64,7.85,17.36,17.36,0,0,0,2,2.59,18.68,18.68,0,0,0,4.89,1.12c3.8.35,4.76,3.37,6.13,4.73-7.83,5.38,7.86,2.48,14.27-4.83,6.14-7,6.48-8.9,10.66-17.44,3.76-7.67,12.16-41.31,15.05-49.29,2.15-5.92,5.3-23,6.31-29.38C611.27,405.2,592.45,410,600.84,389Z"/><path class="cls-3" d="M562.21,520.79c1.75-4.28,2.6-11-.62-14.32-10.2-10.54-7.86-14.35-20.86-25.62-19.5-16.89-49-28-76-51-1.48-1.26-8.32-5-11.64-11.22-2.85-5.33-22.76,8.08-17.3,16.59,8.11,12.63,61,74.08,65.76,79.73.22.26.45.5.69.74,8.25,8.13,24.1,23.2,49,25.48,16.74,1.53,28.93-19.16,31.1-24.48Z"/><path class="cls-4" d="M588.24,350.34s-3.35-.51-10.56,3.48a64.51,64.51,0,0,0-17.32,13.52c-11.91,13.62-22.82,73.24-22.82,73.24l70.13,18s17.1-48.13,7.4-78S588.24,350.34,588.24,350.34Z"/><path class="cls-21" d="M369.57,253.93a6.11,6.11,0,0,0-4.16-1c-3.71.4-8,3.18-11.58,7.19a44,44,0,0,0-6.95,11.6,19.76,19.76,0,0,0-1.81,5.28,23.49,23.49,0,0,0,2.73-4.8,56.22,56.22,0,0,1,7.12-11.1c3.34-3.82,7.42-6.54,10.62-7.12a6.25,6.25,0,0,1,3.74.45c.84.38,1.22.7,1.3.7S370.4,254.57,369.57,253.93Z"/><path class="cls-21" d="M343,265.86c-4.4,2.5-7.81,4.8-7.6,5.14s3.94-1.39,8.32-3.89,7.79-4.78,7.58-5.13S347.36,263.37,343,265.86Z"/><path class="cls-21" d="M331.73,275c4.46,1.44,7.12,4.16,7.47,4s-2.13-3.71-7-5.36-9-.25-8.86.08S327.27,273.54,331.73,275Z"/><path class="cls-5" d="M558,383.37c-.45-.29-.31-.25-.62-.69-.13.24-.25.49-.37.73-4.62,9.63-10.64,26.46-10.64,26.46-3.32,10.74-9,31.6-9,31.6L550,444.73l.16-.92L539.24,441S550.92,397.66,558,383.37Z"/><path class="cls-10" d="M543.45,483.32s15.34,13.25,15.55,18c0,0-2-10-15.1-20.46Z"/><path class="cls-5" d="M561.14,378.57s12.84-19,32-20.19C593.14,358.38,576.23,354,561.14,378.57Z"/></svg>