<svg id="Layer_1" data-name="Layer 1" xmlns="http://www.w3.org/2000/svg" viewBox="0 0 637.33 635.77"><defs><style>.cls-1{fill:#c1e7f6;}.cls-2{fill:#a1bb98;}.cls-3{fill:#936243;}.cls-4{fill:#182023;}.cls-12,.cls-5{fill:#465b65;}.cls-5{stroke:#465b65;stroke-width:2.07px;}.cls-16,.cls-19,.cls-25,.cls-26,.cls-5,.cls-7,.cls-8,.cls-9{stroke-miterlimit:10;}.cls-6{fill:#5f6060;}.cls-7{fill:#b1b1b1;stroke:#b2b2b2;stroke-width:1.95px;}.cls-8{stroke:#888787;}.cls-8,.cls-9{stroke-width:1.39px;}.cls-9{stroke:#231f20;}.cls-10{fill:#5f8e9b;}.cls-11{fill:#263238;}.cls-13{fill:#2a4449;}.cls-14{fill:#653c2c;}.cls-15{fill:#704533;}.cls-16{stroke:#221e1f;stroke-width:1.28px;}.cls-17{fill:#6e8266;}.cls-18{fill:#14110f;}.cls-19{fill:none;stroke:#000;stroke-width:0.71px;}.cls-20{fill:#070504;}.cls-21{fill:#231f20;}.cls-22{fill:#020303;}.cls-23{fill:#fff;opacity:0.14;}.cls-24{fill:#815639;}.cls-25,.cls-26,.cls-28{fill:#838383;}.cls-25,.cls-26{stroke:#838383;}.cls-25{stroke-width:0.7px;}.cls-26{stroke-width:0.74px;}.cls-27{fill:#221e1f;}.cls-29{fill:#653c29;}.cls-30{fill:#643b29;}.cls-31{fill:#31150d;}.cls-32{fill:#f0edf6;}</style></defs><circle class="cls-1" cx="319.06" cy="340.56" r="288.85"/><path class="cls-2" d="M336.54,154.64c-10.17-.39-26.07,10.93-31.61,17.81-18.72,23.2-20.27,112.92-20.27,112.92L179.53,316.69l2.69,23.9s96.88,20.94,123-.59c14.89-14.09,42.09-17.75,49.61-54.68,3.08-14.9,3.72-100.65-5.75-112.74C346.25,168.64,343.29,155,336.54,154.64Z"/><path class="cls-3" d="M366.21,343.77c-5.07-4.42-3.14-7.07-9.45-10-8-3.69-31.37-16.88-39.33-20.57-15.9-7.39-28.61-15.06-43-18.25-1.3,2-2.56,4.1-3.73,6.2-3.27,5.89-6.18,12-9.31,17.94a38.86,38.86,0,0,1,4,.9c17.23,4.82,5.13,13.91,22.59,23.59,4.27,2.36,16,8.5,20.56,10,6.14,2,30.23,12.74,36.58,14.09,7.08,1.49,8.37,2.17,15.45,1.78,7.39-.41,16.48-8.45,9.58-6.28-.17-1.46-1.53-3.45,0-5.89a14.82,14.82,0,0,0,1.63-3.45,13.61,13.61,0,0,0-.61-2.44,25.34,25.34,0,0,0-3-5.86Z"/><path class="cls-4" d="M532.69,444.74a148,148,0,0,0,3.09-43.37l-3-39.21L442.5,364.4l-.1-2.24-18,2.69-26.31.65.94,3.14-45,4.49,25.45,202.92a84.86,84.86,0,0,0,5.05,30.23l2.68,14.52c48.25-10.32,91.23-35.12,126.5-67.29Z"/><path class="cls-5" d="M420.09,436.35c1,34,3.28,81,7.4,132.79"/><path class="cls-2" d="M399.37,120.12l-6.95,6.73c-3.26-3.09,2.13,4.11-1.27,1.17-10.6,3.47-38.83,12.87-40.51,14.88-2.07,2.48-27.1,16.1-27.1,16.1l4,104.51,11.81,39.82c4.76,47.73,15,101.43,16.41,103.91,3.23,5.53,23.16.23,28-.55,42.09-6.77,85-15.7,125.65-28.44,3-.95,24.08-4.64,24.6-8.64,3-26.51-18.46-60.45-20.18-77.66-5.75-57.69-17.19-108.34-58.08-150.46-4.3-4.42-24-15.42-28.52-19.48Z"/><path class="cls-3" d="M387,83.26,335.49,116s6.24,15.33,9.13,23.7a3.92,3.92,0,0,1,.61,1.19c1.14,3.61,3.78,7.8,5.78,11,2.12,3.42,5.45,5,9.31,5.78a4.51,4.51,0,0,1,1.09.37c19,3,44-16.66,43.26-36.88C393.89,119.93,387,83.26,387,83.26Z"/><path class="cls-6" d="M234.23,338.3H133.56a18.84,18.84,0,0,0-18.85,18.85l-1.17,186.38c13.88,12.37,21,21.83,36.91,31.59l83.78,1.69A18.85,18.85,0,0,0,253.08,558V357.15A18.84,18.84,0,0,0,234.23,338.3Z"/><g id="freepik--Character--inject-2"><path class="cls-7" d="M372.39,504.64c2.61-33.63-4.55-37-9.28-39.16l-1-.47c-5.14-2.45-11.93-2.31-17.76-2.16-8.64.2-24.16.39-39.07.59s-30.32.39-38.9.6l-.26-11.5c8.62-.19,24.15-.38,39.05-.58s30.33-.41,38.9-.6c6.87-.16,15.39-.35,23,3.3l.83.39c9.67,4.5,18.87,12.1,15.9,50.49Z"/><path class="cls-7" d="M443.57,533.88l-.9,1.79c-.75,1.61-1.94,3.89-3.3,6.91-2.86,6-7,14.74-12.08,25.54L409,606.81c.22.17.42.35.62.53l18.15-39,11.85-25.64,3.17-7c.35-.78.6-1.38.8-1.83a2.52,2.52,0,0,0,.25-.62S443.76,533.49,443.57,533.88Z"/><path class="cls-7" d="M336.15,614.49c-4.67-3-8.95-5.61-12.57-7.72s-6.36-3.66-8.36-4.71l-2.34-1.2c-.41-.27-.7-.41-.72-.37a4.75,4.75,0,0,0,.76.5l2.24,1.37c1.94,1.14,4.76,2.82,8.23,4.94s7.87,4.86,12.55,7.93C336,615,336.08,614.73,336.15,614.49Z"/><path class="cls-7" d="M467.4,564.68l-1.09,1.14-4.16,4.5L447,586.93l-20.51,21.55c.37-.09,6.11-6,6.49-6.05l14.47-15.09c6.3-7,11.4-12.78,15-16.79l4-4.61,1-1.21a1.91,1.91,0,0,0,.33-.42Z"/><path class="cls-8" d="M466.63,588.18c5.05-2.72,9.07-6.53,14.15-9.21-14.48-50.25-42.24-78-77.38-78a52.59,52.59,0,0,0-8.68.72C427.94,507.12,454.25,537.92,466.63,588.18Z"/><path class="cls-9" d="M316.29,628.64c6.57-66.89,38.25-118.95,78.43-125.57a52.71,52.71,0,0,0-8.69-.72c-44,0-81.24,54.23-88.45,125.51C303.36,628.25,310.51,628.57,316.29,628.64Z"/><path class="cls-10" d="M281.73,423.56a2.18,2.18,0,0,1-1.61-2.19,161.24,161.24,0,0,1,1.36-21.07c2.4-18.09,8.46-35.12,15.34-51.86-2.1-6.59-4.89-13-7.6-21.85q-2.79-9.16-6.09-18.17c-.4-1.1-.74-3.13-1.52-4-1.71-2-7.19-3.58-9.9-4.76a56.52,56.52,0,0,0-13.24-4.19,78,78,0,0,0-9.66-.8l-19.59-.83c-4.45-.19-8.91-.38-13.35-.14C200,294.5,166.58,316,151,319l10.28,145.43c-2.51,49.63-3.42,37.24-3.71,44.05L297,495.62l-13.62-29.18C285.62,453.68,282.27,435.92,281.73,423.56Z"/><path class="cls-11" d="M332.57,629.34c21.44.72,41.3-5.52,62.05-9.91a216.78,216.78,0,0,0,26.29-8.36c0-49.74,0-93.69,0-98.61-.16-18.54-15.47-32.91-30.18-35.58-5-.91-18.16-.29-31.88.75a81.15,81.15,0,0,0-21.85,0c-47.52,5.9-141.48,24.77-141.48,24.77l-34.67,6.1s-11.59,56.4.2,65.6H262.79L322,555.16Z"/><path class="cls-12" d="M387.76,509.68a74.49,74.49,0,0,1,1.94,12.51c.78,17.41,1.62,36.55,2.51,56.65.61,12.54,1.18,24.71,1.72,36.32.23-.07.45-.14.69-.19-.51-11.56-1-23.67-1.59-36.15-.91-20.1-1.79-39.26-2.59-56.67a74.24,74.24,0,0,0-1.94-12.65,63.12,63.12,0,0,0-3.89-11.43,46.19,46.19,0,0,0-5.84-9.73,31,31,0,0,0-7.78-7l-1-.67-1.13-.52c-.74-.33-1.46-.68-2.2-1a36.06,36.06,0,0,0-4.41-1.33l-2.16-.48-2.12-.31a39.42,39.42,0,0,0-4.05-.41,78.59,78.59,0,0,0-13.46.31c-3.66.37-6.5.85-8.41,1.22-.95.2-1.67.34-2.16.47a6,6,0,0,0-.58.25l.74-.11,2.18-.37c1.94-.33,4.75-.74,8.4-1.07a85.52,85.52,0,0,1,13.39-.18c1.3.12,2.64.22,4,.45l2.08.33,2.14.49a43.52,43.52,0,0,1,4.34,1.32c.72.29,1.42.66,2.14,1l1.09.51,1,.66a30.42,30.42,0,0,1,7.51,6.89,45.22,45.22,0,0,1,5.68,9.53A63.69,63.69,0,0,1,387.76,509.68Z"/><path class="cls-12" d="M319.4,534.07c.23,1.72.52,3.93.87,6.58.8,5.7,1.93,13.29,3.08,21.65s2.27,16,3.09,21.65c.37,2.67.66,4.87.91,6.56a14.19,14.19,0,0,1,.24,2.43,12,12,0,0,1-.57-2.37c-.31-1.54-.72-3.78-1.16-6.52-.94-5.52-2.16-13.17-3.37-21.63s-2.22-16.13-2.82-21.69c-.31-2.73-.51-5.06-.6-6.62a14.32,14.32,0,0,1,0-2.45A15.18,15.18,0,0,1,319.4,534.07Z"/><path class="cls-12" d="M313.41,548.16a46.44,46.44,0,0,0,8.32,7.2,9.05,9.05,0,0,1-3-1.42,25.68,25.68,0,0,1-10.12-12.05,9.07,9.07,0,0,1-.87-3.19A44.82,44.82,0,0,0,313.41,548.16Z"/><path class="cls-7" d="M262.17,622.81a55,55,0,0,0,5.75,1.08V584.44h-11.5v37.17C258.5,622.25,260.06,622.3,262.17,622.81Z"/><path class="cls-7" d="M256.48,497.34a21.4,21.4,0,0,0-21.4-21.4H127.55v-11.5H235.08a32.89,32.89,0,0,1,32.84,32.8v86.21h-11.5Z"/><path class="cls-7" d="M115.41,366.51A21.4,21.4,0,0,0,94,345.11H63.21v-11.5H94a32.88,32.88,0,0,1,32.84,32.8l-1,187.57-11.4-10.7Z"/><path class="cls-7" d="M170.65,579.77l4.66-11.32,11.82-25.66c1.39-3,2.44-5.33,3.18-7l.81-1.81a3.41,3.41,0,0,0,.24-.63c-.12.19-.22.39-.32.59l-.87,1.79-3.31,6.88c-2.88,6.05-7,14.77-12.1,25.55l-5.17,11C169.78,579.35,170.46,579.67,170.65,579.77Z"/><path class="cls-7" d="M137.62,565c.18-10-.2-12.66-.05-20.88.19-12.82.35-23.21.46-30.42v-5.91c0-.23-.06-2.09-.13-2.3-.07,3.85-.2,6.59-.24,8.28l-.74,30.43c-.17,8.06.06,9.91-.14,19.7C137,564.09,136.24,564.39,137.62,565Z"/><path class="cls-7" d="M194.93,587.51l15-16.79,4.05-4.59c.43-.5.76-.91,1-1.2l.33-.45a2.16,2.16,0,0,0-.41.39L213.82,566l-4.16,4.47L194.49,587.1"/><path class="cls-7" d="M105.1,519.48c.41,1.85,1,4.5,1.77,7.88,1.48,6.45-.5-1,2,10.16.26.18.56.81.81,1-2.76-11.53-1-4.78-2.52-11.36-.84-3.37-1.48-6-2-7.78-.21-.86-.38-1.54-.52-2a4.07,4.07,0,0,0-.2-.68,4.1,4.1,0,0,0,.12.7C104.77,518,104.9,518.63,105.1,519.48Z"/><path class="cls-7" d="M152.22,575.35c2.32-11.33,3.52-15.85,5.38-25,2.61-12.55,4.73-22.72,6.21-29.83q1.11-5.22,1.73-8.09c.2-.89.37-1.57.49-2.1a4,4,0,0,1,.19-.68,12.09,12.09,0,0,0-.85,2.76c-.47,1.85-1.09,4.55-2,8.08-1.59,7-3.79,17.17-6.46,29.76-1.91,9-3.14,13.4-5.48,24.6Z"/><path class="cls-7" d="M101.68,529.22c4.79-7.19,3.12-4,9.08-9.7,10.56-10.11,21.24-15.46,31-15.46h1c17.63.68,37.33,17.06,52.74,43.85,10.83,18.82,20.12,39.76,24.29,63.18.59.21,3.7.89,4.28,1.1-4.16-23.94-16.08-45.85-27.15-65.08-15.68-27.24-36-42.65-54.2-43.42-10.38-.39-21.76,3.79-33,14.65-5.65,5.42-4.62,1.59-9.64,9.14C100.38,527.84,101.33,528.86,101.68,529.22Z"/></g><path class="cls-10" d="M158.18,321.58c3.29-6.89-.46-15.91,3.77-28.28l1.83-2.16,24.9-13.48,52.29-.29h0q1.34.4,2.64.87c8.63,3.08,16.62,7.83,24.27,12.81,1.66,1.09,3.29,2.23,5,3.3,1,.64,2,1.26,3,1.89-1.12,2.13-2,4.31-1.33,6.94.88,3.53-3.46,3.11-2.64,6.52,4,16.59,21.39,33.5,20.94,50.35-.55,20.2,4.37,45.15,6.13,59,2.78,21.85,6.38,39.88,11.17,62.73l-18.31,2.69c-53-26.26-97.45-49.31-124.08-91.55-.22-13.14-11.65-25.31-12.12-27.82C151.85,344.94,149.25,340.28,158.18,321.58Z"/><path class="cls-10" d="M228.36,279.17l-3.1-1.38c3.68.32,17.34-2.08,32.37-.77,8.27.71,18.19,6.55,24.6,11.35,10.82,8.1,29.78,18.89,36.44,24.12.22,5.36-2.38,15.35-2.38,15.35-4.38,13.25-14.93,33-14.93,33-3.82-1.65-50.77-39.3-62.2-53.23C234.27,301.68,218.13,285.83,228.36,279.17Z"/><path class="cls-13" d="M288.46,313.27c1.47,16.28,4.18,29.89,5.76,42.64l-1.42,7.43S292.07,353.43,288.46,313.27Z"/><path class="cls-3" d="M213.25,426.19c-1-7.25,2.46-8.06-.68-15-4-8.72-13.94-36.27-17.9-45-7.9-17.42-19-32.81-28.59-45.68-2.53.76.95,1.56-1.53,2.46-6.93,2.53-13.7,5.48-20.57,8.16.8,1,1.66,2.11,2.65,3.58,10.84,16.25-5.71,15.13,1.85,35.55,1.85,5,4.19,18.42,6.9,22.89,3.66,6,16,32.05,20.26,37.69,4.8,6.28,5.38,7.76,11.54,12.48,6.42,4.92,22.73,4.77,15.44,1.65.91-1.33,1.2-3.94,4.26-4.83a15.86,15.86,0,0,0,3.81-1.69,14.33,14.33,0,0,0,1.25-2.44,27.68,27.68,0,0,0,1.71-7C213.52,428.13,213.39,427.16,213.25,426.19Z"/><path class="cls-10" d="M150.28,304.73c-7.27,8.1-18.82,16.43-20,27.46-1,9.4-.22,21.82,3.12,30.42,4.23,10.87,10.09,32.66,16.53,42.41,0,0,48.44-21.22,51.6-36.27.91-4.29-25.17-39.83-36.15-55-4.69-6.5,14.11-34.42,4.3-25.43l1.21,1.72C164.55,296.3,156.58,297.72,150.28,304.73Z"/><path class="cls-13" d="M179,324.52c14.2,11,26.06,46.74,26.06,46.74l1.6-1.3c-3.48-10.76-10.24-25.32-20.94-40.16C185.67,329.8,182.38,325.69,179,324.52Z"/><path class="cls-3" d="M191.22,426.07c.19-3.51,1.79-8.42,5.08-9.66A170.45,170.45,0,0,1,227,408.22c19.43-2.76,42.24-9.77,68.31-16.79,1.43-.39-.13,3.08,4.18-.12,3.7-2.74,11.87,14,5.35,18.06-9.69,6.05-64.89,30.08-70,32.43a7,7,0,0,1-.71.28c-8.32,2.91-18.23,11.46-36.58,6.51-10-2.71-23.59-17.06-23.36-21.42Z"/><path class="cls-3" d="M238.75,277.37s5.35,8.39.81,15.05-24.68,8.68-37.82,2S183,278.74,183,278.74l51.9-4.42Z"/><path class="cls-3" d="M291.28,414.36c.57-.17,8.93-3.25,14.21-3.31S321,407.73,321,407.73s15.8-8.32,17.19-10.19,1.34-6.32,1.34-6.32A18.07,18.07,0,0,1,343,388.4c3.33-2.41,1.92-7,1.92-7l-5.37,1.54a148.08,148.08,0,0,0,15-4.81c1.32-.74,1-1.6.17-2.44a6.35,6.35,0,0,0-4.78-1.76l-28.73.87a53.29,53.29,0,0,0,3-10.72c.65-3.71-2.51-4.06-3.5-4s-7.09,8.29-7.09,8.29-12.88,8.52-15.09,10.89-13.23,15.62-13.23,15.62l-5.25,1.54S290.7,414.53,291.28,414.36Z"/><path class="cls-14" d="M313.36,375.39a36.89,36.89,0,0,0-7.92,1.9,35.48,35.48,0,0,0,8.09-1,65.38,65.38,0,0,0,8-1.43A25.39,25.39,0,0,0,313.36,375.39Z"/><path class="cls-14" d="M333,384.57c3.24-.62,6.17-1.22,8.27-1.77a11,11,0,0,0,3.33-1.14,17.11,17.11,0,0,0-3.48.52c-2.13.37-5.08.87-8.33,1.49-6.48,1.19-11.62,2.88-11.5,3.15S326.49,385.76,333,384.57Z"/><path class="cls-14" d="M331.28,394.18a27,27,0,0,0,8.78-3.26c-.13-.15-4,1.28-9,2.46s-9.13,1.63-9.11,1.89A27.86,27.86,0,0,0,331.28,394.18Z"/><path class="cls-3" d="M190,280.68s1,4-1.64,5.13a59,59,0,0,1-9.64,2.6l-1.23.33s5.14,4.47,5.31,6.17-.47,4.5-1.38,4.71a8.59,8.59,0,0,1-3-.51s1.78,3.08.39,4.67-3.3,1-4.63.73a24.81,24.81,0,0,1-4.27-1.71s.21,3.62-1.86,4.17-10.41-2.43-10.41-2.43,1.13,4-1.26,4.57-4.93-.83-7-2.19-4.74-3.2-4.74-4.48a4.65,4.65,0,0,1,1.45-3.5l3-2.59a7.53,7.53,0,0,1,.34-3.56,79.69,79.69,0,0,1,4.4-6.82s-.82-3.13.32-4.68,4.48-3.46,4.48-3.46,2.12-5.1,3.35-5.35,1.62-.85,6.58-.26a142.37,142.37,0,0,1,14.54,3.19,7.33,7.33,0,0,1,4.53.54C189.59,277.06,190.56,277.87,190,280.68Z"/><path class="cls-15" d="M157,303.35c-.94-.59-1.88-1.2-2.81-1.82-.65-.43-1.31-.87-1.95-1.33l-.37-.27-.16-.12-.08-.07a2.64,2.64,0,0,1-.59-.66,8.36,8.36,0,0,1-.85-2.21c-.15-.59-1.66-.19-1.51.4a9.68,9.68,0,0,0,.71,2,3.52,3.52,0,0,0,.7,1,8.06,8.06,0,0,0,.64.52c1.28.94,2.63,1.81,4,2.67l1.12.72a1.11,1.11,0,0,0,1.07-.12c.23-.16.41-.47.11-.67Z"/><path class="cls-15" d="M153.4,287.64c-.26,2.83,0,6.35,2.45,8.15a90.25,90.25,0,0,0,9.17,5.48l2.84,1.55a1,1,0,0,0,1.08-.08c.23-.18.42-.62.07-.81q-3.4-1.85-6.77-3.79c-1.52-.87-3-1.76-4.49-2.73a8.83,8.83,0,0,1-1.43-1.06,4.92,4.92,0,0,1-1.13-2.39,14.31,14.31,0,0,1-.26-4.43c.08-.79-1.46-.6-1.53.11Z"/><path class="cls-15" d="M158.32,279.25c.27,1.62.61,3.23,1,4.82s.76,3.55,2.07,4.54c3.25,2.45,6.88,4.48,10.34,6.62l4.06,2.49c.44.27,1.82-.36,1.2-.75-3-1.85-6-3.71-9-5.59-1.61-1-3.23-2-4.8-3.12-1.33-.93-1.71-2.39-2.14-3.92a54.21,54.21,0,0,1-1.19-5.49c-.09-.54-1.6-.18-1.51.4Z"/><path class="cls-15" d="M182.59,283.2a20.25,20.25,0,0,1-1.56,2.34c-.79,1-1.86,2.47-3.24,2.65a4,4,0,0,1-3.76-1.92,4.19,4.19,0,0,1-.25-2.55,6.78,6.78,0,0,1,.88-2.62c1-1.57,3-2.21,3.69-4,.3-.76-1.21-.68-1.43-.12a5.94,5.94,0,0,1-2,2.2,7,7,0,0,0-1.76,1.91,7.61,7.61,0,0,0-.91,2.86,4.76,4.76,0,0,0,.33,2.84,5.17,5.17,0,0,0,4.45,2.42,6,6,0,0,0,4.55-2.47,21.13,21.13,0,0,0,2.44-3.43c.39-.69-1.13-.65-1.43-.12Z"/><path class="cls-15" d="M174.06,286.38a17,17,0,0,1-2.6-2.18,4.14,4.14,0,0,1-.58-.73s-.06-.13-.09-.25a4.34,4.34,0,0,1-.06-.62c-.08-1.2,0-2.41,0-3.61,0-.78-1.52-.56-1.53.11,0,1.24-.05,2.49,0,3.73a2.89,2.89,0,0,0,.24,1.2,3.68,3.68,0,0,0,.58.78,18.07,18.07,0,0,0,2.87,2.44c.54.38,1.86-.37,1.16-.87Z"/><path class="cls-13" d="M198.23,375.19s6.33-4.57,7-5.73l.66-1.17.53,2.12s-6.28,5.74-7.55,6Z"/><path class="cls-3" d="M389.05,359.85l-24.72,12.08L348,376a143.38,143.38,0,0,1-14.53,6c-2.32.3-2.57-1-2.68-2s9.88-7.59,9.88-7.59-14.56,7.2-17.53,6.74-3-2.89-2.65-4.4S345,363.36,345,363.36l-10.89,2.28s-12.44,7.76-16.21,7.71-4-4.5-4-4.5l15.63-8.7,11.16-5.59-12.23,3.94s-11.22,6.31-14.59,5.47-1.74-4.85-1.74-4.85L328,349.29l18.91-7.14a28.52,28.52,0,0,1-7.7-2.08c-3.52-1.63-1.25-2.44-1.25-2.44l17.24-5.36,24.48,4.63Z"/><path class="cls-14" d="M386.49,361.1a1.74,1.74,0,0,1-.23-.56l-1,.5-21.59,10.89-16.45,3.91a151.67,151.67,0,0,1-14,5.92,3.13,3.13,0,0,1-1.69,0c-.42-.17-.61-.56-.7-1.21-.25-.1.45-.66.92-1.1s1.06-.85,1.62-1.29c2-1.49,4.18-3,6.39-4.43,1.62-.75,3.13-1.45,4.29-2l-1.48-.2c-3.57,1.67-9.9,4.17-13.79,5.66a24.26,24.26,0,0,1-5.79,1.71,2.51,2.51,0,0,1-2.26-.91,3.36,3.36,0,0,1-.24-2.56c-.08.2.21-.15.36-.24l.65-.4c.46-.27.94-.52,1.41-.76l3-1.44c2-.92,4-1.84,6.09-2.74,4.11-1.78,8.95-4,13.22-5.74l-1-.86c-3.45.72-7.15,1.48-10.89,2.28-2.26,1.34-4.6,2.71-7,4a44.9,44.9,0,0,1-7.52,3.38,3.22,3.22,0,0,1-3.19-.42,4.94,4.94,0,0,1-1.24-2.65l13.14-7.33c4.41-2.45,9.25-4.89,13.6-7.12l-.8-.88-.38.13-.1-.07-.52.27L328,358.45a72.41,72.41,0,0,1-9.92,4.68c-1.63.52-3.39,1.23-4.74.62s-1.32-2.18-.91-3.54l15.24-10L346.6,343l1.81-.68-1.92-.26h0V342l-.13.05a25.53,25.53,0,0,1-8-2.24c-.55-.22-1.16-.79-1.14-1s.65-.46,1.3-.63l3.65-1.16,12.66-4.06-.13-.05c6.2,1.44,11.05,1.78,14.43,2.54,1.57.34,2.78.63,3.69.83a10.87,10.87,0,0,0,1.27.22,5.19,5.19,0,0,0-1.2-.48c-.84-.35-2.12-.55-3.66-1-3.33-.86-8.2-1.25-14.37-2.82-3.71,1.16-8,2.54-12.73,3.9l-3.67,1.12-1,.3a1.42,1.42,0,0,0-.9,1.08,1.62,1.62,0,0,0,.66,1.23,8.4,8.4,0,0,0,.94.61,25.9,25.9,0,0,0,6.6,2.15L327.54,349l-15.85,9.8-.06.15-.07.17a6.34,6.34,0,0,0-.34,2.76,3.22,3.22,0,0,0,1.87,2.55,3.72,3.72,0,0,0,1.54.34,6.43,6.43,0,0,0,1.45-.14,17.79,17.79,0,0,0,2.68-.76,71.8,71.8,0,0,0,10.1-4.6l3.91-1.26c-1.78.88-3.58,1.79-5.52,2.86l-13.48,7.52-.4.21,0,.4a6.32,6.32,0,0,0,1.76,4.1,4.49,4.49,0,0,0,4.44.7c1-.33,1.92-.69,2.86-1.08-.3.16-.6.3-.89.49a6.81,6.81,0,0,0-.73.45,2.07,2.07,0,0,0-.83.83,4.52,4.52,0,0,0,.35,3.7,3.8,3.8,0,0,0,3.3,1.6,24.69,24.69,0,0,0,6.24-1.82c1.4-.56,3.18-1.32,5-2.13a19.49,19.49,0,0,0-1.64,1.08c-.56.44-1.1.86-1.64,1.33s-.55.51-.82.74a3.51,3.51,0,0,0-.42.59,1.49,1.49,0,0,0-.06.81,2.43,2.43,0,0,0,1.42,2.06,4.32,4.32,0,0,0,2.34,0,147.2,147.2,0,0,0,14.11-5.87l16.42-4.06c9.12-4.77,16.36-8.56,21.41-11.23l.42-.24Zm-52.1,5.29,4.29-.91c-2.16.87-4.27,1.73-6.53,2.72-1.48.64-2.92,1.31-4.37,2C330.08,368.93,332.27,367.66,334.39,366.39Z"/><path class="cls-14" d="M346.43,342.46A14.56,14.56,0,0,1,361.07,340c-.08.4-3.39-.07-7.41.56s-7,2.23-7.23,1.88Z"/><path class="cls-7" d="M325.1,575.12h-.94L153.23,576c14.32,9.17,22.74,15,39.77,23.51l135.54-.43"/><path class="cls-14" d="M212.79,411.18s-5.79,7.35-4.41,12.31C208.38,423.49,203.58,417.15,212.79,411.18Z"/><path class="cls-9" d="M166.94,504h0c-30.28-7.87-52.23.88-52.23.88l.18.3a62.72,62.72,0,0,0-22.45,13.48c2.8,3.1,4.69,6.31,7.61,9.3A82.22,82.22,0,0,1,119,511.78c17.69-11,33-6.5,39.93-3.33,29.89,15,57.63,61.79,66.06,104.19,6.08,2.17,12.07,3.91,18.2,5.93C234.91,559.3,203,512.21,166.94,504Z"/><rect class="cls-16" x="44.87" y="329.91" width="50.16" height="16.7" rx="5.45"/><path class="cls-2" d="M427.25,122s37.26-2.47,56.41,15.93c20.5,19.7,33,106.33,38.45,141.21,1.19,7.61-1.54,20.33-6.72,26.27-6.72,7.7-19,12.91-33.63,17.71Z"/><path class="cls-17" d="M464.5,263.58a4.28,4.28,0,0,1-1,.34l.38,2.33c-6.59,4-54.62,39.95-87.13,68-.6.51.75,1.08.16,1.59,7-6.09,81.37-64.77,88.16-68.68l.47-.29-.17-.53Z"/><path class="cls-17" d="M503,310.67c-7.81,3.83-38.07,20.45-45.37,23.51-14.56,6-43.08,19.34-66.42,26.37l1.26,1.1c10.46-5.4,6.9,1.27,70.13-28,7.24-3.34,33.84-17.45,41.67-21.26"/><path class="cls-17" d="M465.29,267.54a28,28,0,0,1,23.91,2.66s-11.61-11.33-23.58-4.46c-.5.29-1,.6-1.49.95l-16.4-89.75,1.61-1"/><path class="cls-3" d="M189.37,280.35c12.08,16.91,36.21,8.72,48.7-3,0,0-2.66-4.68-2.7-5-1.8-5.94-4.57-18.58-4.57-18.58l-50.27-3s6.7,17.23,8.12,28.7A4.65,4.65,0,0,1,189.37,280.35Z"/><path class="cls-14" d="M242.37,250.52c-1,3-1.92,6-3.09,9a.25.25,0,0,0,0,.12.34.34,0,0,0-.47.19c-.84,2-4,3.88-4.67,5.93-.57,1.77.57,3.66.95,5.53-1.26.55-2.18.54-3.81,1.08-11.3,2.72-14,3.87-29.22-3.92-5.11-2.62-5.48-5.51-6.57-6C210.78,258,226.24,254.7,242.37,250.52Z"/><path class="cls-18" d="M163.74,231.25s-4-6.35-10.83-22.19c-6.15-14.17,14-32.39,27.44-38.2,7.41-3.2,34.06-6.59,41.54-5.16s13.3,9.57,17.42,22.32c0,0-7.39-11.81-15.52-9.4-6.63,2-29.08,4.19-34.12,8.06s-16.19,12.15-11.5,32.61c1.28,5.58-10.06,2.27-11.9,6.31S163.74,231.25,163.74,231.25Z"/><path class="cls-3" d="M181,252.13l-7.35-19.41-6.72-22.1,4.42-19.19,13.93-11.8,18.21-4s15.38-.12,20.26-.08,9.51,4.79,14.21,10.24,6,16.14,6,16.14a8.93,8.93,0,0,1,.24,2.36c.16,4.39.81,8.1.86,11.4a7.83,7.83,0,0,0,1.18,4.19c3.13,5,3.7,7.31,4.11,10.74a41.4,41.4,0,0,1-.05,12.74c-.8,4.23-2,8.88-2.24,9.8,0,0-2.8,9.73-3.67,10.84a9.48,9.48,0,0,1-3,2.56c-.73.28-10.51,3.45-10.51,3.45L226.23,271a12.36,12.36,0,0,1-4.81.13c-4.33-.75-16.74-3.11-20.32-4.47-4.81-1.83-12.71-12.51-12.71-12.51"/><path class="cls-18" d="M180.49,231.72c.52,1.7,2.2,8.59,2.82,10.22l-9,2.06c-4.18-5.25-9.16-11.42-10.58-12.75-2.22-2.09-5.48-14.07-6.71-18.58l-.26-1c-1.19-4.32,1.24-12.27,6.5-21.25,5.8-9.89,18.47-17.85,32.28-20.27,1.31-.23,2.64-.42,3.93-.54,12.22-1.21,23.49,2.23,33.47,10.22,7.2,5.76,9.59,13.79,10.38,18.86a45.37,45.37,0,0,0-8.14-16c-4.91-5.84-9.52-6.71-12.53-6.41A10,10,0,0,0,218,178c-2.7,1.36-7,2-10.14,2.32-2.33.23-4.22.29-4.73.3a16.41,16.41,0,0,0-7.16-.6c-6.74.67-15.88,4.17-17.11,7.51-1.36,3.71-3.4,16.23-2.77,18.88"/><path class="cls-3" d="M182,252.36c-3.95,6.63-9.89-2.81-9.89-2.81-6.5-4.89-8-11.38-8.88-15.86s4-5.56,4-5.56c4.25-.52,6.63,1.27,13.37,14.43"/><path class="cls-18" d="M232.65,178.22c-4.18-4.13-11.5-8.8-16-12.64-1.63.23-9.54,1.94-11.21,2.27-17,3.35-37.32,18.47-38,25.12-.44,4.15,5.46,24.76,6.65,26.48a59.67,59.67,0,0,1,5.69,11.33c-1.18-8,2.32-18,2.38-20.87s-6.57-14.7-5.83-15.44,15-9.14,32.25-13a132.35,132.35,0,0,1,14.93-2.38C223.48,179,232.7,178.26,232.65,178.22Z"/><path class="cls-18" d="M208.13,218.23a2.77,2.77,0,0,0-2.79,1.19,2.73,2.73,0,0,0-.51,1.4,2.8,2.8,0,0,0,1.2,2.31,2.56,2.56,0,0,0,3-.16,2.84,2.84,0,0,0,.63-3.52,2.53,2.53,0,0,0-1.51-1.22"/><path class="cls-18" d="M237.94,212.39a2.77,2.77,0,0,1,3-.14,2.58,2.58,0,0,1,1.06,1,2.76,2.76,0,0,1-.07,2.59,2.58,2.58,0,0,1-2.76,1.16,2.84,2.84,0,0,1-2.09-2.9,2.51,2.51,0,0,1,.82-1.75"/><path class="cls-18" d="M229.92,218.19s3.2-5.11,6.18-6.09c4.35-1.42,5.71-.68,7.75,1a9.91,9.91,0,0,0-6.42-.37C234.53,213.76,229.92,218.19,229.92,218.19Z"/><path class="cls-18" d="M215.61,220.05s-7.16-2.37-10.22-1.7c-4.47,1-9.11,4.9-10,7.38,0,0,6-5.57,9.19-6.18C207.58,219,215.61,220.05,215.61,220.05Z"/><path class="cls-18" d="M211.22,204.66c.31,1,.63,2.08.94,3.13.24.79.84,2.59,1.07,3.39-2.74.1-5.33-.21-7.06,0-3.42.42-7,.62-10.13,2.13a11.6,11.6,0,0,0-3.84,2.74c-.34.38-1.12,1.82-1.83,1.72-.29,0-.26-1.44-.26-1.59.07-2.84,2-4.59,4.5-6a50.17,50.17,0,0,1,16.61-5.49"/><path class="cls-18" d="M243.46,199.88l-1.86-.15a37.83,37.83,0,0,0-15,2.16c.19,1.07.37,2.14.56,3.22.14.82.35,2.3.5,3.12,2.15-1.09,4-2.24,5.39-2.79,2.81-1.09,5.76-2.27,8.79-2.26l1.77,0C244.24,201.58,243.91,200,243.46,199.88Z"/><path d="M231.5,236.15a5.05,5.05,0,0,1-4.67.76c-.34-.12-1.26.28-.8.45a7.13,7.13,0,0,0,6.34-1.14c.15-.13.09-.25-.14-.27a1.12,1.12,0,0,0-.73.2"/><path d="M225.38,237.11a8,8,0,0,0-3-.08.67.67,0,0,0-.41.24c-.06.1-.06.2.07.24a3.14,3.14,0,0,0,1.64,0,.62.62,0,0,0,.43-.3c.06-.16-.12-.21-.25-.18a2.5,2.5,0,0,1-1.33,0l-.34.48a7.37,7.37,0,0,1,2.69.07.64.64,0,0,0,.51-.17c.09-.09.16-.26,0-.3"/><path d="M221.52,238.12a4,4,0,0,1-3.39-.72c-1.15-1.14-.84-3.42.39-4.6.14-.13,0-.23-.14-.23a1,1,0,0,0-.58.27,4.22,4.22,0,0,0-1,4.15A3.27,3.27,0,0,0,220,238.7a5.8,5.8,0,0,0,1.31-.11c.18,0,.48-.16.53-.32s-.12-.18-.28-.15"/><path d="M233.46,235.07a.15.15,0,0,1,.1-.25,1.35,1.35,0,0,0,.82-.5l.39.31a4,4,0,0,0-1.65,1.07.33.33,0,0,1-.38,0c-.09,0-.2-.17-.11-.28"/><path d="M232.63,235.44a4.64,4.64,0,0,1,1.85-1.18.39.39,0,0,1,.34.07.18.18,0,0,1,.05.24"/><path d="M235.88,234.69a2.42,2.42,0,0,0,1.67-1.88,3.59,3.59,0,0,0-1.76-3.56.14.14,0,0,1,0-.26.42.42,0,0,1,.43,0,4,4,0,0,1,1.94,2.92,2.74,2.74,0,0,1-1.18,2.71,2.71,2.71,0,0,1-.79.37c-.11,0-.33,0-.41-.1s0-.21.1-.24"/><path class="cls-19" d="M175.36,240c-6.2-7.9-8.91-7.23-8.91-7.23s-1.25,2.55.77,6.45"/><path class="cls-19" d="M174.19,241.2c-2.48.41.6,4.42.22,5.66s-2-1.34-3.25-4.66c0,0-1.24-4.59.81-6"/><path class="cls-20" d="M235.1,177.58c1.64-1.31,3.35-2.7,4.15-4.65s.32-4.58-1.57-5.48c-.81-.39-1.79-.43-2.45-1-1.2-1.09-.54-3.06-.92-4.63-.58-2.46-4.36-3.32-6-1.36-1.5-2.7-6.12-2.66-7.57,0a8.33,8.33,0,0,0-7.43-.58,6.32,6.32,0,0,0-9.39-2.54,12.39,12.39,0,0,1-2.1,1.68c-1.2.58-2.62.32-3.94.49s-2.79,1.19-2.51,2.49c-1.81-1.14-3.72-2.32-5.85-2.52s-4.56.93-5.09,3a5.07,5.07,0,0,0-6.11.24c-.84.72-1.42,1.71-2.28,2.42-2.22,1.82-6,1.52-7.44,4-.56,1-.64,2.17-1.38,3-1.1,1.19-3.06,1-4.45,1.79-1.57.93-2.06,2.93-3.11,4.41a21.24,21.24,0,0,1-3.47,3.29,17,17,0,0,0-5,16.47c.54,2.17,2.24,4.6,4.41,4.1a5,5,0,0,0,2-1.2A103.55,103.55,0,0,1,193,181.86"/><path class="cls-21" d="M236.26,177.66c2.18-1.74,4.76-3.8,4.86-6.84a4.39,4.39,0,0,0-1.27-3.39c-1.08-1-3-.75-3.66-2.22-.54-1.28,0-2.77-.45-4.08a3.55,3.55,0,0,0-2-2,6.33,6.33,0,0,0-6.71,1.41l2.86-.49c-2.19-3.6-8.58-2.65-10.56.71l2.9-.78a10.78,10.78,0,0,0-9.37-.44h2c-1.62-3.88-6.43-4.69-10-3.33a8.37,8.37,0,0,0-2.53,1.52,3.35,3.35,0,0,1-1.72,1.1c-.65.11-1.35,0-2,.09-1.83.2-4.91,1.21-4.65,3.55l2.91-.93c-2.48-1.57-5.1-3-8.13-2.59-2.3.32-5,1.44-5.7,3.85l2.9-.78c-2.68-1.79-6.74-1.15-9,1-.66.61-1.16,1.39-1.82,2a5.58,5.58,0,0,1-2.12,1.1,17.24,17.24,0,0,0-4.21,1.74c-1.41,1-1.67,2.19-2.35,3.65s-3,1.43-4.41,2.22a7.81,7.81,0,0,0-2.93,3.56,13.8,13.8,0,0,1-3.69,4.07,17.45,17.45,0,0,0-5.53,8.84c-.8,3.11-1,7,.52,10a4.72,4.72,0,0,0,3.27,2.74,6.46,6.46,0,0,0,4.73-1.42c3.24-2.48,6.39-5,9.82-7.27a100.12,100.12,0,0,1,25-11.8c.3-.1,1.49-.42,1.36-.92s-1.39-.2-1.64-.12a108.63,108.63,0,0,0-20,8.41c-3.12,1.72-6.16,3.57-9.09,5.59-1.48,1-2.94,2.07-4.36,3.16-.69.52-1.36,1.06-2,1.6-.44.36-1.53,1.49-1.89,1.5s-1.15-.76-1.45-1.1a6.6,6.6,0,0,1-1.2-2.15,13.81,13.81,0,0,1-.67-4.56,17,17,0,0,1,2.81-9.27,16.56,16.56,0,0,1,3.32-3.62,13.7,13.7,0,0,0,3.2-3.38c.69-1.15,1.22-3,2.56-3.53s2.83-.59,4.06-1.54c1.4-1.07,1.23-3,2.48-4.18,1-.94,2.66-1.13,3.92-1.61a9.17,9.17,0,0,0,3.89-2.62c.54-.63,1.13-1.54,2-1.75a3.61,3.61,0,0,1,2.62.75c.59.39,2.67,0,2.9-.78,1.23-4.06,5.79-1.13,8,.29.53.34,3-.05,2.91-.93-.13-1.17.62-1.48,1.58-1.51a12.81,12.81,0,0,0,2.76-.29,7,7,0,0,0,2.41-1.1c.64-.47,1.15-1.12,1.82-1.54,2.27-1.43,5.51,1.09,6.37,3.13.24.57,1.69.12,2,0a6.38,6.38,0,0,1,5.48.71,2.77,2.77,0,0,0,2.9-.78c1.15-1.94,3.57-1.07,4.59.6.45.74,2.44,0,2.87-.49.24-.26.26-.31.4-.33a2.4,2.4,0,0,1,1.18.34,2.9,2.9,0,0,1,1.51,1.84c.48,1.9-.45,4.26,1.82,5.24,1,.42,2.05.53,2.74,1.45a4.38,4.38,0,0,1,.75,2.75c-.12,2.57-2.33,4.38-4.18,5.87-.48.37-.37.62.19.73a3.25,3.25,0,0,0,2.13-.57Z"/><polygon class="cls-17" points="340.46 312.02 311.74 203.24 337.93 313.99 340.46 312.02"/><path class="cls-17" d="M284.91,283.08a28.26,28.26,0,0,1,24.31,3S297,274,284.41,282.86"/><path class="cls-17" d="M503,310.67s8.34-5,13.43-11.58l1,3.8s-10.76,8.32-13.91,9.88Z"/><path class="cls-22" d="M189.13,223.19l2.26,3.25a51.17,51.17,0,0,0,7.28,8.47c2,1.72,17.37-1.76,19.86-4.29s1.71-11.49,1.94-13.68l6.16-1.38c1.27,2.39,5.48,9.9,6.94,10.66s8.36-1.4,9.14-1.64,1.54-.5,2.51-.86c2.57-.93,5.64-2.27,6.34-3.5,1.06-1.82,1.1-7.66,1-13.14v-.86c0-.21,0-.36,0-.42h0l0-1c-9.9-1.6-21.16,2.31-26.68,9.27l.09.08-6,1.32c-7.93-2.46-22.15-1.43-29.51,4h0L176.11,231l.56,2.24Zm44.92,2c-.92-.48-4-5.69-6.33-9.79,4.84-5.93,15-9.44,23.71-8.44l0,.11c0,2.94.19,10.77-.85,12.56-1.22,2.11-15,6.27-16.56,5.58Zm-33.76,8.6c-3.35-2.56-6.84-7.17-9.38-11.21,6.41-5.34,20.43-7.28,28.14-5,0,3.84.45,10.4-1.34,12.22-2.57,2.62-16.17,5.08-17.42,4Z"/><path class="cls-23" d="M234.17,225.06c1.55.69,15.33-3.46,16.56-5.58,1-1.79.9-9.61.85-12.55l0-.12c-8.73-1-18.88,2.51-23.71,8.44,2.28,4.1,5.41,9.32,6.32,9.79Z"/><path class="cls-23" d="M200.29,233.8c1.25,1.09,14.85-1.37,17.42-4,1.79-1.82,1.32-8.38,1.34-12.22-7.71-2.28-21.73-.34-28.14,5,2.54,4,5.78,8.39,9.38,11.21Z"/><path class="cls-17" d="M446.45,164.71s-2.08-28.72,16.47-36C462.92,128.67,440.11,129.9,446.45,164.71Z"/><path class="cls-14" d="M188.21,276.29s1,8,.7,9.21l-2.16.92Z"/><path class="cls-3" d="M380,25.4s-9-12.86-28.49-12.42c-14.68.34-41,9.22-49.85,16.88A34.85,34.85,0,0,0,289.74,56.4Z"/><path class="cls-24" d="M389.64,93.94c0,.06,0,.11,0,.17A.25.25,0,0,0,389.64,93.94Z"/><path class="cls-3" d="M360.2,138.53l-18.86,4.67-9.95.54c-.94.29-7.84-8.21-8.84-9.25-3.09-3.23-7.14-7.47-9.57-11.25-2.59-4.06-6.47-7.11-8.67-12.25-1.61-3.77-2.41-6.5-2.17-13.47a9.4,9.4,0,0,0-1.29-5c-1.89-3.42-3.43-7.62-5.86-12.23a11,11,0,0,1-1.14-2.57s-6.45-18.21-3.21-28.87c2.48-8.14,4-13,8.95-15.93s20.91-6.49,20.91-6.49L341.29,17l21.11,3.9,15.91,20,6.24,26.7,4,24.3"/><path class="cls-25" d="M382.71,38.07l-.31-1.16c-.88-3.37-4.25-7.41-9.46-11.52a23.33,23.33,0,0,1-4.8,2.31,18,18,0,0,1,.88,3.39l8.81,36.32c.48,2.06.88,12.92,1.22,15l10.34-3.19c1.13-7.87,2.54-17.15,3.2-19.36C393.61,56.37,384.13,43.43,382.71,38.07Z"/><path class="cls-26" d="M332.7,140.66a.9.9,0,0,0,.32-.23c1.59-1.9,1.53-2.7,2.43-3.21a5.52,5.52,0,0,1,1-.54c2.68-1.2,4.3-2,13.19.64.18.06,9.64-4,9.82-4.12l4.37-3.9c.69-.77,15-22.46,15-22.46.13-.62,2.45-5.46,2.43-6a1.07,1.07,0,0,1,.16-.14l.1-.09.06.1a3.75,3.75,0,0,1,.22.67,12.58,12.58,0,0,1,.3,3c0,1.55.13,3.08.16,4.62,0,.55,0,1.09,0,1.63-1.77,2-10.46,23.53-17.17,29.74a34.73,34.73,0,0,1-6.12,2.82c-7.84,3-15.61,5.25-24.21,5.22a7.4,7.4,0,0,1-5.73-2.71c-4-4.85-12.76-15.63-16.44-23.52,3.58,4.15,11.18,13.07,16.39,19.13a26.66,26.66,0,0,0,3.54-.53"/><path class="cls-3" d="M387,95.21c10.8,5.84,8.38-8.74,8.38-8.74,3.71-8.87,1.42-16.44-.36-21.55s-7.38-3.34-7.38-3.34c-4.63,2-6,5.22-5.05,22.74"/><path class="cls-26" d="M368.5,30.47c.79,7.25,1,17.7,9.27,28.2,4.2,5.33,4.66-6.22,8.91-3.16s5.91,4.32,5.91,4.32c-2.64-17.95-2.57-17.53-11-33.2Z"/><path class="cls-27" d="M386.44,80.06a38,38,0,0,1,2.27-9.35,8,8,0,0,1,2.05-3.19s.3-.22.22-.15c.11-.09,0,0-.07,0h-.44A5.69,5.69,0,0,1,391.92,69a11.31,11.31,0,0,1,1.61,5.52c0,.16.86,0,.85-.22A10.86,10.86,0,0,0,392.22,68c-.46-.56-.88-1.18-1.64-.84-1.52.68-2.36,2.74-2.91,4.15a40.17,40.17,0,0,0-2.06,8.86c0,.21.8.06.83-.15Z"/><path class="cls-27" d="M388,81c1.52-.53,1.73,2.09,1.89,3s.2,3.25,1.53,3.21c.68,0,.91-.72,1-1.28a13.92,13.92,0,0,0,0-3.59,13.91,13.91,0,0,0-1.14-4.68c-.76-1.68-1.95-3.65-3.95-3.9-.42-.05-.86.56-.3.62,1.67.21,2.72,2,3.36,3.39a12.25,12.25,0,0,1,1,3.56,20.33,20.33,0,0,1,.22,3.9,7.76,7.76,0,0,1-.18,1.19s-.12.2-.11.21l.23,0a.18.18,0,0,1-.07,0s-.13-.12-.15-.16a3.9,3.9,0,0,1-.49-1.68c-.13-.73-.22-1.47-.38-2.2-.31-1.36-1-2.68-2.65-2.12-.51.17-.36.77.15.58Z"/><path class="cls-18" d="M340.17,76.48a3.21,3.21,0,0,1,3.54-.42,3.14,3.14,0,0,1,1.34,1.14,3.31,3.31,0,0,1,.15,3.08,3,3,0,0,1-3.12,1.6,3.38,3.38,0,0,1-2.71-3.26,3,3,0,0,1,.8-2.14"/><path class="cls-18" d="M306,87.29a3.21,3.21,0,0,0-3.16,1.64,3.07,3.07,0,0,0-.47,1.7A3.33,3.33,0,0,0,304,93.26a3,3,0,0,0,3.48-.44,3.38,3.38,0,0,0,.41-4.22A3,3,0,0,0,306,87.29"/><path class="cls-18" d="M317.28,88.79s-6.27-3.36-9.87-2.61c-5.25,1.1-6.2,2.67-7.28,5.6,0,0,2.58-3.51,6.3-4.18C310,87,317.28,88.79,317.28,88.79Z"/><path class="cls-18" d="M333.48,82.42s5.74-6.78,9.23-8c5.08-1.72,12.13-.55,14.55,1.43,0,0-9.44-2-13-.71C340.88,76.44,333.48,82.42,333.48,82.42Z"/><path class="cls-25" d="M326.28,65c.41,1.23.82,2.45,1.24,3.68.32.93,1,3.08,1.29,4,2.65-1.75,4.88-3.81,6.65-4.77,3.51-1.91,7-4.13,11-4.79a13.25,13.25,0,0,1,5.47.06c.58.14,2.29,1,2.89.44.25-.24-.73-1.58-.83-1.72-2-2.71-5-3.13-8.33-2.81-6.85.64-13.19,2.93-19.37,5.9"/><path class="cls-25" d="M293,77.79s1.81-1.37,1.82-1.39c5.06-3.86,10.82-6.16,16.91-7.83.5,1.19,1,2.38,1.51,3.57.38.91,1.12,2.52,1.49,3.43-2.91.35-5.54.41-7.35.81-3.6.78-7.41,1.56-10.53,3.58-.25.16-1.57,1.05-1.8,1.22C293.24,80,292.59,78.25,293,77.79Z"/><path d="M327.48,107.83a5.86,5.86,0,0,0,5.19-2c.27-.31,1.45-.45,1.07,0a8.3,8.3,0,0,1-7.1,2.57c-.23,0-.24-.21,0-.37a1.4,1.4,0,0,1,.87-.22"/><path d="M334.25,105.2a9.7,9.7,0,0,1,3-1.85.8.8,0,0,1,.55,0c.12.06.18.17.08.28a3.69,3.69,0,0,1-1.66,1,.69.69,0,0,1-.63-.05c-.14-.13,0-.29.16-.33a2.87,2.87,0,0,0,1.34-.8l.63.3A8.48,8.48,0,0,0,335,105.4a.73.73,0,0,1-.61.12c-.15,0-.33-.17-.18-.32"/><path d="M338.78,104a4.71,4.71,0,0,0,3-2.75c.51-1.85-1.15-4-3.1-4.45-.21-.06-.16-.23,0-.32a1.09,1.09,0,0,1,.75-.07,4.94,4.94,0,0,1,3.47,3.62c.22,1.43-.75,2.76-2.21,3.65a7.48,7.48,0,0,1-1.4.66c-.2.06-.57.11-.72,0s0-.26.2-.32"/><path d="M324.85,107.89a.19.19,0,0,0-.25-.21,1.58,1.58,0,0,1-1.13,0l-.21.55a4.75,4.75,0,0,1,2.3.12.38.38,0,0,0,.4-.19c.06-.1.1-.3,0-.35"/><path d="M325.91,107.78a5.13,5.13,0,0,0-2.57-.13.44.44,0,0,0-.31.27.21.21,0,0,0,.1.28"/><path d="M322.17,108.92a2.84,2.84,0,0,1-2.8-1,4.32,4.32,0,0,1-.33-4.71.16.16,0,0,0-.15-.26.51.51,0,0,0-.41.29,4.76,4.76,0,0,0-.25,4.15,3.28,3.28,0,0,0,2.81,2.1,3.18,3.18,0,0,0,1-.09.49.49,0,0,0,.36-.35c0-.18-.13-.22-.25-.18"/><path class="cls-28" d="M392.36,43.85c.77-.5-1.27-.72-.8-1.51a2.1,2.1,0,0,0-.15-2.55,4.31,4.31,0,0,1-1.16-2.54c-.24-.92-2.05-.61-1.71-1.49.62-1.6-1.19-3-2.72-3.82.59-.69-.33-.6-.08-1.47A2.2,2.2,0,0,0,385,28a9.86,9.86,0,0,0-1.55-.57c-1.47-.64-1.76-2.33-1.58-4a9.66,9.66,0,0,0-1.47-.08,5,5,0,0,0-2.09.38.93.93,0,0,1-.29.05L391.88,61.2a5.15,5.15,0,0,0,2.19-1.13,1.81,1.81,0,0,0,.28-2.29c-.84-1-3-.66-3.23-2,.7-1.53,3.32-1.72,3.51-3.4.14-1.36-1.47-2.15-2.78-2.52.58-1,.53-.22,1.52-.78s.87-3.3,0-4.06S392.29,45.13,392.36,43.85Z"/><path class="cls-28" d="M393,44.24c.36-.29.7-.63.44-1.11-.16-.3-.85-.43-.93-.71s.37-1,.4-1.16a2.54,2.54,0,0,0-.13-1.19c-.32-.86-1.07-1.34-1.33-2.28-.19-.68-.24-1.23-.89-1.61-.23-.14-.6-.16-.8-.32s-.17-.17-.1-.67c.21-1.79-1.7-3.08-3.06-3.8l.17.62c.46-.66,0-.86,0-1.48-.08-1,.3-1.72-.42-2.6s-1.94-.71-2.7-1.45a4,4,0,0,1-.7-3.17c0-.39-.33-.54-.66-.58a14.31,14.31,0,0,0-4.38.41c-.33.06-1,.46-.86.89L389.13,56.8l1.73,4.67c.16.44.81.47,1.18.35,1.57-.52,3.78-1.43,3.63-3.46a2,2,0,0,0-1.35-1.69c-.41-.18-2.07-.41-2.1-.94s1.58-1.19,2-1.46a3.11,3.11,0,0,0,1.37-1.62c.56-1.93-1.63-2.94-3.12-3.39l.36.71s-.87.18-.17,0a5.82,5.82,0,0,0,.6-.14,2.88,2.88,0,0,0,1.12-.62,3.05,3.05,0,0,0,.73-2.19,3.76,3.76,0,0,0-.56-2.2,2.27,2.27,0,0,0-.92-.73,2.8,2.8,0,0,0-.41-.13c-.45-.15.16.37.19-.25.05-1-2-.62-2.06.2s0,1,.56,1.29A1.79,1.79,0,0,1,393,46.87a3.78,3.78,0,0,1,0,1.21c-.13.59,0,.45-.4.6-.78.31-1.19.37-1.69,1.14-.2.31.07.62.36.7,1.41.43,3.45,1.77,1.53,3-.84.55-2.28,1.11-2.62,2.18s1,1.57,1.75,1.8,1.51.31,1.69,1.07c.28,1.17-1,1.7-1.88,2l1.19.35L380.81,28.16l-1.72-4.67-.86.89a10.52,10.52,0,0,1,3.31-.3l-.66-.57c-.14,1.65.05,3.54,1.66,4.41,1.08.58,2.37.54,2.26,2.14a4.32,4.32,0,0,0-.11,1.07c.06.29.34.48.17.73a.45.45,0,0,0,.16.63,6.17,6.17,0,0,1,2.14,1.61,1.9,1.9,0,0,1,.45,1.22c0,.3-.19.6-.13.9.08.45.41.62.81.8.64.28.87.25,1.06,1a5.15,5.15,0,0,0,.67,1.69c.31.43.72.67.84,1.22a2.47,2.47,0,0,1-.26,1.33.92.92,0,0,0,.11,1.06,2.58,2.58,0,0,0,.41.33l.3.18c.22.21.31.08.28-.39C390.64,44.33,392.3,44.83,393,44.24Z"/><path class="cls-29" d="M335.69,49.32s-21.21,3.17-34.27,10.2"/><path class="cls-28" d="M317.25,130.84a21.64,21.64,0,0,0,3.85,5.06c-.67.44-.06,1.51.65,1.88s1.65.73,1.68,1.53c0,.28-.1.55-.08.83.06.88,1.21,1.13,2.08,1.14-.44.58.26,1.36.93,1.66s1.52.66,1.51,1.4c0,.36-.24.71-.14,1.06.21.72,1.39.41,1.94.92.32.3.34.79.55,1.17a1.37,1.37,0,0,0,2.22.17c.55,1.43,1.68,3.18,3.13,2.72.89-.28,1.53-1.39,2.45-1.23.58.09,1,.66,1.52.84,1.87.62,3-3.27,4.83-2.65,1,.34,1.37,1.87,2.42,1.94s1.53-1.21,2.46-1.56,2.35.39,3.15-.34c.35-.31.45-.82.72-1.21.61-.89,1.68-.06,2.75,0,1.92.1,1.74-1.23,1.74-1.23.2-1.39.91-1.47,2.26-1.11a3,3,0,0,0,1.35.27c1.11-.23,1.15-2.19,2.27-2.37a3.74,3.74,0,0,1,1.22.22c1.49.28,2.66-1.94,1.61-3.05a3.18,3.18,0,0,0,2.07-4.09,2.87,2.87,0,0,0,2.84-3.34,2.8,2.8,0,0,0,2.14-4.24,2.27,2.27,0,0,0,2.29-2.77c-.21-.7-.74-1.52-.26-2.06.31-.36.87-.32,1.33-.44a1.84,1.84,0,0,0,.84-2.82c1.93,0,2.94-3,1.44-4.21a2,2,0,0,0,1.09-3.34,3,3,0,0,0,1-4.9L364.69,136l-5.12,4.19s-20.13,7.25-24.48,6.48S317.25,130.84,317.25,130.84Z"/><path class="cls-28" d="M316.26,131.31a22.87,22.87,0,0,0,3.85,5.06l.09-.76a1.43,1.43,0,0,0-.21,1.86c.5.85,1.4.87,2,1.52s0,1.61.72,2.3a3.5,3.5,0,0,0,2.32.75l-.65-.87c-.67,1.41.7,2.06,1.72,2.65s.29,1.05.53,1.87a1.48,1.48,0,0,0,1,.9,3.91,3.91,0,0,1,.77.17c.47.24.45.6.68,1a1.92,1.92,0,0,0,1,.94,2.9,2.9,0,0,0,3.18-.76h-2c.66,1.61,1.8,3.45,3.8,3.26.93-.09,1.42-.67,2.2-1.05.54-.25.61.06,1.14.34a2.47,2.47,0,0,0,1.22.32c1.56,0,2.49-1.22,3.48-2.23.69-.71.65-.57,1.29.18a3,3,0,0,0,1.8,1.25,2.92,2.92,0,0,0,2.24-.69c.3-.24.57-.67.91-.84.5-.24,1.16,0,1.69,0a2.91,2.91,0,0,0,2.39-1.06c.09-.12.53-.93.33-.85.32-.12,1.23.33,1.64.36,1.26.11,2.91-.38,3.2-1.79,0-.16,0-.32,0-.47,0,.05.21-.54-.09-.26a3.18,3.18,0,0,1,.64.12,3.58,3.58,0,0,0,2.67.1c.89-.42,1-1.24,1.59-1.86.33-.33.61-.06,1.09,0a3.1,3.1,0,0,0,1.34-.25c1.53-.65,2.51-2.63,1.38-4.06l-.8,1.18a4.1,4.1,0,0,0,3-5.09l-1.18,1.05a4,4,0,0,0,4-4.39l-1.18,1.05c2.63-.14,4.77-3.05,3.23-5.47L373,128a3.8,3.8,0,0,0,3.09-1.28,3,3,0,0,0,.39-3.26l-.12-.37c-.18-.27-.11-.39.21-.34.19-.13.56-.13.77-.23a2.88,2.88,0,0,0,1.18-.92,2.45,2.45,0,0,0,.05-2.91l-1.09,1.23c2.46-.19,4.68-3.44,2.53-5.45l-1.1,1.23c2-.25,4-2.79,2.19-4.57l-.8,1.18c2.4-.87,3.92-4,1.85-6.08a1.39,1.39,0,0,0-2,.36l-7.5,13.35-5.57,9.91c-1.06,1.89-2.31,3.77-3.22,5.74a1.28,1.28,0,0,0-.17.3c-.08-.18.59-.53,0-.11-.33.25-.64.53-1,.79l-2,1.68a12.71,12.71,0,0,0-1.66,1.35c-.29.35.79-.24.1,0-.39.12-.78.27-1.17.41-1.45.51-2.91,1-4.37,1.49-3.92,1.29-7.86,2.54-11.87,3.52-2.47.61-5.33,1.62-7.59.28-3.72-2.2-6.88-5.54-9.89-8.59-2-2-4-4.15-6-6.3-.63-.7-2.68.15-2,.94,4.41,4.92,9.07,9.95,14.36,13.93a11,11,0,0,0,3.73,2.1,10,10,0,0,0,3.86-.12,92,92,0,0,0,12.1-3.17q4.54-1.43,9-3a6.72,6.72,0,0,0,2.05-1.3c1.28-1,2.63-2.06,3.87-3.17,1.07-1,1.68-2.66,2.38-3.89l5.21-9.28,9.33-16.6-2,.36c.83.82,1.23,3.19-.25,3.72-.32.11-1.32.67-.8,1.18a1.31,1.31,0,0,1,.46,1.12c0,.21-.16,1-.46,1s-1.72.64-1.09,1.23,1,2.88-.34,3c-.52,0-1.55.57-1.1,1.23a1.18,1.18,0,0,1,.19,1.14c-.15.49-.34.48-.81.6a2.5,2.5,0,0,0-1.59.94,1.92,1.92,0,0,0-.06,1.73c.18.58.73,2.47-.56,2.45-.57,0-1.87.43-1.37,1.23s.31,2.94-1.05,3c-.53,0-1.27.42-1.18,1.05A1.86,1.86,0,0,1,368.5,134c-.44,0-1.38.45-1.18,1.05.35,1.09.06,2.7-1.19,3.09-.41.13-1.23.63-.8,1.18.32.4.49,1.52-.15,1.8-.21.1-1.05-.2-1.31-.2a2.67,2.67,0,0,0-1.08.21,2.92,2.92,0,0,0-1.21,1.15c-.16.25-.27.57-.45.8l-.06.11c-.1.25-.17.29-.2.1a4.58,4.58,0,0,0-.69-.3c-1.2-.29-2.67-.21-3.35,1a2.93,2.93,0,0,0-.28.85c0,.14,0,.23,0,.36,0-.07.05-.18,0-.06s0,.24,0,.24a3.76,3.76,0,0,1-1.22-.21,3.4,3.4,0,0,0-2.16,0,2.11,2.11,0,0,0-.79.56c-.25.27-.36.87-.62,1.06s-1.6,0-2.19.08a4.55,4.55,0,0,0-2,1.14c-.35.26-.36.42-.75.11a7.58,7.58,0,0,1-.62-.74,2.65,2.65,0,0,0-1.57-.88A3.79,3.79,0,0,0,341.4,148c-.27.29-1,1.3-1.28,1.31s-.75-.57-1-.7a2.44,2.44,0,0,0-1.25-.22c-.91.08-1.39.67-2.14,1.05-1.08.55-1.83-1.23-2.17-2.06s-1.52-.49-2,0a7.52,7.52,0,0,0-1.25-1.79c-.44-.27-1.32-.19-1.49-.61s.21-.84.09-1.2a1.77,1.77,0,0,0-.42-.66c-.36-.37-2.35-1-2-1.71.21-.46-.19-.85-.65-.87-.69,0-1.32-.06-1.33-.88a2.14,2.14,0,0,0-.23-1.32c-.25-.38-2.74-1.64-2.25-2.12.18-.17.3-.56.09-.76a23.16,23.16,0,0,1-3.85-5.07C317.79,129.57,315.72,130.35,316.26,131.31Z"/><path class="cls-28" d="M369,28.18l-.08,0-.23.09h0c-.35.18-.7.36-1,.57a11.76,11.76,0,0,0-1,.72l0,0,0,0-.22.19a6.25,6.25,0,0,0-.45.44c-.15.16-.29.31-.42.47l-.12.15-.1.14a6.32,6.32,0,0,0-.33.56,1,1,0,0,0,0,.1,2.74,2.74,0,0,1,.86,1.13c.41,1.08.41,2.33,1.1,3.25s2,1.69,1.59,2.72c-.2.51-.78.77-1.07,1.24-.82,1.35,1.3,2.85,1.17,4.44-.07.91-.89,1.62-1,2.52-.25,1.86,2.28,2.84,2.93,4.6.58,1.57-.45,3.5.43,4.92.46.74,1.34,1.13,1.86,1.83,1.16,1.56.19,4.09,1.48,5.55a20.35,20.35,0,0,0,1.64,1.26c2,1.85.89,5.83,2.68,7.64L378,43.22Z"/><path class="cls-28" d="M368.9,27.64a8.81,8.81,0,0,0-5,4c-.06.13-.13.32,0,.44,1.37,1.21,1,3.25,2.16,4.63.39.46,1.38,1.12,1.39,1.8s-1.06,1.2-1.26,1.88c-.42,1.41,1,2.46,1.24,3.75.27,1.53-1.49,2.57-.79,4.19.56,1.32,2,2,2.65,3.25.77,1.53-.25,3.31.38,4.88a5.26,5.26,0,0,0,1.58,1.74,3.33,3.33,0,0,1,1,2.21c.18,1.45,0,3,1.19,4.12.65.59,1.49.92,2,1.71a6.89,6.89,0,0,1,.72,2.53c.23,1.54.3,3.2,1.4,4.42.47.53,2,0,2-.68l-.39-20.17c-.06-3,.07-6-.18-9a3,3,0,0,0-.58-1.36l-2.71-4.56L370,27.77c-.36-.6-2.35.06-1.89.82l4.78,8.06,3.09,5.2.87,1.47a1.69,1.69,0,0,1,.17.29s-.08-.18-.06,0c.3,2.59.11,5.34.16,7.94l.26,13.28.16,8.26,2-.68c-2-2.19-.47-5.88-2.95-7.85-.68-.55-1.43-.87-1.78-1.72a7.26,7.26,0,0,1-.33-2.27,5.44,5.44,0,0,0-.5-2.21,7.73,7.73,0,0,0-1.62-1.66c-1.41-1.41-.34-3.3-.73-5-.34-1.43-1.64-2.21-2.49-3.3-1.29-1.64.51-2.63.46-4.31,0-1.28-1.81-2.75-1.23-4,.34-.73,1.18-.89,1.2-1.82,0-.77-.59-1.34-1.09-1.86a5.06,5.06,0,0,1-1.31-2.53,4.47,4.47,0,0,0-1.3-2.57v.44a5.73,5.73,0,0,1,1.45-1.8c.37-.33-.36.26.16-.14.28-.21.57-.42.86-.6a5,5,0,0,1,.88-.48C370.37,28.31,370.12,27.22,368.9,27.64Z"/><path class="cls-28" d="M381.51,82.15l-1.7.64a.85.85,0,0,1-.54.08c-.45-.14-.38-.78-.38-1.26,0-1.09-.83-2-1.52-2.83s-1.31-2-.83-3c.25-.52.8-1,.72-1.53-.11-.75-1.1-.9-1.72-1.32a1.84,1.84,0,0,1,.08-3,5.31,5.31,0,0,1-1.89-4c-.26-2.89-.22-6.07-.22-6.07L377,56.56Z"/><path class="cls-28" d="M381.15,81.9a5.49,5.49,0,0,1-1.27.48c.07.06,0-.77,0-.74a3.59,3.59,0,0,0-.6-2c-.74-1.13-2.34-2.37-1.83-3.9.36-1,1.43-1.84.07-2.66-.58-.34-1.21-.44-1.53-1.11a1.66,1.66,0,0,1,.38-2c.1-.07.37-.26.18-.39a4.92,4.92,0,0,1-1.71-3.08,32.73,32.73,0,0,1-.34-6.34,2.26,2.26,0,0,1,0-.52c-.06.21-.08.18.08,0,.36-.38.76-.74,1.14-1.11l2.18-2.1-1.95.34,3.94,22.39.57,3.21c.08.44,2.13,0,2-.55l-3.94-22.4-.57-3.2c-.09-.53-1.75.15-1.95.34l-2.26,2.19c-.61.59-1.31,1-1.32,1.84a28.72,28.72,0,0,0,.38,6.62,5.13,5.13,0,0,0,1.79,3l.17-.39a2.06,2.06,0,0,0-.26,3.35c.68.51,2,.61,1.53,1.78-.37.89-.94,1.32-.66,2.37a6.55,6.55,0,0,0,1.44,2.27,4.59,4.59,0,0,1,.88,1.49,9.5,9.5,0,0,1,.11,1.3c.29,1.76,3.11.24,4-.09C383.22,81.89,382,81.6,381.15,81.9Z"/><path class="cls-22" d="M381.16,71l-.74-2.37H354c-9.72-.9-21.3,5.1-27.11,11.79l-6.18,2.15,0-.12c-8.89-3.31-21.28-.6-29.35,6.41l.53.91h0c0,.06.13.19.24.38l.48.8c3,5.09,6.28,10.42,8.25,11.51,1.33.73,4.85.24,7.7-.35,1.08-.21,2.06-.44,2.76-.61s8.3-2.08,9.2-3.6.51-10.76.32-13.67l6.36-2.17c1.43,1.88,5.72,10.53,9.4,11.47s19.55-4.47,20.39-7.16a56,56,0,0,0,1.86-11.85l.23-4.24ZM319.5,97.24c-1,1.5-15.83,5.39-18.12,4.14-1.94-1.07-6.19-8.33-7.79-11l0-.13c7.34-5.79,18.5-8.24,26.2-5.5.22,5,.3,11.57-.26,12.52Zm35.37-11c-.51,1.69-14.21,7-18,6.07-2.63-.67-5.89-7-8.06-10.47,5.72-6.4,19.5-12.46,28.29-11.13,0,5.12-.62,11.3-2.23,15.53Z"/><path class="cls-23" d="M319.3,97.14c.56-1,.48-7.48.25-12.52-7.69-2.74-18.85-.29-26.19,5.5l0,.13c1.6,2.72,5.85,10,7.79,11,2.29,1.25,17.09-2.64,18.12-4.14Z"/><path class="cls-23" d="M354.87,86.25c1.69-4.6,2.19-10.41,2.23-15.53-8.79-1.33-22.57,4.73-28.29,11.13,2.17,3.51,5.43,9.8,8.06,10.47,3.79,1,17.49-4.38,18-6.07Z"/><path class="cls-28" d="M320.85,118.19h.36a5.41,5.41,0,0,1,1.4-1.46,8.62,8.62,0,0,0,1.39-1.08,1.66,1.66,0,0,0,.44-1.61l-7.93,4.14a4.29,4.29,0,0,0-.91,3.07,4.07,4.07,0,0,0,.48,1.09c.29.55.59,1.09.89,1.63a.79.79,0,0,0,.23.28.66.66,0,0,0,.39.06h.21C316.55,122,317.44,118.44,320.85,118.19Z"/><path class="cls-28" d="M320.42,118.75a2.92,2.92,0,0,0,1.33-.22,2.07,2.07,0,0,0,.75-.75,5.67,5.67,0,0,1,1.33-1.16c.93-.65,2-1.58,1.69-2.86-.16-.6-1.43-.13-1.73,0l-4.47,2.33-2.74,1.43-.66.35a3.5,3.5,0,0,0-1.18,1.76,3.39,3.39,0,0,0-.26,1.72,5.07,5.07,0,0,0,.7,1.6,13.88,13.88,0,0,0,.81,1.46,1.43,1.43,0,0,0,1.38.43,2.46,2.46,0,0,0,1.09-.29c.12-.07.54-.34.42-.55a4.39,4.39,0,0,1-.32-3.44,3.15,3.15,0,0,1,.84-1.34,2.16,2.16,0,0,1,.53-.36,2.12,2.12,0,0,1,.76-.15c.35,0,1.15-.26,1.23-.69s-.66-.4-.91-.38a5.27,5.27,0,0,0-4.39,2.73,4.76,4.76,0,0,0,.1,4.21l1.52-.85s-.17,0-.21,0c.16,0,.05,0,0-.07-.11-.22-.24-.44-.36-.65-.25-.45-.51-.89-.74-1.35a2.93,2.93,0,0,1,.13-2.77l.19-.35.05-.08c.14-.17.13-.2,0-.1s-.17.09-.1,0l.19-.1.78-.41,5.4-2.82,1.54-.8-1.73,0c.26,1-.55,1.54-1.25,2a6.73,6.73,0,0,0-1.9,1.86l1.43-.56h-.36a1.86,1.86,0,0,0-1.44.57C319.59,118.62,320.08,118.75,320.42,118.75Z"/><path class="cls-28" d="M350.53,106.87a2.55,2.55,0,0,0-2.24-.5c-.35.09-.73.27-1.07.12a1.32,1.32,0,0,1-.47-.38,1.76,1.76,0,0,0-1.79-.57c-.59.23-.92.94-1.54,1.07-.81.17-1.7-.74-2.39-.28-.27.18-.39.53-.66.72a1.38,1.38,0,0,1-1.47-.19,2.43,2.43,0,0,0-1.45-.57,3,3,0,0,0-1.23.7c-.39.27-1,.4-1.3,0"/><path class="cls-28" d="M351.38,106.32a3.61,3.61,0,0,0-2.49-.68c-.28,0-.93.32-1.19.26.42.1-.35-.57-.45-.63a2.83,2.83,0,0,0-2.45-.33,3.25,3.25,0,0,0-1.05.57,2.27,2.27,0,0,0-.43.39l-.14.13c.35,0,.42-.06.22-.1s-.79-.27-.94-.31a2.82,2.82,0,0,0-1.26,0,2.55,2.55,0,0,0-1.05.5,2.15,2.15,0,0,0-.4.45l-.12.15c.59-.06.73-.14.43-.24a3.88,3.88,0,0,0-1.11-.62,2.56,2.56,0,0,0-1.09-.22,2.88,2.88,0,0,0-1.29.31,4.21,4.21,0,0,0-.64.39l-.19.15c-.32.17-.26.21.18.11a1.43,1.43,0,0,0-1.44-.06c-.24.11-1,.6-.56.94a2.27,2.27,0,0,0,2.37.2,3,3,0,0,0,1-.6l.2-.14c-.28,0-.33,0-.15.07a2.25,2.25,0,0,0,.51.28,3,3,0,0,0,2.49.46,2.43,2.43,0,0,0,1.05-.61,2.33,2.33,0,0,0,.37-.46l-.51.22.28.1a2.88,2.88,0,0,0,2.23.16,3,3,0,0,0,1-.57,3.08,3.08,0,0,0,.43-.38l.14-.13c-.24,0-.28.08-.11.13s.38.25.5.35a4.09,4.09,0,0,0,.44.39,1.82,1.82,0,0,0,1,.26,11.45,11.45,0,0,0,1.22-.24,1.76,1.76,0,0,1,1.23.46c.61.47,2.58-.43,1.7-1.1Z"/><path class="cls-28" d="M327.35,110.06c-1-.19-1.55,1.35-2.55,1.68-.4.13-.89.08-1.17.39s-.22.54-.4.77c-.4.51-1.2.21-1.85.09a.94.94,0,0,0-.6,0c-.53.27-.39,1.11-.75,1.58s-.84.43-1.32.51-1,.3-1.11.79c0,.27.09.58-.07.8s-.95.33-.85.72"/><path class="cls-28" d="M328.24,109.65a3.77,3.77,0,0,0-2.68.71,5.38,5.38,0,0,0-.69.66c-.11.12-.54.42-.58.55q.73-.21.3-.12l-.28,0a5.31,5.31,0,0,0-1,.29,1.7,1.7,0,0,0-.93.78,2.83,2.83,0,0,0-.17.4c-.3.37,0,.3.89-.21l-.29-.06a5.22,5.22,0,0,0-1.31-.16c-.83.07-2,.37-2.23,1.27-.05.17-.08.35-.13.52s-.23.43-.22.48c.45-.14.53-.18.25-.12l-.3,0a6.45,6.45,0,0,0-.84.21c-.68.22-1.53.58-1.56,1.41,0,.12,0,.23,0,.34s-.08.23,0,.13a3,3,0,0,1-.51.25c-.25.14-.49.32-.46.64s2.22,0,2.16-.58c0-.15-.29.07-.06,0a3.11,3.11,0,0,0,.41-.2,1.17,1.17,0,0,0,.55-.55,1.55,1.55,0,0,0,0-.43,4.28,4.28,0,0,0,.07-.48c.11-.11.09-.12-.07,0l-.18.06a2.71,2.71,0,0,0,.52-.09,3.46,3.46,0,0,0,2-.94,1.76,1.76,0,0,0,.31-.73,2.66,2.66,0,0,1,.1-.38c.1-.29.27-.31-.17-.15l-.84.19a5.77,5.77,0,0,1,1.06.19,4,4,0,0,0,1.38-.11,3,3,0,0,0,1.22-.57,1.5,1.5,0,0,0,.33-.46l.1-.27c.14-.19.06-.21-.22,0-.65.21,0,0,.14,0a5.91,5.91,0,0,0,.82-.24,4,4,0,0,0,1-.56c.22-.19.42-.4.62-.61s.22-.24.34-.35c.48-.46.11.18-.79.06a2.78,2.78,0,0,0,1.5-.28c.15-.07.77-.47.28-.53Z"/><path class="cls-26" d="M333.26,109.15l1.35,2.56a1,1,0,0,0,1.08.54c3-.48,14.33-2.33,16.91-3.17.06,0,.11,1.16.17,1.13l.59-.23c.91-.49-.81-3.56-1.84-3.64a56,56,0,0,0-7.55-.14,61.42,61.42,0,0,0-10.12,1.46A1,1,0,0,0,333.26,109.15Z"/><path class="cls-28" d="M365.36,33.52a4.58,4.58,0,0,1-.22-1.68,1.67,1.67,0,0,1,.91-1.35,2.67,2.67,0,0,0,.69-.3A1.08,1.08,0,0,0,366.8,29a2.35,2.35,0,0,1-.39-1.25c.1-.77,1.1-1.05,1.87-1a3.82,3.82,0,0,0,2.3-.06c.94-.53,1-1.93,1.76-2.65,1-.9,2.56-.36,3.86-.65a8.75,8.75,0,0,1,1.64-.41,2.39,2.39,0,0,1,2,1.13,7.15,7.15,0,0,1,.89,2.17,1.33,1.33,0,0,1,.06.81,1.35,1.35,0,0,1-.95.69l-13,4.47"/><path class="cls-28" d="M366.38,33.25a3.49,3.49,0,0,1-.13-2c.23-.69.53-.61,1.11-.94,1.15-.66.27-1.55.1-2.47a.88.88,0,0,1,.19-.78c-.12.15-.51,0,.05.11.13,0,.27,0,.4.06a5.78,5.78,0,0,0,1.81,0,3.25,3.25,0,0,0,2.49-1.7,9.2,9.2,0,0,1,.58-1.23,1,1,0,0,1,.39-.4,3.54,3.54,0,0,1,.92,0,8.56,8.56,0,0,0,1.6-.12c.62-.12,1.28-.53,1.89-.24a4.35,4.35,0,0,1,2,3.3c0,.42,0,.64-.43.82s-.67.23-1,.34l-2.17.75L366.43,32c-.2.07-.8.26-.62.53s1.14-.08,1.3-.14l10.57-3.62c.82-.28,1.65-.55,2.47-.84.55-.2,1.36-.47,1.6-1.08s-.19-1.49-.4-2a3.9,3.9,0,0,0-1.24-1.8c-1.27-.94-2.55-.23-3.9,0-.66.12-1.38,0-2,.05a5.77,5.77,0,0,0-2.15.61,2.7,2.7,0,0,0-1.13,1.09,8.08,8.08,0,0,0-.37.79,5.67,5.67,0,0,0-.48.85l-.07.09c.43,0,.41-.07,0-.08l-.53-.07a5.52,5.52,0,0,0-.81-.06,5.37,5.37,0,0,0-2.15.5,1.59,1.59,0,0,0-1,1.15c-.07.66.92,1.63.46,2.25-.05.06-.57.22-.76.34a2.19,2.19,0,0,0-.67.65,3.21,3.21,0,0,0-.08,2.56c.11.4,2.15-.13,2-.54Z"/><path class="cls-28" d="M367.38,126.35,336.31,143l-9.06-1.9-16.16-20.4,1.61.7a3.67,3.67,0,0,1,3.17,3.06,2.86,2.86,0,0,1,3.13,1.06,2.4,2.4,0,0,0,.56.7c.62.4,1.42-.15,2.16-.11,1,.06,1.58,1.18,1.84,2.15s.55,2.11,1.46,2.55c1.18.56,2.94-.32,3.71.73.41.54.25,1.32.44,2,.44,1.49,2.37,1.81,3.92,1.85a1.72,1.72,0,0,0,1.39-.37,1.65,1.65,0,0,0,.22-1.35,13.44,13.44,0,0,0-.62-2.48c-.32-.93-.71-2.09,0-2.79a2.3,2.3,0,0,1,1.06-.52c1.44-.42,2.88-.82,4.33-1.2a1.6,1.6,0,0,1,1.14,0c.81.43-.06,1,.72,1.49l.6,1.12a2.89,2.89,0,0,0,1.21,2.14,1.8,1.8,0,0,0,2.3-.3c.44-.56.44-1.4,1-1.88,1-.91,3,.09,3.7-1,.33-.51.17-1.18.3-1.76.3-1.39,2-1.87,3.43-2s3.1-.32,3.74-1.58c.43-.83.24-1.89.75-2.68.75-1.16,2.46-1,3.83-.77a1.1,1.1,0,0,0,.82-.07c.31-.23.3-.69.39-1.06a2.29,2.29,0,0,1,1.59-1.53,6.78,6.78,0,0,1,2.29-.19"/><path class="cls-28" d="M366.94,125.85l-27.17,14.51-3.9,2.09,1.09-.13-7.55-1.58a5.25,5.25,0,0,0-1.34-.28c-.29,0,.16.33.08,0-.13-.5-.94-1.19-1.26-1.59l-11.32-14.3-3.48-4.39-1.85,1c1.88.82,4.09,1.14,4.55,3.5.1.48.94.38,1.24.31,1.65-.41,1.88,1.6,3.21,1.91.67.16,1.26-.21,1.89-.16s1.05.82,1.27,1.45c.35,1,.5,2.27,1.49,2.93a3.22,3.22,0,0,0,1.61.48c.57,0,1.43-.21,2,.06.68.35.45,1.46.63,2.07a2.58,2.58,0,0,0,.72,1.11,5.48,5.48,0,0,0,3.24,1.08,4.25,4.25,0,0,0,3.08-.6c1.13-.89.62-2.52.29-3.7a11.78,11.78,0,0,1-.63-2.13c-.09-1.07.48-1.11,1.36-1.36l2.6-.73c.22-.06.77-.32,1-.19s.05.41.15.7a6.66,6.66,0,0,0,.64,1,4.5,4.5,0,0,1,.36.92,3,3,0,0,0,2.42,2.38,3.38,3.38,0,0,0,3-1c.37-.43.52-1.59,1-1.85s1.35,0,1.79-.09a2.57,2.57,0,0,0,2.24-1.62c.2-.7-.08-1.53.51-2.08a3.23,3.23,0,0,1,1.86-.58,8,8,0,0,0,4-1.14,3,3,0,0,0,1.06-1.36c.27-.7.13-1.76.61-2.35s1.54-.29,2.17-.2a3.13,3.13,0,0,0,1.91-.2,1.74,1.74,0,0,0,.92-1.1c.12-.35.07-.67.31-1,.5-.67,1.47-.54,2.2-.52.43,0,1.23-.14,1.41-.61s-.15-.7-.6-.71a6.65,6.65,0,0,0-4.26.94,3.16,3.16,0,0,0-.94,1.08,1.91,1.91,0,0,0-.23.77c-.14.39,0,.4.26,0l-.58-.08a5.94,5.94,0,0,0-3.36.43c-1.33.66-1.51,1.74-1.79,3.07-.37,1.73-2,1.5-3.41,1.71a6,6,0,0,0-3.25,1.37,2.68,2.68,0,0,0-.78,1.31,9.64,9.64,0,0,1-.08,1.1c-.17.44,0,.35-.48.47s-1.2,0-1.77.14a2.93,2.93,0,0,0-1.68,1c-.34.43-.36,1.06-.68,1.48-.64.82-1.38-.86-1.55-1.42-.24-.77-.77-1.47-1-2.19-.15-.47-.09-.76-.61-1a2.58,2.58,0,0,0-1.48-.18,28,28,0,0,0-5.38,1.47c-1.07.38-2,1-2,2.26,0,1.46.87,2.85,1,4.3.11,1.07-.69.8-1.49.64a2.58,2.58,0,0,1-1.62-.85c-.81-1.08-.05-2.58-1.6-3.19s-3.06.45-3.85-1.24c-.55-1.15-.53-2.63-1.7-3.42a2.7,2.7,0,0,0-1.88-.39c-.32,0-.83.28-1.14.1s-.39-.59-.56-.77a4.08,4.08,0,0,0-4.07-1l1.24.31c-.52-2.67-2.88-3.1-5-4-.47-.21-2.49.17-1.84,1L319,132.36l5.59,7.06c.8,1,1.32,2.12,2.61,2.39,2.74.57,5.48,1.28,8.24,1.72,1.24.2,2.26-.6,3.32-1.16l15.91-8.51,13.13-7c1.3-.7.11-1.53-.88-1Z"/><path class="cls-28" d="M367.45,116.18a1.14,1.14,0,0,1-.11-1.55,3.37,3.37,0,0,1,1.42-.94l2.53-1.09a4.51,4.51,0,0,0,2.21-1.55,5.9,5.9,0,0,0,.45-2.88,2.67,2.67,0,0,1,1.22-2.5c.37-.17.81-.19,1.11-.47s.35-.75.57-1.1a4.3,4.3,0,0,1,1-.9c1.73-1.4,1.62-4.37,3.49-5.55-.29,7.24-4.59,13.59-8.16,19.89-2.06,3.63-3.92,7.37-6.27,10.82a27.15,27.15,0,0,1-8.86,8.66c-7.57,4.24-16.95,2.91-25.42,4.8"/><path class="cls-28" d="M368.46,115.79c-1.27-1.28,1.57-2.16,2.38-2.51a13.2,13.2,0,0,0,2.81-1.41A3.26,3.26,0,0,0,375,109.5c.11-1-.19-2.45.54-3.32.52-.62,1.49-.56,2-1.33a5.09,5.09,0,0,1,1-1.36,6.54,6.54,0,0,0,.95-.87c1.18-1.46,1.24-3.76,2.82-4.88l-1.92.2c-.23,4.67-2.1,9-4.3,13-2.3,4.24-4.74,8.41-7.1,12.61s-4.88,8.15-8.51,11.17-8,4.28-12.6,4.86c-5.08.64-10.21.71-15.23,1.8-.22,0-1.09.34-1,.69s1,.17,1.19.12c9.2-2,19.32-.45,27.52-6a32.27,32.27,0,0,0,9.1-10.21c2.71-4.41,5.12-9,7.69-13.52,2.68-4.72,5.09-9.66,5.37-15.17,0-.57-1.73.08-1.92.21-1.76,1.24-1.83,3.38-3,5a8,8,0,0,1-1.3,1.16,4.88,4.88,0,0,0-.7,1.1c-.3.46-.8.48-1.26.77a2.65,2.65,0,0,0-.95,1c-.58,1-.37,2.19-.49,3.31-.2,1.78-1.52,2.22-3,2.85-1.12.49-5.29,1.92-3.41,3.83.43.44,2.44-.35,2-.78Z"/><path class="cls-28" d="M317.5,121.75c.36.72,2,1.06,1.93,1.86a4.94,4.94,0,0,0,0,1.33c.21.92,1.25,1.58,1.19,2.52,0,.37-.23.74-.13,1.09s.29.54.14.76a.37.37,0,0,1-.49.08,1.18,1.18,0,0,1-.37-.4"/><path class="cls-28" d="M316.51,122.23a4.15,4.15,0,0,0,1.5,1.19l.17.12c.05,0,.13.12,0,0a1,1,0,0,1,.13.16c-.08-.13,0,0,0,0s0,0,0,0v.13c0,.13,0,.27,0,.4a3.66,3.66,0,0,0,0,.81c.11.83.74,1.36,1.09,2.07a1.29,1.29,0,0,1,0,.93,1.78,1.78,0,0,0,0,.69,1.42,1.42,0,0,0,.11.35l0,.11c.05.19.09.15.12-.14l.43-.32c.65-.36,1,.26.67-.22-.55-.84-2.6,0-2,1a1.64,1.64,0,0,0,1.91.72,1.52,1.52,0,0,0,1-.84,1.36,1.36,0,0,0-.1-1,1.47,1.47,0,0,1,.06-.75,1.88,1.88,0,0,0,0-.85,4.29,4.29,0,0,0-.76-1.37,1.76,1.76,0,0,1-.4-1.27,1.9,1.9,0,0,0-.21-1.46,3.46,3.46,0,0,0-1-.78c-.17-.11-.34-.21-.5-.33s-.23-.21-.11-.08a.82.82,0,0,1-.16-.22c-.26-.47-1.08-.37-1.47-.18s-.77.66-.51,1.14Z"/><path class="cls-28" d="M311.46,120.7a5.85,5.85,0,0,0,.15,2.17,2,2,0,0,0,1.52,1.42c.32,0,.69,0,.91.21.46.48-.33,1.16-.42,1.81s.47,1.08,1,1.35a3.28,3.28,0,0,1,1.48,1c.52.86,0,2.29.85,2.81.57.34,1.54.13,1.71.76a1,1,0,0,1,0,.49,4.49,4.49,0,0,0,.25,2.92,2.09,2.09,0,0,0,2.49,1.07"/><path class="cls-28" d="M310.38,121a4,4,0,0,0,.8,3.22,2.19,2.19,0,0,0,1.27.6c.14,0,.48,0,.59.1s-.08.59-.17.79a1.51,1.51,0,0,0,.54,2.26,8.52,8.52,0,0,1,1.39.77,1.88,1.88,0,0,1,.49,1.36c.07.86.13,1.64,1,2,.33.12.9.07,1.15.31s0,1.31-.05,1.74a3.11,3.11,0,0,0,1.33,2.85,3.46,3.46,0,0,0,3,.11c.26-.09.88-.41.61-.75s-1.12-.05-1.41.05c.49-.17.11-.07-.14-.18a2.11,2.11,0,0,1-.56-.42,2.67,2.67,0,0,1-.64-1.43,5.85,5.85,0,0,1,.08-1.77,1,1,0,0,0-.21-1c-.55-.52-1.56-.15-1.89-.92s0-1.61-.47-2.34-1.56-.84-2.16-1.52c-.79-.87.5-1.46.26-2.35s-1.42-.5-2-1c-.87-.74-.8-2-.74-3.07,0-.49-2.12-.17-2.16.57Z"/><path class="cls-28" d="M362.39,118.07c0-1.06-1.07-2.18-.43-3,.43-.57,1.32-.48,2-.25a2.65,2.65,0,0,0,2.09.14c.68-.41.76-1.35,1.15-2.05a2.42,2.42,0,0,1,2.91-1c.4.16.83.44,1.23.27a1.06,1.06,0,0,0,.52-.79c.15-.64.11-1.31.3-1.94a1.51,1.51,0,0,1,1.35-1.2,3.57,3.57,0,0,1,.37,2.34,4,4,0,0,1-1.25,1.68c-1,.92-2.23,1.92-3.55,1.59-.31-.08-.6-.24-.92-.29a2.06,2.06,0,0,0-1.8.73,6.1,6.1,0,0,0-1,1.75,3.55,3.55,0,0,0-3.19-.08"/><path class="cls-28" d="M363.47,117.78c-.06-.78-.56-1.44-.63-2.2,0-.15.05-.3.05-.44.15-.23,0-.23-.35,0-.06,0-.05,0,0,0,.35.12.74.2,1.09.3a4,4,0,0,0,2.94-.25,2.81,2.81,0,0,0,1.35-1.72,2.7,2.7,0,0,1,.52-1c.09-.1.44-.28.26-.25.36,0,.71.21,1,.32a2.51,2.51,0,0,0,1.51,0,2,2,0,0,0,1.7-1.64c.09-.5.08-1,.19-1.51a2.9,2.9,0,0,1,.18-.52,1.32,1.32,0,0,1,.19-.29c.23-.21.08-.19-.47.07l-.64-.23c.49,1.16.67,2.23-.24,3.22a9.42,9.42,0,0,1-1.23,1.13c-.35.27-.7.59-1.1.48a5,5,0,0,0-1.62-.33,4.38,4.38,0,0,0-1.87.53,5,5,0,0,0-2.09,2.65l1.94-.63a5.35,5.35,0,0,0-4.46,0c-.24.1-.89.39-.61.73s1.13.07,1.4-.05a2.21,2.21,0,0,1,1.92.2,1.84,1.84,0,0,0,1.95-.63,5,5,0,0,1,.93-1.61c.05,0,.25-.18.27-.24s-.09.13-.15.05a2.43,2.43,0,0,0,.84.26,5,5,0,0,0,3.67-.79,9,9,0,0,0,2.56-2.31,3.24,3.24,0,0,0,.05-3.28c-.09-.23-.43-.24-.63-.23a3.11,3.11,0,0,0-2.68,1.43,4,4,0,0,0-.37,1.53,6.14,6.14,0,0,1-.12.86,1.7,1.7,0,0,1-.1.32c-.28.4,0,.33.82-.2a2.58,2.58,0,0,0-1.34-.41,4.48,4.48,0,0,0-1.59.14,3.92,3.92,0,0,0-2.33,1.51,6.5,6.5,0,0,0-.5,1.11,2.51,2.51,0,0,1-.26.58,1.06,1.06,0,0,1-.16.21c.54-.1.64-.17.28-.19a5.78,5.78,0,0,0-1.44-.39,3.88,3.88,0,0,0-1.44,0c-.88.15-2,.66-2.07,1.7,0,.87.57,1.63.64,2.49.05.54,2.22.12,2.16-.58Z"/><path class="cls-28" d="M368.82,112.86a1.84,1.84,0,0,1,1.83,0,1.32,1.32,0,0,1,.51,1.66,2.26,2.26,0,0,1-1.08.84,15.81,15.81,0,0,1-3.42,1.32,5.31,5.31,0,0,1-3.58-.37"/><path class="cls-28" d="M369.28,113.43c.14-.06.13-.1.29-.08a2.18,2.18,0,0,1,.24.09.9.9,0,0,1,.39.67.7.7,0,0,1-.06.32.24.24,0,0,1-.1.1s-.21.14-.11.08c-.4.23-.83.41-1.25.6-1.48.67-3.19,1.31-4.76.5a1.53,1.53,0,0,0-1.54.15c-.31.22-.62.78-.14,1,2.74,1.42,5.74.28,8.3-1,1.07-.52,2.3-1.48,1.68-2.82s-2.6-1.46-3.86-.83c-.35.17-.86.61-.53,1s1.06.31,1.45.11Z"/><path class="cls-28" d="M376.75,105c-.73-1,0-2.39.81-3.27s1.92-1.76,2-3a6,6,0,0,0-.65-2.35,2.25,2.25,0,0,1,.18-2.33c.5-.51,1.38-.59,1.76-1.2.48-.8-.26-1.77-.4-2.7-.29-1.88,1.95-3.58,1.39-5.4,1.69,3.27,1.69,7.14,1.25,10.79A98.08,98.08,0,0,1,381,106.25a4.38,4.38,0,0,1-.87,2.06l-2.67-6.5a.57.57,0,0,1-.07-.31c0-.22.3-.31.51-.39a3.43,3.43,0,0,0,2.09-3.93,16,16,0,0,1-.61-1.89c-.08-.65.25-1.45.91-1.53l1.43,3.57a30.55,30.55,0,0,1-.3-8.54,16.74,16.74,0,0,1,1,4.52"/><path class="cls-28" d="M377.83,104.66c-1.23-2.06,1.59-3.54,2.45-5.08a3.09,3.09,0,0,0,0-2.75c-.4-1.08-1-2.4.2-3.18.61-.38,1.35-.59,1.56-1.38s-.52-1.81-.55-2.73c-.05-1.85,1.87-3.18,1.42-5.11l-2.16.58c1.73,3.5,1.69,7.45,1.19,11.24-.29,2.23-.74,4.44-1.23,6.64-.4,1.77-.57,4.15-1.7,5.62l2.14-.49-2-4.76c-.18-.43-.32-.89-.54-1.3a.57.57,0,0,0-.31-.53c-.21-.09-.17-.15.12-.19.32-.31.91-.44,1.27-.75a3.75,3.75,0,0,0,1.35-2.55,4,4,0,0,0-.33-1.8,4.62,4.62,0,0,1-.35-1.13c0-.2.23-1-.09-.93l-1.16,0,1.43,3.57c.18.45,2.24-.1,2.16-.58a31.73,31.73,0,0,1-.3-8.54l-2.16.58a18.05,18.05,0,0,1,1,4.52c0,.38,2.21,0,2.16-.58a18.5,18.5,0,0,0-1-4.52c-.17-.48-2.11.1-2.16.58a31.73,31.73,0,0,0,.3,8.54l2.16-.58-1.43-3.57c-.13-.31-1-.08-1.17,0-1.08.32-2,.87-1.9,2.14.08.87.66,1.6.7,2.49a3.26,3.26,0,0,1-.69,2.1c-.46.61-1.1.68-1.64,1.13s-.28.84,0,1.45L379,108.6c.23.55,1.91-.18,2.14-.48a6.67,6.67,0,0,0,1-2.73c.27-1.11.53-2.22.77-3.34.44-2,.83-3.93,1.11-5.92.55-3.94.67-8-1.13-11.7-.22-.44-2.27.12-2.16.58.42,1.83-1.37,3.18-1.41,5,0,.9,1,2.21.43,3s-1.68.7-2.06,1.7a3.49,3.49,0,0,0,.33,2.49,3,3,0,0,1-.16,3.17c-1,1.36-3.39,2.89-2.22,4.86.31.51,2.33-.31,2.16-.58Z"/><path class="cls-30" d="M334.82,115.41c5.86-1.59,15.16-4.9,15.16-4.9s1.52,12.55-12.07,16.25-18.65-7.88-18.65-7.88S329,117,334.82,115.41Z"/><path class="cls-31" d="M334.76,115.43c2.79-.76,13.89-4.31,13.89-4.31s-2,7.42-12,10.16c-10.93,3-15.86-2.46-15.86-2.46Z"/><path class="cls-32" d="M334.76,115.9c2.78-.76,11.13-3.56,11.13-3.56s-2.19,4-10.55,6.28-11.85-.08-11.85-.08Z"/><path class="cls-30" d="M318.4,118.16a22.18,22.18,0,0,0,3.4-.54c2.25-.84,3.53-1.86,5.16-2.45,2.79-1,4.92-.33,6.16-.66s2.74-2,5.65-2.56c1.71-.32,6-.81,8.38-1.23a23.36,23.36,0,0,0,3.21-1.26c.44,0,.49,3.35-15.1,7.59S318,118.38,318.4,118.16Z"/><path class="cls-28" d="M360.63,115c-.32-.53-1-.73-1.42-1.17a4.69,4.69,0,0,1-.84-2.53c-.17-.89-.69-1.89-1.59-1.93-.44,0-.92.18-1.27-.08a1.31,1.31,0,0,1-.37-.57,2.79,2.79,0,0,0-3.71-1.18l-4.3,2.28a3.89,3.89,0,0,1,.71-.13h.09a4.17,4.17,0,0,1,1-.2c4.23-.31,5.39,5,2.83,7.16a11.75,11.75,0,0,1,.43,1.8,7.35,7.35,0,0,0,1,3.61c1.08,1.4,3.13,1.59,4.89,1.36,1.11-.15,2.37-.53,2.81-1.57a3.67,3.67,0,0,0,.16-1.62c-.07-1.36-.14-2.72-.22-4.08A2.39,2.39,0,0,0,360.63,115Z"/><path class="cls-28" d="M361.63,114.62c-.38-.51-1-.71-1.41-1.16a2.82,2.82,0,0,1-.62-1.5c-.19-1-.31-2.17-1.25-2.8a2.33,2.33,0,0,0-1.37-.33c-.48,0-.5.07-.76-.36a3.52,3.52,0,0,0-.28-.46,3.44,3.44,0,0,0-2.56-1.3,7.2,7.2,0,0,0-3.89,1.26l-3,1.6c-.25.13-.56.42-.34.7s.85.16,1.14.09a4.25,4.25,0,0,1,2.86,0,3.34,3.34,0,0,1,1.59,1.74,4,4,0,0,1-.78,4.41c-.11.1-.27.28-.22.45.57,1.88.3,4.39,1.8,5.86,1.32,1.29,3.4,1.39,5.12,1.22s3.82-.72,4.42-2.44a9.48,9.48,0,0,0,0-3.36c-.06-1.09.11-2.51-.38-3.51-.35-.71-2.45,0-2.16.58a6.1,6.1,0,0,1,.32,2.41c.05.94.11,1.88.15,2.82,0,.75,0,1.65-.71,2.06a4,4,0,0,1-1.77.33,3.64,3.64,0,0,1-3.52-1.62,6.21,6.21,0,0,1-.6-2.24,16.43,16.43,0,0,0-.54-2.69l-.22.44a4.71,4.71,0,0,0,1-5.77,4.05,4.05,0,0,0-2.4-1.93,5.54,5.54,0,0,0-1.86-.2,7.46,7.46,0,0,0-.81.1l-.43.11c.31-.08-.38,0-.4,0a6.38,6.38,0,0,0-.76.15l.8.8,2.5-1.32c.68-.36,1.56-1.13,2.38-.9a2.24,2.24,0,0,1,1,.61c.34.35.44.89.81,1.21a1.76,1.76,0,0,0,1.18.29c.64,0,.89,0,1.26.58.5.84.37,1.9.73,2.79s1.36,1.23,1.95,2C360,116,362.12,115.29,361.63,114.62Z"/><path class="cls-26" d="M330,110.48l.7,2.55a1,1,0,0,1-.54,1c-2.54,1.24-10.85,5.32-13.26,6l-.17,0-.82.08c-.95.09-1.07-2.11-.32-2.74a43.55,43.55,0,0,1,5.08-3.91,49,49,0,0,1,8.11-4A1,1,0,0,1,330,110.48Z"/><path class="cls-30" d="M230.08,244.05c-5.38,1.18-14.23,2.44-14.23,2.44s4.06,10.71,16.52,8S244,240.29,244,240.29,235.45,242.87,230.08,244.05Z"/><path class="cls-31" d="M230.13,244c-2.56.56-12.95,2.38-12.95,2.38s4.69,5.12,13.94,3.09c10-2.21,11.69-8.64,11.69-8.64Z"/><path class="cls-32" d="M230.33,244.41c-2.56.56-10.43,1.83-10.43,1.83s3.44,2.29,11.1.6,9.48-5,9.48-5Z"/><path class="cls-30" d="M244.4,239.35a20.25,20.25,0,0,1-3,1c-2.16.28-3.61,0-5.17.2-2.66.37-4.09,1.81-5.22,2.06s-3-.46-5.61.33c-1.51.46-5.17,1.87-7.24,2.52a19.12,19.12,0,0,1-3.11.34c-.35.18,1,2.9,15.31-.25S244.8,239.37,244.4,239.35Z"/></svg>