<svg id="Layer_1" data-name="Layer 1" xmlns="http://www.w3.org/2000/svg" viewBox="0 0 637.33 635.77"><defs><style>.cls-1{fill:#c1e7f6;}.cls-2{fill:#898b5a;}.cls-3{fill:#ccb631;}.cls-4{fill:#936243;}.cls-5{fill:#b5bb80;}.cls-6{fill:#5e5f5e;}.cls-7{fill:#843324;}.cls-8{fill:#653c2d;}.cls-9{fill:#12100e;}.cls-10{fill:#868686;}.cls-11,.cls-26,.cls-27,.cls-28{fill:none;}.cls-11{stroke:#000;stroke-width:1.25px;}.cls-11,.cls-18,.cls-26,.cls-27,.cls-28{stroke-miterlimit:10;}.cls-12{fill:#263238;}.cls-13{fill:#fff;opacity:0.14;}.cls-14{fill:#622514;}.cls-15{fill:#684133;}.cls-16{fill:#31150d;}.cls-17{fill:#f0edf6;}.cls-18,.cls-19{fill:#907e2f;}.cls-18{stroke:#907d2f;stroke-width:1.33px;}.cls-20{fill:#141211;}.cls-21{fill:#211e1f;}.cls-22{fill:#cb8c2a;}.cls-23{fill:#643b2a;}.cls-24{fill:#301711;}.cls-25{fill:#efebf5;}.cls-26,.cls-27{stroke:#653c2d;}.cls-26{stroke-width:1.34px;}.cls-27,.cls-28{stroke-width:1px;}.cls-28{stroke:#704533;}</style></defs><circle class="cls-1" cx="319.06" cy="340.56" r="288.85"/><path class="cls-2" d="M494.55,570.14,393.5,572.21a392.31,392.31,0,0,0-6.42,49.28A287.68,287.68,0,0,0,494.55,570.14Z"/><path class="cls-3" d="M310.15,278,393.63,385.5c13.27,14.14,33.7,41.71,19.19,54.58h0c-13.14,11.66-39.15,12.61-52.17.81l-112.52-108Z"/><path class="cls-4" d="M418,405.45l-27-15.56L367.3,375.41l-25.64,66-9.16,7.44a144.15,144.15,0,0,0-21.66,21.82L254.55,541l14.26,18.59s94.78-67.56,107.44-81.28C383,471.07,402.71,433.17,418,405.45Z"/><path class="cls-4" d="M473.8,281.33l-.33,16.16-6.82.48s-8.79,1.57-14.86,5S427.46,347.3,444.5,357s102-49.21,102-49.21l-15.59-9-9.41-.22-12.58-14.9Z"/><path class="cls-5" d="M566.25,490.14a203.71,203.71,0,0,1-1.81-26c-.25-7-.32-41.25-.32-41.25l.5-.52,23.85-6.2c.67-29.94,23.62-77.46-3.28-94.36-18-11.31-29.12-20-55.14-24.58,0,0-23.56,51.37-70.1,37.74-22.09-6.47-6.47-32.39-5.4-34.27-1.11,1.46-3.65,1.8-5.23,2.22-5.31,1.41-10.44,2.63-15.8,3.95-7.82,1.93-14.53,2.4-22.17,4.94-7,2.31-9.11,3.65-15.19,8-9.24,6.57-21,25.85-26.91,35.26s-13.63,22.05-19,31.92l35.63,16.63c-8.06,32.81,6.84,41.44,12.3,49.93s11.06,51.83-5,91.93c-15.6,39-4.94,57.18-4.94,57.18,8.92,3.15,23,5,39.78,5.61A289.92,289.92,0,0,0,566.25,490.14Z"/><g id="freepik--character-1--inject-1332"><path class="cls-4" d="M250.48,244.16,161.71,230l-14.3,31.5s20,24.65,22.25,26,55.65,20.91,55.65,20.91,65.34-14.84,64.47-14.77S250.48,244.16,250.48,244.16Z"/></g><path class="cls-4" d="M187.6,163s-6.83,34.91-19.92,58.05c-1.83,3.22-25.59,13-25.59,13l30.47,15.56c17.41,6.87,57.84,12.11,76.19,8.47l15.95-7s-17.78-6.79-18-11.15,7.81-35.87,7.81-35.87"/><path class="cls-3" d="M289.74,264.26l-38.09-19.77c1.41,3.31,11.9,25.75-20.49,30.62l-7.78-.74C183,268.17,158.06,226,158.06,226l-9,5.38-77.34,203S65.37,446.23,57.22,463c45,95.54,140.74,162.91,252.53,166.27.39-8,.62-15.64.48-21.7-1-46.74-6.63-147-6.63-147L308,440.67l16.82-31.74c6.41-20.36,8.32-35.54,3.94-44.52Z"/><path class="cls-6" d="M176.7,57.8c5.78-6,13.9-9.47,21.49-6.17,1.93-15.49,18.24-22.39,33.74-20.54,7.91,1.3,15.53,6.08,23.4,4.56,4.91-.94,9-4.08,13.42-6.55,18.54-9.92,42.67,8.33,54.6,25.67s5.9,33.81-4.22,52.23c-4.7,8.57-4.88,13.59-7.34,23.12-2.32,9-10.35,25.15-11.79,34.21s11.34,20.65,2.07,20l-98-26.46c-15.24.74-24-5.14-29.7-19.32-3.63-9.6-1.92-9.76-1.08-20,.77-13.4-11.19-25.32-8.45-38.45C166.35,71.87,171.27,64.24,176.7,57.8Z"/><path class="cls-7" d="M164.4,55.42s37-12,80.74-.51,61.42,41.94,66.31,62.63-6.43,40-6.43,40,10.67,4.65,24-34.27c19.39-56.73-35-100.71-49.44-102.63S193.8-7,164.4,55.42Z"/><path class="cls-8" d="M248,231.12s-7.23-2.37-12.13-4.6-13.69-3.27-34.11-27.36c0,0,3,26.21,32.3,36.24,0,0,7.52,2.82,12.83,2.38Z"/><path class="cls-4" d="M298.06,82.37l.28.31a3,3,0,0,1-.21-.59ZM310.14,88q.23.33.48.66l.06-.23S310.21,87.73,310.14,88ZM199.07,195.79c9,15,24.44,32.32,43.41,36.07,6.79,1.35,14.13-.61,19.82-3.85,8.63-4.94,17.68-9.9,24.77-16.44,6.81-6.27,10.12-10.39,14.42-18.56,4.45-8.44,5-10.82,6.15-20a92.27,92.27,0,0,1,2.89-14c1.4-4.37,7.6-21.42,10.44-31.62s-.66-31.58-.66-31.58c.08-2.93-4.1-2.39-5.06-5l-1.21-.3a1.25,1.25,0,0,1,.33,1.26,9.76,9.76,0,0,1-3.75-3v0c-2,.39-3.63-.89-4.8-2.66-.07.28.1.91.4,1a6.27,6.27,0,0,1-4.43-2.87c-.07.28.1.91,0,1.19a11.35,11.35,0,0,1-3.47-2.68c.19.43,7.28,1.06,7.23,1.25-1.88-.17,0,.95-1.13-.81l-1.24-1.41c-1.58-.09-1.75.83-2.69-.58.23.36-.08-3.26-.14-3-1.82-.45-1.3-.45-2.6-1.66-.07.28-5.4.58-5.46.86-1.52-.37-1.46,1.11-2.4-.3.24.36,1.38-.89,1.62-.54-1.89-.17-2.86.83-4-.93.24.35-5.23-4.53-5.23-4.53-1.88-.17-1.71.48-2.95-1,.47.71-8.25-2.58-8.09-2-1.51-.38,1.52,6.25.52,5.12-.07.28-3.28-1.69-3.28-1.69-1.58-.1.35,1.85-.59.44-.07.28,0,1.19.33,1.26-2,.39-4-.69-5.54-2.25.47.7.64,1.34.87,1.69-1.51-.38-2.79-.4-4-1.88-.07.27.33,1.26.63,1.33a6.16,6.16,0,0,1-4.7-1.75c-.07.28.4,1,.63,1.33a4.41,4.41,0,0,1-3.49-1.45l.63,1.34c-1.21-.3-2.25,0-3.93-1-.07.27.47.7.4,1a11.83,11.83,0,0,1-3-1c-.07.28.7,1.06.4,1-1.21-.29-2.25,0-3.63-.89.23.35.4,1,.63,1.33-1.21-.3-2.48-.32-3.56-1.17a2.15,2.15,0,0,0,.33,1.26c-1.21-.3-2.25,0-3.63-.9-.07.28.4,1,.64,1.33a16.14,16.14,0,0,1-3.64-.89c-.06.27.47.7.71,1a10.28,10.28,0,0,1-3.87-1.24c-.14.55.1.9,0,1.18-.91-.23-1.44-.65-2.35-.88l-1.65.18c-5.61,4.51-20.4-3.9-20.4-3.9-11.23,5.18-8.14,46.65-9.15,52s-4.36,6.07-4.36,6.07c-1-2.31-4.3,3-4.65.54-.43-2.17.79-4.52.36-6.69-1.62-5.12-8-5.22-12-3.27l-.78.78c-6.18,5.13-5.93,25.89-3.92,32.53-1.9,12.06,7,20.8,14.91,13.71l.51,5"/><path d="M267.53,180.94a8.9,8.9,0,0,1-7.75-2.44c-.42-.43-2.16-.55-1.57.06a12.58,12.58,0,0,0,10.61,3.15c.32-.08.32-.31,0-.52a2,2,0,0,0-1.28-.25"/><path d="M257.4,177.68a14.33,14.33,0,0,0-4.56-2.4,1.1,1.1,0,0,0-.8.05c-.17.09-.24.25-.08.4a5.5,5.5,0,0,0,2.51,1.27,1,1,0,0,0,.9-.12c.21-.19,0-.4-.25-.45a4.32,4.32,0,0,1-2-1l-.89.45a12.74,12.74,0,0,1,4.07,2.16,1,1,0,0,0,.91.13c.21-.06.46-.26.22-.46"/><path d="M250.69,176.24c-1.95-.53-4.05-2-4.65-3.66-.91-2.58,1.32-5.75,4.12-6.56.3-.09.21-.33,0-.45a1.6,1.6,0,0,0-1.1,0,7,7,0,0,0-4.73,5.41c-.18,2,1.36,3.84,3.57,5a11.23,11.23,0,0,0,2.1.84c.3.08.86.12,1.06-.07s0-.37-.32-.45"/><path d="M271.37,180.84a.27.27,0,0,1,.34-.31,2.36,2.36,0,0,0,1.65-.12l.36.76a7.1,7.1,0,0,0-3.34.33.59.59,0,0,1-.61-.25c-.1-.14-.17-.42.05-.5"/><path d="M269.82,180.75a7.87,7.87,0,0,1,3.74-.35.64.64,0,0,1,.46.36.29.29,0,0,1-.1.4"/><path d="M275.38,182.11a4.11,4.11,0,0,0,4-1.53,5.88,5.88,0,0,0,0-6.64.24.24,0,0,1,.19-.39.78.78,0,0,1,.63.38,6.58,6.58,0,0,1,.76,5.84,4.63,4.63,0,0,1-3.9,3.14,4.89,4.89,0,0,1-1.48,0c-.2,0-.53-.22-.56-.47s.16-.32.34-.28"/><path class="cls-9" d="M297.71,147.37A4.32,4.32,0,0,1,303,151.7a4.53,4.53,0,0,1-2,3.73,4.2,4.2,0,0,1-4.87-.34,4.64,4.64,0,0,1-.92-5.77,4.16,4.16,0,0,1,2.49-1.95"/><path class="cls-9" d="M281.33,149.27s9.76-4.42,14.05-3.8c6.25.9,12.93,6.14,14.34,9.7,0,0-8.7-7.51-13.12-8C292.37,146.67,281.33,149.27,281.33,149.27Z"/><path class="cls-9" d="M246.65,135.42c-1.46-1.29-4.23-1.72-5.56-1a4.24,4.24,0,0,0-1.77,1.67,4.46,4.46,0,0,0,.05,4.23,4.18,4.18,0,0,0,4.46,2,4.61,4.61,0,0,0,3.5-4.67c0-.36.48-.91-.7-2"/><path class="cls-9" d="M256.15,142.53s-7.78-8.15-12.29-9.41c-6.58-1.83-15.45.1-18.38,2.73,0,0,11.84-3.13,16.44-1.72C246.32,135.48,256.15,142.53,256.15,142.53Z"/><path class="cls-10" d="M285.86,129.19c-.13,1.26-.26,2.53-.38,3.81-.1,1-.19,1.93-.28,2.9,3.32-.49,6.15-.73,8.28-.87,4.5-.28,6.8-.41,9.32.29a25,25,0,0,1,5.69,2.45,15.49,15.49,0,0,1,2.92,2c2,1.8,2.73,3.66,3.1,3.55s0-1.73-.07-1.89a14.88,14.88,0,0,0-4-6.91,17.35,17.35,0,0,0-5.69-3.35c-2.47-.91-9.46-2.1-18.91-1.94"/><path class="cls-10" d="M264.83,122.91c-.48,1.18-1,2.36-1.46,3.54-.37.9-.75,1.8-1.13,2.69-3-2.1-5.56-3.74-7.55-4.92-4.2-2.52-6.35-3.79-9.12-4.45a28.4,28.4,0,0,0-6.65-.7,17.45,17.45,0,0,0-3.76.24c-2.8.57-4.37,1.85-4.68,1.56s.86-1.49,1-1.62a15.11,15.11,0,0,1,7.14-4.07,19.73,19.73,0,0,1,7.08-.08c2.82.44,10.12,2.91,19.15,7.81"/><path class="cls-11" d="M187.25,142.53c-3.89-17.21-8.69-18.19-8.69-18.19s-3.92,3.11-3.65,10.82"/><path class="cls-11" d="M184.5,143.53c-4.24-1.21-2.39,7.46-3.93,9.14s-2.2-3.65-1.63-9.83c0,0,1.49-8.23,5.84-9"/><path class="cls-8" d="M255.94,103.34s9.61,7.17,20.36,8.82,24.24,2.29,24.24,2.29"/><path class="cls-10" d="M316.55,82.33c-.11-.22,0,.09,0,0-2.05-4.19-3.08-8.47-5.3-12.57s-4.36-7.68-6.77-11.57c-.14-.23-3.63-.91-3.78-1.13l-.15-.24-.23-.37-.55-.84c-15.45-10-35.4-14.36-54.48-11.79a67.69,67.69,0,0,0-58,76.14c.43,3.18-2,6.54.7,8.73s3.16,1.4,6.29-.08a22.48,22.48,0,0,0,7.59-6.89c10.06-13.31,15.75-36.19,14.95-52.86,1.45,3.36,15.55,2.45,18.24,4.93a26.21,26.21,0,0,0,37-1.5A39,39,0,0,0,275.36,78c11.4,16.6,28.21,26.51,44.9,18.86C320.87,96.59,317.82,85,316.55,82.33Z"/><path class="cls-12" d="M222.52,127.53l.56,6.08c.07,4.64,1.35,14.09,2.3,16.8,1.34,3.81,24.32,10.5,29.52,8.9S265.75,145,267.69,142.2l9.19,2.69c-.1,4.18-.14,17.5,1.23,19.61s12.12,4.31,13.33,4.55c1,.19,2.42.47,4,.7,4.11.64,9.16,1.1,11,0,2.75-1.69,7.18-9.58,11.16-17.09l.64-1.18c.14-.28.28-.47.31-.56h0l.71-1.35C307.34,140,289.5,137,277,142.32l0,.16-8.95-2.66c-8.66-9.21-25.54-17.06-39.37-15.09h0l-40.92-2.62-.94,3.46Zm57,35.94c-.85-1.32-1.09-10.71-1.05-18,10.84-4.46,26.91-1.69,37.72,6.13l-.05.18c-2.13,4-7.8,14.74-10.51,16.4-3.21,2-24.57-2.62-26.12-4.7Zm-51.14-13.36a122.9,122.9,0,0,1-3-21.84c12.49-2.5,31.48,4.95,40,13.76-2.91,5.19-7.2,14.44-10.93,15.58-5.35,1.65-25.22-5.1-26-7.5Z"/><path class="cls-13" d="M279.77,163.34c-.85-1.32-1.09-10.71-1-18,10.84-4.47,26.91-1.7,37.72,6.12l-.05.18c-2.13,4-7.81,14.74-10.51,16.41-3.21,2-24.57-2.63-26.12-4.71Z"/><path class="cls-13" d="M228.36,150.11a122.9,122.9,0,0,1-3-21.84c12.49-2.5,31.48,4.95,40,13.76-2.91,5.19-7.2,14.44-10.93,15.58-5.35,1.65-25.22-5.1-26-7.5Z"/><path class="cls-14" d="M168.72,123.86S139.05,94.24,156,70.17c3.25-4.62,3.26-2.93,4.09-7.24,4.35-22.58-4.45-18.43,33-39.71s42.27-20,92.43-8.23c25.87,6.1,38.47,19.31,43,37,2,8,2.44,16.84,1.68,26.39,0,0-51.07-23.73-85.64-11.6s-76.87,62.75-72.92,81.76C172.71,153.91,168.72,123.86,168.72,123.86Z"/><path class="cls-7" d="M152,95.75s55.87-58.94,116.7-51.38c0,0-73.48-19.83-115,28.31l-1.49,6.2a34.89,34.89,0,0,0-.75,11.79Z"/><path class="cls-15" d="M258.33,190.17c-9.58-2.46-24.81-7.65-24.81-7.65s-2.24,20.72,20,26.44,30.25-13.52,30.25-13.52S267.92,192.64,258.33,190.17Z"/><path class="cls-16" d="M258.43,190.19c-4.56-1.17-22.72-6.7-22.72-6.7s3.35,12.16,19.83,16.4c17.87,4.6,25.81-4.5,25.81-4.5Z"/><path class="cls-17" d="M258.44,191c-4.56-1.17-18.22-5.54-18.22-5.54s3.64,6.53,17.32,10.05,19.32-.47,19.32-.47Z"/><path class="cls-15" d="M285.14,194.23c-.45-.25-3.34,0-5.55-.79-3.69-1.32-5.78-3-8.45-3.89-4.57-1.58-8-.4-10.06-.93s-4.49-3.22-9.26-4c-2.79-.48-9.82-1.18-13.68-1.8-2.32-.38-4.73-2-5.25-2-.71,0-.75,5.54,24.75,12.1S285.77,194.57,285.14,194.23Z"/><polygon class="cls-2" points="385.89 403.54 397.36 343.98 382.51 401.56 385.89 403.54"/><path class="cls-2" d="M560.14,322.77s-29.95,28.62-5,100.78L551.44,425S524,355.45,560.14,322.77Z"/><polygon class="cls-2" points="550.42 425.32 566.61 423.04 566.14 421.61 550.01 423.59 550.42 425.32"/><path class="cls-3" d="M250.71,243.1S307.33,264,313,283.47C321.53,313,332.66,354,332.66,354l-35.57,18.13Z"/><path class="cls-18" d="M329.13,392.35c-.08-7.12-2-14.23-3.57-21.12q-2.62-11.48-6.23-22.68a342.42,342.42,0,0,0-14.43-38.23c-3.11-7.16-6.21-14.42-9.41-21.55,5.05,13.47,8.29,21.25,13.68,34.58,5.53,13.66,8.7,25.77,12.32,40.07,4.27,16.86,7.35,24.35,3.44,38.32S309.85,432,309.85,432l1.38,1.18S329.31,406.23,329.13,392.35Z"/><path class="cls-19" d="M307.19,459.77c.17-7.15.54-13,1.2-16.22C311.18,430,319,418,320.1,416.32c-1.3,1.92-11.81,17.63-14.24,24.77-.74,2.17-1,9.09-1,17.84A10.44,10.44,0,0,1,307.19,459.77Z"/><path class="cls-4" d="M120.14,416.33c-1.72,7.28-7.3,20.58-8.89,27.89-3.43,15.78,33.45,16.19,31,32.19l119.38-8,.85-35.6Z"/><path class="cls-18" d="M111.15,404.29a2.29,2.29,0,0,1,.33,1.79l74,15.39,1.28-2.17Z"/><path class="cls-3" d="M158.06,226s-60-5.57-84.84,22.21S19.71,376.82,14.67,396.06c-7.83,29.86.1,52.18,25.53,64.53,47.68,23.16,134.17,19.14,134.17,19.14L185,421.11l-73.53-15,6.48-70.5,35.3-88Z"/><path class="cls-18" d="M113.3,392.45q11.67-26.71,22.29-53.86C142,322.27,149.26,306.11,153,288.9c2.57-11.76-3.24-23.44-10.13-32.68-2.7-3.61-6.26-6.54-8.94-10.08,17.1,22.53,17.23,34.53,17.23,34.53a155.38,155.38,0,0,1-5.47,25.06c-5.59,18.67-37.35,91.83-37,95.88s3,3.53,3,3.53l.16-.71S107.22,404.08,113.3,392.45Z"/><path class="cls-18" d="M61.23,469.56s25.3,11.77,66.62,13.5,46.27,1.75,46.27,1.75L176,474.24l1-.05-2,11.31s-52-.35-72.23-3.1a232.67,232.67,0,0,1-39.84-9.61Z"/><path class="cls-18" d="M111.15,403.37s-11.48-.95-30.75,10.37l30.75-10.37"/><path class="cls-20" d="M586.32,249.92c-3.54-2.06-7.11-4.71-8.84-8.54a20.2,20.2,0,0,1-1.41-8.67,5.29,5.29,0,0,1-.74-1.22c-2.88-6.78,1.9-15.58-2.36-21.61-3.89-5.48-13.6-4.21-17.29-9.84-2.87-4.39-.52-8.78-1.87-12.77s-7.49-7-11.59-6.09l-27.68,50.33c-1.42,16.07-3.68,24.7.71,33.69,2.73,4.68-3.63,9.24-2,14.4,1.26,5.29.51,11.47-3.54,15.08,19.57-.45,46.32-8.49,62.13-20l4.45-3.28c-7.41-3.05-13.8-15.59-13.8-15.59,3.81,4.77,10.78,11.48,16,13.84a20.14,20.14,0,0,0,2.6-1.34c3.43-1,12-8.88,17.22-14A35.5,35.5,0,0,1,586.32,249.92Z"/><path class="cls-20" d="M436.38,155.31a34.87,34.87,0,0,0-12.88,8.37,42,42,0,0,0-13.05,38.51c1.29,6.71,4.12,14.26,0,19.88s-13.13,6.24-17,11.92c-4.53,6.68.86,15.49-.16,23.4-1.24,7.64-8.18,13.26-16.37,13.28a67.89,67.89,0,0,0,33.57,10.17l7.76-11.74a10.88,10.88,0,0,0,2.21,13.69,26.71,26.71,0,0,0,14.26,6.28c11.89,1.35,38-4.84,70.76-17.74L447.19,152.27"/><path class="cls-20" d="M569.38,192.25c-2.14-4.6-5.37-8.76-7-13.54-3.54-10.3.57-22.63-5.84-31.6-4.57-6.39-13.07-8.91-21-10.47s-16.44-2.66-22.76-7.49c-4.65-3.53-7.62-8.72-12.28-12.28-6.59-5.1-15.64-6.15-24.09-5.87a52.82,52.82,0,0,0-24.92,6.26,26.19,26.19,0,0,0-13.57,20c-.2,4,.73,8.12-.16,12-1,4.33-4.11,7.91-5.83,12a20.64,20.64,0,0,0,8.3,24.73l67.24,67.15c12.95,3.31,42.52-4.91,51.22-14.57S574.74,203.88,569.38,192.25Z"/><path class="cls-4" d="M459.11,246.94s-.45,48.62-1.35,53.18l-3.23,1.46-.27,8.6c18.56,16.84,23.29,17.34,47.42,10.57l23.79-19.95a11.12,11.12,0,0,1-3.35-5c-5.82-15.24,7.28-49.44,7.28-49.44"/><path class="cls-4" d="M550.06,216.82l-.46-.89c-2.92-2.83-8.48-4.55-11.34-.58-1,1.75-2.43,3.71-3.42,5.46-1,2-2.56,6.11-4.11,7.82,0,0-8.36-21.64-7.71-26.55s17.32-14.79,9.06-22.45c0,0-8.53-9.83-12.53-15.58-.94-.59-1.88-1.15-2.85-1.69a9.43,9.43,0,0,1-1.54.08c0-.21.2-.41.3-.74l-.34-.18a10.79,10.79,0,0,1-3.3-.11c.3-.24.89-.46.91-.72a14.36,14.36,0,0,1-3.4-.25c.3-.24.91-.71.93-1-1.46.41-2.27-.17-3.4-.26a1.92,1.92,0,0,0,.64-1,7.55,7.55,0,0,1-3.41,0c.3-.23.62-.73.92-1-1.45.41-2.26-.17-3.39-.25-.27,0,.49-.42.6-.69l-.11,0a11.27,11.27,0,0,1-2.72,0c0-.23.46-.43.58-.65l-.18,0c-1.58.29-2.37-.23-3.45-.31l.43-.46-.5-.11a4.41,4.41,0,0,1-2.44-.14l.38-.31-1-.19a5.12,5.12,0,0,1-3.06-.29.68.68,0,0,0,.37-.2l-1.08-.18a12.11,12.11,0,0,1-2.38-.11,2.08,2.08,0,0,0,.21-.21c-.48-.07-1-.13-1.45-.18a4.79,4.79,0,0,1-2.63-.3c-1.75-.17-3.49-.31-5.23-.4-13.06-.72-27.49-.57-38,8.27a127.54,127.54,0,0,0-9.47,20c-4.72,12.35-6.28,32.36-6.31,36.54,0,3.62-2.75,10.43-3.47,14.15-3.88,20.11,10.39,42,25.34,54.44,6,5,11.5,3.67,17.8,3.29,12.86-.77,32.57-7.07,44.6-17.52l17.09-13.46,1.86-4.19c2,8.34,13.49,3.92,15.27-7C551.56,237.54,554,223,550.06,216.82Z"/><path d="M450.09,242.31a7.37,7.37,0,0,0,6.53.15c.43-.21,1.78.14,1.17.44a10.34,10.34,0,0,1-8.87-.35c-.23-.14-.17-.31.13-.38a1.66,1.66,0,0,1,1,.14"/><path d="M458.64,242.46a11.89,11.89,0,0,1,4.08-.63,1,1,0,0,1,.6.24c.11.11.12.25,0,.32a4.47,4.47,0,0,1-2.24.3.85.85,0,0,1-.66-.31c-.1-.19.13-.29.32-.27a3.55,3.55,0,0,0,1.8-.25l.57.56a10.71,10.71,0,0,0-3.66.57.89.89,0,0,1-.72-.14c-.14-.1-.28-.31-.05-.39"/><path d="M464.11,243.09a5.66,5.66,0,0,0,4.48-1.53c1.35-1.68.47-4.75-1.46-6.06-.21-.14-.08-.29.15-.32a1.4,1.4,0,0,1,.85.25,5.69,5.69,0,0,1,2.22,5.36c-.38,1.53-2,2.49-4,2.78a9.18,9.18,0,0,1-1.82.08c-.24,0-.68-.12-.78-.31s.12-.27.35-.25"/><path d="M447.19,241.27A.21.21,0,0,0,447,241a1.92,1.92,0,0,1-1.22-.5l-.47.47a5.85,5.85,0,0,1,2.46,1.09.47.47,0,0,0,.53,0c.11-.07.23-.26.09-.37"/><path d="M448.4,241.6a6.55,6.55,0,0,0-2.76-1.21.56.56,0,0,0-.45.15.22.22,0,0,0,0,.32"/><path d="M443.81,241.19a3.31,3.31,0,0,1-2.65-2.13,4.5,4.5,0,0,1,1.68-4.91.19.19,0,0,0,0-.34.65.65,0,0,0-.58.13,5.06,5.06,0,0,0-2.07,4.12,3.64,3.64,0,0,0,2.17,3.3,4,4,0,0,0,1.15.33c.16,0,.45,0,.54-.2s0-.28-.19-.3"/><path class="cls-21" d="M534.31,234.15a60.93,60.93,0,0,1,6-9,20.23,20.23,0,0,1,4.05-3.9,7.65,7.65,0,0,1,1.28-.72,2.68,2.68,0,0,1,.4-.15c.1,0,.38-.09.25-.07l.23,0s-.1,0,0,0c-.47-.28-.19-.05-.14.08s.24.48.34.72c1.3,3.1.89,6.63-.14,9.74-.12.36.85.24,1-.11a14.61,14.61,0,0,0,.29-9.48c-.22-.63-.44-1.61-1.24-1.53a5.56,5.56,0,0,0-2.21.83,16.85,16.85,0,0,0-4,3.49,56.58,56.58,0,0,0-6.91,10c-.23.41.74.34.91,0Z"/><path class="cls-20" d="M427.65,190.68c7-.83,11.24-.06,22.22,3.61l0,.26c-.12,1.49-.06.66-.18,2.16-.1,1.14-.19,2.28-.29,3.42-3.58-1.26-6.12-2.51-8.45-3.11-4.4-1.13-9.36-3-14-2.82C427.2,193,427.44,191.86,427.65,190.68Z"/><path class="cls-20" d="M474.58,195.69c-.1,1.5,0,.66-.14,2.16l-.21,3.43c3.72-.71,6.41-1.58,8.81-1.82,4.74-.5,10.2-1.66,14.89-.6,2.25.5,5.46,1.29,6.95,3.44.4.58,1.08,2.6,2,2.26.38-.14-.09-2-.14-2.22-1-3.79-4.07-5.56-7.92-6.71-7.86-2.36-11.9-2.37-24.23-.2"/><path class="cls-22" d="M534.74,252.86a5.59,5.59,0,0,1,1.2,7.47,4.78,4.78,0,0,1-1.46,1.37,6.6,6.6,0,0,1-1.87.65c.2-.06.15,0,0,0s-.29,0-.43,0a5.78,5.78,0,0,1-4.77-3.45c-.23-.56-1.62-.14-1.41.37a6.69,6.69,0,0,0,6.24,4,6.59,6.59,0,0,0,4.46-2.12,6.13,6.13,0,0,0,1.6-4.19,6.36,6.36,0,0,0-2.47-4.83c-.41-.33-1.68.27-1.1.75Z"/><path class="cls-21" d="M533.54,234.45c.93.08,2.33.27,2.46,1.43a5.3,5.3,0,0,1-.84,2.6c-.82,1.66-2.24,4-.91,5.75s4.11-.47,5.08-1.68a11.52,11.52,0,0,0,2.58-6.91c.05-2.53-.18-6.2-2.72-7.55-.24-.13-1,.26-.9.33,2.19,1.17,2.58,4.16,2.65,6.39a11.53,11.53,0,0,1-1.48,6.3,8.19,8.19,0,0,1-2.79,3.16c-1,.54-1.67-.28-1.91-1.21-.49-1.87,1-3.83,1.69-5.45a3.17,3.17,0,0,0,.41-2.39c-.43-1-1.8-1.09-2.7-1.17-.22,0-1.1.36-.62.4Z"/><path class="cls-20" d="M435.67,206.41a4.25,4.25,0,0,0-4.65.49,4,4,0,0,0-1.38,1.83,4.22,4.22,0,0,0,.71,3.93,4,4,0,0,0,4.46,1.13,4.37,4.37,0,0,0,2.52-4.9,3.86,3.86,0,0,0-1.66-2.48"/><path class="cls-20" d="M448.92,213.27s-7.57-6.83-11.64-7.54c-5.94-1-11.76,1.83-14.1,4.61,0,0,8.32-4.31,12.49-3.46C439.66,207.69,448.92,213.27,448.92,213.27Z"/><path class="cls-20" d="M482.49,210.21a4.25,4.25,0,0,1,4.54,1.17,4.13,4.13,0,0,1,1.09,2,4.26,4.26,0,0,1-1.29,3.79,4,4,0,0,1-4.58.45,4.38,4.38,0,0,1-1.76-5.22,3.89,3.89,0,0,1,2-2.2"/><path class="cls-20" d="M472.06,215.13s9-5.58,13.45-5.68c8-.18,15,4.84,17,7.94,0,0-11-6.76-15.49-6.56C482.7,211,472.06,215.13,472.06,215.13Z"/><path class="cls-23" d="M454.91,254.54c8.23.6,21.64.55,21.64.55s-3.73,17-22.81,15.58S433.41,252,433.41,252,446.68,253.94,454.91,254.54Z"/><path class="cls-24" d="M454.83,254.53c3.91.29,19.73.74,19.73.74s-5.87,8.72-20,7.69c-15.35-1.11-19.21-10.41-19.21-10.41Z"/><path class="cls-25" d="M454.61,255.14c3.92.28,15.87.45,15.87.45s-4.61,4.2-16.35,3.35S439,253.43,439,253.43Z"/><path class="cls-23" d="M432.64,250.62c.42-.07,2.64.89,4.6.85,3.26-.05,5.35-.81,7.71-.82,4,0,6.46,1.81,8.2,1.94s4.41-1.36,8.39-.74c2.33.36,8.08,1.68,11.29,2.21,1.93.31,4.27-.32,4.68-.18.56.19-.88,4.58-22.78,3S432.05,250.73,432.64,250.62Z"/><path class="cls-8" d="M458.25,289.28a78.47,78.47,0,0,0,42-11.43s-10.2,19.12-42.1,16.4Z"/><path class="cls-20" d="M516.56,134.07c-4-2.42-9.07-2.26-13.77-1.87a255.43,255.43,0,0,0-59.55,12.11c-.46,4.8,4.07,8.86,8.77,9.92s9.63,0,14.44-.41,10.13-.13,13.75,3.09,4.77,9.19,8.46,12.78c6.32,6.21,17.94,3.57,24.23,9.79,4.74,4.72,4.38,12.35,6.46,18.81,4,12.57,16.8,16.06,29.38,12a22.52,22.52,0,0,0,3-1.18C542.58,187,534.1,168.37,525,146.27,523,141.58,520.82,136.65,516.56,134.07Z"/><path class="cls-20" d="M367.22,257.19a7.6,7.6,0,0,0,.58,5,6.81,6.81,0,0,0,4.45,3.69,7.09,7.09,0,0,0,6.92-2.67,6.58,6.58,0,0,0,1.27-4.24,13.54,13.54,0,0,0-1.26-4.84c-1.36-3.18-3.81-6.53-3.93-10.86A15.68,15.68,0,0,1,380,231.47a18.18,18.18,0,0,1,5.7-3.78,26.87,26.87,0,0,1,6.82-1.71,38.56,38.56,0,0,0,6.64-1.37,9,9,0,0,0,4.88-3.77,10.93,10.93,0,0,0,1.31-5.93,21.57,21.57,0,0,0-1.11-5.95,46,46,0,0,1-2.89-11.18,17.42,17.42,0,0,1,2.51-9.83,22,22,0,0,1,5.79-6,42.68,42.68,0,0,0,4.69-4,13,13,0,0,0,2.7-4.43v.35a5.3,5.3,0,0,1-.3,1,9.81,9.81,0,0,1-2.1,3.38,39.27,39.27,0,0,1-4.63,4.21,21.89,21.89,0,0,0-5.49,5.9,16.46,16.46,0,0,0-2.26,9.32,45.42,45.42,0,0,0,3,10.91,22.26,22.26,0,0,1,1.2,6.2,12,12,0,0,1-1.44,6.52,9.88,9.88,0,0,1-5.48,4.29,37.89,37.89,0,0,1-6.83,1.44,25.86,25.86,0,0,0-6.55,1.62,16.92,16.92,0,0,0-5.37,3.55,14.7,14.7,0,0,0-4.51,11c.06,4,2.34,7.18,3.75,10.53a13.89,13.89,0,0,1,1.26,5.19,7.18,7.18,0,0,1-1.49,4.72,7.73,7.73,0,0,1-7.6,2.82,7.45,7.45,0,0,1-5.31-8A4.45,4.45,0,0,1,367.22,257.19Z"/><path class="cls-20" d="M576.14,230.51c0-.18,0-.35,0-.52a1.38,1.38,0,0,1,.25-.73c1.54-6.55,5.1-14.93,5.48-22.74.53-11-17.15-22.64-17.15-22.64L562.91,222s14.32,20.77,13,14.21A14.58,14.58,0,0,1,576.14,230.51Z"/><path class="cls-4" d="M543.11,538.65c-6.21,4.82-4.33-3.88-11.25-4.69a20.68,20.68,0,0,1-5.35-1.35,18.73,18.73,0,0,1-2.17-2.9,36.36,36.36,0,0,1-3.8-8.73c-.06-1.29-.11-2.59-.15-3.88-.29-9.72-5-10-2.49-19.71,3.18-12.29,9.91-50.56,13.08-62.84,10.54-40.88,12.06-72.61,49.72-100,11.73-8.52,2.71-12.66,11,.14,3.86,5.95,6.77,16.11,4.46,25.44-3.17,12.84-5.82,13.32-9.83,22.44-10.42,23.68,10.85,18.49,5.64,46.89-1.27,6.94-5.17,25.69-7.69,32.15-3.38,8.7-13.47,45.49-17.8,53.83-4.83,9.28-5.24,11.34-12.18,18.9-7.8,8.5-27.38,11.09-13.26,3.45"/><path class="cls-5" d="M565.53,311.77c13.75,7.66,28.17,11.1,34.92,25.65,5.76,12.4,7,33.92,6.47,47.24-.68,16.86.88,27.11-3.36,43.46-1.17,4.55-67.89,7.42-79.27-11.68-3.25-5.45,12.63-59.33,20.53-85.27,3.36-11.09-26.27-39.41-8.63-31.72l3.09,1.83C551,306.89,553.62,305.13,565.53,311.77Z"/><path class="cls-2" d="M557.06,334.93c-31.77,17.39-35.68,83.48-35.68,83.48l-2.79-1.88c1.55-16.28,2.76-30.37,13.21-54.67C531.8,361.86,547.76,334.93,557.06,334.93Z"/><path class="cls-4" d="M548.51,508.64c-.53-5.06-3.2-12-8-13.57-15.38-4.91-34.64-8.66-44.89-9.59-28.26-2.56-61.73-11-99.89-19.24-2.1-.45.4,4.45-6.05.14-5.54-3.69-16.13,21.08-6.41,26.48,14.44,8,95.94,38.69,103.48,41.7.35.14.69.25,1.05.36,12.22,3.59,27.16,15.2,53.3,6.71,14.27-4.64,25.1-32.72,24.44-39Z"/><path class="cls-4" d="M403.14,499.08c-.85-.21-13.15-4.05-20.77-3.74s-22.59-3.67-22.59-3.67-23.44-10.86-25.58-13.45-2.4-9-2.4-9a26.65,26.65,0,0,0-5.31-3.82c-5-3.23-3.31-10-3.31-10l7.88,1.83a215.87,215.87,0,0,1-22-5.85c-1.95-1-1.49-2.24-.42-3.51a9.22,9.22,0,0,1,6.78-2.9l41.56-.84a77.65,77.65,0,0,1-5.14-15.26c-1.21-5.32,3.33-6.06,4.77-6.06s10.85,11.45,10.85,11.45,19.22,11.37,22.58,14.63,20.27,21.58,20.27,21.58l7.69,1.84S404,499.28,403.14,499.08Z"/><path class="cls-26" d="M331.06,457.18a215.87,215.87,0,0,1-22-5.85c-1.95-1-1.49-2.24-.42-3.51a9.22,9.22,0,0,1,6.78-2.9l41.56-.84a77.65,77.65,0,0,1-5.14-15.26c-1.21-5.32,3.33-6.06,4.77-6.06s10.85,11.45,10.85,11.45,16.72,8.1,25.28,17.39"/><path class="cls-26" d="M359.78,491.67s-23.44-10.86-25.58-13.45-2.4-9-2.4-9a26.65,26.65,0,0,0-5.31-3.82"/><path class="cls-27" d="M357,444.08a77.65,77.65,0,0,1-5.14-15.26c-1.21-5.32,3.33-6.06,4.77-6.06s10.85,11.45,10.85,11.45,7.37,3.27,10.73,6.53"/><path class="cls-28" d="M308.67,447.82a9.22,9.22,0,0,1,6.78-2.9"/><path class="cls-28" d="M331.8,469.19a26.65,26.65,0,0,0-5.31-3.82c-5-3.23-3.31-10-3.31-10l7.88,1.83"/><path class="cls-8" d="M364.83,444.21a54.77,54.77,0,0,1,11.63,1.85,50.94,50.94,0,0,1-11.77-.53A92.84,92.84,0,0,1,353,444.36,36.79,36.79,0,0,1,364.83,444.21Z"/><path class="cls-8" d="M341.42,459.11c-4.74-.53-9-1.06-12.11-1.62a15.73,15.73,0,0,1-4.94-1.28,25.4,25.4,0,0,1,5.08.36c3.11.31,7.43.69,12.17,1.22,9.49,1,17.08,2.85,16.94,3.26S350.91,460.11,341.42,459.11Z"/><path class="cls-8" d="M345,472.77a39,39,0,0,1-13-3.71c.17-.23,5.95,1.4,13.27,2.54s13.35,1.33,13.35,1.71A40.4,40.4,0,0,1,345,472.77Z"/><path class="cls-2" d="M533.51,424.31s-10.07-4.8-11.66-5.91c-1.78-1.24-3.08-2.29-3.08-2.29l-.43,2.62s12.8,7.52,14.68,7.52Z"/><path class="cls-4" d="M239.79,436.74l6.08,16.2,6.29,15.94S280,473.31,287,471.41s24.09-7.05,24.09-7.05a9.53,9.53,0,0,0,.62,6.48,9.39,9.39,0,0,0,5.88,4.51l5.61-12.29c2.85,4.83,6.87.24,6.87.24l3.81-10.64c3.25,6.14,8.61.3,8.61.3l.91-14.21a21.83,21.83,0,0,0,7.18,4.56c3.4,1,3.6-4.61,3.6-4.61l-15.35-19.51-33.78-4.57-49.82,20.66Z"/><path class="cls-27" d="M311.21,464.37a9.6,9.6,0,0,0,.63,6.48,9.37,9.37,0,0,0,5.87,4.51l5.62-12.29c2.84,4.83,6.86.24,6.86.24L334,452.67c3.26,6.14,8.62.3,8.62.3l.91-14.21a21.73,21.73,0,0,0,7.17,4.56c3.41,1,3.6-4.61,3.6-4.61L339,419.21"/><path class="cls-8" d="M318.57,420.8a50,50,0,0,1,6.43,1.25c2.37.6,5,1.26,7.7,2.23a36,36,0,0,1,7.32,3.38,5,5,0,0,1,2.4,3,22.61,22.61,0,0,1,.62,3,13.81,13.81,0,0,1,.3,6c-.21,0-.46-2.15-1.32-5.72-.23-.88-.45-1.91-.76-2.85a3.86,3.86,0,0,0-1.95-2.19,44.35,44.35,0,0,0-7.12-3.16c-2.61-.91-5.15-1.59-7.52-2.25s-4.46-1.27-6.22-1.57a17.55,17.55,0,0,0-5.74.14A7.67,7.67,0,0,1,318.57,420.8Z"/><path class="cls-8" d="M315,433.66c3.4.69,8.21,1.15,13.45,2.54a9.55,9.55,0,0,1,3.86,1.69,13,13,0,0,1,2,3.34,12.81,12.81,0,0,1,1.44,6.19,24.05,24.05,0,0,1-1,4.11,10.3,10.3,0,0,1-.51,1.45,5.26,5.26,0,0,1,0-1.55,26.51,26.51,0,0,0,.47-4,12.45,12.45,0,0,0-1.64-5.7,13.54,13.54,0,0,0-1.7-2.83,9.17,9.17,0,0,0-3.25-1.3c-5.06-1.34-9.9-2-13.29-3a14.75,14.75,0,0,1-5.31-2.11A43.37,43.37,0,0,1,315,433.66Z"/><path class="cls-8" d="M324,459.25a6.92,6.92,0,0,0,.1-4.08,5,5,0,0,0-3.41-3.16,16.16,16.16,0,0,0-5.22-.59l-4.54-.06c-1.14,0-2.21-.15-2.87-.13a4.93,4.93,0,0,0-1,.2c-.12,0,.13-.55.93-.77a18.52,18.52,0,0,1,3.06-.36l4.54-.26a15.1,15.1,0,0,1,5.75.55,6.29,6.29,0,0,1,4.27,4.2,7.71,7.71,0,0,1-.42,4.81c-1.12,2.47-2.21,3.56-2.36,3.56S323.4,461.62,324,459.25Z"/><path class="cls-8" d="M519.7,489.55s13.51,3.08,23.48,18.81C543.18,508.36,537.36,487.57,519.7,489.55Z"/></svg>