<svg id="Layer_1" data-name="Layer 1" xmlns="http://www.w3.org/2000/svg" viewBox="0 0 637.33 635.77"><defs><style>.cls-1{fill:#c1e7f6;}.cls-10,.cls-13,.cls-2,.cls-30{fill:#fff;}.cls-2,.cls-3{stroke:#05090a;stroke-width:0.69px;}.cls-13,.cls-2,.cls-3,.cls-36,.cls-38,.cls-41,.cls-42,.cls-53,.cls-54,.cls-56{stroke-miterlimit:10;}.cls-3{fill:#eee8ca;}.cls-4{fill:#48484a;}.cls-5{fill:#936243;}.cls-6{fill:#ccb631;}.cls-7{fill:#653c2c;}.cls-8{fill:#619f52;}.cls-9{opacity:0.4;}.cls-11{opacity:0.5;}.cls-12{opacity:0.59;}.cls-13{stroke:#78b242;stroke-width:0.96px;}.cls-14{fill:#78b242;}.cls-15{opacity:0.58;}.cls-16{fill:#798090;}.cls-17{fill:#7d6c2b;}.cls-18{fill:#956243;}.cls-19{fill:#684135;}.cls-20{fill:#cd8c2a;}.cls-21{fill:#010101;}.cls-22{fill:#868686;}.cls-23{fill:#151311;}.cls-24{fill:#843323;}.cls-25{fill:#622616;}.cls-26{fill:#653d2a;}.cls-27{fill:#301810;}.cls-28{fill:#f0edf6;}.cls-29{fill:#273339;}.cls-30{isolation:isolate;opacity:0.14;}.cls-31{fill:#9297ca;}.cls-32{fill:#171514;}.cls-33{fill:#3e488c;}.cls-34{fill:#221f1f;}.cls-35,.cls-36{fill:#161312;}.cls-36{stroke:#181513;stroke-width:0.09px;}.cls-37{fill:#f8f5e6;stroke:#cbba9a;stroke-miterlimit:10;stroke-width:0.31px;}.cls-38,.cls-41,.cls-42,.cls-53,.cls-54,.cls-56{fill:none;}.cls-38{stroke:#ce9b32;stroke-width:0.27px;}.cls-39{fill:#9f2522;}.cls-40{fill:#ce9b32;}.cls-41,.cls-42,.cls-56{stroke:#221f1f;}.cls-41{stroke-width:0.31px;}.cls-42{stroke-width:0.15px;}.cls-43{fill:#dac325;}.cls-44{fill:#181d1e;}.cls-45{fill:#d7d7d7;}.cls-46{fill:#a52723;}.cls-47{fill:#af6b5b;}.cls-48{fill:#834e44;}.cls-49{fill:#dea826;}.cls-50{fill:#273238;}.cls-51{fill:#465b65;}.cls-52{fill:#97712b;}.cls-53{stroke:#dea826;stroke-width:0.4px;}.cls-54{stroke:#414242;stroke-width:0.16px;}.cls-55{fill:#5a3426;}.cls-56{stroke-width:0.28px;}.cls-57{fill:#cb8c2a;}</style></defs><circle class="cls-1" cx="319.06" cy="340.56" r="288.85"/><rect class="cls-2" x="490.51" y="251.47" width="134.33" height="123.3" transform="translate(31.86 -50.97) rotate(5.39)"/><rect class="cls-3" x="493.75" y="254.44" width="127.86" height="117.36" transform="translate(31.86 -50.97) rotate(5.39)"/><path class="cls-4" d="M597.16,363.58l-29.86-5.51-5.67,1.81-1,3.82a46,46,0,0,0-1.29,8.1l37.11,3.29C597.1,368.58,597.15,363.72,597.16,363.58Z"/><path class="cls-5" d="M563.68,504.29l-19.39-8.86s-22.65,13.87-26.09,22.8l-3.44,8.94,14.52,8.38Z"/><path class="cls-6" d="M511.49,479.68c-2.77,32-56.74,32.77-69,11.65-12-20.6-16.65-53.43-45.85-121.06-35.18-81.5,31.66-95.48,45.82-88.81C470.88,294.86,514.24,447.93,511.49,479.68Z"/><path class="cls-5" d="M75.43,509.23l19.39-8.85s22.65,13.87,26.08,22.81l3.44,8.94-14.52,8.37Z"/><path class="cls-5" d="M526.4,533.42,536.64,555s16.78,11.8,21.65,12.72S568.55,561,568.55,561s-2.44-4.84,1.32-.78,9.78-4.5,9.78-4.5l9.1,2.6a13.82,13.82,0,0,0,11.84-2.6c5.12-4.47-2-12.31-3.57-14.39s2-2.55,2-2.55a154.62,154.62,0,0,0,20,4.59c6.61.62,10.47,1.7,11-4.17s-12.17-8.75-16.23-10.38-17.31-12.72-17.84-17.72,4.3-6.3,16.15-9,23.48-5.77,22.36-12-19.32-4.31-26-1.24-23.75,0-37.44,4.15-23.44,20.54-23.44,20.54Z"/><path class="cls-7" d="M585.4,545.56a18,18,0,0,1-2.91-4.82,5.63,5.63,0,0,1,.71-5.92,5.77,5.77,0,0,1,5.87-1.19,11.34,11.34,0,0,1,4.55,3c2.2,2.42,3.31,4.24,3.54,4.08a12.22,12.22,0,0,0-2.66-4.8,11.38,11.38,0,0,0-5-3.59,7.22,7.22,0,0,0-7.52,1.48,5.89,5.89,0,0,0-1.62,3.9,8.41,8.41,0,0,0,.68,3.67,17,17,0,0,0,3.28,4.92c2.29,2.46,3.36,4,3.55,4.05S587.33,548.2,585.4,545.56Z"/><path class="cls-7" d="M562.52,541.66a94.23,94.23,0,0,1-4.66-13.15,26.1,26.1,0,0,1-1.15-7.9,4.57,4.57,0,0,1,1.7-3.17,3.65,3.65,0,0,1,3.81-.08c2.52,1,3.78,3.85,4.94,6.42l3.33,7.66,6,12.72a26.46,26.46,0,0,1,3.23,8.72,10.17,10.17,0,0,1-.31,3.34c.06,0,.27-.2.51-.77a5.82,5.82,0,0,0,.49-2.6,23.81,23.81,0,0,0-2.82-9.15l-5.66-13-3.4-7.58a12.44,12.44,0,0,0-5.77-7.28,5.34,5.34,0,0,0-5.11.36,6.23,6.23,0,0,0-2.34,4.33A26.81,26.81,0,0,0,556.6,529a81.86,81.86,0,0,0,5,13.21c1.72,3.62,3.29,6.48,4.38,8.45a14.16,14.16,0,0,0,1.87,3C568.07,553.5,565.84,549.08,562.52,541.66Z"/><path class="cls-7" d="M551.15,556.17c-.53-2-1.72-4.92-3-8.51l-4.68-12.56a15.89,15.89,0,0,1-1.15-7.37,5.94,5.94,0,0,1,1.53-3.31,2.93,2.93,0,0,1,3.06-1c2.13.79,3.34,3.83,4.75,6.08l3.84,6.91,6.27,11.84,4.1,8.08a13.94,13.94,0,0,0,1.76,2.85,13.69,13.69,0,0,0-1.16-3.23c-.85-2-2.14-4.75-3.78-8.21s-3.62-7.54-6-12c-1.1-2.25-2.41-4.59-3.77-7-.66-1.21-1.33-2.4-2.09-3.65a7,7,0,0,0-3.56-3.21,4.56,4.56,0,0,0-4.71,1.43,7.61,7.61,0,0,0-1.92,4.18,16.89,16.89,0,0,0,1.29,8.13c1.89,4.73,3.62,8.91,5.06,12.45s2.64,6.38,3.51,8.33a14.86,14.86,0,0,0,1.5,3A13.75,13.75,0,0,0,551.15,556.17Z"/><path class="cls-7" d="M611.08,495.19c.89,2.73,3.07,3.81,3.35,3.43s-1.07-1.82-1.81-4-.41-4.19-.88-4.23C611.36,490.2,610.18,492.46,611.08,495.19Z"/><path class="cls-7" d="M559.49,499.45s-14.51,8-17.55,14.14C541.94,513.59,546.18,500.69,559.49,499.45Z"/><path class="cls-5" d="M112.8,538.68l-8.38,24.71S88.1,575.82,83.27,576.93s-10.52-6.4-10.52-6.4,2.26-4.93-1.34-.73-9.94-4.12-9.94-4.12l-9,2.94a13.84,13.84,0,0,1-11.93-2.14c-5.29-4.27,1.55-12.38,3-14.51s-2.05-2.49-2.05-2.49a153,153,0,0,1-19.85,5.36c-6.58.87-10.39,2.1-11.11-3.75s11.83-9.21,15.82-11,16.82-13.37,17.15-18.39S39,515.58,27,513.31,3.36,508.44,4.25,502.13s19.14-5,26-2.22,23.73-.9,37.57,2.71S92,522.26,92,522.26Z"/><path class="cls-7" d="M55.34,555.79a18,18,0,0,0,2.72-4.93,5.65,5.65,0,0,0-.93-5.89,5.8,5.8,0,0,0-5.92-1,11.28,11.28,0,0,0-4.43,3.19c-2.11,2.5-3.15,4.36-3.39,4.2a12.5,12.5,0,0,1,2.48-4.9,11.41,11.41,0,0,1,4.82-3.76,7.23,7.23,0,0,1,7.58,1.18A6,6,0,0,1,60,547.75a8.49,8.49,0,0,1-.54,3.7,17,17,0,0,1-3.09,5c-2.2,2.55-3.2,4.15-3.39,4.17S53.51,558.5,55.34,555.79Z"/><path class="cls-7" d="M78.05,551A93.81,93.81,0,0,0,82.2,537.7a26.21,26.21,0,0,0,.86-7.94,4.59,4.59,0,0,0-1.82-3.1,3.65,3.65,0,0,0-3.81.06c-2.48,1.12-3.64,4-4.7,6.6l-3,7.79-5.52,12.94a26.28,26.28,0,0,0-2.89,8.83,10.14,10.14,0,0,0,.44,3.33c-.06,0-.28-.19-.54-.75a5.88,5.88,0,0,1-.59-2.58,23.6,23.6,0,0,1,2.46-9.24l5.17-13.21,3.11-7.7a12.39,12.39,0,0,1,5.48-7.49,5.37,5.37,0,0,1,5.13.16,6.24,6.24,0,0,1,2.5,4.24,26.66,26.66,0,0,1-1,8.52A81.29,81.29,0,0,1,79,551.55c-1.58,3.69-3,6.6-4,8.61a13.79,13.79,0,0,1-1.76,3C73,563.06,75,558.56,78.05,551Z"/><path class="cls-7" d="M90,565.09c.45-2.06,1.53-5,2.71-8.62l4.2-12.73a15.85,15.85,0,0,0,.86-7.41,6,6,0,0,0-1.65-3.25A2.92,2.92,0,0,0,93,532.2c-2.11.88-3.2,4-4.52,6.27l-3.57,7-5.82,12.07-3.79,8.24a13.72,13.72,0,0,1-1.65,2.91,13.85,13.85,0,0,1,1-3.27c.77-2,2-4.83,3.46-8.35s3.33-7.67,5.51-12.25c1-2.29,2.23-4.67,3.5-7.13.62-1.24,1.24-2.45,1.95-3.73a7,7,0,0,1,3.43-3.33,4.55,4.55,0,0,1,4.77,1.24A7.71,7.71,0,0,1,99.38,536a17,17,0,0,1-1,8.17c-1.71,4.8-3.28,9-4.59,12.63s-2.39,6.48-3.19,8.46a14.9,14.9,0,0,1-1.39,3A14.15,14.15,0,0,1,90,565.09Z"/><path class="cls-7" d="M25.85,505.75c-.79,2.77-2.92,3.93-3.22,3.56s1-1.85,1.65-4,.26-4.19.72-4.25C25.38,500.78,26.64,503,25.85,505.75Z"/><path class="cls-7" d="M79.47,508.73s14.8,7.45,18.07,13.46C97.54,522.19,92.82,509.45,79.47,508.73Z"/><path class="cls-8" d="M71.56,258.34s10.17,22.3-8.32,45.26C51.76,317.85,33.55,348.45,43,358.72L80.8,372.81a110.8,110.8,0,0,1,22-42.18c16.12-18.17,17.41-56.16,17.41-56.16Z"/><g class="cls-9"><path class="cls-10" d="M98.16,327.27A19.3,19.3,0,0,1,71.46,333a18.73,18.73,0,0,1-2.2-1.67c-7.32-6.93-4.33-21.82,2.46-29.09a18.24,18.24,0,0,1,25.75-.71C104.79,308.44,103.7,318.87,98.16,327.27Z"/></g><g class="cls-11"><path class="cls-10" d="M78.67,367.83l-34.37-13-.11-.36c-2.52-17.42,13.63-38.45,24.34-52.36,1.75-2.37,3.54-4.66,5.06-6.58,9.66-13.28,4-30,2.84-30.86l.54-1.14,37.3,13.31.12.37a75.13,75.13,0,0,1-20,57.32c-10,10.28-15.51,32.33-15.54,32.64ZM45.46,353.94l32.33,12.17c1-4,6.31-22.93,15.67-32.55a73.87,73.87,0,0,0,19.7-55.93L78.31,265.15a22.76,22.76,0,0,1,1.08,3.43c.91,3.72,3.2,16.71-4.76,27.61-1.44,2-3.21,4.28-5.08,6.59C59.1,316.56,43.3,337.13,45.46,353.94Z"/></g><g class="cls-12"><path class="cls-10" d="M74.35,320.22,73.14,322,71,320.62l4-6L77.16,316,76,317.84l10.3,6.9-1.59,2.38Z"/><path class="cls-10" d="M85.61,318.83l.46.31c.54.36,1.07.55,1.4.05s.14-.71-.39-1.06-1-.48-2.5.19c-1.91.84-3,1-4.43,0a3,3,0,0,1-.9-4.65c1.47-2.19,3.07-2,4.73-.88l.42.28-1.47,2.21-.6-.4c-.62-.42-1-.39-1.19,0s-.08.69.36,1,.83.26,1.91-.23c2.34-1.07,3.49-1.08,5-.11,1.92,1.29,2.4,2.84,1,5-1.68,2.51-3.49,1.85-4.91.9l-.36-.24Z"/><path class="cls-10" d="M80.45,305.36,84.38,308a2.4,2.4,0,0,1,.3-2.43c1-1.51,2.43-1.25,3.84-.3l7.45,5-1.61,2.4-6.86-4.58c-.59-.4-1.1-.58-1.47,0s-.17,1,.76,1.58L93.42,314l-1.6,2.4-13-8.68Z"/></g><path class="cls-13" d="M103.78,292.05s-2,24.42-29.39,35.41c-17,6.82-47.82,24.6-44.6,38.19l26.08,30.77a110.67,110.67,0,0,1,39.84-26c23-8,42.64-40.49,42.64-40.49Z"/><g class="cls-11"><path class="cls-14" d="M93.28,365.18a19.32,19.32,0,0,1-26.09-8.08,17.75,17.75,0,0,1-1.1-2.53C63.1,345,73,333.42,82.46,330.4a18.24,18.24,0,0,1,22.81,12C108.26,352,102.22,360.56,93.28,365.18Z"/></g><g class="cls-11"><path class="cls-14" d="M56.45,391,32.8,362.93l.08-.38c6.32-16.42,30.69-26.87,46.83-33.77,2.69-1.22,5.36-2.33,7.63-3.27,14.92-6.86,18.18-24.18,17.57-25.53l1-.73,26,29.85-.08.38A75.16,75.16,0,0,1,86.4,369.7c-13.76,4.06-29.34,20.61-29.51,20.86ZM34.27,362.67,56.51,389.1c2.82-3,16.73-16.92,29.59-20.73a73.86,73.86,0,0,0,44.53-39.16l-24.29-27.92a22.25,22.25,0,0,1-.74,3.52c-1,3.68-5.38,16.13-17.65,21.76-2.24,1-4.89,2.16-7.66,3.25C64.44,336.74,40.6,347,34.27,362.67Z"/></g><path class="cls-8" d="M102.9,346.42s-11.3,21.74-40.78,21.33c-18.3-.26-53.61,4.25-55.88,18l12.2,38.44a110.72,110.72,0,0,1,46.79-8.64c24.25,1.5,55-20.89,55-20.89Z"/><g class="cls-9"><path class="cls-10" d="M65,409.84a19.32,19.32,0,0,1-21-17.52,19.57,19.57,0,0,1,0-2.76c1-10,14.53-16.85,24.44-16a18.22,18.22,0,0,1,16.42,19.84C83.91,403.45,75,409,65,409.84Z"/></g><g class="cls-11"><path class="cls-10" d="M21.05,419.48l-11-35.06.22-.31C22.45,371.39,49,371.15,66.53,371c3-.08,5.84-.08,8.3-.07,16.41-.58,26.1-15.3,26.05-16.78l1.23-.28,12.5,37.59-.21.31a75.13,75.13,0,0,1-57.49,19.56c-14.27-1.56-35,7.7-35.28,7.86Zm-9.53-34.72,10.33,33c3.75-1.65,22-9.15,35.3-7.71a74,74,0,0,0,56.19-18.95L101.7,355.92a21.76,21.76,0,0,1-2,3c-2.36,3-11.18,12.81-24.67,13.26-2.47.1-5.35.11-8.32.06C49.37,372.47,23.43,372.7,11.52,384.76Z"/></g><g class="cls-15"><path class="cls-10" d="M55.82,386.7l-2.17.16-.19-2.53,7.22-.54.19,2.54-2.19.16.92,12.37-2.86.21Z"/><path class="cls-10" d="M63.86,394.71l0,.55c.05.65.22,1.18.82,1.14.44,0,.64-.33.59-1s-.23-1.07-1.69-1.85c-1.84-1-2.6-1.78-2.73-3.49A3,3,0,0,1,64,386.52c2.63-.19,3.46,1.2,3.61,3.19l0,.5-2.65.2,0-.72c-.06-.74-.28-1-.71-.95s-.6.36-.56.9.3.8,1.36,1.35c2.28,1.19,3,2.08,3.13,3.83.17,2.31-.76,3.65-3.3,3.84-3,.22-3.61-1.61-3.73-3.31l0-.43Z"/><path class="cls-10" d="M71.29,382.35l.35,4.71a2.39,2.39,0,0,1,2.1-1.26c1.82-.13,2.48,1.14,2.61,2.83l.66,8.94-2.89.21-.61-8.22c-.05-.71-.23-1.23-.88-1.18s-.86.46-.78,1.58l.59,8-2.87.21-1.15-15.56Z"/></g><path class="cls-10" d="M74.15,347.61l-1.83,1.18-1.38-2.14L77,342.73l1.37,2.14-1.84,1.19,6.72,10.43L80.86,358Z"/><path class="cls-10" d="M85,350.81l.3.46c.35.55.75.93,1.26.61s.41-.6.06-1.13-.71-.83-2.37-.82c-2.08,0-3.14-.32-4.06-1.76a3,3,0,0,1,1-4.62c2.22-1.43,3.61-.61,4.7,1.07l.27.42L84,346.48l-.38-.6c-.41-.63-.72-.74-1.08-.5s-.35.6-.06,1.05.65.57,1.84.55c2.57-.05,3.63.39,4.58,1.87,1.25,1.94,1.07,3.56-1.07,4.94-2.53,1.63-3.94.31-4.86-1.12l-.23-.37Z"/><path class="cls-10" d="M85.66,336.4l2.56,4a2.39,2.39,0,0,1,1.25-2.11c1.53-1,2.72-.18,3.64,1.25L98,347l-2.44,1.57-4.46-6.94c-.38-.6-.79-1-1.34-.61s-.54.81.07,1.75l4.32,6.71-2.42,1.55L83.24,338Z"/><path class="cls-6" d="M510.18,465.29l44.09,31.07s-25.9,4-32.19,39.38c0,0-35.73-.06-64.1-21.93,0,0-20.75-22.13-23.39-46.83S510.18,465.29,510.18,465.29Z"/><path class="cls-6" d="M131.32,458.63,84.71,504.37s26.2-.22,38.12,33.68c0,0,35.25-5.83,59.72-32,0,0,26.29-18,15.54-50C190.17,432.53,131.32,458.63,131.32,458.63Z"/><path class="cls-6" d="M188.24,281.35c13.57-7.8,77.33,1,48.88,85.12-12.86,79.11-30.06,100.5-40.31,122-10.54,22.05-67.34,28.65-72.7-3C118.79,454,161,297,188.24,281.35Z"/><path class="cls-16" d="M235.57,516.77A546.55,546.55,0,0,0,295,520.58c20.58.25,41.16-.46,61.71-1.53,12.69-.66,25.44-1.45,38.15-2.28,1.45-.1,1.47-2.36,0-2.27-21.9,1.41-43.81,2.77-65.74,3.44-19.94.62-40,.63-60-.49q-16.85-.9-33.59-3c-1.45-.17-1.44,2.1,0,2.27Z"/><path class="cls-6" d="M438.21,523.83c-15.46-97.74,9.64-236.76,6.22-240.45-7.23-7.86-71.05-23.28-87.41-27.85H274.89c-12.95,0-78.26,17.85-85.49,25.7C186,284.93,221.13,451.44,203,524.71,196.58,550.81,442.41,550.32,438.21,523.83Z"/><path class="cls-17" d="M287.19,454.79s45.89-17.69,84,0C371.21,454.79,318.26,450.55,287.19,454.79Z"/><path class="cls-18" d="M353.65,248.78c-.8-2.53-.09-26-.09-26l-40,6.16-40-6.16s.79,26.28,0,28.79-16.45,8.15-16.45,8.15,3.57,32.39,55.52,32.39,60.4-32,60.4-32S354.44,251.33,353.65,248.78Z"/><path class="cls-19" d="M270.54,226.39c.67.48,5.57,6.6,6.28,7.07,17.43,11.64,20,14.81,35.07,15.4,15.05-.58,21.51-2.52,37.7-16.75,5.44-4.79,4.25-6.4,5.44-7.25C328,224.74,297.61,226.21,270.54,226.39Z"/><path class="cls-18" d="M243.59,144.41s-7.67-11.77-12-11.29c-2.65.28,3.48,6.24,4.23,13,1,9.06-5.66,10.18-3.56,15.29s4.82,22.93,11.83,22.17c2.78-.3,5.63-6.46,5.63-6.46S245.88,152.46,243.59,144.41Z"/><path class="cls-20" d="M245.46,177.65c-3,.33-5.86,2.44-6.2,5.61a5.72,5.72,0,0,0,1.07,4,5.08,5.08,0,0,0,2.55,1.82,7.27,7.27,0,0,0,6.55-.86c.33-.22.59-.69.15-1a1.54,1.54,0,0,0-1.52.17,4.1,4.1,0,0,1-3.81.39,5.93,5.93,0,0,1-1-.48s-.21-.14-.09,0a4,4,0,0,1-.7-.72,4.88,4.88,0,0,1-.13-6,4.06,4.06,0,0,1,1.3-1.14c-.13.07,0,0,0,0l.29-.14.21-.09h.1a4,4,0,0,1,.91-.19c.41,0,1.12-.29,1.19-.79s-.6-.61-1-.57Z"/><path class="cls-18" d="M379.93,145.08s6.44-12.49,10.81-12.46c2.67,0-2.82,6.56-2.89,13.34-.1,9.06,6.65,9.56,5.09,14.86s-2.49,23.29-9.54,23.24c-2.8,0-6.26-5.86-6.26-5.86S378.5,153.31,379.93,145.08Z"/><path class="cls-18" d="M385.05,151.44h0c-1.55,7.89-3.47,16.19-4.8,25.72-3.5,25.13-7.7,41.27-26.93,50.18s-22.4,14.95-37.86,15.52c-15.45-.57-21.23-5.25-41.13-13-18.33-7.11-24.11-27.6-27.61-52.73-.78-5.61-1.76-10.78-2.72-15.7-.73-3.63-1.48-7.17-2.16-10.6v-.19c-2.46-12.62-4-24.26-.58-38.32,3.48-14.54,15.52-32.62,33.81-44h0a72.37,72.37,0,0,1,38.41-11.05c39.65,0,66.76,32,72.3,55.11C389.22,126.73,387.6,138.55,385.05,151.44Z"/><path class="cls-21" d="M318.59,187a6.87,6.87,0,0,1-7.31-.35c-.46-.33-2,0-1.37.49a9.68,9.68,0,0,0,10,.3c.28-.18.23-.41-.1-.53a1.49,1.49,0,0,0-1.17.09"/><path class="cls-21" d="M308.87,186.45a15.32,15.32,0,0,0-5.37-1.34,1.28,1.28,0,0,0-.82.26c-.16.14-.19.32,0,.44a5.78,5.78,0,0,0,2.94.67,1.11,1.11,0,0,0,.91-.35c.17-.25-.14-.41-.38-.41a4.74,4.74,0,0,1-2.39-.54l-.8.7a13.57,13.57,0,0,1,4.8,1.2,1.1,1.1,0,0,0,1-.11c.2-.11.41-.38.12-.52"/><path class="cls-21" d="M301.58,186.67a5.91,5.91,0,0,1-4.88-2.62c-1.36-2.45-.1-5.36,2.19-6.93.24-.17.12-.4-.14-.46a1.34,1.34,0,0,0-1,.25,6.34,6.34,0,0,0-3,5.88c.29,2.15,2,3.63,4.24,4.28a8.69,8.69,0,0,0,2,.33c.28,0,.77-.09.9-.35s-.12-.37-.38-.38"/><path class="cls-21" d="M320.76,186.45a15.43,15.43,0,0,1,5.37-1.34,1.3,1.3,0,0,1,.83.26c.15.14.19.32,0,.44a5.82,5.82,0,0,1-2.95.67,1.09,1.09,0,0,1-.9-.35c-.17-.25.14-.41.39-.41a4.68,4.68,0,0,0,2.38-.54l.81.7a13.62,13.62,0,0,0-4.81,1.2,1.08,1.08,0,0,1-1-.11c-.2-.11-.42-.38-.12-.52"/><path class="cls-21" d="M328.06,186.67a5.92,5.92,0,0,0,4.88-2.62c1.36-2.45.1-5.36-2.19-6.93-.25-.17-.12-.4.13-.46a1.35,1.35,0,0,1,1,.26,6.38,6.38,0,0,1,3,5.89c-.28,2.15-2,3.63-4.23,4.28a8.7,8.7,0,0,1-2,.33c-.29,0-.78-.1-.91-.35s.12-.37.38-.38"/><path class="cls-22" d="M332.23,128.11v4.3c0,1.1,0,2.18,0,3.28,4-.91,7.35-1.56,10-2,5.44-.9,8.16-1.28,11.35-.8a32.09,32.09,0,0,1,7.25,2.06,19.76,19.76,0,0,1,3.8,1.81c2.72,1.76,3.78,3.76,4.22,3.58s-.27-1.91-.33-2.09a17,17,0,0,0-5.72-7.25,22,22,0,0,0-7.35-3c-3.11-.73-11.78-1.22-23.2.09"/><path class="cls-23" d="M346,145.37a4.85,4.85,0,0,1,5.24.95,4.72,4.72,0,0,1,1.42,2.19,4.84,4.84,0,0,1-1.15,4.41,4.53,4.53,0,0,1-5.16.91,5,5,0,0,1-2.44-5.77,4.4,4.4,0,0,1,2.09-2.72"/><path class="cls-23" d="M331.42,152.08s9.78-7.12,14.79-7.58c7.31-.67,16.31,3.07,18.89,6.41,0,0-11.91-5.59-17-5C343.15,146.52,331.42,152.08,331.42,152.08Z"/><path class="cls-22" d="M297,128.27v7.57c-4-.9-7.37-1.56-10-2-5.43-.86-8.15-1.28-11.35-.81a32.12,32.12,0,0,0-7.25,2.07A19.68,19.68,0,0,0,264.6,137c-2.72,1.81-3.79,3.77-4.23,3.62s.27-1.91.34-2.09a17,17,0,0,1,5.72-7.25,22.21,22.21,0,0,1,7.33-3.06c3.13-.72,11.78-1.21,23.22.1"/><path class="cls-23" d="M283.21,145.52c-1.82-1-4-.13-5.25.91a4.62,4.62,0,0,0-1.41,2.19,4.84,4.84,0,0,0,1.14,4.41,4.53,4.53,0,0,0,5.16.91,5,5,0,0,0,2.44-5.77,4.37,4.37,0,0,0-2.08-2.72"/><path class="cls-23" d="M297.77,152.22S288,145.11,283,144.65c-7.3-.67-16.31,3.07-18.89,6.41,0,0,11.9-5.59,17-5C286,146.67,297.77,152.22,297.77,152.22Z"/><path class="cls-24" d="M229.78,85.11s32.66-15.93,74.46-10.63,68.44,21,75.5,39.79,5.43,46.63,5.43,46.63,6,7.12,13.44-31.15c10.87-55.77-50.12-105-63.66-105S249.2,22.73,229.78,85.11Z"/><path class="cls-24" d="M237.27,68.83s-7-44,23.3-52.2,94.09-23,112.73,17.14Z"/><path class="cls-25" d="M235.71,159.14A26.41,26.41,0,0,1,229,147.72c-3.37-11.87-9.26-36.4-3.85-47.29,2.36-4.74,3.31-18.88,3.54-23,1.17-21.74-4-15.11,26.61-39.86s35.89-17.91,81.8-15,59.08,17.81,55.53,60.83c0,0-75.65-17.52-104.79-1.76S233.06,119,243.31,166.15C243.43,166.75,239.2,162.66,235.71,159.14Z"/><path class="cls-24" d="M392.27,63.53s-54-19.63-74.7-21.34,65.43,1.6,73.69,11Z"/><path class="cls-20" d="M381.74,179.44a5.11,5.11,0,0,1,4.86,4.17,4.94,4.94,0,0,1-.54,3.35,4.44,4.44,0,0,1-.52.76c-.05.07-.11.13-.16.19s-.13.16-.05.09h0l-.28.2-.09.06a3.37,3.37,0,0,1-.32.19,3.21,3.21,0,0,1-1.35.44,4.46,4.46,0,0,1-2.5-.57,1.71,1.71,0,0,0-1.4.06c-.12,0-1,.51-.61.72a7.12,7.12,0,0,0,5.85.35,6.7,6.7,0,0,0,2.72-1.57,5.61,5.61,0,0,0,0-7.65,6.4,6.4,0,0,0-4.67-1.81,1.93,1.93,0,0,0-1.42.55c-.28.4.23.47.53.47Z"/><path class="cls-26" d="M315.23,200.66c-11.41,0-29.9-1.3-29.9-1.3s3.45,22,29.9,22,29.9-22,29.9-22S326.65,200.66,315.23,200.66Z"/><path class="cls-27" d="M315.34,200.66c-5.43,0-27.31-.9-27.31-.9s7.25,11.66,26.87,11.66c21.29,0,27.54-11.5,27.54-11.5Z"/><path class="cls-28" d="M315.6,201.45c-5.44,0-22-.91-22-.91s6,5.78,22.24,5.78,21.45-5.61,21.45-5.61Z"/><path class="cls-26" d="M346.4,197.76c-.58-.13-3.74.91-6.43.66-4.53-.38-10-1.53-13.18-1.77-5.57-.42-9.06,1.72-11.51,1.72s-5.94-2.14-11.51-1.72c-3.25.24-8.69,1.39-13.18,1.77-2.72.22-5.85-.79-6.43-.66-.8.19.75,5.92,31.13,5.92S347.15,197.93,346.4,197.76Z"/><path class="cls-22" d="M248.17,116.55s50.4-19.24,59.93-33.61c-1,1.55,10.1,9.38,11,9.87,9.33,5.29,20.48,7,30.14,3.36,3.68-1.38,3.68-2,6.12-5,0,0,9.78,20.42,24.42,23,0,0-17.17-37.27-62.64-37.93C317.1,76.35,283.49,68,248.17,116.55Z"/><path class="cls-19" d="M283.94,113.78s14.68,6.06,29,4.65,31.85-5,31.85-5"/><path class="cls-29" d="M247.16,142.54l2.72,7.25c1.6,5.66,6.29,16.85,8.38,19.89,2.95,4.24,34.38,5.26,40.47,1.67s9.17-21,10.72-25l12.57.43c1.23,5.16,5.51,21.51,7.94,23.68s16.82,1.48,18.44,1.4c1.35-.08,3.23-.19,5.29-.39,5.43-.5,12-1.51,14-3.5,3-2.93,6-14,8.65-24.46l.43-1.64c.09-.4.22-.67.22-.79h0l.47-1.88c-18.25-7.95-42-6.1-56.17,4.4l.11.18-12.26-.47c-14-8.59-41.16-13.27-58.14-6.53h0l-16.46,13-.06,4.53Zm84.22,26.23c-1.52-1.35-4.87-12.79-7.18-21.75,12.34-8.87,33.7-10.51,50-4.29V143c-1.41,5.6-5.15,20.54-8.05,23.43-3.45,3.4-32.12,4.47-34.77,2.4Zm-69.44-.36A152.6,152.6,0,0,1,251,142.55c15.09-7,41.68-3.78,55.37,4.36-2,7.24-4.47,19.93-8.84,22.54C291.26,173.15,263.79,171.09,261.94,168.41Z"/><path class="cls-30" d="M331.68,168.53c-1.52-1.35-4.88-12.79-7.18-21.74,12.34-8.83,33.68-10.48,50-4.3v.24c-1.4,5.61-5.15,20.53-8.05,23.42-3.45,3.42-32.12,4.48-34.77,2.4Z"/><path class="cls-30" d="M261.94,168.41A152.6,152.6,0,0,1,251,142.55c15.09-7,41.68-3.78,55.37,4.36-2,7.24-4.47,19.93-8.84,22.54C291.26,173.15,263.79,171.09,261.94,168.41Z"/><polygon class="cls-29" points="377.44 139.22 388.32 149.75 387.75 153.58 376.15 143.04 377.44 139.22"/><path class="cls-6" d="M218.25,345.23s-24,25.75-24,71.8c0,24.46,41.68,45.68,41.68,45.68"/><path class="cls-6" d="M425.87,337.29S445,363,445,409.11c0,24.46-36.76,45.68-36.76,45.68"/><path class="cls-17" d="M129.83,457.28s19.35-5.34,36.63,8.11C166.46,465.39,146.84,444.31,129.83,457.28Z"/><path class="cls-17" d="M511.64,465.81s-20-1.65-34.49,14.76C477.15,480.57,492.52,456.22,511.64,465.81Z"/><path class="cls-6" d="M319.06,629.37a287.54,287.54,0,0,0,138-35c-8.21-42.37-16.83-82.69-21.78-94.43,0,0-185.16,22.47-225.94,0,0,0-17.12,49.75-27.6,94.82A287.62,287.62,0,0,0,319.06,629.37Z"/><path class="cls-17" d="M200.85,338s5.35,9.48,4.76,16-8.9,24.89-12.33,50.45-3.12,39.69,17.58,54.13a54.83,54.83,0,0,1-12.1-16c-4.75-9.75-6-19.57-2-41.27s11.26-41.9,10.61-50.9a14.84,14.84,0,0,0-7.94-12.29"/><path class="cls-17" d="M436.52,335.88s-4.73,9.8-3.72,16.24,10.47,24.26,15.53,49.55,5.65,39.41-14.08,55.14A54.77,54.77,0,0,0,445.3,440c4.12-10,4.71-19.91-.67-41.31s-13.92-41.1-13.85-50.12a14.85,14.85,0,0,1,7.14-12.77"/><path class="cls-31" d="M546.55,370.58l3.8.19a19.86,19.86,0,0,0,.08-7.13l-1.33-13.27-31-1.11L513.33,357c-3,4.43-2.61,5.11-2.59,10.34"/><g id="Layer_1-2" data-name="Layer 1"><path d="M543.2,299.48c1.18.06,2.91.18,4.09.25a21.89,21.89,0,0,0,2.56-.07,14.12,14.12,0,0,1,.12-3.75s0,2.77.62,3.71a16,16,0,0,1,2.08,0c.68,0,2.15-.17,2.83-.22.33,0,1.57-.28,1.9-.33s.72-.22.91-.16a3,3,0,0,1-2.26-3.23c.29-1.4,1.84-2.59,1.4-4-.38-1.19-2-1.83-2.46-3s.57-2.32,1.22-3.39a7,7,0,0,0-.1-7.34c-.11-.2-.23-.4-.36-.59a6.64,6.64,0,0,0-1.54-1.59l-1.84-1.16-18.19,16.9c5.35,4.13,6.43,5.94,8.74,6.41C544.07,298.08,542,299.43,543.2,299.48Z"/><path class="cls-32" d="M561.26,295.81A1.25,1.25,0,0,1,560.1,297a1.28,1.28,0,0,1-1.16-.73,1.25,1.25,0,0,1-.08-.83,2.43,2.43,0,0,1,.39-.81,5.08,5.08,0,0,0,1-1.62,2.5,2.5,0,0,0-.36-2,2.82,2.82,0,0,0-.76-.78,4.42,4.42,0,0,0-1-.49,7.41,7.41,0,0,1-1.08-.48,1.66,1.66,0,0,1-.75-.9,2.07,2.07,0,0,1,0-1.13,3.6,3.6,0,0,1,.42-1,7.37,7.37,0,0,0,.87-1.7,2.8,2.8,0,0,0,0-1.62,3.68,3.68,0,0,0-.7-1.17,6.55,6.55,0,0,1-.61-.85,1.64,1.64,0,0,1-.23-.64.88.88,0,0,1,0-.17V280a2.16,2.16,0,0,0,.29.83,7.25,7.25,0,0,0,.63.83,3.53,3.53,0,0,1,.75,1.19,2.93,2.93,0,0,1,.07,1.71,8.16,8.16,0,0,1-.87,1.75,3.23,3.23,0,0,0-.39.94,1.81,1.81,0,0,0,0,1,1.59,1.59,0,0,0,.68.79,5.67,5.67,0,0,0,1,.46,4.61,4.61,0,0,1,1.07.52,3.36,3.36,0,0,1,.81.83,2.65,2.65,0,0,1,.37,2.12,4.68,4.68,0,0,1-1,1.66,2.31,2.31,0,0,0-.38.75,1.08,1.08,0,0,0,.06.75,1.18,1.18,0,0,0,1.05.68,1.15,1.15,0,0,0,.87-.45,1.32,1.32,0,0,0,.27-.81A.83.83,0,0,1,561.26,295.81Z"/><path class="cls-32" d="M518.83,290.07a1.26,1.26,0,0,0,.93,1.34,1.31,1.31,0,0,0,1.27-.51,1.2,1.2,0,0,0,.23-.8,2.39,2.39,0,0,0-.23-.87,5.19,5.19,0,0,1-.67-1.77,2.49,2.49,0,0,1,.72-1.87,3,3,0,0,1,.9-.62,4.17,4.17,0,0,1,1.1-.3,5.82,5.82,0,0,0,1.15-.27,1.7,1.7,0,0,0,.91-.74,2.13,2.13,0,0,0,.22-1.11,3.65,3.65,0,0,0-.23-1,7.93,7.93,0,0,1-.54-1.84,2.81,2.81,0,0,1,.35-1.58,3.69,3.69,0,0,1,.91-1,6.47,6.47,0,0,0,.76-.72,1.91,1.91,0,0,0,.35-.58,1,1,0,0,0,0-.17v-.06a2.4,2.4,0,0,1-.44.76,6.41,6.41,0,0,1-.78.69,3.77,3.77,0,0,0-1,1,3,3,0,0,0-.38,1.67,7.6,7.6,0,0,0,.52,1.88,3.45,3.45,0,0,1,.22,1,1.86,1.86,0,0,1-.2,1,1.45,1.45,0,0,1-.81.65,6,6,0,0,1-1.11.26,4.57,4.57,0,0,0-1.15.32,3.07,3.07,0,0,0-.95.66,2.67,2.67,0,0,0-.76,2,4.77,4.77,0,0,0,.7,1.82,2.3,2.3,0,0,1,.24.81,1.08,1.08,0,0,1-.2.72,1.2,1.2,0,0,1-1.16.48,1.18,1.18,0,0,1-.77-.61,1.29,1.29,0,0,1-.11-.84A.66.66,0,0,0,518.83,290.07Z"/></g><g id="Layer_3" data-name="Layer 3"><path d="M525.15,286c1.56,1.88,7.51,4.1,10.29,3.9l15.78-9.52c1.9-.7,2.87-2.33,2.38-4-.18-.56-.54-1.09-.75-1.64-2-.44-3.28-2.58-3.85-4.49a7.24,7.24,0,0,1-.73-.38c-1.47-.91-.8-3-2.62-3.27a9.31,9.31,0,0,0-5.18.32c-1.06.48-1.82,1.28-2.88,1.75a13.33,13.33,0,0,1-4.94.63c-1.7,0-3.54.23-4.66,1.19-1.57,1.34-1,3.55-2,5.2a25.43,25.43,0,0,1-1.82,2.11C522.71,279.63,523.59,284.09,525.15,286Z"/><path d="M519.09,293.41a16,16,0,0,0,3.93,1.91,4.58,4.58,0,0,0,.56.14,10.79,10.79,0,0,0,2.46-3.37s-.67,2.69-1.95,3.61l1,.43c3.55,1.51,9.94,2.89,13.72,2.1a6,6,0,0,1-2.25-3.77c.09-1.06-1.34-1.65-1-2.67.45-1.92-.37-3.48-1.36-6.5l-7.56-8.43a2.22,2.22,0,0,0-2,1.69c-.08.82.57,1.56.21,2.53a1.9,1.9,0,0,1-.66.85,34,34,0,0,1-.48,3.49,12.47,12.47,0,0,1-1.17,3.47v.37a3.8,3.8,0,0,1-1.34,2.77A7,7,0,0,1,519.09,293.41Z"/><path class="cls-18" d="M595.05,316l-11.91,7.26-10.71-10.53a17.49,17.49,0,0,0,6.39-1.82,39,39,0,0,0,.45-4.77l5.21.75,5.26.23s-.66,5-.56,5.92A31.88,31.88,0,0,0,595.05,316Z"/><path class="cls-33" d="M597,368.66c-4.89,3.25-11.74,3.37-17.94,2.78-7.53-.71-14.85-.47-19.23-6.13.9-2.19,2.07-8.89,2.07-8.89.52-6.65,1.55-22.2,1.55-22.2l-16.18,10.34-1.22-11.38s17.83-17.19,21.45-19.07c2.1-1.09,8.44-2.43,8.44-2.43s6.33,11,7.09,11c2.72-.07,8.86-8.41,8.86-8.41s7.4,2.18,9.17,4.13c.42.47-3.77,36.91-3.77,36.91"/><path class="cls-18" d="M579.77,298.52s-.51.71-.86.67c-.9-.07-.78-1-.92-1.74a11.21,11.21,0,0,1-.72-3.24c.07-.87,1-1.7,1.32-1.67.56,0,1.23,1.72,1.23,1.72C579.91,295.33,579.77,298.52,579.77,298.52Z"/><path class="cls-34" d="M579.2,295.8a.17.17,0,0,0,.13.1s.13,0,.11,0a6.94,6.94,0,0,0-.66-1.44,1.52,1.52,0,0,0-.78-.72.17.17,0,0,0-.12,0,.62.62,0,0,0-.14.18,2,2,0,0,0-.16,1.2c0,.09.27.15.25.06a1.93,1.93,0,0,1,.09-1,.92.92,0,0,1,.18-.32H578s0,0,0,0l0,0s0,0,0,0l.09.07a2.69,2.69,0,0,1,.27.32,6.63,6.63,0,0,1,.74,1.54Z"/><path class="cls-34" d="M579,296.07c.17,0,.12-.15,0-.16a.32.32,0,0,0-.35.12.67.67,0,0,0-.07.37c0,.14,0,.29,0,.43a.48.48,0,0,1,0,.17s0,.08,0,.1,0,0,.05,0l.06,0v0l0-.05a2.17,2.17,0,0,1-.07-.24,4.08,4.08,0,0,1-.09-.69,2,2,0,0,1,.07-.6c.07-.26.19-.57.46-.66.06,0,0-.09,0-.12a.19.19,0,0,0-.18,0c-.33.11-.47.5-.54.82a2.33,2.33,0,0,0,0,.79,2.41,2.41,0,0,0,.12.65.37.37,0,0,0,.25.28c.3.06.25-.4.24-.57s-.08-.68.18-.64Z"/><path class="cls-18" d="M576,301.48s-.51.7-.87.67c-.9-.08-.78-1-.91-1.74a11.34,11.34,0,0,1-.73-3.25c.08-.86,1-1.7,1.32-1.66.56.05,1.24,1.72,1.24,1.72C576.14,298.28,576,301.48,576,301.48Z"/><path class="cls-34" d="M575.43,298.79c0,.1.29.13.24,0a7.54,7.54,0,0,0-.67-1.44c-.17-.27-.43-.64-.76-.71-.14,0-.2.11-.26.22a1.91,1.91,0,0,0-.16,1.2c0,.11.27.17.26.05a1.83,1.83,0,0,1,.08-1,1,1,0,0,1,.18-.31l-.07,0h0s0,0,0,0h0l.08.05h0l0,0,0,0a2.61,2.61,0,0,1,.27.31,6.82,6.82,0,0,1,.74,1.54Z"/><path class="cls-34" d="M575.43,299.11c.05,0,.1,0,.08-.07s-.12-.09-.17-.09c-.36-.05-.42.26-.42.55,0,.14,0,.28,0,.43a.61.61,0,0,1,0,.19s0,.08,0,.11h0l.13,0h0l0-.08a2.17,2.17,0,0,1-.07-.24,4.91,4.91,0,0,1-.09-.77,1.8,1.8,0,0,1,.08-.61.91.91,0,0,1,.49-.71c.06,0,0-.08,0-.11a.21.21,0,0,0-.19,0,1.08,1.08,0,0,0-.57.86,2.7,2.7,0,0,0,0,.85,2.81,2.81,0,0,0,.14.7.36.36,0,0,0,.3.28c.3,0,.22-.44.21-.62s-.07-.71.23-.67Z"/><path class="cls-19" d="M590.41,307.68c-.18.13,0,.41-.86,1.14-2.44,2.14-3.35,2.38-5.42,2.28-2-.29-2.35-.85-4.56-3-.08-.09-.66-1.17-.75-1.25C582.53,307.18,586.71,307.33,590.41,307.68Z"/><path class="cls-18" d="M593.58,303.23s.37.79.72.82c.9.09,1-.88,1.23-1.54a11.1,11.1,0,0,0,1.31-3.05,2,2,0,0,0-1-1.88c-.56-.06-1.54,1.46-1.54,1.46C594,300.07,593.58,303.23,593.58,303.23Z"/><path class="cls-34" d="M594.16,300.56c0,.09.17.18.23.08a8.54,8.54,0,0,1,.6-.88,2.59,2.59,0,0,1,.69-.67l.11,0h.07l-.1-.06s0,0,0,0l0,.07a1.55,1.55,0,0,1,.07.23,1.8,1.8,0,0,1-.1.92c0,.1.19.19.23.09a1.77,1.77,0,0,0,0-1.22c0-.11-.1-.22-.24-.21a.68.68,0,0,0-.3.11,2.68,2.68,0,0,0-.54.47,7.38,7.38,0,0,0-.79,1.13Z"/><path class="cls-34" d="M594.77,300.81s-.1,0-.08.07.11.08.17.08,0,.66,0,.77a.57.57,0,0,0,0,.34.27.27,0,0,0,.32.14c.12,0,.18-.23.23-.33a3.86,3.86,0,0,0,.23-.73,1.79,1.79,0,0,0,0-.65,1,1,0,0,0-.41-.79s-.14-.06-.17,0,0,.09.06.11c.26.15.28.58.29.84a2.61,2.61,0,0,1-.13.73,3.14,3.14,0,0,1-.22.58L595,302a.07.07,0,0,0,0,0s.13.08.13,0h0s0,0,0-.06a2.14,2.14,0,0,1,.06-.35,1.89,1.89,0,0,0,.08-.4.47.47,0,0,0,0-.31.43.43,0,0,0-.35-.17Z"/><path class="cls-18" d="M595.44,290c-.62-2.2-3.66-5.48-8.77-6a12.65,12.65,0,0,0-7.66,1.66h0a6.66,6.66,0,0,0-2.6,2.5c-.59,1.17-.83,4.25-.81,6.88h0c0,2.32.15,5.33.36,6.9.06.45.12.83.18,1.13.54,2.49,4.08,6.69,8.06,7.07s8.24-3.09,9.23-5.44c.25-.61.64-2.23,1-3.44a.79.79,0,0,0,0-.12C595.43,297.69,596,292,595.44,290Z"/><path class="cls-34" d="M585.58,302.27a.16.16,0,0,1,.15,0s0,.05,0,.08a1.13,1.13,0,0,1-1.32-.08c-.08-.07.13-.12.19-.07a.81.81,0,0,0,1,.08"/><path class="cls-34" d="M584.3,302s0,.07,0,.08a.17.17,0,0,1-.14,0,2,2,0,0,0-.66-.25l.13-.09a.52.52,0,0,0,.32.11s.08,0,.05.07a.13.13,0,0,1-.13,0,.68.68,0,0,1-.41-.14,0,0,0,0,1,0-.07.24.24,0,0,1,.12,0,2.09,2.09,0,0,1,.73.28"/><path class="cls-34" d="M583.28,302s.07,0,.05.06a.15.15,0,0,1-.14,0,1.43,1.43,0,0,1-.28-.07.82.82,0,0,1-.53-.72,1,1,0,0,1,.51-.86.17.17,0,0,1,.14,0s.05.05,0,.07a.88.88,0,0,0-.41,1,.8.8,0,0,0,.65.47"/><path class="cls-34" d="M585.92,302.23s0,.07,0,.09a.13.13,0,0,0,.13,0,2,2,0,0,1,.69-.12l-.1-.11a.78.78,0,0,1-.34.05s-.08,0-.06,0a.13.13,0,0,0,.12.07.79.79,0,0,0,.43-.06,0,0,0,0,0,0-.07.16.16,0,0,0-.11,0,2,2,0,0,0-.77.13"/><path class="cls-34" d="M586.94,302.36s-.08,0-.06.05.08.06.12.06a1,1,0,0,0,.29,0,.79.79,0,0,0,.65-.6,1,1,0,0,0-.33-1,.21.21,0,0,0-.13,0s-.06,0,0,.07a.88.88,0,0,1,.21,1.1.83.83,0,0,1-.72.34"/><path class="cls-35" d="M581.07,296.07a.81.81,0,0,1,.33.51.89.89,0,0,1-.54,1,.81.81,0,0,1-.91-.25.9.9,0,0,1-.13-.81.82.82,0,0,1,.29-.37.86.86,0,0,1,1-.08"/><path class="cls-35" d="M580.74,296.26a4,4,0,0,0-2.59.81,2.69,2.69,0,0,1,2.67-1.1c1.25.11,2.27,1.73,2.27,1.73A4.46,4.46,0,0,0,580.74,296.26Z"/><path class="cls-35" d="M590.19,296.92a.84.84,0,0,0-.42.45.9.9,0,0,0,.34,1.08.8.8,0,0,0,.94-.08.86.86,0,0,0,.28-.77.84.84,0,0,0-.21-.42.9.9,0,0,0-.93-.26"/><path class="cls-35" d="M590.48,297.17a4.06,4.06,0,0,1,2.4,1.29,2.71,2.71,0,0,0-2.43-1.59c-1.24-.12-2.55,1.28-2.55,1.28A4.54,4.54,0,0,1,590.48,297.17Z"/><path class="cls-36" d="M597.27,292.82h0c.64.64-.12,3.17-.12,3.17.49,2.29-2.19,3.19-2.19,3.19a29.16,29.16,0,0,1,0-3.87c.16-1.32-.44-5.81-1.6-6.25-.56-.22-2,.56-6.79.1s-7.55-1.86-8-1.26a12.18,12.18,0,0,0-2.15,5.11,25.81,25.81,0,0,1-.74,4.32,7,7,0,0,1-2.09-2.28,2.71,2.71,0,0,1,.44-1.83s-1.31-2,0-3.31c0,0-1.14-.29-.24-1.8-.07-.54-.21-.45-.19-.85a2.51,2.51,0,0,1,.92-1.95c.21-.86,1.61-1.15,1.61-1.15.13-1.32,1.06-1.31,1.06-1.31a2,2,0,0,1,2.76-.56c1.11-2.29,4.69-1.21,4.69-1.21a2.23,2.23,0,0,1,2.87.54c.34-.66,1.13,0,1.13,0a2.15,2.15,0,0,1,3.29,1,1.29,1.29,0,0,1,1.22-.18c2.58-.45,3.19,2.27,3.19,2.27.89-.19,1,1.81,1,1.81a4,4,0,0,1,1.23,1.48,4.93,4.93,0,0,1-.4,3.1h0C598.66,291.92,597.27,292.82,597.27,292.82Z"/><path class="cls-35" d="M583.47,293.88a11.34,11.34,0,0,0-4.14-.3,1.75,1.75,0,0,0-1.54,1s-.15.36-.09.4.45-.18.56-.23a2.6,2.6,0,0,1,1.09-.29,7.26,7.26,0,0,1,2.44.36c.39.11.92.29,1.53.53l.06-.64.07-.84"/><path class="cls-35" d="M588.1,294.32a10.71,10.71,0,0,1,4.06.47,1.72,1.72,0,0,1,1.3,1.27s.08.39,0,.42-.4-.26-.49-.34a2.53,2.53,0,0,0-1-.47,6.79,6.79,0,0,0-2.42-.11,15.87,15.87,0,0,0-1.58.24l.06-.64.08-.84"/><path class="cls-10" d="M581.3,317.92c.65-.37,1.33,0,1.63.9a13.24,13.24,0,0,1,0,3.44L580.17,319A4.26,4.26,0,0,1,581.3,317.92Z"/><path class="cls-10" d="M585.6,318.54c-.57-.48-1.31-.26-1.76.58a13.13,13.13,0,0,0-.66,3.38l3.33-2.7A4.18,4.18,0,0,0,585.6,318.54Z"/><g id="freepik--Character--inject-2"><path class="cls-33" d="M604.32,346.93a13.5,13.5,0,0,1,.38-3.64c.28-1.11.66-2.19,1-3.27a20.1,20.1,0,0,0,.94-3.8v-.08l12.68-12.74,5.39,4.92s-5.91,11.47-12.07,18a9.73,9.73,0,0,1-4,2.7h0c-2.43.41-3.06-1.1-4.32-2C604.27,346.42,604.35,347.59,604.32,346.93Z"/><path class="cls-33" d="M596.74,339.53a35.56,35.56,0,0,1-1-8.72c.11-4.94-.41-10.37,0-15.28a20.75,20.75,0,0,1,6.09,2.31,9.21,9.21,0,0,1,1.8,1.37,12.47,12.47,0,0,1,2.1,3.88c.48,1.26,1,2.72,1.49,4,1.23,3.23,2,6.12,3.25,9.34-.46,2.25-.31,3.46-1,5.63-.82,2.51-.5,3.9-.3,6.51,0,.52-2.17-.06-2.1.45-4-1.24-6-4.14-8.15-7.53"/><path class="cls-18" d="M623.28,325.7c-.06-.22.68-5,.68-5l5.59-3.28-.49,5.45c-.6.73-1.23,1.43-1.9,2.1C627.05,325,623.29,325.7,623.28,325.7Z"/><path class="cls-18" d="M623.14,323.89a28.51,28.51,0,0,1,3.94-1.16l-.4-1.41a5.09,5.09,0,0,1-2.36-1.06,1.71,1.71,0,0,1-.2-1.58l1,.17c-.54-.45-.36-1.45-.36-1.45l1.11.12a.85.85,0,0,1-.3-1.16l.06-.08.86.19c-.56-.5.28-1.2.28-1.2s4.12,2.59,4.41,3-.15,1.53-.15,1.53a1.41,1.41,0,0,1,.48.94,1.65,1.65,0,0,1-.48,1.2,2.46,2.46,0,0,1,0,1c-.1.55-2.48,2.27-2.48,2.27L624.81,328l-3-3.35S622.3,324.35,623.14,323.89Z"/><path class="cls-19" d="M625.58,324.23c0,.07,1-.25,2.34-.33l.2,0-.08-.2c-.1-.26-.21-.57-.3-.84a10.14,10.14,0,0,1-.29-1.21v-.12h-.13a4.31,4.31,0,0,1-1.38-.24c-.35-.1-.54-.18-.56-.15s.16.15.49.31a3.76,3.76,0,0,0,1.48.37l-.15-.12a7.77,7.77,0,0,0,.28,1.25,8.18,8.18,0,0,0,.32.87l.13-.21A5.31,5.31,0,0,0,625.58,324.23Z"/></g><rect class="cls-37" x="602.28" y="314.04" width="30.23" height="20.24" transform="translate(287.57 938.55) rotate(-89.47)"/><path class="cls-38" d="M624.17,337.86V338l-13.79-.13a1.67,1.67,0,0,0-1.51-1.68h-.21l.21-23.25a2.06,2.06,0,0,0,2.06-1.86,1,1,0,0,1,0-.17l13.49.12a1.68,1.68,0,0,0,1.52,1.69h.14l-.21,23.67A1.68,1.68,0,0,0,624.17,337.86Z"/><g id="freepik--Label--inject-3"><path class="cls-39" d="M620.32,338l-3.09,5.67a.16.16,0,0,0,.06.2.13.13,0,0,0,.12,0l2-.68a.14.14,0,0,1,.19.09h0l.47,2a.18.18,0,0,0,.19.11.12.12,0,0,0,.09-.09l3-6.13Z"/><path class="cls-39" d="M623.54,339.29l.62,6.42a.16.16,0,0,0,.16.14.24.24,0,0,0,.11-.06l1.3-1.71a.15.15,0,0,1,.21,0h0l1.54,1.42a.15.15,0,0,0,.21,0,.16.16,0,0,0,0-.13l-1-6.75Z"/><polygon class="cls-40" points="624.73 327.98 625.62 327.45 626.2 328.31 627.2 328.01 627.54 328.99 628.58 328.95 628.67 329.99 629.69 330.21 629.52 331.24 630.45 331.7 630.03 332.65 630.81 333.33 630.17 334.15 630.76 335.01 629.94 335.64 630.29 336.61 629.34 337.02 629.44 338.06 628.41 338.21 628.26 339.24 627.23 339.14 626.82 340.09 625.84 339.74 625.21 340.56 624.35 339.97 623.54 340.61 622.86 339.83 621.9 340.25 621.44 339.32 620.41 339.49 620.19 338.47 619.15 338.38 619.19 337.34 618.21 337 618.51 336 617.65 335.42 618.18 334.53 617.49 333.76 618.23 333.03 617.75 332.1 618.65 331.58 618.42 330.56 619.41 330.28 619.44 329.24 620.48 329.22 620.76 328.22 621.78 328.45 622.3 327.55 623.22 328.03 623.95 327.29 624.73 327.98"/><circle class="cls-10" cx="624.16" cy="333.99" r="4.7"/><path class="cls-40" d="M625.29,333l1.24.3a.25.25,0,0,1,.18.31.22.22,0,0,1-.08.13l-1,.8a.26.26,0,0,0-.09.22l.09,1.27a.25.25,0,0,1-.23.27.2.2,0,0,1-.15,0l-1.07-.69a.26.26,0,0,0-.24,0l-1.19.49a.29.29,0,0,1-.16,0,.26.26,0,0,1-.18-.31l.34-1.24a.28.28,0,0,0,0-.23l-.83-1h0a.26.26,0,0,1,0-.36.44.44,0,0,1,.16-.06l1.27-.06a.24.24,0,0,0,.2-.12l.67-1.08a.28.28,0,0,1,.13-.11.26.26,0,0,1,.33.15l.45,1.19A.26.26,0,0,0,625.29,333Z"/></g><path class="cls-34" d="M611.71,331.83c0-.08-.21-.14-.21-.08,0,.33-.08.66-.1,1a.39.39,0,0,0,.33.38.53.53,0,0,0,.55-.19c.11-.1.18-.23.28-.33s.27-.32.37-.31l-.13-.05c.07.07.07.24.09.32a1.54,1.54,0,0,0,.05.31.62.62,0,0,0,.28.39s.15.07.18,0a3.59,3.59,0,0,1,.64-.76,2.78,2.78,0,0,1,.34-.26.41.41,0,0,1,.19-.08c.16,0,.15.09.17.2a.5.5,0,0,0,.39.36.94.94,0,0,0,.71-.15c.06,0-.13-.13-.2-.1s-.56.3-.67,0c0-.11,0-.22-.09-.32a.5.5,0,0,0-.48-.11,1.6,1.6,0,0,0-.65.44,3.74,3.74,0,0,0-.57.69l.18,0c-.29-.18-.21-.59-.31-.87a.22.22,0,0,0-.19-.17.34.34,0,0,0-.29.12,2.53,2.53,0,0,0-.36.37c-.1.13-.24.33-.42.34s-.15-.42-.13-.57l.05-.62Z"/><line class="cls-41" x1="621.09" y1="316.41" x2="614.2" y2="316.25"/><line class="cls-42" x1="623.23" y1="319.41" x2="611.03" y2="319.3"/><line class="cls-42" x1="616.56" y1="333.97" x2="610.89" y2="333.84"/><line class="cls-42" x1="624.09" y1="321.46" x2="610.97" y2="321.25"/><line class="cls-42" x1="624.02" y1="323.46" x2="610.9" y2="323.26"/><path class="cls-43" d="M580.21,319l2.85,3.48,3.35-2.83.43,1.14s-3.15,3-3.88,2.79-3.44-3.68-3.44-3.68Z"/><path class="cls-10" d="M575.35,313.49a20.8,20.8,0,0,0,2.36,4.63l1.65,2.26s.89-2.08,2.17-2.52c.49-.17,1.4,1,1.4,1l-2.58-3.51a10.94,10.94,0,0,1-1.23-2.12,6.58,6.58,0,0,1-.46-3.51h0l-.77.14a8.65,8.65,0,0,0-2,1.38L575,312Z"/><path class="cls-18" d="M624.67,320.09a1.61,1.61,0,0,1-.17-1.49l.93.19c-.49-.43-.31-1.36-.31-1.36l1,.12h0a.79.79,0,0,1-.25-1.09l.05-.07.81.18c-.52-.47.27-1.11.27-1.11s1.17.76,2.26,1.5a6.25,6.25,0,0,1-.55.94,16.18,16.18,0,0,0-.89,1.7c-.28.58.44,2.79.08,3.31,0,0-.53-1-.55-1l-.52-.79S625.16,320.77,624.67,320.09Z"/><path class="cls-19" d="M624.54,318.64a2.31,2.31,0,0,0,.81.25,16.46,16.46,0,0,1,1.94.44,3.72,3.72,0,0,1,1,.49c.26.21.47.4.68.59a1.75,1.75,0,0,0,.69.47,7.51,7.51,0,0,0-.59-.58,6.55,6.55,0,0,0-.65-.64,3.24,3.24,0,0,0-1-.54,10.4,10.4,0,0,0-2-.39A5.7,5.7,0,0,0,624.54,318.64Z"/><path class="cls-19" d="M629.91,319.46a2.77,2.77,0,0,0-.56-.52l-.65-.54a1.84,1.84,0,0,0-.43-.3,2.91,2.91,0,0,0-.51-.22,13,13,0,0,0-1.86-.38,3.46,3.46,0,0,0-.79-.06,2.57,2.57,0,0,0,.76.23,17.46,17.46,0,0,1,1.82.43,2.55,2.55,0,0,1,.48.2,1.76,1.76,0,0,1,.4.27l.68.5A2.94,2.94,0,0,0,629.91,319.46Z"/><path class="cls-19" d="M630.44,318.5a2.68,2.68,0,0,0-.56-.49l-.65-.48-.38-.28-.2-.14-.11-.08-.13-.06a13,13,0,0,0-1.73-.48,2.32,2.32,0,0,0-.74-.1,3.46,3.46,0,0,0,.7.26c.44.14,1.05.3,1.68.53l.1.05.1.07.21.14.39.27.67.43A2.57,2.57,0,0,0,630.44,318.5Z"/><path class="cls-44" d="M597.27,353c.11-.76.26-1.8.43-3.06.33-2.6.79-6.16,1.26-10.12s.88-7.56,1.17-10.13c.13-1.26.24-2.3.29-3.07,0-.33.05-.6.07-.84a1.5,1.5,0,0,0,0-.29.89.89,0,0,0-.07.28c0,.23-.08.5-.13.83-.1.78-.24,1.8-.41,3.07-.33,2.59-.78,6.16-1.25,10.11-.5,4.18-.87,7.54-1.17,10.13-.14,1.27-.25,2.31-.33,3.08l-.08.84"/><path class="cls-44" d="M562.59,349.67c.06-.77.13-1.81.21-3.08.16-2.61.37-6.2.57-10.18s.36-7.61.47-10.19c0-1.27.08-2.31.07-3.08,0-.34,0-.6,0-.85a1.38,1.38,0,0,0,0-.29.93.93,0,0,0-.05.29l-.08.83c0,.78-.12,1.82-.2,3.09-.15,2.61-.36,6.21-.56,10.18-.21,4.2-.35,7.58-.47,10.19-.05,1.27-.08,2.32-.11,3.09,0,.34,0,.6,0,.84"/><path class="cls-31" d="M547.44,354.65A62.57,62.57,0,0,0,546,337l-26.55,9.63,1.07,6.8A30.77,30.77,0,0,0,532,356.78,33.23,33.23,0,0,0,547.44,354.65Z"/><path class="cls-45" d="M521.61,327.37l-.36,0c0-.13,0-.26.08-.4Z"/><path class="cls-46" d="M524.33,315.29s3.49,23-2.27,20.42-5-22.21-5-22.21C521.6,310,524.33,315.29,524.33,315.29Z"/><path class="cls-46" d="M556.22,323s-7,22.16-11.07,17.31,5.38-22.12,5.38-22.12C556.1,317,556.22,323,556.22,323Z"/><path class="cls-45" d="M526,310.43l-.37,0,.09-.48C525.82,310.13,525.91,310.28,526,310.43Z"/><g id="freepik--Character--inject-2-2"><path class="cls-31" d="M521,316c1.13,2.94,1.74,4.24,1.4,7.23-.27,2.41.11,2.72.31,5.13a63,63,0,0,1-.9,7.7c-.16,1.05-.87,3.27-1,4.37-.26,1.89-.94,3.31-1,5a57.12,57.12,0,0,0,12.78-.92c2.26-.35,4.52-.74,6.79-1.06s4.53-.5,6.82-.63l1.3-.07A43.14,43.14,0,0,0,546.4,337l6.34-28.52s-6.36-6.89-7-7.07c-2.58-.75-5.49,3.49-8.15,3.15-4.76-.62-1-5.78-5.58-4.32-1.28.41-8.22-.16-8.7,1.07-.59,1.47-3.57,9.27-4.06,10.77C518.56,314.27,521.56,314.37,521,316Z"/></g><path class="cls-18" d="M545.09,292.46a29,29,0,0,0-.2,7.57,3.13,3.13,0,0,0,.89,1.4l-5.45.36c-4.57.4-5.1,3.65-7.86,0l-.42-1.53,1.09-.79c.31-.79,2-9.28,2-9.28"/><path class="cls-18" d="M545.77,301.43s.06,1.89-3.22,3.46-8.31.78-9.39-.89a8,8,0,0,1-1.11-3.74Z"/><path class="cls-19" d="M544.7,297a8.29,8.29,0,0,1-5.74,2.69c-3.21.15-5.07-3.39-5.07-3.39Z"/><path class="cls-18" d="M549.55,290.56s.48,1,.94,1.07c1.17.11,1.24-1.15,1.58-2s1.56-2.46,1.72-4a2.7,2.7,0,0,0-1.28-2.45c-.72-.07-2,1.9-2,1.9C550.15,286.45,549.55,290.56,549.55,290.56Z"/><path class="cls-34" d="M550.67,287.17c0,.08.18.18.23.09a11.64,11.64,0,0,1,.83-1.24,3.61,3.61,0,0,1,1-.93l.14-.07.1,0H553l-.14-.07v0l0,.09a1.89,1.89,0,0,1,.09.34,2.51,2.51,0,0,1-.14,1.3c0,.09.2.17.23.08a2.4,2.4,0,0,0,0-1.67c0-.14-.11-.27-.28-.25a.85.85,0,0,0-.37.15,3.58,3.58,0,0,0-.75.65,10.53,10.53,0,0,0-1.09,1.55Z"/><path class="cls-34" d="M551.11,287.43c-.15,0,0,.13.08.14.35,0,0,.86,0,1.05a.75.75,0,0,0,0,.42.26.26,0,0,0,.32.16c.15-.07.24-.3.3-.43a5.4,5.4,0,0,0,.3-.94,2.64,2.64,0,0,0,0-.84,1.19,1.19,0,0,0-.52-1c-.1-.06-.25,0-.1.08.36.2.4.76.4,1.12a2.79,2.79,0,0,1-.16.95,4,4,0,0,1-.29.75.62.62,0,0,1-.09.12s0,0-.06.05.09.05.09,0l0,0a.17.17,0,0,0,0-.07c0-.47.58-1.51-.28-1.56Z"/><path class="cls-18" d="M530.26,289.14s-.66.92-1.13.87c-1.16-.1-1-1.36-1.18-2.26s-1.06-2.7-.94-4.21c.09-1.13,1.27-2.21,1.71-2.17.73.07,1.6,2.23,1.6,2.23C530.44,285,530.26,289.14,530.26,289.14Z"/><path class="cls-34" d="M529.55,285.64c0,.1.27.11.23,0a9.65,9.65,0,0,0-.87-1.87,3,3,0,0,0-.58-.7,1.07,1.07,0,0,0-.36-.2c-.15,0-.23.17-.29.28a2.4,2.4,0,0,0-.21,1.56c0,.11.25.16.23,0a2.54,2.54,0,0,1,.11-1.31,1.1,1.1,0,0,1,.24-.42l-.1,0h0l.07,0,0,0,.06,0,.12.1a3.62,3.62,0,0,1,.36.42,8.19,8.19,0,0,1,1,2Z"/><path class="cls-34" d="M529.26,285.93c.16,0,.13-.15,0-.17a.42.42,0,0,0-.42.16.91.91,0,0,0-.1.48c0,.18,0,.36,0,.54a.81.81,0,0,1,0,.22s0,.1,0,.15-.09.1,0,0,0,0,0,0,0-.07,0-.08a1.61,1.61,0,0,1-.09-.29,4.94,4.94,0,0,1-.12-.93,2.5,2.5,0,0,1,.09-.77,1.15,1.15,0,0,1,.59-.87c.14,0,0-.19-.13-.16a1.27,1.27,0,0,0-.71,1,2.79,2.79,0,0,0-.06,1,3.8,3.8,0,0,0,.16.87c0,.13.12.32.28.35.63.1-.12-1.66.54-1.57Z"/><path class="cls-18" d="M529.42,276.86a12.21,12.21,0,0,1,12.21-7.6,11.66,11.66,0,0,1,5.85,2.8h0c3,2.32,4.12,3.54,4.67,7.43a13.24,13.24,0,0,1-.66,6h0v0c-.16.53-.33,1.07-.5,1.64-.23.76-.46,1.55-.67,2.43-.92,3.9-2.27,5.61-5.13,7.11s-3.9,2.2-6.34,2.06c-2.43-.32-3.2-1.11-5.85-3.21s-3.53-3.94-3.71-7.95c-.07-1.52-.25-2.85-.37-4.12h0A15.79,15.79,0,0,1,529.42,276.86Z"/><path class="cls-34" d="M539.16,289.43a.2.2,0,0,0-.15,0s-.06.05,0,.09a1.2,1.2,0,0,0,1.38.16c.1-.05-.1-.15-.17-.11a.84.84,0,0,1-1-.09"/><path class="cls-34" d="M540.52,289.52s0,.07,0,.09a.14.14,0,0,0,.15,0,2,2,0,0,1,.73-.13l-.11-.12a.64.64,0,0,1-.36.05s-.08,0-.06.06a.15.15,0,0,0,.13.07.82.82,0,0,0,.44-.06.05.05,0,0,0,0-.08.17.17,0,0,0-.12-.05,2,2,0,0,0-.81.14"/><path class="cls-34" d="M541.6,289.67s-.08,0-.06.05a.15.15,0,0,0,.13.07,1,1,0,0,0,.3,0,.84.84,0,0,0,.69-.64,1.06,1.06,0,0,0-.35-1,.22.22,0,0,0-.14-.05s-.06,0,0,.07a.94.94,0,0,1,.21,1.16.87.87,0,0,1-.76.36"/><path class="cls-34" d="M538.84,289.38s0,.07,0,.08a.16.16,0,0,1-.15,0,1.86,1.86,0,0,0-.69-.26l.13-.11a.62.62,0,0,0,.34.13s.08,0,0,.07a.15.15,0,0,1-.13,0,.8.8,0,0,1-.43-.15s0-.05,0-.07a.16.16,0,0,1,.13,0,2.12,2.12,0,0,1,.77.29"/><path class="cls-34" d="M537.76,289.32s.08,0,0,.06-.1.05-.14.05a1.14,1.14,0,0,1-.3-.09.83.83,0,0,1-.55-.75,1,1,0,0,1,.53-.91.2.2,0,0,1,.15,0,0,0,0,0,1,0,.08.93.93,0,0,0-.43,1.09.9.9,0,0,0,.68.5"/><path d="M545.6,284.05a.8.8,0,0,0-.39.42.84.84,0,0,0,.32,1,.77.77,0,0,0,.89-.07.83.83,0,0,0,.26-.73.81.81,0,0,0-.2-.39.83.83,0,0,0-.88-.24"/><path d="M535,283.17a.7.7,0,0,1,.31.49.84.84,0,0,1-.5.94.76.76,0,0,1-.86-.24.75.75,0,0,1,.15-1.11.82.82,0,0,1,.9-.07"/><path d="M534.7,283.26a8.21,8.21,0,0,0-3,.61A4.25,4.25,0,0,1,535,283a7.93,7.93,0,0,1,2.4,1.59A14.59,14.59,0,0,0,534.7,283.26Z"/><path d="M545.86,284.1a8,8,0,0,1,2.75,1.16,4.12,4.12,0,0,0-3-1.45,7.66,7.66,0,0,0-2.59,1.13A13.36,13.36,0,0,1,545.86,284.1Z"/><path d="M537.5,281c-2.17-.77-2.9-.89-4.4-.71a1.85,1.85,0,0,0-1.65,1s-.16.36-.09.39.3-.18.39-.27a2.32,2.32,0,0,1,1.41-.49,8.75,8.75,0,0,1,2.69.57c.42.11.89.36,1.54.6,0-.21.05-.42.07-.63l0-.4"/><path d="M543.52,281.52c2.28-.36,3-.34,4.46.12a1.83,1.83,0,0,1,1.43,1.27s.09.38,0,.41-.29-.32-.36-.43a2.07,2.07,0,0,0-1.26-.66,8.77,8.77,0,0,0-2.75.06c-.44,0-.94.18-1.63.3,0-.21,0-.42.05-.63l0-.4"/><path class="cls-18" d="M498.34,288l-.19-3.29-.43-.66a15.13,15.13,0,0,1-.9-3.54l-.36-1.48h0a.89.89,0,0,1-.68-.54,8.43,8.43,0,0,1-.51-2.43c0-.54,1.09-.83,1.27-.88a4,4,0,0,1,.06-.84.75.75,0,0,1,.09-.3h0a.76.76,0,0,1,1-.32c.28-.91,1.59-.82,1.59-.82a1,1,0,0,1,1-.61l2.95,3.17s.18,2.87.31,3.46a33,33,0,0,1-.9,4.79l.35,3.37A8.36,8.36,0,0,1,498.34,288Z"/><path class="cls-47" d="M498.5,275.25a.52.52,0,0,0,.64.23,1.45,1.45,0,0,0,.92-.9,7.44,7.44,0,0,0,.42-1.11l-1.12-.68a6.05,6.05,0,0,0-.85,2.18A.66.66,0,0,0,498.5,275.25Z"/><path class="cls-48" d="M500.41,273.68c-.05.14-.14.33-.25.58s-.11.27-.18.41a2.11,2.11,0,0,1-.26.4,1.21,1.21,0,0,1-.43.32.72.72,0,0,1-.54,0,.3.3,0,0,1-.18-.17.62.62,0,0,1,0-.27,5.17,5.17,0,0,1,.11-.54,5.69,5.69,0,0,1,.32-.87c.11-.24.21-.43.28-.56a2,2,0,0,0,.1-.21,1.27,1.27,0,0,0-.13.19c-.08.15-.19.31-.31.56a4.62,4.62,0,0,0-.34.87,4.88,4.88,0,0,0-.12.55.65.65,0,0,0,0,.31.42.42,0,0,0,.24.23.76.76,0,0,0,.61,0,1.37,1.37,0,0,0,.45-.35,1.57,1.57,0,0,0,.27-.43l.16-.41a4.24,4.24,0,0,0,.23-.59.59.59,0,0,0,0-.23Z"/><path class="cls-48" d="M498.7,275.74a2.05,2.05,0,0,1-.19.64,2.1,2.1,0,0,1-.64.75.75.75,0,0,1-.54.13.45.45,0,0,1-.24-.14.42.42,0,0,1-.1-.28,3.2,3.2,0,0,1,.09-.62c0-.2.09-.4.14-.58.1-.37.19-.7.26-1s.11-.44.15-.67a2.11,2.11,0,0,0,0-.25,2.17,2.17,0,0,0-.07.24c0,.16-.09.38-.17.67s-.18.61-.28,1c-.05.17-.1.38-.14.59a2.84,2.84,0,0,0-.1.64.54.54,0,0,0,.12.34.55.55,0,0,0,.3.16.76.76,0,0,0,.6-.14,2.19,2.19,0,0,0,.65-.8,1.75,1.75,0,0,0,.17-.67.61.61,0,0,0,0-.19.13.13,0,0,0,0-.06A2,2,0,0,0,498.7,275.74Z"/><path class="cls-48" d="M498.14,278.15a1.78,1.78,0,0,1-.49,1,1,1,0,0,1-.6.27.43.43,0,0,1-.3-.13.55.55,0,0,1-.14-.32,10.43,10.43,0,0,1,0-1.48c0-.44,0-.85.05-1.2s0-.63,0-.82,0-.17,0-.22v-.08c0,.1,0,.2,0,.3a5.49,5.49,0,0,1,0,.81l-.08,1.21a9.27,9.27,0,0,0,0,1.49.77.77,0,0,0,.17.38.51.51,0,0,0,.37.15,1,1,0,0,0,.67-.29,1.89,1.89,0,0,0,.5-1.1,2.51,2.51,0,0,0,0-.82,1.6,1.6,0,0,0-.05-.21l0-.08A3.39,3.39,0,0,1,498.14,278.15Z"/><path class="cls-49" d="M519,272.26a.58.58,0,0,0-.87.77c.61.69,1.23,1.37,1.81,2.08a1.51,1.51,0,0,1,.18,1.77A3.93,3.93,0,0,1,518.8,278a13.27,13.27,0,0,1-3,1.53,7.16,7.16,0,0,1-3.49.36,6.16,6.16,0,0,1-3.49-2.1.58.58,0,0,0-.87.76,7.28,7.28,0,0,0,4.68,2.55c2.69.27,5.31-1,7.44-2.56a3,3,0,0,0,1.37-1.95,2.67,2.67,0,0,0-.63-2.2c-.59-.73-1.21-1.4-1.81-2.09Z"/><path class="cls-49" d="M506.65,259.73a.57.57,0,0,0,.69,0,.58.58,0,0,0,.19-.8,23,23,0,0,0-2.13-2.39,2.71,2.71,0,0,0-2.42-.54,4,4,0,0,0-1.75,1.3,14.62,14.62,0,0,0-2.28,3.19,8.31,8.31,0,0,0-1,4.08,7.34,7.34,0,0,0,1.87,4.43c.49.54,1.36-.22.88-.79a6,6,0,0,1-1.59-4.19,9.89,9.89,0,0,1,3-6,2.25,2.25,0,0,1,1.53-1,1.67,1.67,0,0,1,1.29.67l1.71,2Z"/><path class="cls-49" d="M494,278.51l1.85,2.13.05.06,1.85,2.12a14.83,14.83,0,0,1,3-4.33l-.72-1.36h0l0,0h0l-1.21-.88A14.84,14.84,0,0,1,494,278.51Z"/><rect class="cls-49" x="499.27" y="273.82" width="1.94" height="6.09" rx="0.96" transform="translate(-58.91 396.23) rotate(-41.01)"/><path class="cls-49" d="M500.77,276.38h0c6.83,8.35,20.7-5,20.81-5.17l-6.07-7-.34-.39-6.41-7.38C508.58,256.55,493.42,268.44,500.77,276.38Z"/><path class="cls-50" d="M499.46,277.4c.79.92,1.44,1.66,1.43,1.67s-.67-.73-1.47-1.65-1.43-1.68-1.43-1.68S498.68,276.49,499.46,277.4Z"/><path class="cls-50" d="M501,276.19c.86,1,1.54,1.77,1.54,1.8s-.71-.79-1.57-1.78-1.54-1.8-1.54-1.8S500.1,275.2,501,276.19Z"/><path class="cls-50" d="M496.37,279.87c1.07,1.25,1.91,2.26,1.91,2.26s-.9-1-2-2.2l-1.92-2.26S495.3,278.63,496.37,279.87Z"/><path class="cls-51" d="M508.78,256.51l.07.13.25.52c0,.11.11.24.18.37l.23.44c.17.32.34.68.56,1.06l.35.62c.11.2.24.42.38.64l.21.34.1.18.12.17.46.71a35.21,35.21,0,0,0,5,5.83l.63.58.15.14.17.13.3.26c.17.14.39.32.58.46l.55.44c.35.28.67.51,1,.72s.28.21.41.29l.34.23.48.33.12.08,0,0,0,0-.13-.09-.48-.31-.35-.23-.4-.29c-.29-.2-.62-.43-1-.71l-.55-.43c-.19-.12-.38-.3-.59-.46l-.32-.25-.16-.13-.15-.14-.64-.58c-.93-.88-1.82-1.8-2.66-2.77a36.44,36.44,0,0,1-2.33-3.07l-.47-.72-.11-.17a1.74,1.74,0,0,1-.11-.18l-.21-.34-.38-.65c-.11-.22-.23-.42-.34-.62-.22-.38-.39-.75-.56-1.06l-.22-.44-.18-.38-.24-.52-.06-.14v0Z"/><polygon class="cls-52" points="510.23 269.69 511.86 272.23 508.86 271.98 506.96 274.3 506.26 271.38 503.46 270.29 506.03 268.73 506.2 265.72 508.48 267.69 511.39 266.92 510.23 269.69"/><path class="cls-51" d="M508.73,256.51l-.12.1-.49.39a23.23,23.23,0,0,0-1.76,1.53c-.71.67-1.53,1.48-2.4,2.44a29.4,29.4,0,0,0-2.58,3.31,18.09,18.09,0,0,0-1.91,3.71,12.14,12.14,0,0,0-.5,1.76l-.05.21,0,.21,0,.2v.2c0,.25-.05.51-.06.76a7.66,7.66,0,0,0,.32,2.28c.08.26.15.46.2.59a.54.54,0,0,1,.06.16s0,0,0,.05l0-.05-.07-.15c-.05-.13-.13-.34-.21-.59a7.7,7.7,0,0,1-.34-2.29l.06-.77,0-.2,0-.2,0-.21,0-.21a11.07,11.07,0,0,1,.49-1.77,18,18,0,0,1,1.93-3.72,26.71,26.71,0,0,1,2.58-3.31c.86-1,1.7-1.77,2.42-2.44s1.32-1.16,1.74-1.51l.49-.39.13-.1.05,0Z"/><path class="cls-10" d="M504,277.73l.11.08a3.3,3.3,0,0,0,.45.26,3.56,3.56,0,0,0,.79.22,4.87,4.87,0,0,0,1.08.08,8.12,8.12,0,0,0,1.3-.17l.72-.15.75-.21a19.92,19.92,0,0,0,3.23-1.28,30.87,30.87,0,0,0,3-1.73c.89-.59,1.68-1.14,2.33-1.62s1.18-.86,1.54-1.14l.42-.31.11-.08,0,0,0,0-.11.08-.41.32c-.36.29-.88.69-1.53,1.16s-1.43,1-2.33,1.63a30.87,30.87,0,0,1-3,1.73,19.46,19.46,0,0,1-3.22,1.28l-.76.21-.72.15a7.22,7.22,0,0,1-1.31.16,5,5,0,0,1-1.1-.07,3.09,3.09,0,0,1-.78-.25,2.51,2.51,0,0,1-.45-.26l-.11-.08,0,0Z"/><path class="cls-10" d="M502.08,278.14a.35.35,0,0,1,.06.14.61.61,0,0,1-.18.49,1.11,1.11,0,0,1-.45.25.46.46,0,0,1-.21,0l.2-.07a1.41,1.41,0,0,0,.45-.25.55.55,0,0,0,.12-.65A.05.05,0,0,1,502.08,278.14Z"/><path class="cls-18" d="M499,283.67a3.35,3.35,0,0,1,1.49-4.6,5.5,5.5,0,0,1-1.29-1.81,1.91,1.91,0,0,1,.37-2.07l3.32,3.66"/><path class="cls-48" d="M498.55,282.53a2.9,2.9,0,0,1,0-.93,3.4,3.4,0,0,1,.52-1.33,3.22,3.22,0,0,1,1.35-1.18l.06,0,0,0a9.39,9.39,0,0,1-.76-.91,3.11,3.11,0,0,1-.57-1.08,2.07,2.07,0,0,1-.05-1,1.5,1.5,0,0,1,.46-.82h-.07l2.4,2.61.7.76.19.19c0,.06.07.06.07.06l-.05-.07-.18-.2-.68-.78-2.36-2.63,0,0,0,0a1.52,1.52,0,0,0-.49.89,2.12,2.12,0,0,0,.06,1.06,3.35,3.35,0,0,0,.61,1.11,9.78,9.78,0,0,0,.79.9V279a3.15,3.15,0,0,0-1.39,1.21,3.38,3.38,0,0,0-.52,1.36,2.75,2.75,0,0,0,0,.95,1,1,0,0,0,.06.25.19.19,0,0,1,0,.08S498.62,282.76,498.55,282.53Z"/><path d="M534.25,351.3s-1.16,8.19-1.24,9.44c2.4.09,4.16-.58,6.47-1.27,2.77-.83,2.63.25,5.26-.91.73-.32,2.85.08,3.58-.24.43-.19,2.85-1.48,3.3-1.63a91.26,91.26,0,0,0-1.7-11.68c-.93-4-1.24-6.29-1.24-6.29l1.26-9.15s2-6.64,2.13-7.3c0,0,6.91,15.84,10.87,17.7,0-.16.4-4,.53-5l.48-12.12c-1.35-3.75-4.05-14-4.46-14.8-.75-1.43-2.78-2.76-4.19-3.61s-9.33-4.09-9.33-4.09-1.42,5.22-5.75,6.45Z"/><path d="M495.84,286.14c.8,6.82,5.23,21.64,7.29,23.4,4.07,3.45,17.67,6.24,17.67,6.24l.19,7.66s-.22,6.7-.65,11.32c-.31,3.28-6.45,15.73-8,19.63,3.62.71,10.87-4.46,14.54-4.26,1.22.07,2.44.14,3.66.26,1.06-7.19,2.56-17.53,2.9-20.76.43-4.06.87-17.76,1.67-23.22,0,0-3.72-4.12-3.68-6.6h-.73l-21.34-1.1-6-15.09Z"/><polygon points="522.88 264.12 541.45 256.97 560.35 264.62 541.31 269.34 522.88 264.12"/><path d="M542,269.86a65.1,65.1,0,0,0-10.18,1.07l-.3-6.16s5.49-2.15,10-2.11,10.28,2.79,10.28,2.79l-.72,5.71A64.54,64.54,0,0,0,542,269.86Z"/><path class="cls-46" d="M545.61,300a71.84,71.84,0,0,1-8.14,7.36c-.17.14.18.13,0,0-4.35-3-5.17-7.8-6.63-8.42-3.57-1.54-7.79.33-7.79.33s3,9.1,14.26,10.18c8.48.81,15-6,15-6C550.55,299.9,545.61,300,545.61,300Z"/><path class="cls-53" d="M523.05,299.29s3.26,8.39,14,10.15c7.25,1.19,15.21-5.94,15.21-5.94"/><path d="M544.74,329.89s3.66,2.15,7.78-2.28c2.18-2.33,1.49-9.54,1.49-9.54"/><path d="M517.07,346c-.62,1.68-3.59,7.22-4,8.27A36,36,0,0,0,528.76,361c.26-1.78,1.67-9.76,2.25-13.7Z"/><path class="cls-26" d="M534.83,291.2s.21,3.46,4.33,3.85,5-3,5-3-2.9-.06-4.67-.23S534.83,291.2,534.83,291.2Z"/><path class="cls-27" d="M535.24,291.33s.81,1.87,4.11,2.19a4.88,4.88,0,0,0,4.35-1.42s-3.41-.18-4.26-.26Z"/><path class="cls-28" d="M536,291.52s.72,1,3.25,1.19,3.54-.57,3.54-.57-2.58-.11-3.43-.19Z"/><path class="cls-26" d="M539.42,292.31c4.71.44,5-.43,4.92-.47a7.44,7.44,0,0,1-1,0c-.69-.13-1.52-.39-2-.47a7.32,7.32,0,0,0-1.82.1,7.52,7.52,0,0,0-1.76-.44c-.51,0-1.37.09-2.07.08a7.15,7.15,0,0,1-1-.19C534.54,290.94,534.7,291.86,539.42,292.31Z"/><path class="cls-26" d="M580.82,303.56a4.2,4.2,0,0,0,8,.75s-2.48-.06-4-.2S580.82,303.56,580.82,303.56Z"/><path class="cls-27" d="M581.17,303.67s.69,1.61,3.53,1.88a4.14,4.14,0,0,0,3.73-1.22s-2.93-.15-3.65-.22Z"/><path class="cls-28" d="M581.84,303.84s.62.81,2.79,1a4.46,4.46,0,0,0,3-.49s-2.21-.09-2.93-.16Z"/><path class="cls-26" d="M584.76,304.51c4.06.38,4.34-.36,4.23-.4a5.47,5.47,0,0,1-.87,0c-.59-.11-1.3-.33-1.73-.4a6.46,6.46,0,0,0-1.56.08,6.64,6.64,0,0,0-1.52-.37c-.44,0-1.18.07-1.78.07a6,6,0,0,1-.85-.17C580.57,303.34,580.7,304.13,584.76,304.51Z"/><path class="cls-54" d="M546.7,330.1s2.65.77,5.82-2.49c2.22-2.29,1.49-9.54,1.49-9.54a5,5,0,0,1,2.15-3"/><path d="M526.69,327.68s-4.08,1.93-7.3-3.19c-1.7-2.71.62-11.42.62-11.42"/><path class="cls-54" d="M524.15,327.46s-2.63.3-4.75-3c-1.75-2.68.39-10.16.39-10.16a5,5,0,0,0-1.55-3.37"/><path class="cls-54" d="M510.39,302.69a7,7,0,0,0-.37-3.92"/><path class="cls-49" d="M498.47,282.4h0a3,3,0,0,1-.3,4.18l0,0h0l-8-9.2h0l0,0h0a3,3,0,0,1,4.18.29l4.11,4.72Z"/><rect class="cls-55" x="487.45" y="276.3" width="7.88" height="16.37" transform="translate(-66.08 392.29) rotate(-41.01)"/><rect class="cls-52" x="489.57" y="278.6" width="3.86" height="11.59" transform="translate(-65.99 392.34) rotate(-41.01)"/><path class="cls-10" d="M498,282.35l.08.08a2.9,2.9,0,0,1,.7,1.61,3,3,0,0,1-.18,1.34,2.64,2.64,0,0,1-.18.38l-.06.09,0,0,.07-.13c0-.09.1-.21.16-.38a3.06,3.06,0,0,0-.26-2.59,2,2,0,0,0-.24-.33l-.09-.13Z"/><path class="cls-43" d="M578.15,370c-8.67-1.17-18.14-5.67-18.14-5.67l-.33,2.47c1.53,1.42,12.24,4.69,18.27,5.26s18.78,0,18.85-.78L597,369S586.82,371.19,578.15,370Z"/><path class="cls-10" d="M592.27,315.3a20.66,20.66,0,0,1-3.18,4.11l-2,1.92s-.48-2.22-1.66-2.89c-.45-.26-1.55.68-1.55.68l3.19-3a11.32,11.32,0,0,0,1.59-1.86,6.41,6.41,0,0,0,1.11-3.36h0l.73.28a8.81,8.81,0,0,1,1.72,1.73l.69,1Z"/><path class="cls-56" d="M587.05,321.31s-.48-2.21-1.66-2.88c-.45-.26-1.55.68-1.55.68"/><path class="cls-56" d="M579.37,320.26s.89-2.08,2.17-2.52c.49-.17,1.4,1,1.4,1"/><path d="M524.52,281.62a5.23,5.23,0,0,0,.49.45c2.13,1.64,6.07,2.51,7.57,0,.76-1.28,1.14-3,2.31-3.71,1.55-1,2.51.22,4.06-.75.91-.55,1.23-2.52,2.1-3,1.26-.69,2.16.26,3.38.33a3.74,3.74,0,0,0,2.4-1.25c.2-.18,2.45-.54,2.63-.75-2.88-2.12-1.41-2.46-4.63-3.85-.86-.37-8.4-2-9.3-1.69a5.1,5.1,0,0,0-2.29,2.14C530.22,273.81,527.53,277.36,524.52,281.62Z"/><path d="M553.32,276.76c0,1.54.52,5.65-.42,6.18s-1.7,3.47-1.72,3,.08-2.73.08-2.73a4.33,4.33,0,0,1-.81-2.75,14.44,14.44,0,0,0-.14-2.37,4.69,4.69,0,0,1-2.26-2.64,33.69,33.69,0,0,1-.91-3.52C548.33,270.42,553.31,275.23,553.32,276.76Z"/><path d="M524.25,288.34c.27-.95,1.7-7.15-.39-6.28s-2.21,4.87-1.88,6.89a3.2,3.2,0,0,1-.56,2.87C522.59,291.9,524,289.3,524.25,288.34Z"/><path d="M554.46,277a5.36,5.36,0,0,0-.81-4.41c-1.16-1.51-5.1-1.93-5.1-1.93C548.93,274.19,554.46,277,554.46,277Z"/><path class="cls-57" d="M528.85,289.5c.12,0,0-.15-.11-.13a.93.93,0,0,0-.6.48.9.9,0,0,0,.4,1.16,1.12,1.12,0,0,0,.41.1,1,1,0,0,0,.71-.27c.06-.06-.13-.16-.18-.1a.77.77,0,0,1-.66.22.45.45,0,0,1-.26-.09.74.74,0,0,1-.29-.48.81.81,0,0,1,.58-.89Z"/><path class="cls-57" d="M550.69,291s-.1,0-.12,0,0,.08.08.09a.74.74,0,0,1,.44.41.78.78,0,0,1-.27.95.53.53,0,0,1-.32.1.69.69,0,0,1-.59-.22.15.15,0,0,0-.14-.05s-.06,0,0,.08a1,1,0,0,0,.84.33.81.81,0,0,0,.43-.14.85.85,0,0,0,.34-.54.93.93,0,0,0-.66-1Z"/></g><g id="Layer_5" data-name="Layer 5"><path d="M531.44,279.38c-1.18-1.55-3.64,1.66-3.07,1.85s1.39,3.39,1.39,3.39.27-2.18.22-2.29,1.45-2.95,1.45-2.95"/></g><path d="M512,355.8a114.61,114.61,0,0,0-2.84,11.68l19,1.78,1.39-11.84-10.08-19.06A99.17,99.17,0,0,0,512,355.8Z"/><path d="M552.29,360.34a105.35,105.35,0,0,1,.45,11.38L532.2,370l1.3-13.24,14.73-14.94A99.22,99.22,0,0,1,552.29,360.34Z"/></svg>