<svg id="Layer_1" data-name="Layer 1" xmlns="http://www.w3.org/2000/svg" viewBox="0 0 637.33 635.77"><defs><style>.cls-1{fill:#c1e7f6;}.cls-2{fill:#e3cb97;}.cls-3{fill:#936243;}.cls-4{fill:#361b0f;}.cls-5{fill:#4b2712;}.cls-6{fill:#9b4a23;}.cls-7{fill:#482913;}.cls-8{fill:#060606;}.cls-9{fill:#163042;}.cls-10,.cls-13,.cls-16{fill:#14110f;}.cls-11{fill:#151210;}.cls-12,.cls-21,.cls-23,.cls-26{fill:none;}.cls-12,.cls-13,.cls-16{stroke:#151210;}.cls-12,.cls-13,.cls-16,.cls-21,.cls-23,.cls-26{stroke-miterlimit:10;}.cls-12{stroke-width:0.54px;}.cls-13{stroke-width:0.23px;}.cls-14{fill:#684133;}.cls-15{fill:#221e1f;}.cls-16{stroke-width:0.23px;}.cls-17{fill:#643b29;}.cls-18{fill:#31150d;}.cls-19{fill:#f0edf6;}.cls-20{fill:#c2b2d6;}.cls-21,.cls-26{stroke:#5b5b5c;stroke-width:5.22px;}.cls-21{stroke-linecap:round;}.cls-22{fill:#f4a443;}.cls-23{stroke:#db8127;stroke-width:1.77px;}.cls-24{fill:#5b5b5c;}.cls-25{fill:#665786;}.cls-27{fill:#474748;}.cls-28{fill:#653c2c;}.cls-29{fill:#8e3029;}.cls-30{fill:#c85743;}.cls-31{fill:#812a23;}.cls-32{fill:#6696a3;}.cls-33{fill:#b05e27;}.cls-34{fill:#de8b26;}.cls-35{fill:#cd8c2a;}.cls-36{fill:#12100e;}</style></defs><circle class="cls-1" cx="319.06" cy="340.56" r="288.85"/><path class="cls-2" d="M478.75,581h-320a288.91,288.91,0,0,0,320,0Z"/><path class="cls-3" d="M447.07,547.82s-16.45,13.21-25,23.25h0s5,9.81,10.38,8.85S466,556.41,466,556.41l-2.57-9.33Z"/><polygon class="cls-4" points="455.72 584.22 462.57 583.61 463.78 571.59 457.88 571.68 455.72 584.22"/><polygon class="cls-5" points="463.76 571.29 462.57 583.61 469.57 583.06 468.58 569.54 463.76 571.29"/><path class="cls-4" d="M403.12,587.73a7.46,7.46,0,0,0,4,1.4c6.47,0,27.52-1.66,32.08-2.13,5.52-.57,5.52-.57,10.63-6.81a13.6,13.6,0,0,1,7.89-4.83c1.1-.22,2.21-.26,3.3-.45,2-.34,3.9-1,5.82-1.55,1.54-.41,3.46-1,3.05-3-.56-2.82-1.87-9.18-3.21-9l-.29,0-5.75,5.22-15.47,7.65-9,8.08-17.11.93-13.64-1.33s-3.14.69-3.69,1.21a2.05,2.05,0,0,0-.23,2.34A8.33,8.33,0,0,0,403.12,587.73Z"/><path class="cls-6" d="M422.63,569.78s2.49-.07,6.68,3.14c3.56,2.74,9.29,2,12.94-.18,2.2-1.34,4.3-3.13,6.42-4.64a37,37,0,0,0,6.36-5.43,31.62,31.62,0,0,1,6.66-5.52c.95-.61,1.91-1.18,2.86-1.78.62-.39,1.52-.85,1.25-1.73a65.84,65.84,0,0,1,3,6c1,2.35,1.58,7.14,1,8.9s-13.09,2.24-17.82,6.91-6.33,4.88-9.16,7.39-18.85,2.84-23.39,2.94-10.21-.2-12.14-.36-4.28-2-4.28-2-1.16-1.48,2-3.52,9.66-4.7,12.36-6.23a24.4,24.4,0,0,0,2.14-1.37A39.73,39.73,0,0,0,422.63,569.78Z"/><path class="cls-3" d="M172.39,423.35l2.35,57.16s-4.82,15.19-4.17,37.43c.76,26.48,2,44.46,2,44.46l15.51,4.37a310.24,310.24,0,0,1,11.16-53.07c8.47-27.21,11.19-59.71,9.61-76.56a193.18,193.18,0,0,1-.26-31.52l-46.1-34Z"/><path class="cls-3" d="M141.84,425.35l1.41,57.16s-4.4,15.29-3.75,37.53c.77,26.48,4.38,41.44,4.38,41.44l14.85,2.66s.56-21.23,9-48.44,11.18-59.71,9.61-76.56a143.74,143.74,0,0,1,.68-31.52l-41.6-33.72Z"/><path class="cls-3" d="M181,553.46s23.36,9.76,32.45,16c10.7,7.4-1.09,5-1.09,5s-7.59,1.61-11.9,2.08-30.53-13.36-30.53-13.36l3-9.76Z"/><path class="cls-7" d="M228.73,578s1.57-3.59-.76-4.65-12.87-3.43-14.17-3.25c0,.72-1.16,1.86-4,2.54s-6.17,1.38-13.12-.34a65.43,65.43,0,0,1-17.48-7.4c-1.53-1-5.23-4.86-8.43-5.51-1.63,2.31-3.12,12.14-.69,13.94S187.45,577,187.45,577l13.05,3.86L213,582.1l5.26.15,5-1.59Z"/><path class="cls-8" d="M169.52,572.64a48.77,48.77,0,0,0,11.23,2.13c12,.86,15.92,2.61,19.92,4.07a50.08,50.08,0,0,0,7,2.14c13.87,3.11,21.07-3.89,21.37-4.08a1.35,1.35,0,0,1,.33.7,32.33,32.33,0,0,1-2.82,2.23c-2.64,1.83-8.73,5.19-19.48,3a47.8,47.8,0,0,1-6.88-1.66,50.07,50.07,0,0,0-12.78-3l-.1,2s-12.76-.18-18.35-3C168.74,574,169.52,572.64,169.52,572.64Z"/><path class="cls-8" d="M168.94,575.36a79.09,79.09,0,0,0,18.47,3l-.09,1.81s-12.76-.18-18.35-3A14.56,14.56,0,0,1,168.94,575.36Z"/><path class="cls-3" d="M152.28,557.82s23.35,9.76,32.45,16.06c10.69,7.4-1.1,5-1.1,5s-7.58,1.61-11.89,2.09-30.53-13.36-30.53-13.36l3-9.77Z"/><path class="cls-7" d="M200,582.36s1.58-3.58-.75-4.64-12.87-3.43-14.17-3.25c0,.72-1.17,1.85-4,2.54s-6.17,1.38-13.11-.34a65.29,65.29,0,0,1-17.48-7.4c-1.53-1-5.23-4.86-8.43-5.51-1.64,2.31-3.12,12.14-.69,13.93s17.32,3.68,17.32,3.68l13.05,3.86,12.45,1.23,5.27.16,5-1.6Z"/><path class="cls-8" d="M140.8,577A49.09,49.09,0,0,0,152,579.14c12,.86,15.92,2.61,19.91,4.06a49,49,0,0,0,7,2.14c13.87,3.12,21.07-3.88,21.36-4.08a1.35,1.35,0,0,1,.34.71,32.33,32.33,0,0,1-2.82,2.23c-2.65,1.83-8.73,5.19-19.48,3a46.35,46.35,0,0,1-6.88-1.67,50.62,50.62,0,0,0-12.79-3l-.09,2.06s-12.76-.18-18.36-3C140,578.4,140.8,577,140.8,577Z"/><path class="cls-8" d="M140.22,579.72a79.12,79.12,0,0,0,18.46,3l-.08,1.81s-12.76-.18-18.36-3A14.54,14.54,0,0,1,140.22,579.72Z"/><path class="cls-9" d="M209.54,322.41l1.28,4.6c3.87,14.76,3.46,50.92,6.47,80.37l3,117.89s-4.74,5.56-16.38,5.56a103.72,103.72,0,0,1-17.74-2.05,74.9,74.9,0,0,0-25.08-.47l-4.28.63a50.46,50.46,0,0,1-25.12-2.72l-13.19-6.73s15.17-105.6,4.67-145.09c-7.52-28.3,3.16-43,11-61.42Z"/><path class="cls-3" d="M157.74,174.3l1.2,7c.51,2.93,2.95,4.95,2.81,7.92l-2.51,6.69-10.05,3.81s40.32,31,48,27,3.22-22.42.69-24.14-8.82-5.36-8.82-5.36l-3.8.94,1.61-7.93Z"/><path class="cls-10" d="M210.85,168.27l-.42-.54c-3.55-2.13-6.65-2.57-9.29-.49,0,0-4.69-2.88-10,2.91-4.64,5-3.73,8.75-3.73,8.75s-3.39,1-4.28,2.44c-2,3.24-2.5,9.79.4,11s3,2.65,3,2.65,4.73.81,7.18,1.31,6.2-.52,6.2-.52,5.42,1.39,7.23.39,3.23-4.82,3.23-4.82,5.8.29,6.35-4c0,0,2.35-2.2-.05-5.64a12.14,12.14,0,0,0-2.29-2.39s1.12-1.11,1-4.55C215.31,173.24,213.55,169.88,210.85,168.27Z"/><path class="cls-11" d="M211.16,168.13c-1.1-1.41-3.4-2.15-5.14-2.37a6.8,6.8,0,0,0-5.09,1.37l.48-.06c-2.76-1.67-6.44-.45-8.77,1.35a15.6,15.6,0,0,0-5.23,7.17,6.69,6.69,0,0,0-.35,3.4l.29-.27a10.3,10.3,0,0,0-4,2c-1.45,1.35-1.94,3.94-2.11,5.81s-.12,4.14,1.29,5.44c1.06,1,3.51,1.29,3.7,3.07,0,.05.09.09.14.1,2.52.43,5,1,7.57,1.37a14.25,14.25,0,0,0,4.65-.28c.44-.08.89-.25,1.33-.29.22,0-.37,0-.06,0l.42.09c2,.46,4.86,1.19,6.86.31s2.93-3.31,3.61-5.09l-.47.24a9.23,9.23,0,0,0,3.75-.63,5.23,5.23,0,0,0,2.14-1.48,12.09,12.09,0,0,0,1-2.26,5,5,0,0,0,.9-2.31,5.79,5.79,0,0,0-1.58-3.95c-.23-.28-.48-.54-.73-.8a12.93,12.93,0,0,0-1.11-.78,4.23,4.23,0,0,1,.3-.42,7,7,0,0,0,.76-3.34c.09-3-2.12-5.9-4.59-7.46-.2-.13-.82.16-.54.33a9.84,9.84,0,0,1,4.38,5.9c.25,1.3.16,3.81-.86,4.88,0,0-.11.13,0,.19,1.67,1.41,3.61,3.41,3.31,5.8-.13,1.05-.85,1.74-1.11,2.7-.66,2.47-3.47,3.33-5.77,3.23a.48.48,0,0,0-.47.24,13.82,13.82,0,0,1-1.86,3.47,3.17,3.17,0,0,1-2.49,1.46,14.25,14.25,0,0,1-2.91-.2,16.31,16.31,0,0,0-2.82-.54,6.51,6.51,0,0,0-1,.24,16.22,16.22,0,0,1-3.41.41,32.64,32.64,0,0,1-5.94-.94l-2.1-.37a1.88,1.88,0,0,1-.62-.11c-.21-.12.16.2,0,0a7,7,0,0,0-.54-.95,6.7,6.7,0,0,0-2.3-1.56c-1.63-.78-2.08-2.43-2.16-4.13a12.19,12.19,0,0,1,1.39-6.41c.85-1.46,2.67-2.15,4.22-2.62.11,0,.33-.12.29-.27-.75-3.27,2.05-7,4.16-9.12s6-4.11,9-2.29a.51.51,0,0,0,.48-.05,6,6,0,0,1,5.41-1,7.33,7.33,0,0,1,3.78,2C210.69,168.59,211.34,168.35,211.16,168.13Z"/><path class="cls-12" d="M210,167.22s8.43,3.18,8.17,8.91l-.67,4s4,1.21,3.47,4"/><path class="cls-3" d="M160.74,169.07s2.33,20.06-1.18,25.86a5,5,0,0,1-2.95,1.95l8,6.31c11.19,7,6.88,3.66,19.4-.5l3.94,1.27a5.44,5.44,0,0,0,.54-3.14c-.15-2.09,1.87-16.6,1.87-16.6"/><path class="cls-13" d="M151.57,149.16s-8.86-27.57,8.25-27.62a11.44,11.44,0,0,1,4.88-4.7c4.23-2.23,8.21.57,8.21.57s3.87-3.14,7.54-2.34a7.72,7.72,0,0,1,5,3s4.5-1.89,7.65-.14a17,17,0,0,1,5.26,5.08,9.14,9.14,0,0,1,4.39.61c4,2.15,3.92,11.22,4.28,14.46,0,0-2.77-11-6.35-11.61s-35.59,4.93-35.59,4.93l-10.71,27.77Z"/><path class="cls-10" d="M131.33,171.2l-.32.6c-.5,4.11.35,7.12,3.32,8.7,0,0-1,8.15,6.45,10.69,6.47,2.21,9.51-.14,9.51-.14s2.29,2.7,4,2.93c3.77.51,7.25-3.63,7.17-6.76s.16-7.65.16-7.65a19.8,19.8,0,0,0-.11-5.7c-.53-2.45-3.85-5.39-3.85-5.39s2.35-3.92.7-5.17a26.61,26.61,0,0,0-5.71-2.54s-2.09-3.88-6.26-2.63c0,0-3-1.27-5.13,2.32a12.21,12.21,0,0,0-1.26,3.07s-1.47-.58-4.56.93C134.07,165.11,131.72,168.08,131.33,171.2Z"/><path class="cls-11" d="M131,171.19c-1.19,2.23-.49,6,1.11,7.94a5.32,5.32,0,0,0,1.38,1.21c.53.29.36.08.46.46a14.55,14.55,0,0,1,0,1.87,10.39,10.39,0,0,0,2.55,6.16c2.18,2.37,5.7,3.38,8.82,3.49a8.37,8.37,0,0,0,5.2-1.22l-.58.08c1.31,1.52,3,3.15,5.14,3a7.59,7.59,0,0,0,6-4.38,8.12,8.12,0,0,0,.63-3.74c0-1.65,0-3.3.1-5a44.7,44.7,0,0,0,.17-6,7.71,7.71,0,0,0-1.56-4c-.69-.94-1.71-1.68-2.36-2.63-.19-.27-.14.14,0-.22a10.82,10.82,0,0,1,.55-1.14,5,5,0,0,0,.56-3.12c-.29-1-1.47-1.45-2.31-1.85a24.46,24.46,0,0,0-3.58-1.42c-.2-.06-.5-.24-.36-.1a3.61,3.61,0,0,1-.33-.5,6.22,6.22,0,0,0-2-1.78,5.11,5.11,0,0,0-3.57-.57c-.55.15-.34.12-.81.06a8,8,0,0,0-1.2-.12c-3.12.13-4.65,3.21-5.42,5.84l.6-.2c-1.53-.56-3.72.27-5,1-2.34,1.28-3.83,4.36-4.2,6.88,0,.27.63.15.67-.08a10.18,10.18,0,0,1,3.27-6.14c1.05-.88,3.43-1.81,4.76-1.33.18.07.54,0,.6-.2.53-1.82,1.34-4,3.1-5,1-.56,1.69-.3,2.7-.23.59,0,1.18-.22,1.79-.22a4.64,4.64,0,0,1,2.21.61,8.31,8.31,0,0,1,2.05,2,2,2,0,0,0,1.06.57,27.19,27.19,0,0,1,3.81,1.61,2.36,2.36,0,0,1,1.36,3.21,10.15,10.15,0,0,1-1.07,2.43c0,.05,0,.11,0,.14,2.06,1.85,3.82,4,4.05,6.89a64.27,64.27,0,0,1-.23,6.93c-.06,1.7,0,3.41,0,5.11a7,7,0,0,1-2.31,4.6c-1.55,1.46-3.79,2.3-5.7,1a12.11,12.11,0,0,1-2.48-2.26c-.13-.16-.45,0-.58.07a7.82,7.82,0,0,1-4.4.95c-3-.11-6.36-1.1-8.46-3.37a10.55,10.55,0,0,1-2.5-8.11.12.12,0,0,0-.07-.13,6.2,6.2,0,0,1-3.11-4.05c-.37-1.52-.59-3.66.17-5.07C131.8,170.93,131.13,171,131,171.19Z"/><path class="cls-14" d="M170.43,183.76s2.12,7.73,15.75,10.87a9.32,9.32,0,0,0,2.75-.27l.79-3.17Z"/><path class="cls-3" d="M163.21,177.87c5.4,6.06,17.15,13.46,24.71,15s9.91-.94,10.94-2a47.22,47.22,0,0,0,11.49-19.16,17.54,17.54,0,0,0,.51-6.09c-.2-3.16-.79-9.24-.75-12.27.12-7.71-3.29-14.38-7.54-20.86-8.85-13.5-27.37-13.55-35.19-9.83-9.15,4.35-13.27,13.18-13.83,22.58a25.29,25.29,0,0,0,.89,8.58,27.32,27.32,0,0,1,3.38,4.65"/><path class="cls-10" d="M202.34,129.35s1,1.67,5,11.06c-1-3-.53-4.48-3.06-8.65-8.83-14.56-35.19-12.61-43-8.59-9.15,4.69-12.53,14.1-13.1,24.24-.23,4.11-.41,6.74.82,10.15l.78.8s8.28,1.59,11,6.62l.12-4.38s.24-2.69,2.47-12.71c0,0,.18-1.6,3-8s5.77-8.19,5.77-8.19,13.48-2.2,16.69-2.17S202.34,129.35,202.34,129.35Z"/><path class="cls-11" d="M202,129.48c.33.54.72,1.4,1,2.05,1.4,3,2.7,6,4,9,.1.23.75.05.68-.18-.55-1.71-.75-3.52-1.36-5.22a19.73,19.73,0,0,0-3-5.31,22.52,22.52,0,0,0-8.32-6.33c-6.44-3-13.85-3.71-20.86-3.28-6,.37-12.15,1.51-17,5.4-7.35,6-9.19,15.55-9.51,24.51a25.89,25.89,0,0,0,.08,3.84,9.86,9.86,0,0,0,.88,3.74,2.41,2.41,0,0,0,1.81,1.09c3.76,1,8,2.8,10,6.31.1.18.67.09.67-.14a49.13,49.13,0,0,1,.62-7.57c.87-4.75,1.68-9.52,3.5-14,1.43-3.54,3-7.19,5.55-10.07a9.67,9.67,0,0,1,1.52-1.41c.07-.05-.38.08-.06,0l.77-.12c4.82-.77,9.69-1.63,14.56-2,2.67-.19,5.38-.07,8.05-.12l6.56-.14c.24,0,.71-.39.26-.38-4.55.11-9.11.14-13.66.22-5,.09-10,1.14-14.9,1.91a4.62,4.62,0,0,0-2.41.7,19.48,19.48,0,0,0-4.82,6.67,49.51,49.51,0,0,0-3.48,8.62c-.67,2.46-1.1,5-1.6,7.49a57.37,57.37,0,0,0-1,5.69c-.14,1.51-.09,3-.13,4.56l.67-.13c-1.67-2.94-4.82-4.66-7.9-5.77-1-.35-2-.54-2.92-.87s-1.38-1.89-1.62-3a28.93,28.93,0,0,1-.2-7.38,50.53,50.53,0,0,1,.8-6.82,28.2,28.2,0,0,1,5-11.81,20.13,20.13,0,0,1,9-6.7,35.61,35.61,0,0,1,8.17-1.73,46.07,46.07,0,0,1,20.94,2.14,23.83,23.83,0,0,1,9.61,6.3,19.46,19.46,0,0,1,3.55,5.78c.68,1.79.88,3.7,1.46,5.51l.68-.18c-1.31-3.06-2.62-6.12-4.06-9.12a20.39,20.39,0,0,0-1-2C202.54,129,201.88,129.25,202,129.48Z"/><path class="cls-3" d="M162.16,174c-3.9,4-7.16-2.27-7.16-2.27a19.06,19.06,0,0,1-4.55-12.76c.15-3.31,3.79-3.25,3.79-3.25,3.09.34,2.65.71,6.82,9.51"/><path class="cls-15" d="M158.22,165.11a25.56,25.56,0,0,0-2.17-4.54,7.77,7.77,0,0,0-1.59-1.93,2,2,0,0,0-.83-.47c-.42-.09-.63.21-.82.52a6.3,6.3,0,0,0-.58,4.27c0,.09.53,0,.51-.14a6.81,6.81,0,0,1,.22-3.47,3.48,3.48,0,0,1,.62-1.12l-.4.12c-.08,0,0,0,0,0l.14,0a2.1,2.1,0,0,1,.62.39,9.48,9.48,0,0,1,2.17,2.92,29.43,29.43,0,0,1,1.58,3.53c0,.11.55-.05.51-.14Z"/><path class="cls-15" d="M158.05,166.65c-2.16.13-.44,3-.62,4.09,0,0-.06.19-.05.2v0s0,0,.14,0-.07-.06-.06,0c-.07-.16-.26-.32-.35-.48a9.91,9.91,0,0,1-.77-2,7.74,7.74,0,0,1-.38-2.38c0-1,.11-2.42,1.06-3,.31-.17,0-.4-.22-.27a3.13,3.13,0,0,0-1.33,2.62,6.81,6.81,0,0,0,.1,2.16,14.63,14.63,0,0,0,.8,2.48c.16.37.37.94.76,1.13a.57.57,0,0,0,.77-.31,1.87,1.87,0,0,0,0-1.1c-.13-.59-1-2.76.14-2.83.27,0,.4-.36.05-.34Z"/><path class="cls-10" d="M181.87,156.23a2.35,2.35,0,0,0-2.5.56,2.16,2.16,0,0,0,0,3.18,2.17,2.17,0,0,0,2.5.33,2.37,2.37,0,0,0,1-2.82,2.1,2.1,0,0,0-1-1.25"/><path class="cls-10" d="M186.69,159.76s-3.31-4.49-6.64-4.36c-4.68.2-5.67,3-6.63,4.42,0,0,2.9-3.45,6.53-3.51C183.23,156.26,186.69,159.76,186.69,159.76Z"/><path class="cls-10" d="M204.28,155.19a2.32,2.32,0,0,1,2.53.35,2.27,2.27,0,0,1,.73,1,2.34,2.34,0,0,1-.47,2.14,2.15,2.15,0,0,1-2.46.53,2.37,2.37,0,0,1-1.28-2.72,2.1,2.1,0,0,1,.95-1.33"/><path class="cls-10" d="M198.11,159.28s2.7-4.75,5.78-4.87c4.33-.18,5.47,2.5,6.47,3.87,0,0-3-3.2-6.3-3C201,155.51,198.11,159.28,198.11,159.28Z"/><path class="cls-10" d="M209.89,150.65a.14.14,0,0,1,0-.07,7,7,0,0,0-1.79-.83c-3.31-1.07-5-1.08-10.25-.17v.12c-.05.66,0,.29-.07,1l-.12,1.51c1.58-.3,2.73-.67,3.74-.77,2-.21,4.33-.7,6.31-.22a6.41,6.41,0,0,1,2,.8C209.79,151.53,209.84,151.09,209.89,150.65Z"/><path class="cls-10" d="M187.41,150.37c0,.66,0,.29,0,1,0,.5.05,1,.06,1.51-1.63-.35-2.81-.76-3.86-.89-2.09-.27-4.49-.84-6.57-.42-1,.2-2.32.34-3,1.27-.18.25-.6,1.32-1,1.15-.17-.06.06-.89.08-1,.47-1.67,1.85-2.41,3.56-2.88,3.49-1,5.28-.93,10.69.16"/><path d="M196.05,171.07A3.37,3.37,0,0,1,193,171c-.19-.12-.84,0-.56.18a4.73,4.73,0,0,0,4.18.07c.11-.06.09-.15-.06-.19a.74.74,0,0,0-.49,0"/><path d="M192,170.91a5.35,5.35,0,0,0-1.91-.41.36.36,0,0,0-.28.1c-.06.05-.07.11,0,.15a2,2,0,0,0,1,.21.41.41,0,0,0,.32-.13c.05-.09-.06-.15-.14-.14a1.67,1.67,0,0,1-.85-.18l-.27.26a5,5,0,0,1,1.7.38.38.38,0,0,0,.34-.05c.07,0,.14-.14,0-.19"/><path d="M189.45,171.07a2.6,2.6,0,0,1-2.06-.87,2.25,2.25,0,0,1,.83-2.91c.1-.06.05-.14-.06-.16a.55.55,0,0,0-.4.1,2.8,2.8,0,0,0-1.18,2.55,2.08,2.08,0,0,0,1.8,1.46,3.51,3.51,0,0,0,.85.09.53.53,0,0,0,.38-.13c0-.09-.05-.13-.16-.13"/><path d="M197.44,170.64a.1.1,0,0,1,.09-.15.87.87,0,0,0,.59-.21l.21.24a2.76,2.76,0,0,0-1.19.47.2.2,0,0,1-.24,0c-.05,0-.11-.13,0-.18"/><path d="M196.87,170.77a3,3,0,0,1,1.32-.52.29.29,0,0,1,.21.09.11.11,0,0,1,0,.16"/><path d="M199,170.7a1.58,1.58,0,0,0,1.3-1,2.25,2.25,0,0,0-.67-2.44.1.1,0,0,1,0-.17.29.29,0,0,1,.26.08,2.5,2.5,0,0,1,.87,2.06,1.74,1.74,0,0,1-1.1,1.55,1.54,1.54,0,0,1-.55.14c-.07,0-.21,0-.25-.12s0-.13.1-.13"/><path class="cls-16" d="M204.88,126.7a15.45,15.45,0,0,0-7-3l-.33,0-1.49.47,0,0,0,0c.27-.1.85-.36.63-.7a1.17,1.17,0,0,0-.56-.38,13.42,13.42,0,0,0-2-.54h0l-.23,0-.22,0h0a12.62,12.62,0,0,0-2-.15,1.2,1.2,0,0,0-.66.17c-.31.25.15.69.37.87l0,0,0,0-1.25-.95-.32-.08c-3.26-.77-8.87,1-9.42,1.37s-.33,1-.31,1.09l-.81-.85a48.79,48.79,0,0,0-5,1.23,3.58,3.58,0,0,0-1.27,1.49,4.29,4.29,0,0,1-1.68,0c-.41-.21-2.85.57-4,1.74-.74.75-.67,1.59-1.09,2.29h0c-.24.39-.38.65-.38.65l-2.45.38c-2,.57-2.2,4.48-2.2,4.48-4.42,3.86-5.25,7.64-4.32,12,.36,1.69-4.43,2.51-1.52,2.95s5.18,10.93,5.18,10.93,1.71-4,2.12-5.68a48.4,48.4,0,0,0,.44-6.72l1.45,0s.92-.2,2.28-1.91,0-5.4,0-5.4l-.21-2.12,2.73.66c2.74,0,3.39-2.86,3.39-2.86l.36-4.9,1.33,1.89a2,2,0,0,0,1.42,1c4.19.4,5.12-2.1,5.12-2.1l1-2.33.93.88c1,1.1,4.11,3.08,6,2.64.49-.12,2.65-1.27,3-1.42a3.64,3.64,0,0,0,1.67-2.23,6.48,6.48,0,0,0,3.21,2.61c1.45.32,4.72.25,5.23-.36.34-.41-.12-.55.41-.44a1.79,1.79,0,0,1,1.05.9,10.34,10.34,0,0,0,4.33,6.26c3.48,2.06,4.72-6.93,1.48-8.76C209.25,131.77,209.46,126.92,204.88,126.7Z"/><path class="cls-13" d="M151.74,132.82s-4.08.75-5.53,2.82c-3.72,5.34-2.79,19.29.31,22.36l3.23.93Z"/><path class="cls-12" d="M147,156.53s-5.66-1.18-7,2.23l-.62,1.61s-6.17-2.16-8.44.63-3.34,8.67-3.34,8.67"/><path class="cls-17" d="M193.37,176.17c-3.75,0-9.85-.41-9.85-.41s1.16,7.42,9.87,7.4,9.83-7.46,9.83-7.46S197.13,176.16,193.37,176.17Z"/><path class="cls-18" d="M193.41,176.17c-1.79,0-9-.28-9-.28s2.39,3.94,8.86,3.92c7,0,9.05-3.91,9.05-3.91Z"/><path class="cls-19" d="M193.49,176.44c-1.79,0-7.23-.29-7.23-.29s2,1.95,7.33,1.94,7-1.92,7-1.92Z"/><path class="cls-17" d="M203.61,175.15a14.76,14.76,0,0,1-2.11.23c-1.48-.12-2.41-.51-3.48-.59-1.83-.14-3,.59-3.78.59s-2-.71-3.79-.57c-1.07.09-3.73.48-5.2.61a14.41,14.41,0,0,1-2.12-.21c-.27.06.25,2,10.25,2S203.88,175.21,203.61,175.15Z"/><path class="cls-3" d="M221.94,232.16l12.64,44.36a12.25,12.25,0,0,1-8.42,15.68h0c-6.14,1.67-12.53-7.54-15-13.49l-17.69-37.18Z"/><path class="cls-3" d="M216.24,287.68l-1.78-4a12.87,12.87,0,0,0,3.59,5.94c5.53,5.64,14.83,6.06,22.17,1.19l39.38-26.1-3.12-11.76-50.09,19C220.91,274.35,215.05,282.25,216.24,287.68Z"/><path class="cls-3" d="M291.75,244.72a63.29,63.29,0,0,0-8.59.52,1.81,1.81,0,0,1-.57,0,9.36,9.36,0,0,1-4,2.21c-1.68.47-3.42.65-5.11,1.08l-.31.94-5.91,8.31c3.08,4.92,3.18,10.1,9.2,10.78l4.26-1.24,11.52-2.22s2.52-2,2.5-2.89a2.7,2.7,0,0,0-.69-1.59l1.72-1.53a5.72,5.72,0,0,0,.21-2.14c-.14-1-1.8-1.58-1.8-1.58l.47-.43a2.56,2.56,0,0,0,.73-2.42l-.12-.42a4.15,4.15,0,0,0-1.65-1.87s1.65-1.42,1.53-2.34A4.15,4.15,0,0,0,291.75,244.72Z"/><path class="cls-3" d="M280.44,247.34a1.81,1.81,0,0,1-.43-.89,1.43,1.43,0,0,1,0-.29,26.67,26.67,0,0,0-1.15-8c-1-2.77-2.75-3.2-3.85-3.18a.85.85,0,0,0-.82.87.68.68,0,0,0,0,.14,46.4,46.4,0,0,1,.88,5.61,72.29,72.29,0,0,1-2.16,8.61C275.56,249.53,278.42,249.18,280.44,247.34Z"/><path class="cls-20" d="M210.63,224s9.91,20.06,8.52,30.55-6,11-7.66,15.81c-5.39,15.79,4.92,66.59,4.92,66.59s-30.89,12.54-63.34,5.36a244.58,244.58,0,0,1-31.85-9.94l9.44-24.62-.19-35Z"/><path class="cls-20" d="M202.79,202.81l-10.71-4c-1.76,25.14-33.82-.09-36-2.57l-21.45,8-9.81,54,14.53,30.64,66.94-34.8,5.9-32.63Z"/><line class="cls-21" x1="306.49" y1="538.16" x2="284.6" y2="235.68"/><polygon class="cls-22" points="287.3 544.44 291.78 590.23 349.91 590.23 342.57 544.44 287.3 544.44"/><line class="cls-23" x1="299.96" y1="590.23" x2="293.32" y2="544.44"/><line class="cls-23" x1="308.65" y1="590.23" x2="302" y2="544.44"/><line class="cls-23" x1="317.33" y1="590.23" x2="310.69" y2="544.44"/><line class="cls-23" x1="326.02" y1="590.23" x2="319.38" y2="544.44"/><line class="cls-23" x1="334.71" y1="590.23" x2="328.07" y2="544.44"/><line class="cls-23" x1="343.4" y1="590.23" x2="336.76" y2="544.44"/><path class="cls-24" d="M287.95,536.29h53.62a5.84,5.84,0,0,1,5.84,5.84v6.67a0,0,0,0,1,0,0H282.11a0,0,0,0,1,0,0v-6.67A5.84,5.84,0,0,1,287.95,536.29Z"/><path class="cls-20" d="M227.79,245.73,216,214.53c-3.69-9.48-10.89-10.7-13.2-11.72l-8.09,3.39c-10.39,3.24-17.84,10.75-14.34,21.05l11.72,32.85Z"/><polygon class="cls-25" points="219.28 249.15 214.03 224.32 221.26 248.35 219.28 249.15"/><line class="cls-26" x1="183.61" y1="292.97" x2="255.63" y2="565.35"/><polygon class="cls-27" points="256.42 563.42 256.42 590.23 292.11 590.23 288.93 563.42 256.42 563.42"/><polygon class="cls-24" points="240.63 563.42 240.63 590.23 281.99 590.23 289.44 590.23 261.59 563.42 240.63 563.42"/><path class="cls-3" d="M148.28,242.3l-13.72,44.25a11.89,11.89,0,0,1-15.45,8.34h0c-6-2.09-6.22-13.41-5-19.78l5.67-41.1Z"/><path class="cls-3" d="M114.13,277l.31.67c-2.67,7,.93,15.8,5.53,18.18l54.88,23.19,4.15-12.4-50.09-35.84C123.22,269.31,116.24,271.48,114.13,277Z"/><path class="cls-20" d="M148.15,256l5.08-29.64c1.75-10-3.67-21.33-13.54-23.77l-5.37,1.79a30.88,30.88,0,0,0-16.29,21L112,245Z"/><path class="cls-25" d="M151.85,236.24a101.22,101.22,0,0,1-5.46,19.38l1.76.36s4.74-14.92,5.69-25.47c0,0,.62-17.73-6.75-21.52C153.65,216.51,153.51,226.43,151.85,236.24Z"/><path class="cls-3" d="M177,305.66l12.41-4.13s14.49,1.63,16.35,3.36,4.09,4.27.69,6.32c0,0,1.87,4-.12,5.16s-4.46-.07-4.46-.07,3,3.16.74,4.86-3.36.57-3.36.57-.06,2-1.31,1.95a34.13,34.13,0,0,1-5.29-1.23s-6.91,1.25-10.75.42a17.94,17.94,0,0,1-7.17-3.86Z"/><path class="cls-28" d="M198.74,309.57a9.41,9.41,0,0,1,7.42,1.5"/><path class="cls-28" d="M283.18,259.17a15.92,15.92,0,0,0-2.28-1.65,13.47,13.47,0,0,0-2.68-.92A6.23,6.23,0,0,1,283.18,259.17Z"/><path class="cls-3" d="M287.53,246.13,294.22,262l0,1.28s-1.13,1-1.94.74-7.27-1.47-7.27-1.47l-4.54-12s-.29-1.22,1.31-2.08S287.53,246.13,287.53,246.13Z"/><path class="cls-28" d="M293.4,250a.77.77,0,0,1-.25.1l-.73.22-2.68.78-4,1.11a20.84,20.84,0,0,1-2.39.6,2.84,2.84,0,0,1-2.56-.65,2,2,0,0,1-.54-1.28,3,3,0,0,1,.28-1.31,3.88,3.88,0,0,1,1.8-1.71,15.94,15.94,0,0,1,2.09-.78l1.83-.59,2.67-.84.74-.23c.16,0,.25-.07.26-.05l-.25.11-.72.26-2.63.92-1.82.59a14.88,14.88,0,0,0-2,.8,3.52,3.52,0,0,0-1.7,1.6A2.08,2.08,0,0,0,281,252a2.17,2.17,0,0,0,1.09.57,3.5,3.5,0,0,0,1.25,0c.82-.14,1.61-.4,2.37-.58l4-1,2.71-.7.74-.18Z"/><path class="cls-28" d="M293.71,255.17a2.06,2.06,0,0,1-.56.19l-1.57.4c-1.33.31-3.18.69-5.25,1a12.88,12.88,0,0,1-1.52.19,2.82,2.82,0,0,1-1.43-.28,2.24,2.24,0,0,1-1.17-2.08,2.17,2.17,0,0,1,.71-1.46,1.9,1.9,0,0,1,.37-.26c.09,0,.14-.06.15,0a3.16,3.16,0,0,0-.45.37,2.24,2.24,0,0,0-.57,1.42,2.06,2.06,0,0,0,1.1,1.86,2.76,2.76,0,0,0,1.33.24c.48,0,1-.11,1.49-.18,2.06-.33,3.91-.67,5.24-.94l1.59-.32A3.45,3.45,0,0,1,293.71,255.17Z"/><path class="cls-28" d="M293.22,259.87a3.35,3.35,0,0,1-.54.08l-1.49.13-4.93.33a13.57,13.57,0,0,1-1.43,0,2.61,2.61,0,0,1-1.29-.4,1.54,1.54,0,0,1-.67-1.06,1.66,1.66,0,0,1,.26-1,2.24,2.24,0,0,1,1.2-.9,1.52,1.52,0,0,1,.55-.13l-.5.21a2.25,2.25,0,0,0-1.09.88,1.42,1.42,0,0,0-.2.92,1.24,1.24,0,0,0,.6.89,2.32,2.32,0,0,0,1.18.35,10,10,0,0,0,1.34-.07c1.93-.11,3.67-.21,4.93-.26l1.49-.05A2,2,0,0,1,293.22,259.87Z"/><path class="cls-28" d="M292.32,264a8.75,8.75,0,0,1-1.61-.2c-1-.15-2.35-.4-3.85-.67l-1.09-.19a4.54,4.54,0,0,1-1-.27A1.47,1.47,0,0,1,284,262a1,1,0,0,1,0-.87,1.41,1.41,0,0,1,.95-.75.62.62,0,0,1,.44,0,2.52,2.52,0,0,0-.41.1,1.4,1.4,0,0,0-.82.73.81.81,0,0,0,.06.71,1.33,1.33,0,0,0,.65.54,4.21,4.21,0,0,0,1,.24l1.09.2c1.5.27,2.86.53,3.85.73A9.45,9.45,0,0,1,292.32,264Z"/><polygon class="cls-4" points="453.31 575.7 459.77 578.52 461.75 558.85 455.86 558.3 453.31 575.7"/><polygon class="cls-5" points="461.75 558.3 459.77 578.52 466.77 576.63 466.68 555.64 461.75 558.3"/><path class="cls-3" d="M459.13,553.44S441.86,565.55,432.67,575h0s4.36,10.12,9.78,9.51,35-21.27,35-21.27l-2-9.48Z"/><polygon class="cls-4" points="465.25 592.33 472.13 592.16 474.12 580.25 468.23 579.95 465.25 592.33"/><polygon class="cls-5" points="474.12 579.95 472.13 592.16 479.15 592.07 479.04 578.52 474.12 579.95"/><path class="cls-4" d="M412.67,590.39a7.37,7.37,0,0,0,3.9,1.66c6.45.4,27.56.14,32.14,0a12.06,12.06,0,0,0,6.19-2q4.86-2.7,9.79-5.28c3.07-1.6,6.49-2.11,9.69-3.4,1.43-.58,2.87-1,4.32-1.51a2.17,2.17,0,0,0,1.73-2.41c-.38-2.85-1.27-9.28-2.61-9.17h-.29l-6.09,4.83-15.93,6.63L446,587.18,428.86,587l-13.52-2.22s-3.18.48-3.76,1a2.07,2.07,0,0,0-.39,2.32A8.13,8.13,0,0,0,412.67,590.39Z"/><path class="cls-6" d="M433.3,573.76s2.5.1,6.47,3.57c3.37,3,9.13,2.64,12.92.67,2.29-1.2,4.5-2.85,6.72-4.22a37,37,0,0,0,6.69-5,31.57,31.57,0,0,1,7-5.07c1-.55,2-1.05,3-1.59.64-.35,1.58-.74,1.37-1.64a66.64,66.64,0,0,1,2.63,6.16c.87,2.42,1.12,7.23.37,8.94-.52,1.2-2.94,1.83-4,2.25-2.77,1.11-5.62,2-8.4,3.11-3.08,1.2-6.15,2.44-9.16,3.82-1.52.71-3,1.46-4.52,2.26a20.84,20.84,0,0,1-3.4,1.79c-3.87,1.22-8.48,1-12.49.94-3.14,0-6.28-.12-9.42-.25-4.53-.2-10.16-.87-12.08-1.16s-4.14-2.32-4.14-2.32-1.06-1.54,2.22-3.38,9.95-4,12.75-5.4c.76-.37,1.52-.8,2.22-1.23A36.5,36.5,0,0,0,433.3,573.76Z"/><path class="cls-3" d="M393.23,436.77l52.49,112.15,9.09-.11-.55,10.68,21.38-3.85s11.15-76.36,11.15-84.27-9-87-9-87L499.46,335c4.21-13.54,6.4-21.94,6.66-36.11,0-20.09-14.27-44.31-14.27-44.31s-9.12,2.26-49.72,4.26c-13.32.64-20.18,3-23.41,6.76l-20.71,11-10.6,103.5C384.44,395.81,387.13,422,393.23,436.77Zm38.6-20.16,5.19-54.5,10.72,135.06h0Z"/><path class="cls-28" d="M424.34,294.16c.06.53.15,1.26.26,2.2.22,2,.53,4.81.93,8.46.76,7.48,6.91,11,8.26,24.08,2.61,26.32,6,62.72,9.33,102.94s6.3,61.4,8,87.81c.77,13.19,1.09,11.57,1.5,19,.18,3.66.43,6.5.43,8.51.11.92,1.11,10.66,1.11,11.19v.76c-.06-.24-1.09-9.48-1.11-9.73,0-.55-.09-1.28-.18-2.22-.15-2-.35-4.85-.62-8.49-.53-7.42-.94-5.78-1.87-18.94-1.88-26.37-4.91-47.55-8.28-87.77s-6.66-76.61-9.1-103c-1.22-13.14-7.27-16.69-8-24.11-.33-3.64-.58-6.48-.76-8.47-.08-.94-.19-1.67-.19-2.22q0-.37,0-.75A5.43,5.43,0,0,1,424.34,294.16Z"/><path class="cls-29" d="M394,279.88s-13.07,77.5-13.07,108.67c0,19.94,27.13,104.5,27.13,104.5s64.36,11.13,86.08,1.52c0,0-6.15-99.84.35-125.7s14.55-34.82,14.66-69.14a71.9,71.9,0,0,0-7-30.11Z"/><path class="cls-28" d="M454.17,559.06s-16.29,8.36-20.06,15a36.12,36.12,0,0,1,11.26-10.88C452.49,559,454.17,559.06,454.17,559.06Z"/><path class="cls-30" d="M402.2,165.33l-20,55-15.76-19.49c7.12-29.26,15.93-52.72,25.95-70.66Z"/><path class="cls-30" d="M367.14,168.61l-20,6.32L353,197.45a72.26,72.26,0,0,0,13.33,26.83c2.62,3.28,5.31,6,7.46,6.9,6.45,2.63,30.23-15.27,30.23-15.27Z"/><path class="cls-30" d="M399.32,213.12l-5.77-32.81s-5-47.32-.87-50.51c3.47-2.68,22.55-10.59,28.36-13.32.23,4.14,2.81,3.42,5.94,6.28,2.94,2.69,5.33-2.79,9.21-2.32a30,30,0,0,0,11.68-.52c4.6-1.34,8.27,3.23,11.6-.15,2.93-3,8-3.33,13.4-3.33l22.71,13.65,4.28,3.29L492,181.51,484.06,231l18.28,36.73s2.26,4.88,1.77,4.45C466,281,413.62,287.33,391,279.88l9.86-37.09Z"/><path class="cls-30" d="M499.8,133.44c-4.5-5.45-15.84-7.74-21.31-5S434.77,192,434.77,192l-49.34-15.39L374.5,200.91s61.44,30.13,71,30.13c7.25-.07,39.27-35.27,53.55-57.76a38.1,38.1,0,0,0,4.63-30.55A27.83,27.83,0,0,0,499.8,133.44Z"/><path class="cls-31" d="M494.67,131.16a16.82,16.82,0,0,0-6.52-2,17.49,17.49,0,0,0-8.84,1.64,20.31,20.31,0,0,0-8.18,7.14l-7,10.78c-4.94,7.6-10.37,15.92-16.05,24.69L436,191.91l-.19.27h-.29c-15.08-3.73-27.85-7.87-36.81-11-4.48-1.56-8-2.89-10.44-3.84l-2.75-1.09a5.46,5.46,0,0,1-.95-.44,5.73,5.73,0,0,1,1,.29l2.81,1,10.51,3.64c9,3,21.77,7,36.83,10.67l-.47.19c3.77-5.81,7.85-12.06,12.08-18.57l16.12-24.62,7.06-10.75a20.84,20.84,0,0,1,8.55-7.29,17.61,17.61,0,0,1,9.11-1.56,16.69,16.69,0,0,1,6.64,2.22,20.34,20.34,0,0,1,3.65,2.6,9.44,9.44,0,0,1,1.09,1.1A36.42,36.42,0,0,0,494.67,131.16Z"/><path class="cls-31" d="M377.52,202.77l3.64,1.6,13.59,5.92c11.5,4.94,27.42,11.75,45.2,18.58a15.48,15.48,0,0,0,6.74,1,11.09,11.09,0,0,0,5.88-2.79,45.18,45.18,0,0,0,4.54-4.74l4.19-4.77L475.87,201,485.72,190l2.72-3a10.49,10.49,0,0,1,1-1,9.15,9.15,0,0,1-.86,1.11c-.63.79-1.51,1.81-2.58,3.1l-9.66,11.38L462,218.21c-1.37,1.55-2.75,3.16-4.17,4.8a44.82,44.82,0,0,1-4.61,4.84,12,12,0,0,1-6.36,3,16.71,16.71,0,0,1-7.14-1C421.86,223,406,216.1,394.53,211c-5.72-2.55-10.31-4.7-13.48-6.19L377.41,203a9.82,9.82,0,0,1-1.24-.66A6.88,6.88,0,0,1,377.52,202.77Z"/><path class="cls-31" d="M401.3,143.42c-.49,1.11-1.17,2.74-2,4.75-1.56,4-3.89,9.61-6.25,15.83a43.49,43.49,0,0,0-3.22,13.47l.74.41a46.43,46.43,0,0,1,3.37-13.52c2.34-6.2,4.5-11.82,6-15.92.74-2,1.32-3.74,1.72-4.86a6.31,6.31,0,0,0,.49-1.86A8.11,8.11,0,0,0,401.3,143.42Z"/><path class="cls-31" d="M394.9,138.9A55.47,55.47,0,0,1,397.07,153,54.6,54.6,0,0,1,394.9,138.9Z"/><path class="cls-31" d="M477,234.13a16.09,16.09,0,0,1,5.89-3.12,49.44,49.44,0,0,1-5.34,3.88,15.83,15.83,0,0,1-5.88,3.12A49.32,49.32,0,0,1,477,234.13Z"/><path class="cls-31" d="M481.58,239.74a19.8,19.8,0,0,1,3.73-6,44.26,44.26,0,0,1-2.91,6.43,15.16,15.16,0,0,1-4.25,5.68C477.92,245.66,479.87,243.16,481.58,239.74Z"/><path class="cls-3" d="M376.15,197.48l-16.86-14.57-6.74-9.21a92.35,92.35,0,0,1-7.45-7.62c-.79-1.38,0-1.88.6-2.2s7.28,4.28,7.28,4.28-8.23-7.33-8.7-9.31,1.05-2.62,2.09-2.79,13.37,12.5,13.37,12.5l-4.21-6.27s-8-5.85-9-8.23,1.83-3.64,1.83-3.64l9.45,7.61,6.36,5.59-5.6-6.68s-6.83-5.45-7.15-7.78,2.6-2.33,2.6-2.33l10.22,7.45,9.31,10.07a19.47,19.47,0,0,1-.66-5.37c.13-2.63,1.22-1.41,1.22-1.41l7.76,9.48,2,13.29Z"/><path class="cls-3" d="M328.45,157.34l8.19,4.82-5.08-.27a26.2,26.2,0,0,0-6.25-1.82c-1.38.16-1.55,2.2-1.55,2.2l15.67,6.31,11.82,6.75,15.74-9.1-1.71-8.58-.91-9.11-1.3-4.86L359,137.32s-2.55.16-1.82,3.5,1.31,5.26,1.31,5.26l-.23,5.3-2.35.57-14-7.31-3.64-3.88s-1.9-5.41-5.72-6.25a.88.88,0,0,0-.43,0,.79.79,0,0,0-.45,1l3.85,9.54,4.21,3.85-5.6-2.86s-4.92-6.63-7.85-7.73-2.35,1.13-2.35,1.13l5.08,9.55,7.2,5.79-5.77-2.73L323.89,147s-2.09-1.5-3.15,0a1.53,1.53,0,0,0,0,1.82Z"/><path class="cls-28" d="M375.75,197.23l-.87-.69-3.06-2.41c-3-2.49-7.2-6.08-12.52-10.6h0l-6.74-9.29h0a99.41,99.41,0,0,1-7.28-7.38,2.79,2.79,0,0,1-.58-1.47,1.64,1.64,0,0,1,.92-1.42,1,1,0,0,1,.53-.17,2.77,2.77,0,0,1,.48.11l.67.33c.44.22.84.46,1.26.69,1.66,1,4.12,3.31,5.78,4.44l.25,1c-2-1.78-5.6-5.25-7.56-7.29a17,17,0,0,1-2.74-3.46,2.58,2.58,0,0,1,.17-2.48A3,3,0,0,1,346.7,156a1.41,1.41,0,0,1,.73.31,5.2,5.2,0,0,1,.47.35c.31.22.6.47.88.71.58.49,1.13,1,1.69,1.49,1.09,1,2.2,2.08,3.3,3.15,2.18,2.14,4,4.07,6.19,6.32l-.29.84-4.23-6.26.11.11c-1.44-1.08-2.89-2.21-4.35-3.43a29.36,29.36,0,0,1-4.17-4,3,3,0,0,1-.69-3,4.25,4.25,0,0,1,2.13-2.15l.23-.13.24.2L357.1,157c2.68,2.17,4.69,4.1,7.2,6.27l-.19,1-5.59-6.68h0a48.53,48.53,0,0,1-5.46-5.17,12.08,12.08,0,0,1-1.17-1.5,4.22,4.22,0,0,1-.45-.87,2.59,2.59,0,0,1-.19-1.06,2.2,2.2,0,0,1,1.13-1.82,4.16,4.16,0,0,1,1.82-.49h.24l10.2,7.47h0l9.27,10.09-.54.33a17.52,17.52,0,0,1-.62-5.94,6.2,6.2,0,0,1,.14-.75,1.09,1.09,0,0,1,.61-.73,1,1,0,0,1,.91.29l.43.55,1.64,2c2.06,2.62,4,5,5.7,7h0c.59,4.29,1.06,7.6,1.37,9.91.13,1.08.33,1.93.33,2.55a4.31,4.31,0,0,1,0,.88,6.25,6.25,0,0,1-.18-.86c-.11-.62-.24-1.45-.42-2.53-.39-2.31-.9-5.61-1.57-9.87v.09l-5.77-6.92-1.66-2c-.27-.36-.6-.69-.73-.65s-.33.56-.33,1a17.14,17.14,0,0,0,.66,5.7l.33,1.28-.9-1-9.36-10h0l-10.2-7.05H354c-1,0-2.17.49-2.21,1.49s.86,1.93,1.6,2.82a49.29,49.29,0,0,0,5.47,5.05h0l5.61,6.69-.35.72c-2.51-2.16-5.28-4.59-7.94-6.74L348,151h.49a3.31,3.31,0,0,0-1.64,1.62,2.16,2.16,0,0,0,.55,2.11,30.7,30.7,0,0,0,4,3.86c1.42,1.2,2.88,2.33,4.3,3.41h0c1.46,2.15,2.88,4.28,4.21,6.26l-.29.84c-2.19-2.24-4.81-4.72-7-6.85q-1.63-1.61-3.28-3.13l-1.65-1.49c-.28-.24-.55-.48-.84-.7l-.42-.31c-.09-.07-.38-.16-.24-.16a2.29,2.29,0,0,0-1.55.8,1.75,1.75,0,0,0,0,1.66,17.23,17.23,0,0,0,2.55,3.21c1.94,2,5.11,5.4,7.08,7.22l-1.67-.9c-1.62-1.13-3.26-2.21-4.86-3.19-.42-.24-.82-.51-1.22-.69s-.93-.48-.93-.29c-.38.21-.58.43-.58.74a2.08,2.08,0,0,0,.44,1.06,102.18,102.18,0,0,0,7.28,7.29h0l6.65,9.34h0l12.35,10.8,3.26,2.9.84.76c.25.19.25.29.25.29Z"/><path class="cls-28" d="M373.26,164.15a9.85,9.85,0,0,1,5.26,8.58c-.27.05-.82-2.15-2.24-4.52s-3.19-3.84-3-4.06Z"/><path class="cls-32" d="M351.69,116.84a52.54,52.54,0,0,1,.38-9.71,51.53,51.53,0,0,1,.55,9.69,52.48,52.48,0,0,1-.38,9.71A51.48,51.48,0,0,1,351.69,116.84Z"/><path class="cls-32" d="M327.35,116.82a89.81,89.81,0,0,1,6.14,11.28,89.16,89.16,0,0,1-6.92-10.8,91.37,91.37,0,0,1-6.14-11.3A88.19,88.19,0,0,1,327.35,116.82Z"/><path class="cls-32" d="M306.53,133.31a37.21,37.21,0,0,1,7.65,3.21,38.08,38.08,0,0,1-8-2.34s-12.59-4.38-14.37-5.5Z"/><path class="cls-32" d="M287,162.85c2.79-1.25,16.26-4,16.26-4a69.86,69.86,0,0,1,10.93-1.83,65.8,65.8,0,0,1-10.78,2.75Z"/><path class="cls-32" d="M314.51,177.4a66.45,66.45,0,0,1,5.6-9.11,59.92,59.92,0,0,1-4.79,9.58,61.69,61.69,0,0,1-5.6,9.11A64.4,64.4,0,0,1,314.51,177.4Z"/><path class="cls-3" d="M454.57,80.88s-1.54,17.36,3.6,28.86c.72,1.6,14.7,6.7,14.7,6.7l-15.07,6c-8.52,2.46-27.82,3.13-36.32.6l-7.21-4s8.69-2.41,9-4.46-2.08-17.26-2.08-17.26"/><path class="cls-28" d="M423.13,110.79a31.87,31.87,0,0,1,5.83-3.18c2.4-.83,6.6-.93,17.31-11.39,0,0-2.6,12.23-16.85,15.66a17.56,17.56,0,0,1-6.16.55Z"/><path class="cls-3" d="M406,37.77a1.66,1.66,0,0,1-.13.27l.15-.13Zm-6.2,2.44v.11l.26-.29C400.09,39.89,399.84,40.21,399.84,40.21Zm54.47,43.34.46-2.34c3.43,3.7,8,0,7.65-5.8,1.24-3,2.29-12.83-.4-15.53l-.33-.4c-1.81-1.1-4.83-1.33-5.83,1-.29,1,.18,2.16-.12,3.17a24.59,24.59,0,0,1-2.18,4.43,62.06,62.06,0,0,1-1.78-8c-.23-2.57-3.09-9.68-8.15-12.63,0,0-1.2-9-3.64-11.38l-.77-.15c-.44.06-.71.24-1.15.3,0-.13.11-.29.07-.55a4.81,4.81,0,0,1-1.88.41c.12-.15.4-.33.38-.47a7.5,7.5,0,0,1-1.76.27c.13-.16.38-.47.36-.6-.69.37-1.17.17-1.75.26a1.06,1.06,0,0,0,.21-.58,3.9,3.9,0,0,1-1.73.39c.12-.15.23-.44.35-.6-.68.38-1.16.17-1.75.26-.14,0,.25-.31.23-.44a5.51,5.51,0,0,1-1.44.35c0-.14.26-.31.24-.45a4.59,4.59,0,0,1-1.9.29l.36-.61a2.1,2.1,0,0,1-1.72.53c.13-.15.38-.46.36-.6a2.93,2.93,0,0,1-2.3.62c.15,0,.38-.47.36-.6a2.84,2.84,0,0,1-2,.7c.12-.15.23-.44.48-.75a3,3,0,0,1-2.71.81c.14,0,.23-.44.21-.58-.5.63.49-.21-.26-.23,0,0-1.6.79-1.62.65-.52.49,1.2-2.5.47-2.39.11-.3-4.15.87-3.9.56-.65.64-.54.34-1.44.34,0,0-2.79,2.06-2.67,1.9-.63.78-1,.27-1.94.26.13-.15.61.49.74.33-.5.63-.41-.07-1.14,0,0-.14-2.52-.52-2.54-.65-.67.51-.42.53-1.3.66,0-.13-.33,1.56-.2,1.4-.51.63-.54.18-1.29.16L403,38c-.64.78.32.34-.57.34,0-.09,3.36-.07,3.46-.27a5.37,5.37,0,0,1-1.75,1.11c0-.13.08-.42.06-.56A2.91,2.91,0,0,1,402,39.74c.14,0,.25-.31.23-.44a2.28,2.28,0,0,1-2.38,1v0a4.57,4.57,0,0,1-1.9,1.26.59.59,0,0,1,.21-.58l-.58.09a9.47,9.47,0,0,0-1.25,3.61s-4,8.44-3.08,13.38,3,13.26,3.51,15.39a42.64,42.64,0,0,1,.74,6.75c.14,4.4.29,5.55,2,9.73a28,28,0,0,0,6,9.39c3,3.41,7.1,6.15,10.95,8.86a14.07,14.07,0,0,0,9.18,2.71c9.12-.92,17.18-8.4,22.09-15.08"/><path class="cls-33" d="M396.05,50c2.38-8.34,10.81-14,28.95-19a66.75,66.75,0,0,1,33.57-.39C446,5.43,419.34,10.3,413.35,11.19S380,40,393.33,60.42l.81,2S395.62,51.54,396.05,50Z"/><path class="cls-33" d="M462.49,24.4s-.25-16.9-13.18-20.66c-17.27-5-39.8-5-45.17,13.19Z"/><path class="cls-34" d="M466.82,64.86c1.14-1.55.21-5.33,1.13-7,4.83-8.83,1.76-16.32-1.23-20.59-1.3-1.86-.41-5.59-.77-7.34-1.88-9.16-3-9.29-18.12-16.72-12.32-6-24.39-3.9-31.34-2.48C405.35,13,400.5,14.43,397.76,23c-.35,1.11.32,1.87.08,3.19-.34,1.85-3.09,2.46-3.22,4.77,0,0,15.28,3.65,28.63,8.49s39.15,27.42,39.41,35.3C462.67,75,465.56,66.57,466.82,64.86Z"/><path class="cls-33" d="M470.35,46.44s-25.08-23-48.29-19.76c0,0,29.08-8.29,45.42,11.15l.44.81a20.78,20.78,0,0,1,2.29,6.84Z"/><path class="cls-33" d="M397.57,26.51l1.48-.82a41.28,41.28,0,0,1,11-4.15l6.45-1.41s-16.15-.42-19.06,4.09Z"/><path class="cls-35" d="M457,79.43a2.84,2.84,0,0,1,2.9,2.24,2.77,2.77,0,0,1-.32,1.91,2,2,0,0,1-.85.83,2.54,2.54,0,0,1-2.41,0c-.16-.08-.73.17-.5.28a3.7,3.7,0,0,0,4-.66,3,3,0,0,0-.09-4.06,3.28,3.28,0,0,0-2.46-.9c-.12,0-.34,0-.41.17s.06.16.16.15Z"/><path class="cls-36" d="M449.8,57.71l2.72,12.93,3.73-6.44S451.66,59.55,449.8,57.71Z"/><path class="cls-15" d="M455.77,70c.42-.06,1.07-.15,1.2.39a3,3,0,0,1-.18,1.35c-.23.93-.59,2.19.27,2.93,1.09.92,2.2-.76,2.56-1.62a6,6,0,0,0,.33-3.66c-.28-1.25-.85-2.92-2.24-3.3-.26-.07-.73.31-.36.41,1.16.32,1.64,1.74,1.91,2.78a5.75,5.75,0,0,1-.07,3.26,3.52,3.52,0,0,1-1.11,1.81c-.37.26-.68-.1-.83-.45-.36-.89.16-2,.32-2.86a1.46,1.46,0,0,0-.16-1.19c-.37-.43-1.09-.37-1.58-.3-.34.05-.48.51-.06.45Z"/><path class="cls-33" d="M456.85,50.6s9.49,7.27,10.62,10.54l.48-3.29A17.26,17.26,0,0,0,456.85,50.6Z"/><path d="M416.06,85.77a4.23,4.23,0,0,0,3.77-.81c.22-.18,1-.16.74.1a5.94,5.94,0,0,1-5.15,1c-.14,0-.14-.16,0-.24a.88.88,0,0,1,.61-.06"/><path d="M421,84.68a6.92,6.92,0,0,1,2.26-.93.6.6,0,0,1,.37.06c.08,0,.11.13,0,.19a2.6,2.6,0,0,1-1.24.49.51.51,0,0,1-.42-.09c-.09-.1,0-.19.14-.21a2,2,0,0,0,1-.39l.4.25a6,6,0,0,0-2,.84.52.52,0,0,1-.44,0c-.09,0-.2-.15-.08-.23"/><path d="M424.22,84.3a3.3,3.3,0,0,0,2.36-1.52c.54-1.17-.37-2.77-1.65-3.28-.14,0-.09-.16,0-.21a.77.77,0,0,1,.52,0,3.34,3.34,0,0,1,2,2.77,2.64,2.64,0,0,1-1.91,2.19,4.91,4.91,0,0,1-1,.3c-.14,0-.4,0-.49-.08s0-.17.17-.2"/><path d="M414.26,85.55a.13.13,0,0,0-.15-.16,1.17,1.17,0,0,1-.77-.13l-.2.34a3.33,3.33,0,0,1,1.56.31.28.28,0,0,0,.29-.1c.06-.06.11-.18,0-.23"/><path d="M415,85.58a3.69,3.69,0,0,0-1.74-.34.35.35,0,0,0-.24.15.14.14,0,0,0,0,.2"/><path d="M412.31,86a2,2,0,0,1-1.82-.9,2.79,2.79,0,0,1,.29-3.13.12.12,0,0,0-.08-.2.38.38,0,0,0-.31.16,3.12,3.12,0,0,0-.62,2.72,2.2,2.2,0,0,0,1.7,1.65,2.11,2.11,0,0,0,.71,0c.09,0,.25-.08.28-.19s-.06-.16-.15-.15"/><path class="cls-36" d="M403.33,68.59a2.32,2.32,0,0,0-2.33.74,2.27,2.27,0,0,0-.37,1.06,2.13,2.13,0,0,0,.78,1.85,2,2,0,0,0,2.31.06,2.19,2.19,0,0,0,.69-2.68,2,2,0,0,0-1.08-1"/><path class="cls-36" d="M411,70.21s-4.41-2.52-6.46-2.42c-3,.15-6.37,2.32-7.2,3.94,0,0,4.44-3.16,6.55-3.2S411,70.21,411,70.21Z"/><path class="cls-36" d="M428.45,65a2.78,2.78,0,0,1,2.67-.23,2.05,2.05,0,0,1,.76.87,2.14,2.14,0,0,1-.21,2,2,2,0,0,1-2.19.73A2.21,2.21,0,0,1,428,66c0-.16-.18-.44.42-.88"/><path class="cls-36" d="M423.65,67.92s4-3.5,6.22-3.9c3.19-.57,7.29.74,8.55,2.11,0,0-5.45-2-7.68-1.54S423.65,67.92,423.65,67.92Z"/><path class="cls-36" d="M409.53,60c.05.6.09,1.2.14,1.81s.07.92.1,1.37c-1.57-.26-2.91-.41-3.91-.5a12.84,12.84,0,0,0-4.42,0,11.33,11.33,0,0,0-2.72,1.1,7.22,7.22,0,0,0-1.41.89c-1,.83-1.33,1.71-1.51,1.65s0-.82.06-.9a7,7,0,0,1,2-3.22,8.19,8.19,0,0,1,2.73-1.53,30.09,30.09,0,0,1,9-.71"/><path class="cls-36" d="M422.49,57.37c.09.6.18,1.2.28,1.8.07.45.15.91.22,1.36,1.6-.64,3-1.11,4-1.44a15.5,15.5,0,0,1,4.69-1,13.94,13.94,0,0,1,3.14.41,8.7,8.7,0,0,1,1.7.53c1.23.57,1.82,1.34,2,1.24s-.23-.79-.27-.86a7.15,7.15,0,0,0-2.84-2.66,9.3,9.3,0,0,0-3.26-.82,35.19,35.19,0,0,0-9.68,1.48"/><path class="cls-17" d="M420,91.34C424.59,90.65,432,89,432,89s0,9.77-10.75,11.38-13.61-7.75-13.61-7.75S415.3,92,420,91.34Z"/><path class="cls-18" d="M419.9,91.35c2.21-.33,11.06-2,11.06-2s-2.19,5.52-10.18,6.71c-8.67,1.29-12-3.33-12-3.33Z"/><path class="cls-19" d="M419.85,91.71c2.21-.33,8.88-1.72,8.88-1.72s-2,2.87-8.67,3.86-9.1-1.14-9.1-1.14Z"/><path class="cls-17" d="M407.08,92a18,18,0,0,0,2.67-.11c1.8-.43,2.87-1.11,4.18-1.41,2.24-.52,3.81.2,4.8,0S421,89.2,423.3,89c1.34-.09,4.69-.08,6.55-.19a17.32,17.32,0,0,0,2.58-.67c.33,0,.07,2.62-12.29,4.46S406.77,92.09,407.08,92Z"/><path class="cls-28" d="M137.52,277s-6.28.07-10.37,3.06C127.15,280.06,131.33,275,137.52,277Z"/><path class="cls-28" d="M232.9,269.08s-4.82,4-6.09,8.93C226.81,278,226.8,271.41,232.9,269.08Z"/><path class="cls-31" d="M435.23,191.55s7.27,2.91,10.18,9.23C445.41,200.78,442.88,191.23,435.23,191.55Z"/></svg>