<svg id="Layer_1" data-name="Layer 1" xmlns="http://www.w3.org/2000/svg" viewBox="0 0 637.33 635.77"><defs><style>.cls-1{fill:#c1e7f6;}.cls-2{fill:#936243;}.cls-3{fill:#5e9fae;}.cls-4{fill:#653c2c;}.cls-5{fill:#14110f;}.cls-6{fill:none;stroke:#000;stroke-miterlimit:10;stroke-width:1.1px;}.cls-7{fill:#231f20;}.cls-19,.cls-8{fill:#fff;}.cls-9{fill:#465b65;}.cls-10{fill:#385456;}.cls-11{fill:#24170e;}.cls-12{fill:#643b29;}.cls-13{fill:#221e1f;}.cls-14{fill:#151212;}.cls-15{fill:#171413;}.cls-16{fill:#171514;}.cls-17{fill:#181615;}.cls-18{fill:#020303;}.cls-19{opacity:0.14;}.cls-20{fill:#de8b26;}.cls-21{fill:#a15a25;}.cls-22{fill:#31150d;}.cls-23{fill:#f0edf6;}</style></defs><circle class="cls-1" cx="319.06" cy="340.56" r="288.85"/><path class="cls-2" d="M218.2,438.63l-50.94,12.22L181,548.25l4.49,48.16c11.52,6.08,30.86,16.17,46.94,19.84.16-20.67,1.64-47.89,1.08-68C232.16,500.63,218.2,438.63,218.2,438.63Z"/><path class="cls-2" d="M57.86,249.39s.88,40.54-6.2,54.64c-1.71,3.42-13.1,17.17-13.1,17.17l48.76,36.11,88.45-13.05S128.76,319.43,128,315s3.18-34.11,3.18-34.11"/><path class="cls-3" d="M574.37,234.9s51,22,55.45,66.3c1.42,14.34-12.27,158.47-51.62,228.26-6.46,11.46-19.64,28.7-32,33.13-16,5.73-37.75,3.16-62.41-2Z"/><path class="cls-3" d="M592,335.22a297.92,297.92,0,0,0-17.23-100.11,204.4,204.4,0,0,0-23.1-4.74c-11.55-1.89-8.78-1.63-22.24-1.71-28,10.05-39.22,10.47-67.91,2.6-4.17.65-7.31,3.09-10.75,5.21-3.78,2.33-8.21,3.91-12.24,5.79-8.67,4.06-23.29,5.53-31.85,9.84-11.54,5.83-18.84,12.22-28,21.33-6.31,6.27-13.8,14.13-11.63,25s9.68,11.63,16.37,20l3.75,97.3s-5.4,156-5.27,206.81C542.45,581.71,592,469.43,592,335.22Z"/><path class="cls-4" d="M146,278.55c-2.8,4-5.37,8.2-8.34,12.09a.51.51,0,0,0-.09.18.53.53,0,0,0-.79.08c-2.08,2.62-6,4-7.86,6.76-1.6,2.42-.68,5.72-.89,8.67-2.12.29-5.06.08-7.74.2-18-.63-17.56-3.51-42.08-18C70.47,284,72.25,278,70.8,276.84,95.55,276.64,120.08,278.07,146,278.55Z"/><path class="cls-5" d="M36.32,217s-3.28-11.15-7-37.71c-3.3-23.77,34.4-42.65,57-45.74,12.42-1.7,53.71,4.33,64.31,9.58s15.91,19.87,16.77,40.67c0,0-6.14-20.76-19.31-20.54-10.75.19-45.26-5.83-54.41-2.15s-29.29,11.43-30.8,44c-.41,8.88-16-.8-20.44,4.47S36.32,217,36.32,217Z"/><path class="cls-2" d="M53.47,255.39l-2.92-32.1-.84-35.87,14.6-26.89,25.75-11.85L119,150.21s23.07,6.22,30.35,8.31,12.24,11.15,17,21.25,2.27,26.66,2.27,26.66c.19.58-.5,3.1-.62,3.62-1.59,6.64-2.16,12.46-3.46,17.42a12.17,12.17,0,0,0,0,6.77c2.61,8.75,2.49,12.47,1.67,17.78-1.11,7.24-2.59,13.39-5.38,19-3,6-6.67,12.46-7.42,13.73,0,0-8.26,13.4-10,14.7a14.87,14.87,0,0,1-5.58,2.58c-1.22.1-17.17.78-17.17.78l-7.4-.35a19,19,0,0,1-7.25-1.8c-6.17-2.92-23.76-11.63-28.55-15.15-6.44-4.74-13.81-24-13.81-24"/><path class="cls-5" d="M61.19,224.63c.07,2.77-.29,13.77,0,16.48l-14.31-.67c-4.06-9.6-8.94-20.91-10.51-23.49-2.46-4-2.34-23.33-2.3-30.59v-1.57c0-7,7-17.84,18.59-29.08,12.78-12.39,35.06-19,56.74-16.9,2.06.2,4.11.48,6.1.83,18.79,3.29,34.22,13.13,45.83,29.24,8.38,11.62,8.61,24.64,7.67,32.55a70.23,70.23,0,0,0-5.52-27.3c-4.92-10.79-11.46-14-16.08-14.82a15.59,15.59,0,0,0-7.7.52c-4.62.91-11.32.09-16.14-.75-3.59-.63-6.44-1.33-7.21-1.52-2.39-1.76-6-3.1-10.46-3.88-10.37-1.81-25.5-.39-28.73,4.11-3.59,5-11.84,22.87-12,27.09"/><path class="cls-2" d="M54.81,256.14c-8.68,8.27-13.63-8.32-13.63-8.32-7.69-10-7.26-20.38-6.68-27.44s8.36-6.64,8.36-6.64c6.58,1,9.38,4.66,14,27.17"/><path class="cls-5" d="M161.53,166.3c-4.54-7.91-13.55-18-18.62-25.56-2.53-.33-15.09-1.07-17.73-1.27-26.86-2.07-63.53,12.1-67.35,21.76-2.38,6-2.14,39.32-1.08,42.38,2.92,8.41,3.8,19.32,3.8,19.32,1.56-12.43,11-26,12.25-30.24S69.1,168,70.51,167.16s26.25-7.43,53.67-6a204.77,204.77,0,0,1,23.33,2.65C147.46,163.71,161.58,166.39,161.53,166.3Z"/><path class="cls-5" d="M104,216.29a4.3,4.3,0,0,0-4.68.62A4.21,4.21,0,0,0,98,218.8a4.29,4.29,0,0,0,.83,3.94,4,4,0,0,0,4.53,1,4.39,4.39,0,0,0,2.4-5,3.89,3.89,0,0,0-1.74-2.45"/><path class="cls-5" d="M153,219.18a4.31,4.31,0,0,1,4.6,1,4,4,0,0,1,0,5.85,4,4,0,0,1-4.6.59,4.4,4.4,0,0,1-1.93-5.21,3.92,3.92,0,0,1,2-2.28"/><path class="cls-5" d="M140.79,225s6.92-6.31,11.79-6.53c7.09-.32,8.83,1.36,11.18,4.71,0,0-4.47-3.6-9.46-3.24C149.53,220.26,140.79,225,140.79,225Z"/><path class="cls-5" d="M118.6,221.8S108.87,215.26,104,215c-7.09-.39-15.67,3.55-18.05,6.88,0,0,11.32-5.83,16.31-5.42C107,216.84,118.6,221.8,118.6,221.8Z"/><path class="cls-5" d="M116.52,192.51c.46,1.62.91,3.25,1.37,4.88.34,1.25,1.23,4.06,1.57,5.3-4.26.07-8.28-.48-11-.2-5.33.55-10.89.76-15.8,3a18.06,18.06,0,0,0-6,4.14c-.53.58-1.8,2.79-2.89,2.63-.45-.07-.36-2.26-.35-2.48.19-4.41,3.18-7.07,7.15-9.23,8.09-4.41,16.85-6.66,26-8.05"/><path class="cls-5" d="M168.6,207.46l-2.27-1.8c-6.31-5-13.57-8-21.29-10.21-.69,1.54-.72,3-1.41,4.57-.52,1.18-.74,3.34-1.25,4.52,3.71.46,5.61.54,7.91,1.06,4.57,1,9.4,2,13.31,4.68.3.21,3.55,2,3.84,2.25A4.85,4.85,0,0,0,168.6,207.46Z"/><path d="M135.67,252.51a7.84,7.84,0,0,1-7.3-.81c-.45-.32-2-.1-1.38.34a11.09,11.09,0,0,0,10,.94c.28-.13.24-.34-.09-.47a1.71,1.71,0,0,0-1.18,0"/><path d="M126.12,251.39a12.62,12.62,0,0,0-4.47-1.36,1,1,0,0,0-.7.19c-.14.11-.17.27,0,.38a4.82,4.82,0,0,0,2.45.7,1,1,0,0,0,.78-.27c.15-.21-.1-.36-.31-.37a3.8,3.8,0,0,1-2-.57l-.71.58a11.31,11.31,0,0,1,4,1.23.94.94,0,0,0,.83-.06c.17-.09.36-.32.12-.45"/><path d="M119.91,251.3c-1.82-.13-3.93-1-4.76-2.49-1.26-2.19.16-5.47,2.5-6.72.26-.13.13-.33-.12-.4a1.5,1.5,0,0,0-1,.16,6.54,6.54,0,0,0-3.25,5.78c.2,1.87,1.88,3.25,4,3.89a9.65,9.65,0,0,0,2,.38c.28,0,.78,0,.92-.25s-.1-.33-.36-.35"/><path d="M139.06,251.72a.24.24,0,0,1,.25-.34,2.16,2.16,0,0,0,1.43-.41l.46.62a6.29,6.29,0,0,0-2.91.92.51.51,0,0,1-.58-.12c-.11-.11-.23-.35-.05-.47"/><path d="M137.66,251.92a7.12,7.12,0,0,1,3.26-1,.61.61,0,0,1,.48.25.27.27,0,0,1,0,.38"/><path d="M142.84,252.15a3.73,3.73,0,0,0,3.27-2.12A5.57,5.57,0,0,0,145,244a.22.22,0,0,1,.1-.39.68.68,0,0,1,.63.23,6.26,6.26,0,0,1,1.7,5.18,4.31,4.31,0,0,1-2.91,3.58,4.36,4.36,0,0,1-1.33.22.64.64,0,0,1-.58-.33c-.08-.22.09-.31.26-.31"/><path class="cls-6" d="M50.06,234.9c-6-14.4-10.32-14.53-10.32-14.53s-2.94,3.3-1.55,10"/><path class="cls-6" d="M47.81,236.19c-3.87-.42-1,6.86-2,8.56s-2.47-2.85-2.91-8.32c0,0,.05-7.39,3.73-8.72"/><path class="cls-3" d="M277.26,383.93s-25.55,8.27-33.51,21.52-4.64,33.47,1.71,44,19.07,19.14,31.72,18.38-.36-72.93-.36-72.93Z"/><path class="cls-2" d="M262.87,555.27l4.26,8.33s28.64,13.46,36.81,11.15,18.43-35.39,18.43-35.39l55.74,6.57,9.62-63.13-76.4,9.71a34.94,34.94,0,0,0-22.53,12.42l-22.49,20A27.78,27.78,0,0,0,262.87,555.27Z"/><polygon class="cls-7" points="330.68 488.26 337.41 542.44 346.12 541.61 342.51 485.93 330.68 488.26"/><path class="cls-7" d="M325,512.81a16,16,0,1,1,21.22,7.8,16,16,0,0,1-21.22-7.8Z"/><path class="cls-8" d="M334.63,495.58h0a11.84,11.84,0,1,1-5.87,15.68A11.83,11.83,0,0,1,334.67,495.57Z"/><path class="cls-9" d="M341,522.15a17.11,17.11,0,0,0,8.17-3.31,10.29,10.29,0,0,1-8.12,4.3,10.42,10.42,0,0,1-8.67-3A17.93,17.93,0,0,0,341,522.15Z"/><path class="cls-7" d="M340.06,505.86h0l-1.15,1.54a20.65,20.65,0,0,1-1.66-9.08c.36-.42,2.17,3.29,3.84,8.33l.67,1.46h-1.67c-5.23,0-9.45-.45-9.45-1.11S334.87,505.78,340.06,505.86Z"/><path class="cls-3" d="M433.25,343C392.34,389.34,374,415.76,322.71,448c-8,5.64-26.08,24.57-35.78,25.64-16.84.91-22.18,4.3-35.28-9.09-11.57-11.78-12.82-30.74-8.67-37.8,41.24-70.19,90.46-91.95,131.07-148.47"/><path class="cls-10" d="M563.65,276.93c1.38-2.83,2.58-5.72,3.87-8.59.37-.81.75-1.62,1.15-2.42-.75.91-1.47,1.85-2.13,2.83a82.53,82.53,0,0,0-11.6,26.53c-2.77,10-5,20.92-6.74,28l-17.1,73.66-15.39,66.71c-12.8.15-58.78,4.38-128,17.08,14.94-2.74,116.14-15,128.92-14.86l.91,0,.19-.88,14.72-63.43c6-26.07,11.67-51,16.9-73.69,3.9-16.92,6.71-32.92,12.07-46C562.08,280.18,562.86,278.54,563.65,276.93Z"/><path class="cls-10" d="M266.3,387.86A31.14,31.14,0,0,1,282.77,389a36.14,36.14,0,0,1,14.63,9.33,16.33,16.33,0,0,1,4.1,6.06,52.61,52.61,0,0,1-5.15-4.87,41,41,0,0,0-14.1-8.32,36.87,36.87,0,0,0-15.42-1.74,40.59,40.59,0,0,1-6.51,1A11.51,11.51,0,0,1,266.3,387.86Z"/><path class="cls-10" d="M382.42,350c-1.86-29.91-2.87-54.21-2.18-54.25s2.7,24.15,4.56,54.11,2.86,54.24,2.17,54.28S384.27,379.89,382.42,350Z"/><path class="cls-2" d="M333.3,474.36a17.45,17.45,0,0,0,6.72,4.38,2.71,2.71,0,0,0,1.12.2,2.21,2.21,0,0,0,.91-.38c3.25-2.17,1.88-6,.85-9-2-5.75-5.86-10.88-9.09-16q-4.6-7.28-9.35-14.47-5.71-8.72-11.55-17.35l0,0a33,33,0,0,0-6.89-8c-2-1.48-12-6.13-21-10.21-1.21-.55-2.44-1.06-3.68-1.52-4.25-.51-8.46-1.23-12.65.2-4,1.37-7.2,4.08-10.13,7-5.06,5.08-10.13,10.77-13,17.46a17.5,17.5,0,0,0-1.55,8.59l1.61.58a93.76,93.76,0,0,1,4.23,9.09c1.65,4.3,22.91,19.74,22.91,19.74s6.75,3.17,10.89,3,6.57-4.82,6.57-4.82,4.66,1,7.39.07,6.11-5,6.11-5,1.94,2.62,7,.62a6.79,6.79,0,0,0,4.75-6.42c2.19,2.41,4.31,4.89,6.4,7.39q2.89,3.45,5.66,7c.88,1.14,1.87,2.27,2.68,3.44s1.35,2.34,2.23,3.41C332.71,473.72,333,474.05,333.3,474.36Z"/><polygon class="cls-3" points="366.14 483.63 353.52 545.01 383.83 549.97 394.73 479.75 366.14 483.63"/><path class="cls-10" d="M501.73,563.2c-14.16-1.09-42-6.28-54.77-8a639.88,639.88,0,0,0-65.06-5.75l.06.91c19.18,1.06,39,3.17,64.8,7,12.88,1.82,38.36,6.45,52.53,7.58"/><path class="cls-11" d="M133.4,262.36c-6.38-.26-20.61,3-23.54,5.38,0,0,7.08,5.32,21.86,5.92s17.44-4.32,17.44-4.32S141.52,262.69,133.4,262.36Z"/><path class="cls-8" d="M116,265.26s7.62-.3,13.67-.05,13.61,1.16,13.61,1.16,1.15-4.46-9.82-4.91S116,265.26,116,265.26Z"/><path class="cls-12" d="M131.81,271.67c-6.88-1.26-13.86-4.1-22-3.93,0,0,1.89,9.31,19.27,10s20-8.42,20-8.42C141.11,268.51,138.78,271,131.81,271.67Z"/><path class="cls-12" d="M141.1,259.23c-3.64-.41-6,.87-7.6.8s-3.85-1.53-7.51-1.41c-3.43.11-18.24,7.84-16.67,9s13-4.5,24-4.05,14.69,6.72,16.35,5.7S144.51,259.62,141.1,259.23Z"/><path class="cls-2" d="M455.33,252.39a33.79,33.79,0,0,0,8.81,7.72,35.09,35.09,0,0,0,13.77,4l5.39.33a45.7,45.7,0,0,0,11.44-.75l9.34-1.82a45.1,45.1,0,0,0,5.07-1.72c13.44-5.53,25.31-15.1,29.12-28.28-13-20.31-7.32-59.57-7.32-59.57L448.7,199.12s-.42,34.79,4.39,34.91c5.13.12-.69,10-1.06,10.36C452.47,248,453,249.66,455.33,252.39Z"/><path class="cls-2" d="M474.76,229.58l-27.31.79-13.82-2.18c-1.38.12-8.32-13.45-9.38-15.16-3.29-5.3-7.59-12.25-9.78-18.1-2.36-6.27-6.77-11.55-8.25-19.19-1.09-5.6-1.38-9.55,1-18.94a13,13,0,0,0-.26-7.19c-1.58-5.21-2.43-11.36-4.4-18.35-.15-.55-1-3.19-.8-3.81,0,0-3.24-29.46,1.39-40.38s12.26-16.31,19.9-18.83,30.67-2.68,30.67-2.68l30.86-10.25L513,70.39l15.88,31.8.6,38.11-1.77,34.19"/><path class="cls-5" d="M521.74,138.94c0,2.94-2.66,17.82-2.8,20.71l15.17-1.3C538,148,542.73,135.78,544.29,133c2.44-4.39-2.48-25.3-2.82-33l-.08-1.66c-.31-7.39-8.14-18.65-20.94-30.11-23.79-21.3-22.36-19.89-56.94-15.14-2.18.3-4.35.68-6.44,1.14-19.82,4.27-40,7.29-51.66,24.87-8.4,12.69-4.83,3.94-3.5,12.3-.54-16.63,3-11.85,4.62-13.91,9.3-12.08,15.06-.22,19.93-1.27a16.6,16.6,0,0,1,8.2.23c4.93.78,9.57-.16,14.65-1.25,3.79-.82,13.32-3.64,14.14-3.88,2.46-2-.43-11.8,4.27-12.82,10.93-2.36,26.49-3.16,31.81,3.64,4.29,5.48,22,7.87,21,24.89"/><path class="cls-5" d="M437.83,225.25a1.27,1.27,0,0,0,.5-.23c2.76-2.12,2.91-3.21,4.31-3.65a8,8,0,0,1,1.49-.44c4-.85,6.5-1.45,17.93,4.74.23.13,14.45-2.68,14.73-2.72l7.16-4c1.19-.85,27.33-26.12,27.33-26.12.36-.81,5-6.71,5.15-7.47a2.07,2.07,0,0,1,.25-.15l.17-.08a1.21,1.21,0,0,1,0,.14,5.32,5.32,0,0,1,.1,1,16.29,16.29,0,0,1-.49,4.17c-.5,2.1-.73,4.22-1.15,6.33-.15.74-.33,1.48-.54,2.2-3,2.19-21.41,28.91-32.49,35.38a50.19,50.19,0,0,1-9.25,2c-11.68,1.79-23,2.56-34.83,0a10.47,10.47,0,0,1-7.06-5.37c-4-7.75-14-24.24-16.72-36,3.67,6.69,12.61,20.29,18,30,.16.3,4.64.24,5,.32"/><path class="cls-2" d="M526.06,179.42c12.21,10.33,14.13-9.41,14.13-9.41,7.74-11,6.86-21.93,5.94-29.4s-9.14-6.7-9.14-6.7c-7,1.32-9.77,5.33-13.74,29.42"/><path class="cls-5" d="M544.29,133s6-25.14-1.19-49.62S508.62,49,495.37,47.72s-59.74,6.86-70.78,12.88S397.47,70.65,401.2,100c0,0-2.91-28.17,29.23-30.77,11.38-.92,40.78-10.71,56.18-12.67,6.38-.81,28.64,13.68,31.63,17.11,6.86,7.86-6.57,27.77,6,53.42,4.17,8.47,8.26-7.09,13.19-1.68S544.29,133,544.29,133Z"/><path class="cls-13" d="M529.76,158.7a51,51,0,0,1,5.92-12.06,11.48,11.48,0,0,1,3.61-3.54,2.06,2.06,0,0,1,.26-.12c-.21.08,0,0,.08,0s0,0,0,0l-.49-.16a7.54,7.54,0,0,1,1.46,2.53,15.35,15.35,0,0,1,.58,7.95c-.09.57,1.11.4,1.19-.1a15,15,0,0,0-1.11-9.33c-.36-.69-.83-1.86-1.77-1.67a4.87,4.87,0,0,0-1.92,1,17,17,0,0,0-3.57,4.12,55.79,55.79,0,0,0-5.38,11.27c-.23.62,1,.58,1.12.12Z"/><path class="cls-13" d="M531.62,160.37c2.41-.29,1.83,3.6,1.75,5-.07,1.08-.59,4.55,1.33,4.47,1,0,1.43-1.11,1.71-1.9a23.86,23.86,0,0,0,1-5.3,18.39,18.39,0,0,0-.25-6c-.53-2.46-1.59-5.47-4.21-6.36-.51-.18-1.38.56-.68.8,2.19.75,3.09,3.33,3.59,5.37a15.15,15.15,0,0,1,.48,4.73,32.26,32.26,0,0,1-.77,5.54,9.63,9.63,0,0,1-.57,1.72c0,.1-.31.4-.31.51l0,0q-.13.12.27,0c0-.08-.15-.11-.17-.2-.5-1.8-.12-3.64-.12-5.51s-.5-4.1-2.93-3.8c-.65.08-.9,1-.1.87Z"/><path class="cls-5" d="M467.29,140.22a4.57,4.57,0,0,1,5,.46,4.43,4.43,0,0,1,1.5,1.95,4.55,4.55,0,0,1-.71,4.22,4.24,4.24,0,0,1-4.77,1.26,4.69,4.69,0,0,1-2.76-5.22,4.18,4.18,0,0,1,1.75-2.67"/><path class="cls-5" d="M417.11,144.87a4.57,4.57,0,0,0-4.84,1.31,4.44,4.44,0,0,0-1.15,2.17,4.56,4.56,0,0,0,1.42,4,4.24,4.24,0,0,0,4.92.43,4.67,4.67,0,0,0,1.82-5.61,4.16,4.16,0,0,0-2.17-2.34"/><path class="cls-5" d="M432.16,150.22s-7.61-6.4-12.78-6.43c-7.55,0-9.32,1.8-11.68,5.46,0,0,4.59-4,9.91-3.83C422.69,145.59,432.16,150.22,432.16,150.22Z"/><path class="cls-5" d="M456.31,146.32s9.93-7.52,15.07-8.1c7.5-.84,16.83,2.83,19.56,6.22,0,0-12.36-5.51-17.63-4.78C468.28,140.36,456.31,146.32,456.31,146.32Z"/><path class="cls-5" d="M453.3,123.22c.17,1.78.34,3.57.5,5.36.13,1.37.33,4.49.46,5.85,4.2-1.54,7.92-3.61,10.65-4.36,5.42-1.47,10.93-3.37,16.59-3a18.84,18.84,0,0,1,7.46,1.83c.74.37,2.81,2.08,3.81,1.5.41-.24-.49-2.37-.59-2.59-1.84-4.3-5.77-5.81-10.47-6.45-9.57-1.3-19-.21-28.41,1.87"/><path class="cls-5" d="M402.09,129.39l3-1c8.46-2.85,17.16-3.31,26-2.8l.42,5.37c.11,1.37.39,3.83.49,5.19-4.05-.83-7.58-1.92-10.17-2.21-5.15-.57-10.58-1.24-15.64,0-.4.11-2.55.69-2.94.81C401.49,132.44,401.41,129.84,402.09,129.39Z"/><path class="cls-5" d="M458.53,205.37l-20.33,1.51s5.21,5.1,10.11,4.68C451.37,211.3,455.52,208.71,458.53,205.37Z"/><path d="M440.47,179.1a8.32,8.32,0,0,0,7.72-1.17c.47-.35,2.13-.19,1.48.31a11.77,11.77,0,0,1-10.53,1.41c-.29-.13-.26-.36.08-.5a1.81,1.81,0,0,1,1.25-.05"/><path d="M450.57,177.51a13.52,13.52,0,0,1,4.68-1.63,1.09,1.09,0,0,1,.75.17c.15.12.2.29,0,.41a5.2,5.2,0,0,1-2.58.84,1,1,0,0,1-.84-.25c-.16-.22.09-.39.31-.41A4.11,4.11,0,0,0,455,176l.78.58A12,12,0,0,0,451.6,178a1,1,0,0,1-.89,0c-.18-.09-.39-.33-.14-.48"/><path d="M457.15,177.16c1.93-.22,4.13-1.27,5-2.84,1.25-2.38-.39-5.74-2.93-7-.27-.14-.15-.35.11-.43a1.52,1.52,0,0,1,1.05.13A6.86,6.86,0,0,1,464,173c-.13,2-1.86,3.53-4.13,4.3a10.71,10.71,0,0,1-2.12.49,1.32,1.32,0,0,1-1-.24c-.16-.23.1-.35.37-.38"/><path d="M436.84,178.4a.25.25,0,0,0-.27-.35,2.31,2.31,0,0,1-1.55-.38l-.45.69a6.58,6.58,0,0,1,3.12.84.53.53,0,0,0,.61-.15c.12-.12.23-.38,0-.49"/><path d="M438.33,178.56a7.35,7.35,0,0,0-3.49-.93.62.62,0,0,0-.5.28.28.28,0,0,0,0,.4"/><path d="M432.85,179a4,4,0,0,1-3.56-2.11,5.93,5.93,0,0,1,1-6.49.23.23,0,0,0-.13-.4.71.71,0,0,0-.65.27,6.63,6.63,0,0,0-1.59,5.57,4.54,4.54,0,0,0,3.24,3.67,4.59,4.59,0,0,0,1.42.19.7.7,0,0,0,.6-.37c.07-.25-.11-.34-.29-.33"/><path class="cls-5" d="M473.54,186.56c1.22.93,2.54,2,2.76,3.52a6.16,6.16,0,0,1-.06,1.66l-.35,2.55a1,1,0,0,1-.15.49,1.09,1.09,0,0,1-.48.27,4.11,4.11,0,0,1-1.75.31,1.4,1.4,0,0,1-1.27-1.07,2.13,2.13,0,0,0-.09-.72c-.23-.42-.84-.32-1.31-.41-1.18-.21-1.53-1.68-2.12-2.72a6.17,6.17,0,0,0-3.92-2.66,12,12,0,0,1-2.36-.68,2.34,2.34,0,0,1-1.41-1.87"/><path class="cls-5" d="M422.31,190c-1.06,1.1-2.19,2.38-2.18,3.91a6.21,6.21,0,0,0,.33,1.63l.75,2.46a1,1,0,0,0,.23.46,1,1,0,0,0,.52.19,3.92,3.92,0,0,0,1.77,0,1.39,1.39,0,0,0,1.08-1.26,2,2,0,0,1,0-.73c.16-.45.77-.44,1.22-.6,1.13-.4,1.25-1.9,1.67-3a6.11,6.11,0,0,1,3.45-3.24,12.12,12.12,0,0,0,2.21-1.05,2.35,2.35,0,0,0,1.11-2.07"/><path class="cls-5" d="M424.68,74.33A7.15,7.15,0,0,1,427.93,73l1.27-.5q5.76-.45,11.53-.55a8.33,8.33,0,0,1,2.84.28l.27.11c2.83-.29,5.67-.55,8.52-.74l1.33.26a8,8,0,0,1,3.4.74,1.12,1.12,0,0,1-.13,2.1c-1.14.44-2.91-.06-3.67.66s.93,1.75.46,2.64c-.29.57-1.31.81-1.95,1.24s-1,1.28-1.7,1.83a4,4,0,0,1-3,.6c-1.07.15-2.54-.19-2.83.58a1.3,1.3,0,0,0,0,.62,2.15,2.15,0,0,1-1.5,2.08,3.55,3.55,0,0,1-3.06-.22c-.79-.52-1.12-1.36-2-1.83a5.69,5.69,0,0,0-.87-.37,2.82,2.82,0,0,1-1,.66,3.55,3.55,0,0,1-3.06-.23c-.78-.51-1.11-1.36-1.95-1.83s-1.75-.51-2.12-1.11c-.6-.95,1-2.32.05-3.09s-2.54.14-3.73-.19A1.36,1.36,0,0,1,424.68,74.33Z"/><path class="cls-5" d="M460.28,227.45a5.92,5.92,0,0,1-2.71.89l-1.06.32q-4.68,0-9.34-.31a6.49,6.49,0,0,1-2.27-.41l-.21-.1c-2.31,0-4.62.07-6.93,0l-1.05-.3a6.31,6.31,0,0,1-2.7-.82.9.9,0,0,1,.24-1.68c.95-.28,2.34.24,3-.29s-.63-1.47-.2-2.17c.28-.43,1.11-.56,1.66-.87s.88-1,1.49-1.37a3.2,3.2,0,0,1,2.45-.28c.87-.06,2,.31,2.32-.29a.94.94,0,0,0,0-.5,1.73,1.73,0,0,1,1.35-1.58,2.85,2.85,0,0,1,2.46.38c.6.46.81,1.17,1.46,1.6a5.41,5.41,0,0,0,.68.35,2.19,2.19,0,0,1,.82-.46,2.84,2.84,0,0,1,2.45.38c.61.46.82,1.17,1.46,1.6s1.38.53,1.64,1c.43.8-.95,1.81-.24,2.49s2.05,0,3,.39A1.1,1.1,0,0,1,460.28,227.45Z"/><path class="cls-14" d="M542.9,134.62a7.24,7.24,0,0,0,3.35-.89,2.49,2.49,0,0,0,1.07-3c-.84-1.65-4-1.79-3.85-3.63,1.43-1.88,5.08-1.36,5.84-3.59.61-1.81-1.38-3.36-3.07-4.24,1.09-1.15.8-.15,2.32-.61s2.19-4.23,1.25-5.51c-1.06-1.45-1.54-.22-1-1.95,1.21-.44-1.54-1.35-.65-2.27a2.92,2.92,0,0,0,.55-3.52c-.89-1.27-3.12-1.62-3.17-3.16,0-1.32,1.61-2,2.34-3,1.33-2-.72-4.48-2.59-6a8.91,8.91,0,0,0,2.67-2.66,3,3,0,0,0-.23-3.53,14.05,14.05,0,0,0-2-1.23c-2.6-1.85-1.29-5.9.25-8.69a4.57,4.57,0,0,1-5-3.49,14.42,14.42,0,0,0-.48-3.1c-.43-1-1.88-1.56-2.5-.71"/><path class="cls-5" d="M542.79,135.72c2.5-.25,6.48-1.28,6.16-4.6a3.34,3.34,0,0,0-1.85-2.48c-.46-.28-1-.5-1.42-.79-.3-.19-.74-.86-.88-.46.23-.64,2.29-1,2.84-1.19a5.27,5.27,0,0,0,2.65-1.78c1.78-2.54-.87-4.9-3-6l.12,1.31c.6-.6-1.15-.1-.48.11a2.75,2.75,0,0,0,.86.05,4.08,4.08,0,0,0,1.73-.51,4.5,4.5,0,0,0,1.93-3,5.45,5.45,0,0,0-.12-3.41,3.3,3.3,0,0,0-1.1-1.33c-.14-.1-.41-.32-.59-.31-.33-.15-.22,0,.34.56a4,4,0,0,1,.11-.5l-.72.7c.8-.37,1.41-1.14.91-2a3.42,3.42,0,0,0-.67-.7,2.52,2.52,0,0,1-.3-.35c.18.23-.11.5.3-.07a4,4,0,0,0,.73-3.33,4.39,4.39,0,0,0-2.16-2.33c-.8-.51-1.74-1-.87-2s1.74-1.42,2.16-2.56c.93-2.53-1.41-5-3.17-6.43l-.14,1.56c1.44-1.08,2.94-2.29,3.43-4.09a3.55,3.55,0,0,0-1.47-4.12c-.71-.46-1.52-.69-2-1.44a3.46,3.46,0,0,1-.46-2.07,11.77,11.77,0,0,1,1.64-4.9c.44-.81-.6-1.36-1.26-1.29A3.33,3.33,0,0,1,543,74.46c-.78-1.16-.5-2.51-.82-3.8a3.12,3.12,0,0,0-5.32-1.34.9.9,0,0,0,.39,1.46,1.89,1.89,0,0,0,2-.54l-.56.27.23.15c.06.23.31.49.38.77a11.42,11.42,0,0,1,.2,1.76A5.26,5.26,0,0,0,540.56,76a6,6,0,0,0,5.3,2.17l-1.26-1.29c-1.29,2.38-2.68,5.79-1.2,8.39a4.29,4.29,0,0,0,1.39,1.45c.69.45,1.63.69,2,1.5.79,1.82-1.28,3.34-2.5,4.25a1,1,0,0,0-.13,1.56c1.2,1,3.58,3.21,2.29,4.93-.91,1.2-2.58,1.85-2.38,3.64s1.86,2.09,2.93,3a1.81,1.81,0,0,1,.14,2.52c-.36.54-.78.94-.6,1.65a2.33,2.33,0,0,0,.93,1.26.69.69,0,0,1,.17.17c.68-.94.74-1.2.17-.77a1.94,1.94,0,0,0-.59,1.15,1.28,1.28,0,0,0,.36,1.46c.43.34.81.32,1.07.91s.27,3.31-.62,3.72c.18-.09-.83-.15-.92-.14a3.43,3.43,0,0,0-2.06,1.21.87.87,0,0,0,.11,1.31c1.12.61,4.33,2.82,2,4-1.61.79-3.65.88-4.82,2.43s.93,2.94,2.12,3.59c.67.36,1.62.8,1.59,1.69,0,1.49-2,1.62-3,1.73-.63.07-1.51.46-1.56,1.2s.72,1.07,1.34,1Z"/><path class="cls-15" d="M539.21,74.84c-.38-1.39-2-8-2.4-9.39A3.16,3.16,0,0,1,532.58,63c-.09-1,.15-2.14-.64-2.65s-1.86.26-2.83.26c-2.16,0-2.63-3.48-4.69-4.13-1.29-.41-2.71.48-4,.13-2-.53-2.43-3.43-4.35-4.15-1.32-.5-2.83.26-4.21,0-3-.66-3.8-5.71-6.86-5.59-1.13,0-2.13.86-3.25.81-2-.08.87-2.31-1.13-2.5-1.84-.17-3.2,1.84-5,2.13-3,.47-5.63-3.67-8.36-2.4-1.17.55-1.75,1.94-2.89,2.53-2.68,1.39-5.72-2.41-8.62-1.56-1.45.42-2.43,1.94-3.92,2.21-2.32.41-4.26-2.39-6.59-2.09-1.86.23-3.14,2.37-5,2.36-1.32,0-2.41-1.09-3.72-1.22-2.23-.21-3.76,2.32-5.92,2.89-1.82.48-3.66-.5-5.51-.86s-5.67,3.4-5.63,5.28"/><path class="cls-5" d="M540.64,74.45c-.86-3.11-1.54-6.27-2.4-9.38-.17-.61-1.65-.16-2,0s-1.16-.51-1.34-.66a2.61,2.61,0,0,1-.84-1.27c-.29-1,.17-2.25-.61-3a2.9,2.9,0,0,0-2.71-.38,5,5,0,0,1-1.13.24,2.23,2.23,0,0,1-1-.86c-1.09-1.32-1.74-3-3.65-3.29-1.14-.16-2.41.49-3.48.22s-1.58-1.35-2.11-2.11c-1.31-1.89-2.7-2.4-5-2.14a3.15,3.15,0,0,1-2.75-.63,11.27,11.27,0,0,1-1.72-2.05c-1-1.36-2-2.72-3.8-2.87a7.61,7.61,0,0,0-3.12.6c-1,.33-.48-.24-.32-.88.47-1.89-2.31-1.46-3.36-1.15a11.75,11.75,0,0,0-2.79,1.45,2,2,0,0,1-.91.43,4.19,4.19,0,0,1-1.78-.66c-1.59-.85-3.07-2-5-2a5.88,5.88,0,0,0-2.8.79,6.13,6.13,0,0,0-1.25,1c-.36.38-1,1.25-1.29,1.31-.51.1-1.94-.71-2.56-1a10.63,10.63,0,0,0-2.89-1,6.46,6.46,0,0,0-2.89.31,16.91,16.91,0,0,0-3,1.8c-.86.49-2-.48-2.82-.92a7,7,0,0,0-2.82-1,6.36,6.36,0,0,0-3.12.65,10,10,0,0,0-1.22.72c-.37.24-1,.9-1.45,1s-1.09-.39-1.47-.57a6.29,6.29,0,0,0-1.94-.62,6.44,6.44,0,0,0-3.39.69A28.34,28.34,0,0,0,451.16,49c-1.39.92-3.06,0-4.53-.39a6.56,6.56,0,0,0-5.67,1.7c-1.31,1.07-2.9,2.67-3,4.47,0,.6,2.82.19,2.86-.77.06-1.55,1.83-3.19,3-4a1.59,1.59,0,0,1,.47-.27c.24-.05-.27.06,0,.06a7.45,7.45,0,0,1,1.7.48,9.13,9.13,0,0,0,3.88.4,8.05,8.05,0,0,0,3-1.11c.78-.48,1.81-1.67,2.7-1.83s2,.84,2.78,1.06a5.47,5.47,0,0,0,3.27-.24,10.67,10.67,0,0,0,2.47-1.43c.24-.16.57-.5.85-.55.52-.08,1.4.48,1.81.71,1.89,1,3.53,1.83,5.73,1.14a9.3,9.3,0,0,0,2.7-1.55c.43-.32.61-.51,1.11-.49a4.48,4.48,0,0,1,1.5.49c1.81.75,3.47,1.72,5.51,1.4A5.9,5.9,0,0,0,486,47.14a11.05,11.05,0,0,0,1.17-1.2,3.79,3.79,0,0,1,.56-.57c-.16-.07-.16-.09,0,0a1.37,1.37,0,0,1,.4.09c1.83.53,3.22,2,5.12,2.45,2.14.47,4-.5,5.76-1.61.26-.16.72-.48.78-.4s0,.42,0,.65c-.12.45-.42.93-.12,1.37.4.6,1.6.48,2.18.4.94-.12,2.11-.94,3-.64,1.43.47,2.32,2.46,3.2,3.55a5,5,0,0,0,4.72,2c1.2-.11,2.13-.3,3,.64.67.69,1.1,1.56,1.72,2.29A3.5,3.5,0,0,0,520,57.37c1.15.09,2.72-.68,3.72,0,1.5,1,1.84,3.26,3.71,3.81a3.71,3.71,0,0,0,1.59.08c.32,0,.63-.11.94-.18l.36-.11c.28-.21.43-.17.47.12.38.36.28,1.19.3,1.66a3.58,3.58,0,0,0,.36,1.68c1.15,2.13,3.84,2.22,5.85,1.46l-2,0c.85,3.12,1.54,6.28,2.39,9.39.22.78,3.07,0,2.86-.77Z"/><path class="cls-16" d="M440,52a10.28,10.28,0,0,1-7.83-.5,4.28,4.28,0,0,1-4.56,4.43,18.59,18.59,0,0,0-2.74-.51c-3.24.09-5.17,5.4-8.23,4.32,1.39.94.35,3.2-1.09,4.07s-3.31,1.39-3.95,2.94c-.23.54-.26,1.16-.53,1.68a4.76,4.76,0,0,1-1.59,1.53,18,18,0,0,0-5.75,7c-2.24,4.79-3.89,8.95-2.76,20.88-1.5-14.32,4.24-16.63,7.62-20.83,2.87-3.57,8.47-4.61,12.44-6.9s8.41-3.17,12.85-3.93c13.57-2.34,28.08-10,41.85-10.13,11.7-.09,21.48-1,32.57,2.79S524,66.15,529.9,76.29c0,0-14-22.92-28.72-24.82S462,53.29,462,53.29Z"/><path class="cls-5" d="M439.75,51A9,9,0,0,1,433,50.5c-.67-.32-2.31.14-2.27,1.07.07,1.73-1.1,3.55-3,3.21-1.68-.3-3.05-.7-4.69,0a11.5,11.5,0,0,0-3.13,2.37c-.53.5-1.58,1.81-2.43,1.56s-3.23.74-1.92,1.8-.93,2.57-1.68,3a7.57,7.57,0,0,0-3.4,2.63c-.38.66-.38,1.47-.76,2.11s-1.46,1.22-2.11,1.76A19.43,19.43,0,0,0,404,73.88a28.48,28.48,0,0,0-4.64,12.79,58.05,58.05,0,0,0,.17,11.49l2.85-.76c-.43-4.32-.45-9,1.56-13,1.2-2.36,3.14-4.08,4.92-6a15.92,15.92,0,0,1,4.19-3.61c2.16-1.16,4.5-1.94,6.72-3a51.53,51.53,0,0,1,7.74-3.35c2.85-.8,5.79-1.2,8.69-1.8,11.62-2.42,22.53-7.83,34.36-9.32a81.9,81.9,0,0,1,9-.4c3,0,6.07-.12,9.1-.09a61.87,61.87,0,0,1,17.69,2.48c4.67,1.45,9.38,3.29,13.27,6.32s6.54,7.06,9,11.21l2.61-1.27a81.66,81.66,0,0,0-10.05-13,52.35,52.35,0,0,0-9.94-8.5,25.92,25.92,0,0,0-12-4c-9.58-.81-19.32,0-28.84,1-2.63.29-5.31.52-7.92,1-.08,0-.63.12-.2.06s-.2,0-.33,0l-3.1-.19-18.34-1.1a1.86,1.86,0,0,0-1.85.88.9.9,0,0,0,.87,1.22l15.93,1c2,.12,4,.32,6,.36a37,37,0,0,0,5-.61A183,183,0,0,1,493.65,52c4.32.11,8.59.35,12.55,2.22A38.87,38.87,0,0,1,516.63,62a79.54,79.54,0,0,1,12,15c.68,1.11,3.37,0,2.61-1.27a41.24,41.24,0,0,0-8.29-10.72,35.83,35.83,0,0,0-11.33-6.26,60.8,60.8,0,0,0-18-3.73c-6.23-.35-12.55-.2-18.78,0-12.57.44-24.2,6.1-36.23,9.11-6,1.5-12.29,1.91-17.81,4.92-4.45,2.43-10,3.54-13.38,7.54-2,2.33-4.33,4.28-5.86,7-2.51,4.42-2.48,9.77-2,14.67.13,1.33,3,.63,2.85-.76-.52-5.72-.74-11.72,1.34-17.18a23.4,23.4,0,0,1,3.88-7c1.19-1.37,2.67-2.27,4-3.5s1-3,2.49-3.91,3-1.38,4-2.88c.87-1.34,1-2.94-.29-4l-1.92,1.8a5.12,5.12,0,0,0,4.71-1c1.19-.91,2.29-2.64,3.76-3.1.89-.28,1.94.32,2.83.42a5.92,5.92,0,0,0,3.13-.52,5.56,5.56,0,0,0,3.36-5.07l-2.26,1.08a12.23,12.23,0,0,0,8.92.53c.56-.18,1.35-.67,1.16-1.38S440.3,50.8,439.75,51Z"/><path class="cls-4" d="M470.87,103.77s-30.08-1.91-50.14,3.82"/><path class="cls-14" d="M419.54,207.36a30.17,30.17,0,0,0,3.77,8c-1,.39-.53,2,.33,2.73s2.05,1.48,1.86,2.58c-.07.38-.31.72-.36,1.11-.19,1.21,1.32,1.89,2.51,2.15-.78.66,0,1.93.79,2.53s1.88,1.35,1.65,2.34c-.11.49-.54.9-.51,1.4.07,1.05,1.78,1,2.39,1.83.35.49.24,1.17.4,1.75a2,2,0,0,0,3,.88c.33,2.11,1.35,4.81,3.48,4.61,1.31-.12,2.52-1.44,3.75-.95.76.3,1.12,1.19,1.83,1.6,2.38,1.39,5.05-3.59,7.43-2.19,1.28.75,1.32,2.93,2.74,3.35s2.46-1.2,3.84-1.41,3.11,1.23,4.43.47c.57-.33.87-1,1.35-1.43,1.11-1,2.33.41,3.78.79,2.61.7,2.77-1.16,2.77-1.16.68-1.83,1.69-1.74,3.44-.85a4.41,4.41,0,0,0,1.77.77c1.59,0,2.23-2.64,3.82-2.56a5.22,5.22,0,0,1,1.61.66c2,.81,4.24-1.86,3.13-3.67a4.44,4.44,0,0,0,4.07-5,4,4,0,0,0,4.9-3.7c2.67.62,5.34-2.64,4.21-5.14a3.18,3.18,0,0,0,4-3.09c-.08-1-.56-2.27.26-2.88.54-.39,1.29-.17,2-.21a2.55,2.55,0,0,0,2-3.57c2.64.55,4.93-3.21,3.23-5.31,2.08.38,3.83-2.57,2.5-4.22,2.83-.2,4.6-4.07,2.91-6.34l-31.38,35-8.29,4.19s-29.82,3.95-35.57,1.63S419.54,207.36,419.54,207.36Z"/><path class="cls-5" d="M418.11,207.74a31.32,31.32,0,0,0,3.78,8l.6-.59c-.88.46-1.41,1.07-1.09,2.11s1.37,1.55,2.1,2.34a1.63,1.63,0,0,1,.41,1.87,1.79,1.79,0,0,0-.05,1.5,3.86,3.86,0,0,0,2.62,1.53l-.12-.47c-1.32,1.48.59,2.66,1.58,3.57a1.86,1.86,0,0,1,.75,1.26c0,.57-.51,1-.52,1.59s.51,1,1.06,1.23c.83.39,1.42.57,1.58,1.58a2.4,2.4,0,0,0,1,2c1.35.87,3.47.37,4.68-.52l-2.53.33c.38,2.21,1.35,4.87,4,4.83a6.61,6.61,0,0,0,2.06-.4c.32-.12.64-.26,1-.41l.31-.15c.3-.23.39-.22.25,0,1.05.53,1.29,1.65,2.62,1.79,2.37.27,4.14-1.33,6-2.47a2.58,2.58,0,0,1,.51-.29c-.7.18-.18.18.1.4a3.63,3.63,0,0,1,.88,1.27c.54,1.05,1.07,2,2.37,2.09a6.21,6.21,0,0,0,3.47-1c.22-.13.64-.51.89-.54-.24,0,.71.31.68.3a7.4,7.4,0,0,0,2.27.46,4.87,4.87,0,0,0,3.37-1.33c.07-.08.64-.68.62-.78l-.91.13a4.34,4.34,0,0,1,.7.3,10.55,10.55,0,0,0,1.75.79c1.7.47,4.49.14,5.28-1.69.09-.2.11-.4.2-.6l.14-.28c.44-.52.16-.52-.85,0a5.53,5.53,0,0,0,.94.33c1.38.64,2.21,1.27,3.81.88a5.42,5.42,0,0,0,2.92-1.95,7.41,7.41,0,0,0,.54-.58q.72-.52-.84.15a7,7,0,0,1,.78.38,3.75,3.75,0,0,0,1.86.41c2.22-.11,5.75-2.13,4.36-4.8l-2.05,1c3.15-.24,6.54-2.38,6.12-5.93l-2.6.95c3.09.72,7.33-1.16,7.5-4.65l-2.6.94c3.29.59,8.35-2.13,6.81-6.08l-2.6.95a6.24,6.24,0,0,0,5-1.08c1.49-1.09,1.58-2.39,1.4-4.08a7.14,7.14,0,0,1,0-1.19c-.83.14-.95.21-.36.2h.64a5.8,5.8,0,0,0,2.57-.78,3,3,0,0,0,1.48-3.77l-2.6.95a6.12,6.12,0,0,0,5.2-1.65,3.65,3.65,0,0,0,.63-4.61l-2.35,1c2.49.27,6.93-2.22,4.85-5.2l-2,1a6.45,6.45,0,0,0,4.74-2.49,4.3,4.3,0,0,0,.2-4.84c-.44-.65-2.31,0-2.72.48l-14.35,16-10.54,11.75c-2.05,2.29-4.25,4.52-6.19,6.91-.55.67.1-.13.15,0s-1.88,1-2,1l-3.65,1.85a14.67,14.67,0,0,0-2.47,1.25c-.44.34,1-.23.88-.26a1.35,1.35,0,0,0-.39.05c-.13,0-.77.1-.43.05l-1.06.13q-3.25.4-6.52.74c-5.77.61-11.57,1.14-17.38,1.3a43,43,0,0,1-6.9-.21,6.83,6.83,0,0,1-4-1.94c-4-3.63-7-8.44-10-12.91q-3.72-5.64-7.13-11.5c-.13-.21-.26-.43-.38-.65-.42-.73-3.11.32-2.86.76,1.72,3,3.52,5.92,5.36,8.83A112.27,112.27,0,0,0,433.75,231a12.85,12.85,0,0,0,4.31,3.66,16.17,16.17,0,0,0,5.45.77,140.91,140.91,0,0,0,17.55-.86q6.54-.61,13.06-1.45a10.42,10.42,0,0,0,3.43-1.33c2.09-1.06,4.2-2.09,6.27-3.18a5.07,5.07,0,0,0,1.47-1.3l3-3.3,9.92-11.06L509,200.81c2.16-2.41,4.43-4.76,6.5-7.25l.33-.37-2.72.48a3.72,3.72,0,0,1,.55,3,4.88,4.88,0,0,1-.56,1.33,3.94,3.94,0,0,1-.51.65c-.08.08-.64.43-.35.4-.18,0-2.37.49-2,1a2.26,2.26,0,0,1,.38,1.95,3.32,3.32,0,0,1-.33.78,2.24,2.24,0,0,1-.41.51c-.38.27-.31.27.21,0-.28,0-2.7.5-2.35,1a2.86,2.86,0,0,1,.48,2.47,3.51,3.51,0,0,1-.45,1,4.93,4.93,0,0,1-.5.63c-.19.22-.45.18-.16.23-.35-.06-2.91.24-2.6.94a2.15,2.15,0,0,1,.1,1.74c-.09.27-.33.5-.42.76q-.45.35.06.15c.38-.06.36-.08-.08-.08a5,5,0,0,0-3.39.85c-.87.68-.71,1.63-.57,2.61a3.07,3.07,0,0,1-.13,1.75,3.86,3.86,0,0,1-.64.9l-.31.25c.31,0,.24-.08-.21-.12s-2.87.25-2.6,1a3.27,3.27,0,0,1,0,2.53c-.25.59-1,1.76-1.6,1.65s-2.56.11-2.6,1c0,1.16-.92,3.08-2.3,2.76-.49-.12-2.69.15-2.59.95a4,4,0,0,1-.41,2.34c-.27.53-1,1.58-1.63,1.63-.24,0-2.32.44-2,1a2.33,2.33,0,0,1-.71,2.94c.35-.31.74.2,0-.29a4.11,4.11,0,0,0-.81-.41,3.48,3.48,0,0,0-1.81-.16,5,5,0,0,0-2.6,1.21c-.32.3-.59.66-.89,1-.11.12-.4.33-.46.47q-.54.43.9-.18a4.87,4.87,0,0,1-.88-.45c-1.77-.93-4-1.44-5.67.06a4.24,4.24,0,0,0-.92,1.57,1.72,1.72,0,0,0-.1.26l-.07.12q-.28.32.42-.18a13.79,13.79,0,0,1-1.93-.8,4.34,4.34,0,0,0-4.49.43,3.8,3.8,0,0,0-.54.52l-.3.4c-.33.3-.28.34.12.12-1.16-.14-2.12-.74-3.35-.61a7.38,7.38,0,0,0-3.51,1.37l-.3.18c.62,0,.69-.11.22-.28-.08-.15-.34-.31-.45-.46a11.74,11.74,0,0,1-.68-1.26,2.81,2.81,0,0,0-2.07-1.71c-2-.32-3.89.91-5.45,2a5.13,5.13,0,0,1-1.17.74c.8-.26.25,0,.12-.24a10.31,10.31,0,0,0-.89-.84,3.11,3.11,0,0,0-3.33-.8c-.68.16-1.28.56-1.93.72a1.16,1.16,0,0,1-1.3-.46,7,7,0,0,1-1.52-3.76c-.11-.68-2.24.11-2.53.32.74,0,.9-.11.5-.21a1.19,1.19,0,0,1-.42-.21,1.57,1.57,0,0,1-.56-.78c-.2-.58-.05-1.22-.4-1.75-.52-.8-1.83-.71-2.27-1.49-.34-.6.3-1.15.39-1.74A1.75,1.75,0,0,0,431,227c-.57-.66-3.07-2-2.05-3.15.18-.21.17-.4-.13-.48-.78-.19-1.95-.52-2.22-1.4s.62-1.62.18-2.58c-.37-.79-1.2-1.21-1.79-1.78-.2-.19-1.3-1.8-.85-2,.1-.06.75-.37.6-.6a31.56,31.56,0,0,1-3.77-8C420.76,206.3,417.91,207.1,418.11,207.74Z"/><path class="cls-5" d="M473.75,184a4.58,4.58,0,0,0-3-1.58c-.45,0-1.22.15-1.61-.1s-.61-.88-.94-1.18a3.51,3.51,0,0,0-3.2-.77,5.59,5.59,0,0,0-1.52.62l-.38.23c-.2.11-.17.11.08,0a2.68,2.68,0,0,1-.57-.32,4,4,0,0,0-2.62-.77,3.86,3.86,0,0,0-1.55.56,4.63,4.63,0,0,0-.69.55l.65-.26a1.58,1.58,0,0,1-.48-.33c-.87-.72-1.49-1.49-2.71-1.58a4.67,4.67,0,0,0-1.77.29,8.33,8.33,0,0,1-.93.39c-.31.05,0,.22-.22-.14-.61-.81-3.37.18-2.65,1.14a2.73,2.73,0,0,0,2.83.65,9,9,0,0,0,1.5-.55c.33-.15.41-.18.23-.09s-.1.16.25.26c.19.19.4.37.59.55a3.54,3.54,0,0,0,2.93,1.14,3.88,3.88,0,0,0,1.74-.68c.12-.08.52-.3.56-.45-.9,0-1.16.11-.79.24l.31.16a5,5,0,0,0,2.62,1,4.56,4.56,0,0,0,1.77-.43c.24-.12.47-.26.71-.39l.38-.23,0,.15c.55.21.81.87,1.17,1.29a2,2,0,0,0,1.31.72c.54.09,1.07-.05,1.61,0a2.8,2.8,0,0,1,1.8,1.07c.68.78,3.41-.26,2.65-1.14Z"/><path class="cls-5" d="M440.46,181.17a3.79,3.79,0,0,0-3.06.41c-.67.37-1.27,1.06-2,1a4.44,4.44,0,0,0-2,.34c-.18.09-1.37.85-1.28,1.22.7-.08.87-.17.5-.27l-.25-.09c-.29-.11-.56-.26-.85-.38a3.08,3.08,0,0,0-4.19,1.91c-.23.64-.07-.2.11.11a4.45,4.45,0,0,0-.68,0,5.69,5.69,0,0,0-1.79.19,3.33,3.33,0,0,0-1.44.84,2.4,2.4,0,0,0-.39.57,4.42,4.42,0,0,0-.15.48c-.12.37,0,.38.49,0a2.21,2.21,0,0,0-2.14,1.56c-.17,1.37,2.74,1,2.88-.26-.07.57-1.22.72-.42.56a4.37,4.37,0,0,0,.7-.22,2.3,2.3,0,0,0,1.06-.86,2,2,0,0,0,.24-.59l.06-.34c0-.13,0-.16-.07-.08s-.14-.05,0,.09.58,0,.66,0a4,4,0,0,0,3.15-1.07,4.45,4.45,0,0,0,.58-.92c.05-.1.29-.43.28-.54s0-.11-.32.14-.49.2-.16.28a4.4,4.4,0,0,0,3,.53,3,3,0,0,0,1.44-.83,2,2,0,0,0,.46-.6c.19-.23,0-.18-.51.17h.26a4.59,4.59,0,0,0,2.92-.73c.37-.21.71-.47,1.07-.7.14-.08.25-.16.39-.23-.06,0-.35,0-.19.05a2,2,0,0,0,2-.54.74.74,0,0,0-.35-1.28Z"/><path class="cls-17" d="M521.26,140.74c-3.07-2.81.41-8.52-2-11.91a28,28,0,0,1-1.88-2.2c-1.33-2.36.76-5.51-.37-8-.5-1.11-1.59-1.89-2-3-.79-2.18,1.2-4.5.88-6.8-.37-2.59-3.56-4.67-2.66-7.11.44-1.2,1.77-1.92,2.14-3.14.66-2.12-1.8-4.78-.27-6.38.53-.56,1.41-.73,1.84-1.37.87-1.28-.72-2.75-1.38-4.15s-.29-3.17-.54-4.75-1.8-3.28-3.23-2.56c.76-2.54-1-9.31-3.65-8.91-1.3.19-2.94.89-3.67-.2-.52-.78,0-1.89-.46-2.71-1.11-2.11-4.65,1.22-6.59-.15-.53-.37-.79-1-1.24-1.47-1-1-2.73-.89-4.12-.43s-.67-1.39-2.11-1.6-2.73-3-1.88-4.15c-1.46.91-5.11,3-6.82,3.21s-3.83-3-4.36-4.68c-.36,2.43-3.84,8.31-5.46,6.47-.65-.74-1.11-1.86-2.09-1.93a2.11,2.11,0,0,0-1.22.39c-1.68,1-3.79,6.34-4.66,8.09l.36-10.68,29.57-5.3,29.26,13.18,6.06,31.13-8.6,43.15"/><path class="cls-5" d="M522.59,140.18c-1.65-1.63-1.25-4.07-1.08-6.17s.26-4.18-1-5.88c-.79-1-1.82-1.66-2.06-3a14.07,14.07,0,0,1,.3-3.88,5.47,5.47,0,0,0-.45-3.29c-.63-1.17-1.85-2-2-3.4-.26-2.51,1.78-4.61.74-7.17-.7-1.75-3.15-3.81-2.35-5.85.43-1.09,1.56-1.73,2-2.81a4.84,4.84,0,0,0-.15-3.29c-.24-.79-.82-2-.36-2.85s1.94-1,2.35-2.21S518,88,517.4,87a7.91,7.91,0,0,1-.87-4.28c-.1-3-2.26-5.14-5.32-4l2,.41A10.84,10.84,0,0,0,512.07,72a4.46,4.46,0,0,0-2-2.19,3.35,3.35,0,0,0-1.63-.2c-.57,0-1.9.64-2.42.28s-.28-1.64-.41-2.29a1.89,1.89,0,0,0-1-1.37,5,5,0,0,0-3.5.13,12.14,12.14,0,0,1-1.66.49c-.81.1-1.1-.48-1.56-1.08a4.28,4.28,0,0,0-4.1-1.44,9.71,9.71,0,0,0-1.41.26l-.17,0c-.43.1-.43.13,0,.1.59-.37.23.21.24-.22s-.63-1.06-1-1.24c-.76-.37-1.22-.41-1.71-1.21a2.54,2.54,0,0,1-.34-2.33c.69-1.19-1.79-.73-2.22-.46a23.42,23.42,0,0,1-5.46,2.78c-.4.13,0,.08-.12,0a2.88,2.88,0,0,1-.57-.32,6.08,6.08,0,0,1-1.08-1.07,9.58,9.58,0,0,1-1.63-2.84c-.34-1-2.71-.29-2.86.56a11.52,11.52,0,0,1-2.48,5,9.49,9.49,0,0,0-.84.85c0,.09.8,0,.8,0s-.52-.54-.4-.4c-.79-.93-1.29-1.86-2.64-1.93-4.55-.22-6.22,6.1-7.77,9.27l2.75-.15.37-10.67-1.62,1,25.87-4.65,3.7-.66-.94-.1,21.12,9.52L519,68l1.7.77c.18.08.59.37.8.36-.32,0-.23-.54-.18.12.05.5.2,1,.3,1.52l1,5.35L525.51,91l1.2,6.12c.18.93.46,1.89.55,2.84,0,0,0-.22,0,.12s-.14.73-.22,1.09l-.82,4.15-2.74,13.75c-1.56,7.81-3.31,15.62-4.68,23.47l-.09.42c-.21,1.08,2.66.63,2.86-.35l5.78-29L530,100.08a4.1,4.1,0,0,0-.07-1.84l-1.26-6.5L525,73l-.6-3.1a9.08,9.08,0,0,0-.32-1.65c-.31-.77-1.64-1.06-2.35-1.38l-16.21-7.31-7.77-3.5a19.23,19.23,0,0,0-3.51-1.55,4,4,0,0,0-1.5.13l-2.71.49-8.58,1.54-16.46,3-1,.18c-.44.08-1.6.36-1.62,1L462,71.47c0,1.17,2.42.53,2.76-.15,1-1.95,1.74-4,2.84-5.85a10.68,10.68,0,0,1,.92-1.38,1.51,1.51,0,0,1,.34-.37c.26-.13-.17-.1.07.13.74.68,1,1.73,2.1,2,3.73.88,6.75-4.83,7.26-7.75l-2.86.56c.8,2.29,2.82,5.39,5.6,5.09s5.57-2.13,7.89-3.58l-2.21-.46a3.81,3.81,0,0,0,1.62,4.73c.63.31.89.24,1.24.89.68,1.27,1.68,1.1,3,.78a2.27,2.27,0,0,1,2.28.38c.59.55.86,1.34,1.62,1.73a5.41,5.41,0,0,0,3.84,0c1.1-.31,2.23-1.18,2.45.4.1.76-.13,1.56.37,2.23a2.4,2.4,0,0,0,1.76.83,8.5,8.5,0,0,0,2.41-.27c.61-.12.51-.25,1.07.27,1.78,1.67,2.6,5.59,2,7.9-.25.95,1.65.54,2,.41-.45.18.26.46.42.63a2.86,2.86,0,0,1,.5.71,4.54,4.54,0,0,1,.4,1.81,10.73,10.73,0,0,0,.47,4,21.39,21.39,0,0,1,1.52,2.72c.38,1.36-1.17,1.54-1.89,2.39-1.44,1.71.12,3.74.27,5.6.17,2.25-2.72,3.19-2.36,5.62.3,2.08,2.28,3.47,2.72,5.51.52,2.37-1.57,4.55-.87,6.94a11,11,0,0,0,1.79,2.75,5.15,5.15,0,0,1,.45,3.74,13.46,13.46,0,0,0-.25,3.23,5,5,0,0,0,1.7,3c3.42,3.61-.79,9.25,2.73,12.73.71.7,3.41-.36,2.65-1.12Z"/><path class="cls-14" d="M522.39,160.06l-2.52.37a1.22,1.22,0,0,1-.78-.06c-.57-.32-.28-1.17-.14-1.81.34-1.49-.54-2.95-1.24-4.31s-1.2-3.12-.25-4.31c.51-.63,1.39-1.07,1.45-1.87.08-1-1.24-1.54-2-2.3a2.56,2.56,0,0,1,1-4s-1.91-1.94-1.41-6,1.52-8.31,1.52-8.31l5.8-3.56Z"/><path class="cls-5" d="M522.63,159.45c-.55.08-1.12.22-1.68.25s-.82-.08-.72-.79a5.44,5.44,0,0,0-.09-2.94c-.63-1.74-2.71-4.2-1.37-6.1.44-.63,1.24-1,1.5-1.75a1.64,1.64,0,0,0-.59-1.72c-.64-.62-1.51-1-1.8-1.86-.18-.57-.14-2.08.57-2.37.25-.1,1.22-.5.83-.91a6.78,6.78,0,0,1-1.41-4.56,42.85,42.85,0,0,1,1.46-8.83c0-.11.18-.87,0-.42-.13.28-.07.08.18,0,.7-.36,1.37-.84,2-1.25l3.43-2.1-2.54.28-1.28,31.59-.18,4.52c0,.55,2.82.15,2.86-.77l1.28-31.59.18-4.51c0-.75-2.29.13-2.54.28l-3.84,2.36c-1,.63-2.15,1-2.42,2.22a43.39,43.39,0,0,0-1.46,9,7,7,0,0,0,1.58,4.82l.82-.91c-1.73.7-3.36,2.68-2.09,4.56.52.78,2,1.26,2.14,2.25s-1.5,1.77-1.81,2.73c-.9,2.77,2.12,4.87,1.91,7.55-.07.85-.66,2,.36,2.51s3.07-.14,4.21-.31c.36,0,1.65-.34,1.66-.83S523,159.4,522.63,159.45Z"/><path class="cls-17" d="M418.4,71c.38.81-.72,1.52-1.61,1.66s-2,.35-2.16,1.24c-.07.55.34,1.08.27,1.63-.21,1.68-3.49.39-4.32,1.87-.62,1.11.82,2.8-.13,3.65-.44.41-1.14.28-1.74.35a2.6,2.6,0,0,0-2.16,2c-.16.76,0,1.62-.37,2.29s-1.56,1-2.41,1.39c-2.2,1.12-2.6,4.07-2.55,6.55s.14,5.32-1.68,7a4.71,4.71,0,0,1-.9-6.18,12.53,12.53,0,0,0,1.22-1.67,1.54,1.54,0,0,0-.24-1.89c-.28-.21-.66-.29-.83-.58-.48-.85,1.16-1.13,1.91-1.75.94-.78.3-2.31-.48-3.25s-1.7-2.18-1.11-3.25,1.95-1.06,2.49-2-.28-2.4,0-3.59c.3-1.6,2.27-2.13,3.88-2.34a2.54,2.54,0,0,1,.95-3.9c.6-.22,1.35-.24,1.73-.75.56-.76-.11-2.06.58-2.71s1.64-.11,2.27-.6c1-.78-.32-2.48.21-3.64.7-1.54,4-1.08,3.8-2.75"/><path class="cls-5" d="M417,71.4c.2.71-.83.62-1.3.75a4.23,4.23,0,0,0-2,1,1.67,1.67,0,0,0-.49,1.44,4.63,4.63,0,0,0,.26,1l0,.17c-.07.21,0,.23.18,0-.14-.41.44.06,0-.09a4.63,4.63,0,0,0-1.59.16,5.34,5.34,0,0,0-1.83.61,2.35,2.35,0,0,0-1.12,2.79c.06.29.16.57.19.86s-.06.92.17.57.13-.09-.19-.11a2.48,2.48,0,0,0-.54.06,5,5,0,0,0-1.26.35,3.77,3.77,0,0,0-2.43,3.34c-.07.87-.09,1.41-.95,1.76a8.06,8.06,0,0,0-2,1.06,5.94,5.94,0,0,0-2,3.16c-.83,3.12.76,7.55-1.74,10.06l2.47-.33a4.37,4.37,0,0,1-1.53-3.84c.19-1.6,1.53-2.34,2-3.76a2,2,0,0,0-.1-1.76c-.15-.24-1.09-.83-1.08-.94a15.22,15.22,0,0,1,1.41-.79,2.28,2.28,0,0,0,1-1.38c.27-1.35-.78-2.44-1.5-3.44-.43-.62-1.07-1.61-.45-2.31.36-.4,1.09-.6,1.52-.94,1.17-.91,1.16-2,.93-3.34-.31-1.84.48-2.4,2.18-2.64.45-.07,2.11-.6,1.52-1.35a2.06,2.06,0,0,1,.08-2.69c.33-.25.95-.26,1.35-.44a3.11,3.11,0,0,0,1.25-.93,2.15,2.15,0,0,0,.34-1.21,2.42,2.42,0,0,0,0-.89l0-.3c-.58.13-.7.17-.37.14a3.59,3.59,0,0,0,2.84-1c1.11-1.23-.71-3.57.91-4.16,1.31-.48,3.28-.9,3.19-2.65,0-.91-2.91-.33-2.85.77,0,.32.09.12-.2.29a7,7,0,0,1-1.2.39,4.67,4.67,0,0,0-2.07,1.29,2.93,2.93,0,0,0-.29,2.58,3.12,3.12,0,0,0,.11.61c-.11.31,0,.42.22.33s.27,0,0,0a5.41,5.41,0,0,0-1.6.31,2.25,2.25,0,0,0-1.64,2.14c0,.48.11,1-.26,1.28s-1.12.36-1.55.62a3.19,3.19,0,0,0-1,4.69l1.52-1.35a8.77,8.77,0,0,0-4.4,1.6c-1.45,1.22-1.07,2.46-.89,4.12s-2,1.78-2.67,3.17c-.78,1.73,1,3,1.69,4.33.4.77.56,1.44-.17,1.94-.55.38-1.19.52-1.62,1.08a1,1,0,0,0-.12,1.27c.49.73,1.41.73,1.09,1.83-.26.86-1.16,1.49-1.57,2.29a5,5,0,0,0-.54,2.1,5.13,5.13,0,0,0,1.77,4.11,2.13,2.13,0,0,0,2.47-.33c2.37-2.38,1.84-5.5,2-8.56a6.82,6.82,0,0,1,1.25-4.22c.95-1.07,2.65-1,3.51-2.24a4.4,4.4,0,0,0,.5-2.23c.12-1,.43-1.38,1.16-1.43,1.31-.09,3.06-.64,3.13-2.19a9.44,9.44,0,0,0-.31-1.75,1.66,1.66,0,0,1,.05-.83c.07-.18-.05,0-.13,0a1.41,1.41,0,0,1,.46,0,5.8,5.8,0,0,0,3.28-.88,1.7,1.7,0,0,0,.77-1.34c0-.44-.32-.9-.27-1.3s.26-.35.73-.44c1.24-.24,3.5-1.14,3-2.79-.27-1-3.13-.22-2.85.76Z"/><path class="cls-18" d="M525.26,144.78l-.32-3.45-36.37-7.75h0c-13.08-4.08-30.79.68-40.77,8.06l-9.14,1.11.08-.15c-11.23-7.11-29.06-7.07-42.24.09l.46,1.4h0c0,.09.12.29.21.59l.42,1.22c2.57,7.79,5.51,16,7.9,18.06,1.6,1.38,6.59,1.75,10.68,1.8,1.55,0,3,0,4,0,1.22,0,12-.4,13.71-2.19s3.93-14.48,4.54-18.48l9.38-1.09c1.4,3,4.72,16,9.49,18.34s28.2-.33,30.15-3.74c1.39-2.44,5.24-11.15,6.1-15.55l1.58-5.7Zm-92.58,17.58c-1.86,1.74-23.36,2.68-26.14.3-2.34-2-6-13.13-7.39-17.3l0-.18c11.82-5.71,27.89-5.78,37.64.21-1.2,6.92-3,15.82-4.09,16.94Zm51.89-4.56c-1.22,2.16-21.64,5.4-26.55,3-3.42-1.68-6-11.18-7.94-16.59,9.76-7,30.51-11.21,42.2-6.83-1.6,7-4.23,15.18-7.71,20.45Z"/><path class="cls-19" d="M432.44,162.2c-1.86,1.74-23.36,2.68-26.14.3-2.34-2-6-13.13-7.39-17.31l0-.17c11.82-5.72,27.89-5.78,37.64.21-1.2,6.91-3,15.81-4.09,16.93Z"/><path class="cls-19" d="M484.57,157.8c-1.22,2.16-21.64,5.4-26.55,3-3.42-1.68-6-11.18-7.94-16.59,9.76-7,30.51-11.21,42.2-6.83-1.6,7-4,14.7-7.71,20.45Z"/><path class="cls-2" d="M538.27,231.9s-17,46.37-61.93,44.51c-36.31-1.5-23.87-32.08-23.87-32.08Z"/><path class="cls-4" d="M530,181.94s-4.78-.62-6.05-3.37c0,0,.54,6.42,6.05,7.34Z"/><path class="cls-20" d="M202.62,348.62c-12.34-8.42-74.36-33.78-74.36-33.78S112.68,335.94,89,328.09a107.4,107.4,0,0,1-39.81-25.25s-7.62,3.23-17.89,7.43A292.87,292.87,0,0,0,29.8,340a288.5,288.5,0,0,0,165,261.2c-1.52-11.47-2.64-22.86-3.62-26.18a243.39,243.39,0,0,0-12-32.66l-3.93-79.06,61.59-10.16S215,357,202.62,348.62Z"/><path class="cls-10" d="M516.65,465.84s20.28,2.78,31.73,24.32c0,0-6.06-31.07-32.67-26.54"/><polygon class="cls-21" points="175.65 463.96 184.81 381.23 180.23 463.96 175.65 463.96"/><path class="cls-12" d="M447.26,190.32c8.75-.61,22.87-2.67,22.87-2.67s-1.39,18.2-21.69,19.62-24.2-16.41-24.2-16.41S438.5,190.94,447.26,190.32Z"/><path class="cls-22" d="M447.17,190.33c4.16-.29,20.89-2.2,20.89-2.2s-4.88,10-19.93,11c-16.33,1.14-21.78-7.95-21.78-7.95Z"/><path class="cls-23" d="M447,191c4.17-.29,16.78-1.91,16.78-1.91s-4.22,5.06-16.71,5.94-16.78-3.45-16.78-3.45Z"/><path class="cls-12" d="M423.22,189.6c.44-.15,2.92.52,5,.19,3.43-.55,5.52-1.65,8-2,4.24-.64,7.07.92,8.92.79s4.44-2.07,8.72-2c2.51,0,8.76.54,12.23.61,2.08,0,4.44-1,4.89-.89.63.12-.24,4.89-23.53,6.52S422.62,189.79,423.22,189.6Z"/><path class="cls-5" d="M448,182.58l1.09,3.89a1.43,1.43,0,0,0,1.31,1c4.24.23,20.39,1,24.19.66.09,0-.2,1.61-.11,1.58l.88-.14c1.4-.4,0-5.08-1.43-5.49a79.33,79.33,0,0,0-10.35-2.39c-2.9-.43-10.91-1.33-14.34-1A1.44,1.44,0,0,0,448,182.58Z"/><path class="cls-5" d="M443.11,183.43l.19,3.67a1.44,1.44,0,0,1-1.05,1.25c-3.86.94-16.49,4-20,4.32H422l-1.14-.14c-1.34-.15-.85-3.17.37-3.81a63.68,63.68,0,0,1,8.15-3.82c2.59-.91,9.16-2.81,12.35-3.06A1.37,1.37,0,0,1,443.11,183.43Z"/></svg>