<svg id="Layer_1" data-name="Layer 1" xmlns="http://www.w3.org/2000/svg" viewBox="0 0 637.33 635.77"><defs><style>.cls-1{fill:#c1e7f6;}.cls-2{fill:#936243;}.cls-3{fill:#232f34;}.cls-4{fill:#653c2c;}.cls-5{fill:#c85743;}.cls-6{fill:#8e3029;}.cls-7{fill:#812a23;}.cls-8{fill:#cd8c2a;}.cls-9{fill:#12100e;}.cls-10{fill:#b05e27;}.cls-11{fill:#de8b26;}.cls-12{fill:#fff;}.cls-13{fill:#643b29;}.cls-14{fill:#31150d;}.cls-15{fill:#f0edf6;}</style></defs><circle class="cls-1" cx="319.06" cy="340.56" r="288.85"/><path class="cls-2" d="M251.33,517.43l5-196.07,41.41-2.93c-15.91,176.41-15.14,175.62-23,202.38h0L274.41,555l-7.63,14.26-9.6,12.58-22.8,13.56s-3.15-1.67,1.19-7.11a124.17,124.17,0,0,1,13.37-13.08l5.21-16.27L252,550.58l-4.22-.25s-1.51,21.46-5.08,25-5.36,3.44-5.36,3.44l-2.82-5,5.25-31.56s4.3-13.36,5.71-16.41A64.63,64.63,0,0,1,251.33,517.43Z"/><path class="cls-3" d="M266.29,219.23l-1.33,12-3.18,28.74-3.87,34.9-3.34,30.05-1.1,9.91-.34,3.09a9.68,9.68,0,0,0-.18,1.61.75.75,0,0,1,0,.21c-.06.51,1.62.19,1.67-.27l1.33-12,3.18-28.73,3.87-34.9,3.34-30.06,1.1-9.91.34-3.08a9.92,9.92,0,0,0,.18-1.62.68.68,0,0,1,0-.2c.06-.52-1.62-.19-1.67.26Z"/><path class="cls-4" d="M454.21,216.92s.83,3.33,2.1,4.57,9.3,6.34,9.3,6.34-9.07-4.13-10.31-5.45-1.09-5.94-1.09-5.94"/><g id="freepik--character-2--inject-2"><path class="cls-2" d="M445.43,181.15,442.8,211.1l-2.15,5.43s.91,16.08,1.52,19.41,9.1,19.47,9.1,19.47L445.47,273l28.9,3.68s3.74-15.73,5.36-17.79a17.54,17.54,0,0,0,1.63-10.13c-.26-3.17-.76-22.28-.76-22.28s6.75-22.86,1.69-22.7a17.8,17.8,0,0,0-3.66,1s-3.83,14.91-5.68,15.58l-3.06-.89s.59-21.49-.07-25.32-2.06-6.31-5.09-6c0,0-2,1.42-1.91,2.42s.05,24.81-1.3,24.69-1.26-2.3-1.26-2.3.67-28.94-.08-30.51a4.4,4.4,0,0,0-5.28-2.67L453,196.08s-.46-13.23-3.12-15A3.62,3.62,0,0,0,445.43,181.15Z"/><path class="cls-5" d="M477.23,269.89,446.9,259l-13.61,45.08L416,244c-2.26-8.43-11.51-20.94-19.74-23.84l-20.11-6.42,16,150.7,4.06,11.4A30,30,0,0,0,411,391.58c12.39,6,25.25,2,34.38-7.91a57.5,57.5,0,0,0,13.79-27.33"/><path class="cls-5" d="M411.6,554.81c-2.42-26.29-5.6-52.49-9.93-78.44-1.45-9.13-4.25-18.05-6.57-27-1.3-5-2.06-10.14-3-15.24-.87-4.92-2.64-9.81-3.15-14.78a43.87,43.87,0,0,1,.29-10.8c8.79-59.6,5.3-103.32,5.56-112.23.36-12.8-16.55-81.9-16.55-81.9l-15.58-4.94-9.28-1.9-.72-.42a6.11,6.11,0,0,0,0,1.67l.12.89a31.27,31.27,0,0,1-24.56,15.83,75.45,75.45,0,0,1-10.71.11c-11.71-.72-20.53-6.38-27.33-15.93l-.22-3.85-21.95,6.31L221.7,227.78l26,172-4,9.1s-28.11,64.38-37.15,144.34c-3.34,29.47,41-18.26,47.24,30.66C333.64,566.28,362.82,617,411.6,554.81Z"/><path class="cls-6" d="M420.27,611.63c-3.74-32.18-14.22-106.18-17.5-126.89-22.51,9-47.6,13.08-70.76,13.46a234,234,0,0,1-57.51-6.3c-17.92-4.28-35.31-11.29-53.76-12.33a538.56,538.56,0,0,0-14.21,75.13C205,568.61,205,586.65,206.14,607a289.82,289.82,0,0,0,214.13,4.67Z"/><path class="cls-5" d="M243.26,320.12,223.7,227.78s-16.39,4.16-25.76,32.65c-8.14,30.48-21.22,128.89-20.1,148.56s16.57,130.93,16.57,130.93l37.69-8.22-5.43-128.78Z"/></g><path class="cls-2" d="M241.77,616.63a122.86,122.86,0,0,0-13-12.77L223.64,588l2.07-8.14,4.11-.25s1.48,20.95,5,24.38,5.23,3.36,5.23,3.36l2.75-4.91-5.12-30.8s-4.2-13-5.57-16a63.32,63.32,0,0,0-5.68-8.13L226.08,533l-25.93,5.66c1,4.22,1.9,7.33,3.3,12.13l.41,33.34,7.45,13.92,9.37,12.28,22.25,13.24S246,621.94,241.77,616.63Z"/><path class="cls-7" d="M393.69,368.86c1-9.7-1.09-7.5,1.13-12.24s22-15.32,14.41-43.49c-3.73-13.86-11.83-52.25-11.83-52.25s10.45,36.81,12.87,46.63,4.77,27.69-2.89,37.16-9.32,9.61-10.38,12-2.08,15.6-2.08,15.6Z"/><path class="cls-7" d="M434.06,304.08s-15.53,35.67-16.54,48.81l-1.59-3.24S425.14,312.89,434.06,304.08Z"/><path class="cls-7" d="M238.11,345.83c3-15.24,5.15-44.67,5.15-44.67,2.22-31.2-9.52-50.7-9.52-50.7S249.59,270,246,312.3l-5.83,37.84Z"/><path class="cls-4" d="M444.46,209.69l6.59-10.26-1.17.41a5.76,5.76,0,0,1,3.27,3.29,10.63,10.63,0,0,1,.18,5.68,49.36,49.36,0,0,1-1.15,5.4,15.92,15.92,0,0,0-.95,3.66l-.3,6a.32.32,0,0,0,.16.32,27.37,27.37,0,0,1,14.14,17c.17.61,1.69.2,1.52-.41a27.17,27.17,0,0,0-7.55-12.43,31.65,31.65,0,0,0-4.08-3.3,9,9,0,0,0-2.57-1.54,2.12,2.12,0,0,1-.21-.11c-.17-.06,0,.43.12.2a7.75,7.75,0,0,0,.1-1.93c.08-1.57.05-3.19.24-4.75,0-.21,0,0,.11-.41s.39-1.08.56-1.63a42,42,0,0,0,1.65-8c.33-3.22-1-6.9-4.33-8a1.14,1.14,0,0,0-1.17.41L443,209.59c-.42.65,1.12.59,1.44.1Z"/><path class="cls-4" d="M458.6,218.35c6-.1,12.65,2,17.08,6.11.41.38,1.84-.2,1.41-.61a24.47,24.47,0,0,0-11.46-5.65,27.92,27.92,0,0,0-6.44-.75c-.3,0-.87.09-1,.42s.11.49.42.48Z"/><path class="cls-2" d="M351.44,203.3c-.61-2-.07-22.78-.07-22.78l-30.79,4.74-30.8-4.74s.62,23,0,24.95-18.58,6.21-18.58,6.21,9.38,20.26,49.38,20.26,47.95-20.26,47.95-20.26S352.06,205.25,351.44,203.3Z"/><path class="cls-4" d="M289.86,181.74c.48.36,4.05,5.08,4.56,5.44,12.64,9,14.53,11.4,25.45,11.84,10.92-.44,15.61-1.94,27.36-12.89,4-3.69,3.09-4.92,4-5.61C331.56,180.47,309.51,181.6,289.86,181.74Z"/><path class="cls-2" d="M270,120.16s-5.91-9.06-9.26-8.7c-2,.22,2.67,4.81,3.26,10,.78,7-4.36,7.84-2.75,11.77s3.72,17.65,9.12,17.06c2.13-.23,4.33-5,4.33-5S271.73,126.35,270,120.16Z"/><path class="cls-8" d="M268.42,145.92c-2.36.26-4.72,1.66-5,4.2a4.14,4.14,0,0,0,.81,3,3.63,3.63,0,0,0,1.93,1.35,6,6,0,0,0,5.19-.81c.26-.18.2-.36-.11-.39a1.92,1.92,0,0,0-1.16.31,2.2,2.2,0,0,1-1.34.46,4.15,4.15,0,0,1-1.42-.3,3.09,3.09,0,0,1-1.44-1.06,4,4,0,0,1-.08-4.76,3.77,3.77,0,0,1,1-.92,2.47,2.47,0,0,1,.49-.24c.14-.05-.11,0,0,0l.21-.06c-.14,0,.26,0,.21,0a1.71,1.71,0,0,0,1.1-.4c.22-.28-.19-.32-.4-.3Z"/><path class="cls-2" d="M368.34,119.89s5-9.62,8.33-9.6c2.05,0-2.17,5.06-2.23,10.28-.07,7,5.13,7.36,3.92,11.44s-1.92,17.93-7.35,17.89c-2.15,0-4.81-4.51-4.81-4.51S367.22,126.22,368.34,119.89Z"/><path class="cls-2" d="M375.63,125.57a0,0,0,0,0,0,0c-1.2,6.07-2.68,12.47-3.7,19.8-2.7,19.35-8.46,28.24-21.6,36.79-13.77,9-17.91,12.45-29.8,12.89-11.89-.44-16-3.93-29.8-12.89-13.14-8.55-18.9-17.44-21.59-36.79-.6-4.31-1.36-8.3-2.12-12.08-.57-2.81-1.14-5.52-1.67-8.16a.43.43,0,0,0,0-.12v0c-1.9-9.71-3.05-18.67-.44-29.49,2.68-11.2,11.93-25.1,26-33.87h0a55.62,55.62,0,0,1,29.61-8.56c30.53,0,51.4,24.62,55.66,42.43C378.83,106.55,377.58,115.65,375.63,125.57Z"/><path d="M324.46,150.67a5.31,5.31,0,0,1-5.63-.27c-.35-.25-1.55,0-1.05.38a7.45,7.45,0,0,0,7.66.23c.21-.13.18-.32-.08-.41a1.17,1.17,0,0,0-.9.07"/><path d="M317,150.24a11.94,11.94,0,0,0-4.14-1,.89.89,0,0,0-.63.2c-.12.1-.15.25,0,.34a4.65,4.65,0,0,0,2.27.52.89.89,0,0,0,.7-.28c.13-.19-.11-.31-.3-.31a3.6,3.6,0,0,1-1.83-.42l-.62.54a10.4,10.4,0,0,1,3.69.93.92.92,0,0,0,.76-.09c.15-.09.32-.3.09-.41"/><path d="M311.36,150.42a4.57,4.57,0,0,1-3.76-2c-1-1.88-.07-4.13,1.69-5.34.19-.13.09-.3-.1-.35a1,1,0,0,0-.76.19,4.88,4.88,0,0,0-2.29,4.53,4.15,4.15,0,0,0,3.25,3.3A6.86,6.86,0,0,0,311,151c.22,0,.6-.07.7-.27s-.08-.28-.29-.29"/><path d="M326.13,150.24a11.94,11.94,0,0,1,4.14-1,.89.89,0,0,1,.63.2c.12.1.15.25,0,.34a4.65,4.65,0,0,1-2.27.52.89.89,0,0,1-.7-.28c-.13-.19.11-.31.3-.31a3.63,3.63,0,0,0,1.83-.42l.62.54a10.4,10.4,0,0,0-3.69.93.92.92,0,0,1-.76-.09c-.15-.09-.32-.3-.09-.41"/><path d="M331.74,150.42a4.59,4.59,0,0,0,3.77-2c1-1.88.07-4.13-1.69-5.34-.19-.13-.09-.3.1-.35a1,1,0,0,1,.75.19,4.87,4.87,0,0,1,2.3,4.53,4.15,4.15,0,0,1-3.25,3.3,6.86,6.86,0,0,1-1.56.25c-.22,0-.6-.07-.71-.27s.09-.28.29-.29"/><path class="cls-9" d="M335,107.62c0,1.09,0,2.2,0,3.3l0,2.52c3.05-.72,5.67-1.19,7.64-1.5,4.18-.66,6.31-1,8.74-.62a24.72,24.72,0,0,1,5.56,1.59,14.76,14.76,0,0,1,2.93,1.41c2.06,1.36,2.91,2.9,3.25,2.76s-.21-1.48-.26-1.61a13.08,13.08,0,0,0-4.4-5.57,17,17,0,0,0-5.65-2.36c-2.41-.55-9.05-.93-17.87.08"/><path class="cls-9" d="M345.55,120.9a3.74,3.74,0,0,1,4,.73,3.63,3.63,0,0,1,1.09,1.69,3.75,3.75,0,0,1-.88,3.39,3.48,3.48,0,0,1-4,.69,3.82,3.82,0,0,1-1.88-4.44,3.42,3.42,0,0,1,1.61-2.06"/><path class="cls-9" d="M334.33,126.06s7.54-5.48,11.39-5.84c5.62-.51,12.55,2.37,14.55,4.94,0,0-9.17-4.3-13.13-3.83C343.37,121.78,334.33,126.06,334.33,126.06Z"/><path class="cls-9" d="M307.81,107.73l0,3.31,0,2.52c-3.06-.72-5.67-1.19-7.65-1.5-4.17-.66-6.31-1-8.74-.62A24.89,24.89,0,0,0,285.8,113a14.94,14.94,0,0,0-2.92,1.41c-2.07,1.36-2.91,2.89-3.25,2.76s.2-1.48.26-1.62a13,13,0,0,1,4.4-5.56,17,17,0,0,1,5.65-2.36c2.4-.55,9.05-.93,17.87.07"/><path class="cls-9" d="M297.22,121a3.74,3.74,0,0,0-4,.72,3.68,3.68,0,0,0-1.09,1.7,3.75,3.75,0,0,0,.88,3.39,3.47,3.47,0,0,0,4,.69,3.83,3.83,0,0,0,1.89-4.45,3.39,3.39,0,0,0-1.61-2"/><path class="cls-9" d="M308.44,126.18s-7.54-5.48-11.39-5.84c-5.63-.51-12.56,2.37-14.55,4.94,0,0,9.17-4.3,13.12-3.83C299.4,121.9,308.44,126.18,308.44,126.18Z"/><path class="cls-10" d="M256.09,74.51s25.15-12.27,57.32-8.19,47.63,24.41,53.07,38.9a103.79,103.79,0,0,1,5.95,29.1s7.9,4,13.65-25.44c8.38-42.94-38.59-80.82-49-80.82S271,26.49,256.09,74.51Z"/><path class="cls-10" d="M261.86,62s-5.39-33.85,17.93-40.19S352.22,4.08,366.58,35Z"/><path class="cls-11" d="M260.65,131.5a20.33,20.33,0,0,1-5.13-8.79c-2.6-9.14-7.13-28-3-36.41,1.82-3.65,2.55-14.53,2.72-17.73.91-16.76-3.07-11.64,20.49-30.67s27.63-13.78,63-11.52,45.47,13.72,42.74,46.83c0,0-47.58-13.68-70-1.55s-46.6,51.2-45,65.26C266.56,137.36,263.34,134.21,260.65,131.5Z"/><path class="cls-10" d="M251.36,103.16s36-46,78-46.41c0,0-53.83-7-77.7,31.85Z"/><path class="cls-10" d="M381.17,57.89s-41.56-15.11-57.49-16.41S374,42.7,380.4,49.93Z"/><ellipse class="cls-12" cx="321.55" cy="164.63" rx="13.99" ry="2.94"/><path class="cls-8" d="M372.86,147.05a4.05,4.05,0,0,1,3.92,3.2,3.93,3.93,0,0,1-.37,2.65,3.31,3.31,0,0,1-.69,1l-.18.14s0,0-.08.05l-.24.14a3.9,3.9,0,0,1-.42.2l-.16.05c.15-.05-.15,0,0,0a1.51,1.51,0,0,1-.28.05,3.5,3.5,0,0,1-2-.49c-.29-.15-.78,0-1.06.11-.07,0-.73.31-.5.44a5.53,5.53,0,0,0,4.44.21,5.38,5.38,0,0,0,2.1-1.14,4.2,4.2,0,0,0,.11-5.78,4.64,4.64,0,0,0-3.46-1.42,2.21,2.21,0,0,0-1.17.31c-.24.16-.24.32.09.32Z"/><path class="cls-13" d="M321.87,161.73c-8,0-21.06-.91-21.06-.91s2.43,15.46,21.06,15.46,21.07-15.46,21.07-15.46S329.91,161.73,321.87,161.73Z"/><path class="cls-14" d="M322,161.73c-3.82,0-19.22-.62-19.22-.62s5.09,8.21,18.91,8.21c15,0,19.39-8.1,19.39-8.1Z"/><path class="cls-15" d="M322.12,162.29c-3.82,0-15.45-.63-15.45-.63s4.18,4.07,15.65,4.07,15.1-3.95,15.1-3.95Z"/><path class="cls-13" d="M343.78,159.67c-.4-.09-2.63.62-4.52.46-3.17-.26-7-1.07-9.29-1.24-3.91-.29-6.39,1.21-8.1,1.21s-4.18-1.5-8.09-1.21c-2.3.17-6.12,1-9.29,1.24-1.89.16-4.12-.55-4.52-.46-.57.14.53,4.17,21.91,4.17S344.35,159.81,343.78,159.67Z"/><path class="cls-7" d="M364.61,350.14a49.6,49.6,0,0,0-22.21-4.37c-12.27.58-16.07,2.16-16.07,2.16s16.77-.15,21.62-.8S364.61,350.14,364.61,350.14Z"/></svg>