<svg id="Layer_1" data-name="Layer 1" xmlns="http://www.w3.org/2000/svg" viewBox="0 0 637.33 635.77"><defs><style>.cls-1{fill:#c1e7f6;}.cls-2{fill:#936243;}.cls-3{fill:#ccb631;}.cls-4{fill:#852;stroke:#852;stroke-width:1.11px;}.cls-11,.cls-20,.cls-22,.cls-26,.cls-27,.cls-4{stroke-miterlimit:10;}.cls-5{fill:#5e5f5e;}.cls-6{fill:#843324;}.cls-7{fill:#7d6c2b;}.cls-8{fill:#653c29;}.cls-9{fill:#12100e;}.cls-10{fill:#868686;}.cls-11,.cls-27{fill:none;}.cls-11{stroke:#000;stroke-width:1.29px;}.cls-12{fill:#263238;}.cls-13,.cls-29{fill:#fff;}.cls-13{opacity:0.14;}.cls-14{fill:#622514;}.cls-15{fill:#643b29;}.cls-16{fill:#31150d;}.cls-17{fill:#f0edf6;}.cls-18{fill:#745145;}.cls-19{fill:#44a0af;}.cls-20,.cls-22,.cls-23{fill:#14110f;}.cls-20,.cls-22{stroke:#151210;}.cls-20{stroke-width:0.42px;}.cls-21,.cls-26{fill:#653c2c;}.cls-22{stroke-width:0.51px;}.cls-24{fill:#151210;}.cls-25{fill:#221e1f;}.cls-26,.cls-27{stroke:#653c2d;}.cls-26{stroke-width:1.08px;}.cls-27{stroke-width:1.21px;}.cls-28{fill:#24170e;}.cls-30{fill:#1d6759;}.cls-31{fill:#653c2d;}</style></defs><circle class="cls-1" cx="319.06" cy="340.56" r="288.85"/><path class="cls-2" d="M420.8,176.31s6.38,36.23,19.45,60.4c1.82,3.37,26.19,14,26.19,14l-31.81,15.48c-18.14,6.75-60,11.36-78.94,7.23l-16.34-7.58s18.51-6.67,18.86-11.17-7.35-37.24-7.35-37.24"/><g id="freepik--character-1--inject-1332"><path class="cls-2" d="M354.18,258.93,446.24,246l14.16,32.84S439.22,304,436.87,305.29s-57.95,20.51-57.95,20.51-67.25-16.64-66.35-16.55S354.18,258.93,354.18,258.93Z"/></g><path class="cls-3" d="M317.39,628.93c101.56,0,190.53-54.23,239.67-135.12-10.11-19.91-18.21-34.36-18.21-34.36L467.71,249.18,453.49,243s-26.4,42.41-68.29,48l-8.05.61c-33.38-5.69-23.34-30.57-21.81-34L316.81,279.2,277.43,380.94c-4.71,9.19-.85,64.36,11.92,85.35l18.5,20.38L299.07,536s-15.22,19.4-10.26,36c11-1.41,5.89,30.56,3.87,56C300.78,628.68,309.1,628.93,317.39,628.93Z"/><path class="cls-3" d="M336.18,272.21s-46.3,3.17-59.77,30.8S229,423.4,229,423.4l-68.77-2-82,.59S149,479.16,180,495.11c34.54,20.65,86.91,34.14,105.39,28,15.34-5.12,41.67-18.61,51-53l7.46-26.4Z"/><path class="cls-4" d="M227.52,408s12.85,13.39,21.18,25C248.7,433,236.78,410.44,227.52,408Z"/><path class="cls-5" d="M434.17,67.73c-5.86-6.37-14.18-10.06-22.1-6.8C410.38,44.87,393.67,37.41,377.6,39c-8.2,1.19-16.18,6-24.28,4.25-5.06-1.07-9.21-4.39-13.75-7C320.6,25.6,295.3,44,282.62,61.67s-6.78,34.84,3.31,54.09c4.7,9,4.79,14.14,7.14,24,2.21,9.34,10.2,26.21,11.51,35.6s-12.14,21.12-2.54,20.65l101.8-25.4c15.74,1.07,25-4.83,31.09-19.38,3.94-9.85,2.18-10.05,1.51-20.62-.53-13.86,12.08-25.95,9.5-39.58C444.59,82.48,439.65,74.49,434.17,67.73Z"/><path class="cls-6" d="M446.93,65.52s-38-13.15-83.46-2.14-64.34,42.14-69.8,63.43,5.85,41.49,5.85,41.49-11.12,4.6-24.09-35.9C256.52,73.35,313.65,29,328.59,27.27S417.78.39,446.93,65.52Z"/><line class="cls-4" x1="459.9" y1="424.35" x2="458.5" y2="423.72"/><path class="cls-3" d="M354,257.83s-59,20.52-65.17,40.5c-9.44,30.35-13.59,93.85-13.59,93.85l28.23-1.84Z"/><path class="cls-7" d="M280.16,449.61c-1.11-7.28-.34-14.86.11-22.16.5-8.09,1.37-16.15,2.56-24.18a502.91,502.91,0,0,1,10.28-49.34c2-7.84,4-15.65,6.1-23.45-2.9,14.58-5.06,29.3-8.33,43.81-3.35,14.87-6.47,29.32-7.77,44.52-1.53,17.91-3.42,26.08,2.9,39.67s20.47,28.39,20.47,28.39l-1.21,1.43S282.3,463.8,280.16,449.61Z"/><path class="cls-8" d="M357,245.49s7.52-2.3,12.62-4.5,14.23-3.12,35.81-27.62c0,0-3.66,27-34.11,36.82,0,0-7.83,2.78-13.31,2.21Z"/><path class="cls-2" d="M307.7,90.64a3.79,3.79,0,0,1-.23.61l.3-.32ZM294.59,97l.06.24c.18-.22.36-.45.51-.67C295.09,96.23,294.59,97,294.59,97Zm125.63,85.41.63-5.17c8.06,7.5,17.41-1.37,15.69-13.87,2.21-6.83,2.88-28.29-3.41-33.72l-.79-.82c-4.11-2.1-10.73-2.11-12.51,3.15-.48,2.23.74,4.68.25,6.91-.42,2.53-3.69-3-4.8-.64,0,0-3.46-.82-4.39-6.37s3.08-48.36-8.43-53.94c0,0-15.45,8.41-21.16,3.63l-1.7-.21c-.94.21-1.5.64-2.45.85-.06-.28.19-.64.06-1.22a10.45,10.45,0,0,1-4,1.21c.25-.35.82-.79.75-1.08a16.76,16.76,0,0,1-3.77.86c.25-.36.75-1.08.68-1.37-1.44.94-2.51.57-3.77.86a2.22,2.22,0,0,0,.37-1.3c-1.13.86-2.45.86-3.71,1.15.25-.36.43-1,.68-1.37-1.44.93-2.51.57-3.77.85-.31.08.5-.72.43-1a12.07,12.07,0,0,1-3.08,1c-.06-.29.5-.72.44-1-1.76,1-2.83.64-4.09.93L355,79.3a4.58,4.58,0,0,1-3.63,1.43c.24-.36.74-1.08.67-1.37a6.34,6.34,0,0,1-4.89,1.72c.31-.07.74-1.08.68-1.37-1.31,1.51-2.63,1.51-4.21,1.87.25-.36.44-1,.94-1.73-1.63,1.58-3.7,2.66-5.78,2.22.31-.07.43-1,.37-1.3-1,1.44,1-.54-.6-.47,0,0-3.36,2-3.42,1.69-1.06,1.15,2.2-5.65.63-5.29.18-.65-8.89,2.58-8.4,1.86-1.31,1.51-1.12.84-3.07,1,0,0-5.75,4.94-5.5,4.58-1.24,1.8-2.23.75-4.18.89.25-.36,1.41.95,1.66.59-1,1.44-.91-.1-2.48.26-.06-.29-5.56-.71-5.63-1-1.37,1.22-.83,1.23-2.72,1.66-.06-.29-.46,3.44-.21,3.08-1,1.44-1.15.48-2.79.55l-1.31,1.43c-1.25,1.79.77.68-1.18.82-.05-.2,7.3-.71,7.5-1.15a12.08,12.08,0,0,1-3.64,2.7c-.07-.29.12-.94.05-1.23a6.48,6.48,0,0,1-4.64,2.87c.32-.07.5-.72.44-1-1.25,1.79-2.94,3.09-5,2.65v0a10.16,10.16,0,0,1-3.93,3.07,1.27,1.27,0,0,1,.36-1.3l-1.25.29c-1.05,2.66-5.37,2-5.34,5,0,0-4.05,22-1.31,32.63s8.8,28.36,10.16,32.91a95.34,95.34,0,0,1,2.71,14.58c1,9.55,1.54,12,6,20.83,4.28,8.53,7.63,12.85,14.54,19.47,7.2,6.9,16.46,12.22,25.29,17.49,5.81,3.47,13.36,5.64,20.41,4.38,19.68-3.5,36-21.08,45.6-36.43"/><path d="M337.81,193.23a9.22,9.22,0,0,0,8.07-2.37c.44-.44,2.24-.52,1.61.09a13,13,0,0,1-11,3.05c-.34-.09-.33-.33,0-.53a2.06,2.06,0,0,1,1.33-.24"/><path d="M348.35,190.06a15,15,0,0,1,4.76-2.39,1.14,1.14,0,0,1,.83.07c.18.09.25.26.08.41a5.61,5.61,0,0,1-2.63,1.26,1.08,1.08,0,0,1-.93-.13c-.21-.2.05-.42.28-.47a4.39,4.39,0,0,0,2.11-1l.92.48a13.39,13.39,0,0,0-4.26,2.16,1.11,1.11,0,0,1-.94.11c-.21-.07-.47-.28-.22-.48"/><path d="M355.32,188.71c2-.51,4.22-1.94,4.88-3.69,1-2.65-1.25-6-4.13-6.87-.31-.1-.21-.34.05-.47a1.72,1.72,0,0,1,1.14,0,7.24,7.24,0,0,1,4.79,5.69c.14,2.09-1.49,3.94-3.79,5.08a12,12,0,0,1-2.19.83c-.31.07-.89.11-1.09-.1s0-.38.34-.45"/><path d="M333.84,193.05a.27.27,0,0,0-.34-.33,2.4,2.4,0,0,1-1.7-.16l-.39.78a7.35,7.35,0,0,1,3.45.41.58.58,0,0,0,.63-.25c.11-.13.19-.42,0-.51"/><path d="M335.45,193a8.15,8.15,0,0,0-3.86-.44.69.69,0,0,0-.49.37.3.3,0,0,0,.11.41"/><path d="M329.67,194.28a4.29,4.29,0,0,1-4.1-1.65,6.12,6.12,0,0,1,.11-6.88.24.24,0,0,0-.19-.4.78.78,0,0,0-.66.38,6.81,6.81,0,0,0-.9,6,4.8,4.8,0,0,0,4,3.33,5,5,0,0,0,1.54,0c.2,0,.54-.21.58-.47s-.16-.33-.35-.3"/><path class="cls-9" d="M307.28,157.93a5,5,0,0,0-4.94,2,4.91,4.91,0,0,0-.64,2.37,4.65,4.65,0,0,0,2,3.89,4.34,4.34,0,0,0,5-.25,4.77,4.77,0,0,0,1.06-5.95,4.23,4.23,0,0,0-2.53-2.06"/><path class="cls-9" d="M324.18,160.21s-10-4.76-14.45-4.21c-6.48.81-13.49,6.1-15,9.75,0,0,9.14-7.6,13.72-8C312.81,157.3,324.18,160.21,324.18,160.21Z"/><path class="cls-9" d="M360.31,146.58c1.54-1.3,4.4-1.69,5.77-.93a4.52,4.52,0,0,1,1.8,1.76,4.67,4.67,0,0,1-.14,4.38,4.33,4.33,0,0,1-4.65,1.94,4.77,4.77,0,0,1-3.53-4.9c0-.36-.47-.94.77-2"/><path class="cls-9" d="M350.35,153.75s8.2-8.27,12.89-9.48c6.84-1.77,16,.4,18.94,3.19,0,0-12.18-3.48-17-2.11C360.65,146.66,350.35,153.75,350.35,153.75Z"/><path class="cls-10" d="M315.2,134.49c.57,1.19,1.14,2.38,1.72,3.57l1.29,2.73c-3.4.7-6.23,1.46-8.35,2.08-4.47,1.31-6.75,2-9,3.56a25.9,25.9,0,0,0-4.66,4.4,15.4,15.4,0,0,0-2.15,2.94c-1.33,2.45-1.36,4.52-1.76,4.53s-.58-1.68-.6-1.86a15.38,15.38,0,0,1,1.43-8.11,17.94,17.94,0,0,1,4.34-5.27c2.08-1.76,8.45-5.38,17.7-8.57"/><path class="cls-10" d="M341.86,130c.25,1.29.49,2.59.74,3.89l.57,3c3.45-1.5,6.43-2.61,8.69-3.4,4.77-1.66,7.22-2.5,10.16-2.58a28.9,28.9,0,0,1,6.89.69,17.7,17.7,0,0,1,3.75,1c2.72,1.16,4,2.79,4.41,2.56s-.56-1.7-.65-1.85a15.64,15.64,0,0,0-6.37-5.62,20.25,20.25,0,0,0-7.16-1.58c-2.94-.14-10.85.82-21,3.89"/><path class="cls-11" d="M421.58,155.12c4.36-17.71,9.34-18.64,9.34-18.64s4,3.3,3.56,11.26"/><path class="cls-11" d="M424.4,156.21c4.41-1.17,2.32,7.76,3.88,9.53s2.35-3.73,1.88-10.14c0,0-1.37-8.53-5.86-9.41"/><path class="cls-8" d="M351.34,113.23s-10.07,7.23-21.23,8.71-25.1,1.89-25.1,1.89"/><path class="cls-10" d="M289.1,90.31c.11-.23-.05.09,0,0,2.2-4.3,3.35-8.7,5.73-12.89s4.66-7.86,7.22-11.83c.15-.24,3.78-.86,3.93-1.1l.17-.24c.08-.13.16-.25.25-.37.19-.29.38-.58.58-.86C323.15,53,343.86,48.87,363.53,51.91A70,70,0,0,1,422,131.79c-.51,3.27,1.91,6.79-.9,9s-3.3,1.39-6.51-.2a23.21,23.21,0,0,1-7.7-7.28c-10.14-14-15.57-37.73-14.4-54.94-1.57,3.44-16.13,2.22-19,4.73a27.11,27.11,0,0,1-38.27-2.29,40.22,40.22,0,0,1-3.5,5.85c-12.12,16.93-29.7,26.84-46.8,18.61C284.35,105,287.73,93,289.1,90.31Z"/><path class="cls-12" d="M422.32,137.59l-.89-3.6-42.36,1.9h0c-14.27-2.31-31.86,5.46-41,14.81l-9.31,2.58.05-.16c-12.83-5.79-31.34-3-43.84,6.6l.71,1.42h0c0,.09.17.29.31.59l.64,1.22c4,7.85,8.38,16.09,11.19,17.9,1.9,1.21,7.13.84,11.39.25,1.61-.21,3.07-.46,4.12-.64,1.26-.23,12.42-2.27,13.87-4.43s1.69-15.93,1.66-20.26l9.56-2.6c1.95,2.94,7.55,16.19,12.89,18s29.22-4.7,30.69-8.61c1-2.79,2.55-12.53,2.71-17.32l.71-6.28ZM325.79,175c-1.64,2.12-23.81,6.44-27.09,4.34-2.77-1.77-8.42-13-10.54-17.17l-.05-.18c11.33-7.87,28-10.42,39.12-5.58-.1,7.5-.54,17.2-1.45,18.55Zm53.13-12.84c-.91,2.47-21.58,9.05-27.08,7.24-3.83-1.25-8.09-10.9-11-16.33,9-8.93,28.76-16.26,41.62-13.43a126.92,126.92,0,0,1-3.55,22.52Z"/><path class="cls-13" d="M325.51,174.79c.91-1.35,1.34-11,1.44-18.55-11.11-4.84-27.78-2.29-39.11,5.58l0,.18c2.13,4.21,7.78,15.4,10.55,17.18,3.27,2.09,25.44-2.23,27.09-4.35Z"/><path class="cls-13" d="M378.92,162.13a126.92,126.92,0,0,0,3.55-22.52c-12.86-2.83-32.64,4.5-41.62,13.43,2.9,5.43,7.16,15.08,11,16.33,5.5,1.81,26.17-4.77,27.08-7.24Z"/><path class="cls-14" d="M441.11,136.18s31.26-30,14.25-55.25c-3.26-4.84-3.3-3.09-4.08-7.57-4-23.43,5-19-33.34-41.71s-43.3-21.57-95.39-10.34c-26.87,5.78-40.15,19.19-45.18,37.42-2.26,8.19-2.86,17.36-2.26,27.25,0,0,53.27-23.51,88.77-10.28s78.22,66.4,73.75,86C436.38,167.17,441.11,136.18,441.11,136.18Z"/><path class="cls-6" d="M459,107.45S402.37,45.41,339.34,52c0,0,76.35-19.05,118.33,31.55L459.09,90a36,36,0,0,1,.54,12.2Z"/><path class="cls-3" d="M453.49,243s69.78,5.82,92.94,35.79,51.72,167.06,49.82,187.18c-7.09,75.09-133,143.81-133,143.81L425.4,559.48l93.71-120-15.83-80.82Z"/><path class="cls-7" d="M476.42,319.47c.14,14,32,129.08,36.29,143.77l-2.84-.65c-3.54-12.62-29.62-111.5-35.08-135.8-5.17-23,11.22-44.28,11.22-44.28C474,307.9,476.42,319.47,476.42,319.47Z"/><polygon class="cls-7" points="509.81 460.78 512.52 461.84 426.17 556.34 424.99 555.12 509.81 460.78"/><polyline class="cls-2" points="425.63 559.83 400.1 577.94 408.34 611.13 454.1 596.7"/><path class="cls-7" d="M509.9,463.22s13.9,7.63,21.51,14.87c0,0-12.67-15.53-20.92-17.21Z"/><path class="cls-8" d="M332,128.05s-4.8,10.29,4.92,13.82l-1.54-3.28a37.6,37.6,0,0,1-2.39-6.67Z"/><path class="cls-8" d="M322.17,131.68s8.72,7.27,1.43,14.6l.18-2.29a28.7,28.7,0,0,0-.93-9.85Z"/><path class="cls-15" d="M348.43,203c10.22-2.32,26.49-7.33,26.49-7.33s1.73,22-22,27.36-31.59-15.23-31.59-15.23S338.21,205.27,348.43,203Z"/><path class="cls-16" d="M348.33,203c4.86-1.1,24.24-6.4,24.24-6.4s-3.91,12.77-21.48,16.75c-19,4.31-27.17-5.56-27.17-5.56Z"/><path class="cls-17" d="M348.29,203.79c4.86-1.1,19.44-5.31,19.44-5.31s-4.05,6.81-18.62,10.11-20.43-1.09-20.43-1.09Z"/><path class="cls-15" d="M319.94,206.43c.48-.25,3.53.09,5.9-.67,3.93-1.28,6.2-3,9.06-3.86,4.88-1.52,8.51-.17,10.67-.66s4.85-3.27,9.92-4c3-.42,10.43-.94,14.53-1.49,2.46-.32,5.07-1.95,5.62-1.94.75,0,.62,5.89-26.56,12S319.26,206.77,319.94,206.43Z"/><path class="cls-18" d="M563,406.36l.22,0-.22-.12A.12.12,0,0,0,563,406.36Z"/><path class="cls-18" d="M563.7,406.4l.29,0A.2.2,0,0,0,563.7,406.4Z"/><path class="cls-2" d="M105.58,290.08s15.74,35.05,15.57,81.1c0,3.79-42.7,36.07-42.7,36.07l93-5,68.22-19.73s-47.39-16.68-49.33-20.72-3.6-32.06-3.6-32.06"/><path class="cls-19" d="M275.62,626l-16.3-104.15s-2.4-6.7-1-26.21c1.61-22.94-5.74-45.74-5.74-45.74L242.28,380.8c-5.08-.3-43.35-14.77-43.35-14.77s-3.78,26.43-31.16,29.09S121,366.68,121,366.68c-18.19,4.83-51.11,13.73-51.11,13.73L84.06,440l.11,67.7C123.23,563.48,192,614.23,275.62,626Z"/><g id="freepik--character-3--inject-2"><path class="cls-12" d="M244.1,440.72a43.94,43.94,0,0,1-5-30.22c.57,0,.25,6.92,1.67,15.25S244.64,440.5,244.1,440.72Z"/></g><path class="cls-20" d="M113,311.38s-7.06,2.12-13.63-.52-11.63-9.06-11.19-12.37a7.1,7.1,0,0,0-1.2-5.26s-5.36-2.12-6-5.35a38.46,38.46,0,0,1-.15-8.68l16.15-4.26,13.18-3.55,3.6,40.57Z"/><path class="cls-21" d="M132.16,331s1.86,18.43,41.78,24.79c0,0,8.36,1.26,14.81-1.58l-.1-5Z"/><path class="cls-22" d="M211.1,223.22h0c.71-7.93.67-12.74-2.28-17.67-2.09-3.48-9.21-6.27-9.21-6.27s-3.3-10.93-8.09-8.53c0,0-7.46-14.06-21.55-7.75,0,0-4.67-.37-6.7,2.83,0,0-9.1-11.65-20.28-.62,0,0-5.42-2.31-6.42,1.83,0,0-9.86-6.61-17.14,1.31,0,0-22.06-.6-25,13.66,0,0-11.24-3.5-14.92,7.23,0,0-5.29,1.33-4.06,8.76,0,0-7.6,3.7-7.52,8.7,0,0-4,4.43-2.36,12.15.47,2.21,1.11,1.49,2.34,4.38-2.91,9.61,4,9.54,4,9.54-5.47,9.38,4.9,18.16,4.9,18.16s-2.33,7,.23,10.72c3.5,5.14,15.29,9.46,15.29,9.46s0-15.45-2.17-24.87,2.76-27.31,4.72-31.34,21.51-.66,49.78-5.37,33.1-10.7,36.62-10.36c7.3.71,17.33,24.48,18.39,32s5.72,21.25,5.72,21.25,13.94-8.91,7.8-20.8c0,0,3.42-9.89.58-15a5.69,5.69,0,0,0-2.23-3.14S215.68,227,211.1,223.22Z"/><path class="cls-2" d="M132.69,333.94c13.32,11.15,31.7,17.26,48.18,18.18,16.18.91,20.7-5.07,22.54-7.71,10.14-14.49,16.06-28.55,18.38-44.12a37.17,37.17,0,0,0-.81-13.05c-1.39-6.65-4.54-19.32-5.38-25.75-2.14-16.36-6.12-30.9-17.12-43.3-22.91-25.84-67.46-18.73-82.87-8.43-18,12-24,32-22.28,52.08a54.18,54.18,0,0,0,4.55,17.89,58.54,58.54,0,0,1,8.59,8.8"/><path class="cls-23" d="M198.89,220.94s1.47,1,12.86,19.62c-3-6-5.5-15.35-12.15-23.4-23.23-28.08-81.38-15.29-96.71-4.36C85,225.58,80.73,246.55,82.67,268.18c.79,8.79,1.23,14.4,4.88,21.25.14.07,1.9,1.45,1.9,1.45s18,.8,25.37,10.59l-1.11-9.3s2.67-12.22,3.19-32.68c0,0-1.56-11-2.19-14.22-1.95-10.06,7.45-9.28,14-8.6,4.06.43,12.62-.2,16.64-.88,10.28-1.73,23.09-5.19,27.93-5.86C180.05,229,198.89,220.94,198.89,220.94Z"/><path class="cls-24" d="M198.21,221.18a6,6,0,0,1,1.16,1.43c1.95,2.66,3.73,5.46,5.5,8.24,2.09,3.28,4.13,6.59,6.16,9.9.2.32,1.56-.16,1.45-.38-2.14-4.34-3.69-8.93-5.8-13.28A47.32,47.32,0,0,0,198,214.43a46.16,46.16,0,0,0-19.21-11.19c-15.12-4.74-31.85-4-47.24-1a108.71,108.71,0,0,0-19.65,5.64,45.53,45.53,0,0,0-15.88,10.28,50.2,50.2,0,0,0-13,25.25c-2.09,10.07-1.66,20.32-.57,30.49a43.25,43.25,0,0,0,3.66,14.36,4.56,4.56,0,0,0,1.36,1.91,6,6,0,0,0,1.38,1,6.6,6.6,0,0,0,1.41.11c6.68.62,13.77,2.36,19.36,6.2a19.78,19.78,0,0,1,4.47,4.19c.2.26,1.49,0,1.45-.39l-.56-4.65a35.89,35.89,0,0,1-.56-4.58,16.5,16.5,0,0,1,.37-2c.32-1.77.59-3.55.84-5.34.94-6.77,1.5-13.6,1.8-20.43a36.67,36.67,0,0,0-.11-7c-.36-2.48-.72-5-1.11-7.44-.63-4.1-2.89-10.84,2.44-12.71,2.25-.79,4.88-.58,7.22-.39a69.07,69.07,0,0,0,8.14.31,111.18,111.18,0,0,0,19.8-2.68c6.32-1.36,12.61-3.16,19-4.14,4.7-.73,9.26-2.46,13.7-4.11q6.09-2.26,12.09-4.81l.68-.29c.87-.37-.49-.31-.83-.17q-4.6,2-9.29,3.76c-4.83,1.87-9.8,3.93-14.9,4.91-13,2.49-25.77,6.44-39,6.95a69.46,69.46,0,0,1-8.29-.3,25.82,25.82,0,0,0-7.08.19,8.09,8.09,0,0,0-5,2.68c-1.53,2-1.2,4.66-.78,7,.8,4.42,1.61,8.93,2,13.4a31.49,31.49,0,0,1-.1,4.34c-.09,2.14-.2,4.28-.35,6.42-.23,3.49-.53,7-.93,10.44-.43,3.75-.93,7.5-1.66,11.21a5.71,5.71,0,0,0,.06,1.93l.76,6.39.18,1.5,1.45-.39c-4.55-5.94-12.31-8.58-19.41-9.89-2-.37-4-.44-6-.77-.41-.07.1.1-.16-.09a11.32,11.32,0,0,1-1.69-1.3,11.55,11.55,0,0,1-1.5-3.1,34.53,34.53,0,0,1-1.24-3.54c-1.42-4.85-1.76-10-2.19-15a96.87,96.87,0,0,1-.18-15.14c.69-9.51,3.13-19,8.3-27.1A42.69,42.69,0,0,1,108.27,210a86,86,0,0,1,17.57-6.08c15-3.67,31.29-4.93,46.47-1.55a51.58,51.58,0,0,1,20.41,9.07c7.79,6,12.11,14.6,15.78,23.52.8,1.95,1.6,3.9,2.53,5.79l1.45-.38c-3-5-6.12-10-9.36-14.83a34.52,34.52,0,0,0-3.23-4.51,3.47,3.47,0,0,0-.32-.34C199.24,220.47,198,221.05,198.21,221.18Z"/><path class="cls-2" d="M120.48,320.09c-10.49,13.52-17.87-2.45-17.87-2.45-9.39-8.46-10.85-18.7-11.57-25.75s7-8.05,7-8.05c6.65-.23,5.84.68,17.39,18"/><path class="cls-25" d="M109.39,302.54a56.39,56.39,0,0,0-5.84-8.74,18.21,18.21,0,0,0-4-3.71,5.57,5.57,0,0,0-2.19-.92c-.79-.1-1.1.49-1.38,1.14-1.31,3-1,6.44,0,9.46.16.48,1.25.18,1.1-.29a14.23,14.23,0,0,1-.61-7.37,7.23,7.23,0,0,1,1-2.52l-.57.33s-.13-.06,0,0,.11,0,.15,0-.07,0,.12,0a5.2,5.2,0,0,1,1.36.61,20.26,20.26,0,0,1,5.42,5.46,64.17,64.17,0,0,1,4.44,7c.23.41,1.28,0,1-.47Z"/><path class="cls-25" d="M109.42,305.91c-4.42.92,0,6.39,0,8.8a3.52,3.52,0,0,0-.07.41v.06c-.12.17,0,.16.32,0,0,0-.17-.11-.13-.06-.22-.3-.63-.57-.88-.88a20.43,20.43,0,0,1-2.16-3.77,17.68,17.68,0,0,1-1.63-5c-.3-2.12-.53-5.31,1.39-6.79.59-.46-.32-.7-.7-.4-1.84,1.41-2.07,3.84-1.94,6a15.23,15.23,0,0,0,1.19,5.17,29.47,29.47,0,0,0,2.3,4.47c.43.68,1,1.73,1.91,1.94a1.22,1.22,0,0,0,1.49-.95,4.8,4.8,0,0,0-.53-2.43c-.48-1.25-2.78-5.41-.43-5.9.68-.14.5-.78-.17-.64Z"/><path class="cls-23" d="M157.24,276.19a5,5,0,0,0-5.12,2,4.8,4.8,0,0,0-1,2.49,5,5,0,0,0,2,4.23,4.61,4.61,0,0,0,5.39-.07,5.1,5.1,0,0,0,1.37-6.3,4.56,4.56,0,0,0-2.63-2.31"/><path class="cls-23" d="M168,282.41s-8.41-8.5-15.41-7.18c-9.85,1.86-11.09,8-12.66,11.41,0,0,5.06-8.2,12.71-9.45C159.6,276.06,168,282.41,168,282.41Z"/><path class="cls-23" d="M205.75,267.33c1.56-1.31,3.77-.86,5.12,0a4.91,4.91,0,0,1,1.75,2,5.24,5.24,0,0,1-.24,4.66,4.13,4.13,0,0,1-4.7,1.84c-2.34-.67-3.55-3.29-3.4-5.4a4.56,4.56,0,0,1,1.47-3.08"/><path class="cls-23" d="M194,277.52s3.85-10.82,9.9-12c8.52-1.62,11.59,3.73,14,6.35,0,0-6.83-5.94-13.38-4.5C198.59,268.7,194,277.52,194,277.52Z"/><path d="M191.34,303.44a7.19,7.19,0,0,1-6.53.74c-.45-.18-1.77.3-1.14.56a10.08,10.08,0,0,0,8.87-1.15c.21-.16.14-.34-.17-.38a1.63,1.63,0,0,0-1,.23"/><path d="M182.79,304.35a11.62,11.62,0,0,0-4.16-.29.94.94,0,0,0-.58.3c-.09.13-.09.27.07.33a4.51,4.51,0,0,0,2.28.12.87.87,0,0,0,.63-.39c.08-.2-.16-.29-.34-.25a3.47,3.47,0,0,1-1.84-.1l-.51.63a10.55,10.55,0,0,1,3.72.27.84.84,0,0,0,.71-.21c.13-.11.25-.34,0-.41"/><path d="M177.36,305.49a5.58,5.58,0,0,1-4.64-1.2c-1.51-1.62-.93-4.9.87-6.42.2-.17,0-.32-.18-.32a1.31,1.31,0,0,0-.83.33,6,6,0,0,0-1.7,5.77c.53,1.56,2.27,2.41,4.27,2.54a9.35,9.35,0,0,0,1.83-.07c.25,0,.67-.19.76-.4s-.15-.26-.38-.23"/><path d="M194.14,302.1a.22.22,0,0,1,.15-.34,2,2,0,0,0,1.18-.63l.52.44a5.62,5.62,0,0,0-2.36,1.35.44.44,0,0,1-.53,0c-.12-.06-.27-.25-.13-.38"/><path d="M193,302.55a6.38,6.38,0,0,1,2.64-1.5.56.56,0,0,1,.47.12.23.23,0,0,1,0,.33"/><path d="M197.52,301.73a3.36,3.36,0,0,0,2.45-2.46,4.8,4.8,0,0,0-2.16-5,.2.2,0,0,1,0-.35.6.6,0,0,1,.59.08,5.38,5.38,0,0,1,2.48,4.1,3.79,3.79,0,0,1-1.86,3.62,3.65,3.65,0,0,1-1.11.45.56.56,0,0,1-.57-.16c-.11-.18,0-.29.16-.32"/><path class="cls-23" d="M160.71,256.08q.75,2.26,1.48,4.55l1.11,3.47c-3.72.14-6.84.45-9.18.75a40.22,40.22,0,0,0-13.52,3.73,14.87,14.87,0,0,0-5,4c-.44.55-1.42,2.64-2.38,2.5-.4-.06-.45-2.11-.45-2.32-.08-4.13,2.38-6.66,5.73-8.74,6.83-4.25,14.37-6.48,22.25-7.91"/><path class="cls-23" d="M215,256.73a12.22,12.22,0,0,1-.56-3,20.56,20.56,0,0,0-2.36-.88c-7.58-2.31-15.31-2.49-23.17-1.81l-.24,4.78c-.06,1.22-.11,2.43-.17,3.64,3.58-.84,6.62-1.36,8.92-1.68a39,39,0,0,1,13.8.06,16.83,16.83,0,0,1,3.65,1.22Z"/><g id="freepik--Character--inject-2"><path class="cls-19" d="M276,415.62c-6.48-13.71-11.61-23-19.9-29.31-3.89-3-27.07-8.57-27.07-8.57L232,442.37,244.43,504l60.93-19.22S284.46,433.64,276,415.62Z"/><path class="cls-2" d="M138.93,520.57s-31.39-16-38.76-17.87S69.49,506,69.23,511.64a78.24,78.24,0,0,0,0,8.93s-6.87,4.83-4,9.91,5.82,5,5.82,5-4.24,3.68-1.86,7.12,4.83,7.68,4.83,7.68-1,4.49,1.73,6.34,21.53,4.77,35,4,20.1-2.64,20.1-2.64Z"/><path class="cls-2" d="M295.64,487.8c1.28,2.77,11.76,44.26,12.51,62.51.78,18.74-8.08,29.27-27.14,29.1S175.28,569.05,148.06,555l-10.73-3.12,7.95-26.6s24.33,1.4,38,4.18,75.79-7.09,75.79-7.09L256.68,504l-.57-4.62L280,492.74Z"/><path class="cls-21" d="M259.06,522.36c9.54,1.77,15.93,8.39,19.45,17.42a24.65,24.65,0,0,1,1.25,4.11,6.64,6.64,0,0,1,.22,1.6,54.39,54.39,0,0,0-1.86-5.49c-1.33-3.19-8.11-14.44-21.52-17.25"/><path class="cls-2" d="M146,386l-30.3,110.59-8.12-15.27L56.15,502a282.35,282.35,0,0,0,13.3,30.24c22.13,42.26,51.52,44.71,69.66,39s29.68-66.79,33.59-92.88c4.53-30.19,5.26-95.2,5.26-95.2Z"/><path class="cls-2" d="M177.53,404.92s.8-18.71,1.16-26.12-11.61-36.49-11.86-37.15-1.66-9.82-1.66-9.82,2.63,1.36,5.14-2.15c1.45-2.06-.93-8.58-3.1-10s-5.88-.13-5.88-.13,0-4.22-6.37-4.09c0,0-.89-6.51-14.16-4.34,0,0,.12-1.66-3.83-1.4s-15.32,2.68-16.08,5.36,2.42,18.58,2.42,23.09.13,4.85,2,8.8,17.41,29.29,21.09,34.83l-4.31,18.28"/><path class="cls-21" d="M164.35,326.14a2,2,0,0,1,.64.75,6.1,6.1,0,0,1,.61,2.33,8.69,8.69,0,0,1-.17,3.25,9.35,9.35,0,0,1-.44-3.2A19.75,19.75,0,0,0,164.35,326.14Z"/><path class="cls-26" d="M161.36,319.6a9.92,9.92,0,0,1-2.92,1.65,8.7,8.7,0,0,0-3,1.85,5.67,5.67,0,0,0-1.37,3.9,34.1,34.1,0,0,0,.79,7.93c.41,2,.78,3.23.69,3.26a12.29,12.29,0,0,1-1.1-3.17,27.75,27.75,0,0,1-1-8.06,9.09,9.09,0,0,1,.39-2.32,5,5,0,0,1,1.17-1.91,8.53,8.53,0,0,1,3.2-1.86C160.21,320.15,161.31,319.52,161.36,319.6Z"/><path class="cls-26" d="M155,315.54a4.38,4.38,0,0,1-1.16.38l-3.3.81-4.89,1.17a3.89,3.89,0,0,0-2.32,1.33,4.89,4.89,0,0,0-.76,2.86c0,1.05.11,2.11.18,3.14s.15,2,.23,3c.13,1.85.25,3.49.35,5s.15,2.59.18,3.39a5.14,5.14,0,0,1,0,1.24,4.3,4.3,0,0,1-.22-1.23c-.11-.79-.24-1.94-.38-3.37s-.3-3.16-.47-5c-.08-.95-.18-1.94-.27-3s-.21-2.08-.2-3.2a5.42,5.42,0,0,1,.9-3.2,4.35,4.35,0,0,1,2.69-1.52l4.92-1c1.41-.28,2.55-.5,3.34-.63A5.18,5.18,0,0,1,155,315.54Z"/><path class="cls-26" d="M141.31,311.1a8.49,8.49,0,0,1-1.16.42c-.76.27-1.84.7-3.15,1.27l-2.15.95a8.68,8.68,0,0,0-2.24,1.35,5.84,5.84,0,0,0-2.22,5.19c.27,2.12.75,4.2,1.06,6.07s.6,3.48.86,5,.42,2.57.53,3.36a4.46,4.46,0,0,1,.12,1.26,4.71,4.71,0,0,1-.35-1.16c-.18-.78-.43-1.92-.72-3.34s-.62-3.12-1-4.94-.81-3.89-1.1-6.12a6.12,6.12,0,0,1,.52-3.27,7.11,7.11,0,0,1,1.94-2.41,9.31,9.31,0,0,1,2.41-1.38l2.18-.88A14.18,14.18,0,0,1,141.31,311.1Z"/><path class="cls-19" d="M74.67,380.3s-40.8.83-40.3,46.43C34.79,465.22,46.49,511,46.49,511l64.35-26-18.3-63.82C92.54,420,74.67,380.3,74.67,380.3Z"/></g><path class="cls-27" d="M178.7,391.61a117.61,117.61,0,0,1,0-12.64c.36-7.41-11.61-36.49-11.86-37.15s-1.66-9.83-1.66-9.83,2.63,1.36,5.14-2.14c1.45-2.06-.93-8.58-3.1-10s-5.88-.12-5.88-.12,0-4.22-6.37-4.09c0,0-.89-6.51-14.16-4.34,0,0,.12-1.66-3.83-1.41s-15.32,2.68-16.08,5.37,2.42,18.57,2.42,23.09.13,4.85,2,8.8,17.41,29.29,21.09,34.83l-2.26,7.35"/><path class="cls-21" d="M162.86,526.67s-5.38,24.35-10.8,30.18l2.48,1S163.18,539,162.86,526.67Z"/><path class="cls-21" d="M115.74,496.54s-9.82,25.66-11.29,35c0,0,5-29.91,9.68-38Z"/><path class="cls-21" d="M65.6,524.45s10.6,24.79,24.46,35.29H88.3S73.45,548.39,65.6,524.45Z"/><path class="cls-28" d="M191.88,316.14c-5.63.93-17.47,6.45-19.61,9.06,0,0,7.17,3.45,20.22,1.3s14.47-7,14.47-7S199.05,315,191.88,316.14Z"/><path class="cls-29" d="M177.17,321.88s6.61-1.64,12-2.52,12.12-1.44,12.12-1.44.2-4.18-9.49-2.58S177.17,321.88,177.17,321.88Z"/><path class="cls-15" d="M192.2,324.71c-6.25.13-12.88-1.13-19.93.49,0,0,3.36,7.94,18.7,5.41s16-11.12,16-11.12C199.76,320.22,198.17,322.83,192.2,324.71Z"/><path class="cls-15" d="M198,312c-3.26.29-5.1,1.86-6.5,2.09s-3.65-.66-6.83.11c-3,.72-14.52,10.29-12.93,11s10.58-6.38,20.28-8,14.08,3.32,15.35,2.11S201.1,311.69,198,312Z"/><polygon class="cls-30" points="256.11 499.33 256.11 429.45 260.53 497.6 256.11 499.33"/><polygon class="cls-30" points="97 421.79 109.86 485.48 115.74 496.54 97 421.79"/><path class="cls-2" d="M123.94,366s-5.42,3.72-9.72,4.57S105.57,373,101.73,373l-2,.09s6.21,8.4,5.91,11-2.19,6.57-3.62,6.59-4.39-1.77-4.39-1.77,1.65,5.2-1,7.12-5.27.35-7.19-.44a38.45,38.45,0,0,1-5.83-4s-.88,5.48-4.15,5.63-14.79-7.08-14.79-7.08.38,6.31-3.39,6.41-7.12-2.86-9.77-5.59-6-6.35-5.62-8.27a7.12,7.12,0,0,1,3.33-4.76L54.71,375a11.5,11.5,0,0,1,1.68-5.21c1.49-2.06,8.85-8.76,8.85-8.76s-.2-5,2-6.9,7.85-3.7,7.85-3.7,4.87-6.94,6.79-6.91,2.7-.73,9.94,1.79,20.72,9.58,20.72,9.58,4.07,0,6.61,2.32S125.68,361.92,123.94,366Z"/><path class="cls-21" d="M54.94,376.22s.09,3.22,1,4.61,7.23,7.69,7.23,7.69-7.47-5.62-8.34-7.08.21-5.66.21-5.66"/><path class="cls-21" d="M65.19,363.59s-2.56,7.94.1,11.49,16.38,15.37,16.38,15.37S66.88,375.57,66,372.76,65.19,363.59,65.19,363.59Z"/><path class="cls-21" d="M75.36,352.42s-.64,12.07,1.08,14.39,17.73,17.68,18.83,18.75L97,386.84s-18.21-19.61-19.32-21.71S75.36,352.42,75.36,352.42Z"/><path class="cls-21" d="M110.25,366.74s-4.86,5.41-8.52,6.21-8.24-2.85-7.66-6.46a10.74,10.74,0,0,1,4.06-7.14c1.59-1.06,3-2.89,5.69-3.78,0,0-7.45,6.82-7.92,8.37s-1.45,6.21,1.63,7.32,4.37.95,7.84-1.06A24.45,24.45,0,0,0,110.25,366.74Z"/><path class="cls-21" d="M94.37,368.82s-4.18-4.6-4-6.28a57.61,57.61,0,0,1,1.3-6.53s-1,5.13,0,7.14S94.37,368.82,94.37,368.82Z"/><path class="cls-21" d="M120.69,358.53s1.87,4.46-2.89,11.1c0,0,4.73-.34,4.29-7.84A4.16,4.16,0,0,0,120.69,358.53Z"/><path class="cls-2" d="M422,606.47c-1,.33-15.65,4.32-23.05,9.46s-24.8,10.69-24.8,10.69-30.22,4.07-34,2.85S332,622,332,622a30.85,30.85,0,0,0-7.7-.42c-7-.05-9.65-7.88-9.65-7.88l9-3.18c-8.4,3.16-6.5,2.93-15.14,5.18a4,4,0,0,1-4.21-4.28,10.85,10.85,0,0,1,4.9-7.19l32-23.22c-5.37-3.47-12.15,2.06-16.62-2.4s-.53-8.14.91-9.05,19.87-5,19.87-5,26.36-.89,31.77.22S411,573.38,411,573.38l8.82-3.06S423,606.13,422,606.47Z"/><path class="cls-31" d="M349.06,576.17a64.54,64.54,0,0,1,12.75-5.53,60.49,60.49,0,0,1-12.06,6.94,110.6,110.6,0,0,1-12.34,6.24A43.67,43.67,0,0,1,349.06,576.17Z"/><path class="cls-31" d="M335.22,605.87c-5.06,2.48-9.67,4.67-13.09,6.07a19,19,0,0,1-5.72,1.87,29.7,29.7,0,0,1,5.28-2.88c3.29-1.66,7.83-4,12.89-6.51,10.07-5,18.81-8,18.93-7.51S345.29,600.83,335.22,605.87Z"/><path class="cls-31" d="M347.4,617.22a45.93,45.93,0,0,1-15.31,4.57c0-.34,6.82-2.39,14.82-5.89s14.14-7.17,14.38-6.79A47.77,47.77,0,0,1,347.4,617.22Z"/></svg>