<svg id="Layer_1" data-name="Layer 1" xmlns="http://www.w3.org/2000/svg" viewBox="0 0 637.33 635.77"><defs><style>.cls-1{fill:#c1e7f6;}.cls-2{fill:#c85743;}.cls-3{fill:#936243;}.cls-4{fill:#653c2c;}.cls-5{fill:#812a23;}.cls-6{fill:#cd8c2a;}.cls-7{fill:#12100e;}.cls-8{fill:#b05e27;}.cls-9{fill:#de8b26;}.cls-10{fill:#fff;}.cls-11{fill:#643b29;}.cls-12{fill:#31150d;}.cls-13{fill:#f0edf6;}</style></defs><circle class="cls-1" cx="319.06" cy="340.56" r="288.85"/><path class="cls-2" d="M364.17,296.69l-88.85,2.47-80.77,22.39c-1.31,6.79-.51,14.6-.67,21.47q-.56,22.78-1,45.58-.48,23.81-.93,47.61c-.28,14.59-2.37,30.53,3.78,44.16a53.32,53.32,0,0,0,2.51,4.87c4.43,7.69,16,18.16,16.55,27,1.2,20,2.37,41.86-5.38,63.19-.51,1.41-4.6,21-5.68,30.44,35.49,14.64,73.06,23.52,117,23.52,46.48,0,91.86-12.85,125.55-29.94-3.71-9.16-10.5-30.93-12.48-37.05-4-12.55-2.66-44.37,3.44-56.3,4.2-8.23,2-5.36,6.6-13.36,7.14-12.54,7.72-32.83,8.57-45.81.77-11.78,4.33-36.85-2.31-58.27C437.53,348.07,410,308,410,308Z"/><path class="cls-2" d="M96.83,585.71s-40.36-10.79-30.34-45.65,49.75-109.29,61.6-133.25S143,335.28,189.82,321c32.5-9.87,56.15-16.59,56.15-16.59s3.45,90.84-31.85,137.94l-8.23-2-49.71,83.75L258.61,544.5l-.48,56.13Z"/><path class="cls-3" d="M392.81,395.93s-16.87-23.53-19.45-29.36-8.08-20.85-11.24-21.87-5.18,4.61-5.64,10.54,9,17.58,6.46,19.89-50.31-6-58.28-7.19-30.19-3.14-29.72,7.43c0,0-10.61.67-10.78,5.21s.66,6.26.66,6.26-1.09,8.25,5.87,10.23a55,55,0,0,0,11.77,2.14s-5.1,3.26.23,8.34S318.53,421,318.53,421s14.73,11.55,26.67,13.23,35-.75,35-.75Z"/><path class="cls-2" d="M410.64,308l33.56,10.64s22.29,5.29,36.38,20.8,29,42.82,43.13,58.92c10.53,12,57,41.92,60.43,58.31s1.07,62.18-21.56,64.4c0,0-119-118.57-120.29-118.1s-13,11.56-13,11.56-13.09-32.36-19.07-49.63S410.64,308,410.64,308Z"/><path class="cls-2" d="M395.28,390.76S457,419,483.37,420.84s58.84,7.08,72.08,18.6S568.68,520,568.68,520s-13,7.16-42.37-2.66-153.16-68.89-153.16-68.89Z"/><path class="cls-4" d="M324.84,378.9c0,.17-3-.35-7.85-1-1.82-.26-8.26-1.31-18.94-1.94-7.43-.42-14.17-.4-19.05-.27s-7.89.31-7.91.13a7.47,7.47,0,0,1,2.1-.4c1.36-.18,3.33-.38,5.77-.55a155.66,155.66,0,0,1,19.15-.06,152.36,152.36,0,0,1,19,2.28c2.41.45,4.35.87,5.68,1.21A7.75,7.75,0,0,1,324.84,378.9Z"/><path class="cls-4" d="M331,390.9c.1-1.15-7.06,0-35-2.26-19.31-1.57-31.27-1.66-31.25-2s12-.75,31.34.82S331,390.58,331,390.9Z"/><path class="cls-4" d="M321.19,402.9c0,.17-2.43-.11-6.3-.57s-9.23-1.1-15.15-1.67c-2.76-.26-8-.72-15.19-1.22-3.89-.27-6.31-.45-6.3-.62s2.42-.26,6.34-.2,9.31.32,15.26.89,11.3,1.33,15.16,2S321.22,402.75,321.19,402.9Z"/><path class="cls-3" d="M361.78,563.88c-9-1.21-40.41-1.64-40.41-1.64a56.07,56.07,0,0,1,7.86-2.36c4.67-1,34.94-.8,34.19-7.67s-27.55-5-27.55-5c-11.35,1.38-34.47-1.85-39.25-2.89s1.59-2.69,7.46-7.36,11.52-8.61,12.27-13.74c1.32-9-6.19-6.81-12.77-3.3-5.43,2.9-11.67,8.85-22.73,13.5S259,549.76,259,549.76l-1.72,37.87s4.34,4.6,20.58,8.28,29.46.64,31,.11,30.62-.21,33.74-1,4.45-4.72,2.27-6.9-31.13-3-31.13-3,44.74-.45,49.55-2.52a4.52,4.52,0,0,0,2.46-2.14,3.13,3.13,0,0,0-3-4.35c-3.68.06-14.56-.37-21.91-.56-11.45-.3-19.52-1.3-19.52-1.61s9.31-.32,20.77,0c10,.26,16.61,0,19.75.07a10.84,10.84,0,0,0,5.34-1.47C370.47,570.75,370.8,565.09,361.78,563.88Z"/><path class="cls-5" d="M392.81,395.93l2.47-5.17s57.9,23.14,82.46,29.07,65.6,11.73,80.94,24c0,0-5.74-11.13-44.78-17.87S436,405.57,428.8,402.57s-32.41-13.2-32.41-13.2l-1.85-.69Z"/><polygon class="cls-5" points="377.85 436.22 373.15 448.46 448.1 483.51 446.61 486.81 370.8 449.59 377.85 436.22"/><polygon class="cls-5" points="206.68 595.64 256.57 600.73 257.28 587.63 257.76 603.23 206.38 598.24 206.68 595.64"/><path class="cls-5" d="M156.18,524.11s-36.83-12-58.24,4.31C97.94,528.42,125.76,521,156.18,524.11Z"/><polygon class="cls-5" points="215.67 534.61 260.25 542.5 259 549.76 258.61 544.5 215.67 535.95 215.67 534.61"/><path class="cls-3" d="M364.34,292.35c-.92-2.93-.11-34.14-.11-34.14l-46.16,7.1-46.16-7.1s.92,34.46,0,37.39-27.85,9.31-27.85,9.31,14.06,30.37,74,30.37,75.48-30.37,75.48-30.37S365.26,295.28,364.34,292.35Z"/><path class="cls-4" d="M272,260c.74.55,6.08,7.61,6.84,8.16,19,13.43,21.79,17.09,38.16,17.75,16.36-.66,23.4-2.91,41-19.32,5.93-5.53,4.62-7.38,5.93-8.41C334.54,258.13,301.48,259.82,272,260Z"/><path class="cls-3" d="M242.23,167.74s-8.86-13.59-13.88-13.05c-3,.34,4,7.21,4.88,15,1.17,10.41-6.53,11.75-4.11,17.65s5.57,26.45,13.66,25.57c3.21-.35,6.49-7.45,6.49-7.45S244.86,177,242.23,167.74Z"/><path class="cls-6" d="M239.9,206.36c-3.54.4-7.06,2.48-7.52,6.28a6.1,6.1,0,0,0,1.2,4.44,5.46,5.46,0,0,0,2.89,2,9.07,9.07,0,0,0,7.78-1.21c.38-.27.31-.52-.15-.56a3.1,3.1,0,0,0-1.75.47,3.22,3.22,0,0,1-2,.68,6.29,6.29,0,0,1-2.13-.45,4.65,4.65,0,0,1-2.18-1.61,6,6,0,0,1-.09-7.15,5.34,5.34,0,0,1,1.47-1.37,3.76,3.76,0,0,1,.73-.36c.21-.07-.16,0,0,0l.32-.09c-.2.05.39,0,.32,0a2.69,2.69,0,0,0,1.65-.6c.33-.4-.29-.45-.59-.42Z"/><path class="cls-3" d="M389.67,167.32s7.44-14.41,12.48-14.37c3.08,0-3.26,7.57-3.34,15.4-.11,10.47,7.69,11,5.87,17.14s-2.87,26.88-11,26.82c-3.22,0-7.21-6.76-7.21-6.76S388,176.82,389.67,167.32Z"/><path class="cls-3" d="M400.59,175.84a.11.11,0,0,0,0,0c-1.8,9.1-4,18.69-5.55,29.68-4,29-12.67,42.33-32.38,55.14C342,274.14,335.81,279.37,318,280c-17.83-.66-24-5.89-44.67-19.32C253.63,247.9,245,234.57,241,205.57c-.9-6.47-2-12.44-3.19-18.11-.84-4.22-1.7-8.27-2.49-12.24a1,1,0,0,0,0-.17V175c-2.84-14.55-4.56-28-.66-44.21,4-16.78,17.89-37.61,39-50.75h0a0,0,0,0,0,0,0A83.4,83.4,0,0,1,318,67.21c45.76,0,77,36.89,83.43,63.58C405.39,147.33,403.52,161,400.59,175.84Z"/><path d="M323.89,213.47a8,8,0,0,1-8.44-.41c-.52-.38-2.31,0-1.58.57a11.19,11.19,0,0,0,11.49.34c.31-.2.27-.47-.11-.61a1.77,1.77,0,0,0-1.36.11"/><path d="M312.68,212.83a17.78,17.78,0,0,0-6.2-1.54,1.39,1.39,0,0,0-1,.3c-.18.16-.22.37,0,.51a6.8,6.8,0,0,0,3.4.77,1.29,1.29,0,0,0,1.05-.4c.19-.29-.16-.48-.45-.47a5.48,5.48,0,0,1-2.74-.64l-.94.81a16.08,16.08,0,0,1,5.54,1.39,1.35,1.35,0,0,0,1.14-.12c.22-.14.47-.45.13-.61"/><path d="M304.26,213.09a6.87,6.87,0,0,1-5.63-3c-1.57-2.83-.11-6.2,2.53-8,.28-.2.13-.46-.16-.53a1.47,1.47,0,0,0-1.13.28,7.3,7.3,0,0,0-3.44,6.79c.32,2.48,2.34,4.22,4.87,4.94a9.86,9.86,0,0,0,2.35.38c.32,0,.89-.1,1.05-.4s-.14-.43-.44-.44"/><path d="M326.4,212.83a17.73,17.73,0,0,1,6.2-1.54,1.4,1.4,0,0,1,.95.3c.18.16.22.37,0,.51a6.85,6.85,0,0,1-3.4.77,1.27,1.27,0,0,1-1.05-.4c-.19-.29.16-.48.44-.47a5.52,5.52,0,0,0,2.75-.64l.93.81a16.14,16.14,0,0,0-5.54,1.39,1.32,1.32,0,0,1-1.13-.12c-.23-.14-.47-.45-.13-.61"/><path d="M334.81,213.09a6.87,6.87,0,0,0,5.64-3c1.57-2.83.11-6.2-2.53-8-.29-.2-.14-.46.16-.53a1.45,1.45,0,0,1,1.12.28,7.33,7.33,0,0,1,3.45,6.79c-.33,2.48-2.35,4.22-4.88,4.94a9.69,9.69,0,0,1-2.34.38c-.32,0-.9-.1-1.05-.4s.13-.43.43-.44"/><path class="cls-7" d="M339.25,150.31l.36,4.94c.1,1.26.19,2.52.29,3.77,4.5-1.38,8.37-2.34,11.29-3,6.18-1.39,9.34-2.08,13-1.77a37.39,37.39,0,0,1,8.47,1.84,23.29,23.29,0,0,1,4.52,1.83c3.21,1.83,4.63,4,5.12,3.81s-.45-2.18-.54-2.39a19.58,19.58,0,0,0-7.13-7.9,25.5,25.5,0,0,0-8.67-3c-3.65-.59-13.63-.52-26.72,1.84"/><path class="cls-7" d="M300.92,172.1s-11.3,8.21-17.07,8.74c-8.43.78-18.82-3.54-21.8-7.4,0,0,13.74,6.45,19.66,5.75C287.37,178.51,300.92,172.1,300.92,172.1Z"/><path class="cls-7" d="M298.93,149.11c0,1.64,0,3.3,0,4.95,0,1.26,0,2.52-.05,3.78-4.58-1.08-8.5-1.79-11.46-2.26-6.25-1-9.45-1.46-13.1-.92A37.1,37.1,0,0,0,266,157a22.65,22.65,0,0,0-4.39,2.12c-3.09,2-4.36,4.34-4.86,4.13s.3-2.21.38-2.42a19.6,19.6,0,0,1,6.6-8.34,25.74,25.74,0,0,1,8.47-3.54c3.6-.82,13.56-1.39,26.78.12"/><path class="cls-7" d="M339.73,171.92s11.3,8.22,17.08,8.75c8.43.77,18.81-3.55,21.8-7.41,0,0-13.75,6.45-19.67,5.75C353.28,178.33,339.73,171.92,339.73,171.92Z"/><path class="cls-8" d="M221.41,99.31S259.1,80.92,307.33,87s71.4,36.58,79.55,58.31S395.8,189,395.8,189s11.84,6,20.46-38.14C428.81,86.46,358.42,29.68,342.8,29.68S243.83,27.33,221.41,99.31Z"/><path class="cls-8" d="M230.06,80.52S222,29.79,256.94,20.28,365.51-6.26,387,40.07Z"/><path class="cls-9" d="M228.25,184.73a30.5,30.5,0,0,1-7.69-13.18c-3.9-13.7-10.69-42-4.45-54.57,2.72-5.47,3.81-21.78,4.07-26.58,1.36-25.12-4.61-17.44,30.71-46s41.42-20.67,94.4-17.27,68.16,20.56,64.07,70.19c0,0-71.32-20.5-104.94-2.33S234.58,171.77,237,192.86C237.1,193.52,232.28,188.79,228.25,184.73Z"/><path class="cls-8" d="M214.33,142.24s53.92-68.93,117-69.56c0,0-80.7-10.51-116.47,47.74Z"/><path class="cls-8" d="M410.52,81.14s-62.3-22.66-86.19-24.61,75.49,1.83,85,12.67Z"/><ellipse class="cls-10" cx="319.54" cy="234.39" rx="20.96" ry="4.41"/><path class="cls-6" d="M396.8,208.39a5.62,5.62,0,0,1,5.55,4.57,5.49,5.49,0,0,1-.67,3.76,6.63,6.63,0,0,1-.58.81c-.09.12-.18.23,0,.1l-.1.08c-.11.09-.24.17-.36.25l-.28.18c-.14.09.19-.1,0,0l-.23.12-.47.22-.23.09c-.12.05.11,0-.1,0a4.69,4.69,0,0,1-3.91-.4,1.75,1.75,0,0,0-1.76.18c-.36.25-.7.86-.16,1.16A8,8,0,0,0,400,220a7.32,7.32,0,0,0,3.21-1.94,6.78,6.78,0,0,0-.05-9.08,7.58,7.58,0,0,0-5.43-2.27,1.78,1.78,0,0,0-1.62.73c-.26.51.23.91.72.92Z"/><path class="cls-11" d="M320,230.05c-12,0-27.32.25-27.32.25S292.09,256,320,256s28.29-26,28.29-26S332.07,230.05,320,230.05Z"/><path class="cls-12" d="M320.13,230.05c-5.72,0-25.49.33-25.49.33s4.27,18.53,25,18.53c22.47,0,26.1-19.45,26.1-19.45Z"/><path class="cls-13" d="M320.39,230.88c-5.73,0-23.16-.94-23.16-.94s6.27,6.1,23.45,6.1,22.65-5.92,22.65-5.92Z"/><path class="cls-11" d="M339.28,226.71a36.26,36.26,0,0,0-7.12-.93c-5.87-.43-9.59,1.82-12.14,1.82s-6.28-2.25-12.14-1.82a27.22,27.22,0,0,0-5.78,1.52c-2.6.81-3.44,1-6.93,2.16-.88.3-1.57.57-2.47.84,4.37,1.51,11.55,2.9,27.33,2.9,5,0,10.09,0,15.12-.39a62,62,0,0,0,7.55-1c2.33-.47,3.65-.37,5.61-1.84a20.06,20.06,0,0,0-3.34-1Z"/><path class="cls-5" d="M195.75,450.57c6.6-27.65-10.24-65.41-10.24-65.41s14.52,37.71,5.89,78.4Z"/><path class="cls-5" d="M452,411.89A141.51,141.51,0,0,1,460,379.22a163.07,163.07,0,0,0-9.84,32.26A5.73,5.73,0,0,1,452,411.89Z"/><path class="cls-5" d="M366.88,507.34s-18-8.68-34.15-8.68-37.15,8.68-37.15,8.68,29.73-5,38.23-4.34S366.88,507.34,366.88,507.34Z"/><path class="cls-10" d="M371.74,263.14a6.42,6.42,0,0,1,3.06-7.23,8.3,8.3,0,0,1,7-1A8.83,8.83,0,0,1,397,253.41a11.72,11.72,0,0,1,11.59-1.06,8.83,8.83,0,0,1,4.76,10c6.28,1.86,3.58,10.74-2.74,9.83,3.47,1.47,4.91,6,3.66,9.59s-4.56,6.09-8.13,7.31a19.27,19.27,0,0,1-20.64-5.88,10.5,10.5,0,0,1-13.31-.11c-3.63-3.2-4.81-6.92-2.16-11-9.8,1-19.61-5.74-25.44-13.68a57.38,57.38,0,0,0,27.12,4.74"/></svg>