<svg xmlns="http://www.w3.org/2000/svg" xmlns:xlink="http://www.w3.org/1999/xlink" width="142" zoomAndPan="magnify" viewBox="0 0 106.5 107.249998" height="143" preserveAspectRatio="xMidYMid meet" version="1.0"><defs><g/><clipPath id="26d5419a00"><path d="M 0.121094 0 L 105.882812 0 L 105.882812 106.503906 L 0.121094 106.503906 Z M 0.121094 0 " clip-rule="nonzero"/></clipPath><clipPath id="18e96ebd3d"><path d="M 0.121094 0.746094 L 105.882812 0.746094 L 105.882812 106.503906 L 0.121094 106.503906 Z M 0.121094 0.746094 " clip-rule="nonzero"/></clipPath><clipPath id="6527f95cd6"><path d="M 53 0.746094 C 23.796875 0.746094 0.121094 24.421875 0.121094 53.625 C 0.121094 82.828125 23.796875 106.503906 53 106.503906 C 82.207031 106.503906 105.882812 82.828125 105.882812 53.625 C 105.882812 24.421875 82.207031 0.746094 53 0.746094 Z M 53 0.746094 " clip-rule="nonzero"/></clipPath><clipPath id="6c9b52832d"><path d="M 13.417969 13.667969 L 92.363281 13.667969 L 92.363281 92.613281 L 13.417969 92.613281 Z M 13.417969 13.667969 " clip-rule="nonzero"/></clipPath><clipPath id="0e664c592e"><path d="M 53 13.667969 C 31.140625 13.667969 13.417969 31.390625 13.417969 53.25 C 13.417969 75.113281 31.140625 92.835938 53 92.835938 C 74.863281 92.835938 92.585938 75.113281 92.585938 53.25 C 92.585938 31.390625 74.863281 13.667969 53 13.667969 Z M 53 13.667969 " clip-rule="nonzero"/></clipPath><clipPath id="62548fa1ee"><path d="M 0.503906 49 L 9 49 L 9 57 L 0.503906 57 Z M 0.503906 49 " clip-rule="nonzero"/></clipPath><clipPath id="d905dfe505"><path d="M 41 0.289062 L 49 0.289062 L 49 9 L 41 9 Z M 41 0.289062 " clip-rule="nonzero"/></clipPath><clipPath id="78fe6446e5"><path d="M 51 0.289062 L 58 0.289062 L 58 9 L 51 9 Z M 51 0.289062 " clip-rule="nonzero"/></clipPath><clipPath id="f547749f02"><rect x="0" width="102" y="0" height="65"/></clipPath><clipPath id="df35a1bca4"><path d="M 62.941406 26.078125 L 87.519531 26.078125 L 87.519531 80.449219 L 62.941406 80.449219 Z M 62.941406 26.078125 " clip-rule="nonzero"/></clipPath><clipPath id="f7dd69968b"><path d="M 0.941406 12 L 25.402344 12 L 25.402344 54.449219 L 0.941406 54.449219 Z M 0.941406 12 " clip-rule="nonzero"/></clipPath><clipPath id="48b5d730b4"><path d="M 7 0.078125 L 18 0.078125 L 18 11 L 7 11 Z M 7 0.078125 " clip-rule="nonzero"/></clipPath><clipPath id="cbb04ec5d2"><rect x="0" width="26" y="0" height="55"/></clipPath><clipPath id="2b92720a0d"><path d="M 46.710938 26.546875 L 63.097656 26.546875 L 63.097656 80.171875 L 46.710938 80.171875 Z M 46.710938 26.546875 " clip-rule="nonzero"/></clipPath><clipPath id="c883827820"><path d="M 0.710938 11 L 17.097656 11 L 17.097656 53.980469 L 0.710938 53.980469 Z M 0.710938 11 " clip-rule="nonzero"/></clipPath><clipPath id="61ff5685c1"><rect x="0" width="18" y="0" height="55"/></clipPath><clipPath id="7870484433"><path d="M 22.019531 25.695312 L 48.085938 25.695312 L 48.085938 80.0625 L 22.019531 80.0625 Z M 22.019531 25.695312 " clip-rule="nonzero"/></clipPath><clipPath id="ea1d06e98c"><path d="M 0.347656 12 L 26.085938 12 L 26.085938 55 L 0.347656 55 Z M 0.347656 12 " clip-rule="nonzero"/></clipPath><clipPath id="f5e584ddaa"><path d="M 8 0.695312 L 18 0.695312 L 18 11 L 8 11 Z M 8 0.695312 " clip-rule="nonzero"/></clipPath><clipPath id="613b91ae91"><rect x="0" width="27" y="0" height="56"/></clipPath></defs><g clip-path="url(#26d5419a00)"><path fill="#ffffff" d="M 0.121094 0 L 105.882812 0 L 105.882812 106.503906 L 0.121094 106.503906 Z M 0.121094 0 " fill-opacity="1" fill-rule="nonzero"/><path fill="#ffffff" d="M 0.121094 0 L 105.882812 0 L 105.882812 106.503906 L 0.121094 106.503906 Z M 0.121094 0 " fill-opacity="1" fill-rule="nonzero"/></g><g clip-path="url(#18e96ebd3d)"><g clip-path="url(#6527f95cd6)"><path stroke-linecap="butt" transform="matrix(0.744792, 0, 0, 0.744792, 0.121529, 0.744793)" fill="none" stroke-linejoin="miter" d="M 70.997672 0.00174698 C 31.787879 0.00174698 -0.000584347 31.790211 -0.000584347 71.000003 C -0.000584347 110.209796 31.787879 141.99826 70.997672 141.99826 C 110.212709 141.99826 142.001173 110.209796 142.001173 71.000003 C 142.001173 31.790211 110.212709 0.00174698 70.997672 0.00174698 Z M 70.997672 0.00174698 " stroke="#17a750" stroke-width="4" stroke-opacity="1" stroke-miterlimit="4"/></g></g><g clip-path="url(#6c9b52832d)"><g clip-path="url(#0e664c592e)"><path stroke-linecap="butt" transform="matrix(0.744792, 0, 0, 0.744792, 13.416416, 13.667284)" fill="none" stroke-linejoin="miter" d="M 53.147194 0.000920043 C 23.797541 0.000920043 0.00208525 23.796376 0.00208525 53.146028 C 0.00208525 82.500925 23.797541 106.296381 53.147194 106.296381 C 82.502091 106.296381 106.297547 82.500925 106.297547 53.146028 C 106.297547 23.796376 82.502091 0.000920043 53.147194 0.000920043 Z M 53.147194 0.000920043 " stroke="#17a750" stroke-width="4" stroke-opacity="1" stroke-miterlimit="4"/></g></g><g transform="matrix(1, 0, 0, 1, 2, 4)"><g clip-path="url(#f547749f02)"><g fill="#000000" fill-opacity="1"><g transform="translate(9.402463, 62.501417)"><g><path d="M -7.484375 -3.3125 C -7.421875 -3.675781 -7.253906 -3.992188 -6.984375 -4.265625 C -6.710938 -4.546875 -6.328125 -4.738281 -5.828125 -4.84375 C -5.335938 -4.945312 -4.910156 -4.921875 -4.546875 -4.765625 C -4.179688 -4.617188 -3.894531 -4.398438 -3.6875 -4.109375 C -3.488281 -3.796875 -3.3125 -3.273438 -3.15625 -2.546875 L -2.953125 -1.515625 L -0.421875 -2.03125 L -0.140625 -0.6875 L -6.828125 0.6875 L -7.3125 -1.640625 C -7.394531 -2.066406 -7.453125 -2.410156 -7.484375 -2.671875 C -7.515625 -2.929688 -7.515625 -3.144531 -7.484375 -3.3125 Z M -5.53125 -3.453125 C -5.925781 -3.367188 -6.164062 -3.117188 -6.25 -2.703125 C -6.300781 -2.546875 -6.273438 -2.238281 -6.171875 -1.78125 L -6 -0.890625 L -4.078125 -1.28125 L -4.25 -2.171875 C -4.351562 -2.628906 -4.492188 -2.976562 -4.671875 -3.21875 C -4.859375 -3.457031 -5.144531 -3.535156 -5.53125 -3.453125 Z M -5.53125 -3.453125 "/></g></g></g><g clip-path="url(#62548fa1ee)"><g fill="#000000" fill-opacity="1"><g transform="translate(8.123077, 56.460548)"><g><path d="M -0.359375 -6.84375 L -0.28125 -5.359375 L -1.796875 -4.6875 L -1.65625 -1.953125 L -0.078125 -1.46875 L 0 0 L -6.953125 -2.296875 L -7.03125 -3.765625 Z M -2.828125 -2.3125 L -2.9375 -4.1875 L -5.421875 -3.09375 Z M -2.828125 -2.3125 "/></g></g></g></g><g fill="#000000" fill-opacity="1"><g transform="translate(7.748959, 49.780718)"><g><path d="M -6.046875 -5.921875 C -5.898438 -6.191406 -5.660156 -6.40625 -5.328125 -6.5625 C -5.003906 -6.726562 -4.644531 -6.789062 -4.25 -6.75 C -3.75 -6.695312 -3.335938 -6.492188 -3.015625 -6.140625 C -2.703125 -5.796875 -2.539062 -5.335938 -2.53125 -4.765625 C -2.34375 -4.984375 -2.1875 -5.148438 -2.0625 -5.265625 C -1.9375 -5.390625 -1.765625 -5.519531 -1.546875 -5.65625 C -1.328125 -5.789062 -1.03125 -5.953125 -0.65625 -6.140625 L 0.6875 -6.796875 L 0.53125 -5.15625 L -1.21875 -4.234375 C -1.625 -4.015625 -1.910156 -3.84375 -2.078125 -3.71875 C -2.253906 -3.601562 -2.378906 -3.472656 -2.453125 -3.328125 C -2.523438 -3.179688 -2.570312 -2.972656 -2.59375 -2.703125 L -2.625 -2.359375 L 0.21875 -2.0625 L 0.078125 -0.703125 L -6.71875 -1.390625 L -6.421875 -4.359375 C -6.390625 -4.679688 -6.347656 -4.972656 -6.296875 -5.234375 C -6.242188 -5.492188 -6.160156 -5.722656 -6.046875 -5.921875 Z M -3.5625 -4.703125 C -3.59375 -4.859375 -3.671875 -4.992188 -3.796875 -5.109375 C -3.929688 -5.222656 -4.097656 -5.289062 -4.296875 -5.3125 C -4.660156 -5.351562 -4.925781 -5.226562 -5.09375 -4.9375 C -5.144531 -4.863281 -5.1875 -4.765625 -5.21875 -4.640625 C -5.25 -4.523438 -5.273438 -4.320312 -5.296875 -4.03125 L -5.4375 -2.640625 L -3.703125 -2.46875 L -3.59375 -3.671875 C -3.539062 -4.171875 -3.53125 -4.515625 -3.5625 -4.703125 Z M -3.5625 -4.703125 "/></g></g></g><g fill="#000000" fill-opacity="1"><g transform="translate(8.434061, 43.121727)"><g><path d="M -4.078125 -6.984375 L -5 -3.421875 L -3.515625 -3.046875 L -2.65625 -6.375 L -1.53125 -6.09375 L -2.390625 -2.765625 L -0.609375 -2.296875 L 0.34375 -5.984375 L 1.46875 -5.703125 L 0.171875 -0.6875 L -6.4375 -2.390625 L -5.171875 -7.28125 Z M -4.078125 -6.984375 "/></g></g></g><g fill="#000000" fill-opacity="1"><g transform="translate(9.932407, 37.132558)"><g><path d="M -0.203125 -5.34375 L -4.390625 -7.109375 L -3.890625 -8.296875 L 2.390625 -5.640625 L 1.84375 -4.359375 L -3.328125 -3.5625 L 0.765625 -1.828125 L 0.28125 -0.640625 L -6 -3.296875 L -5.484375 -4.546875 Z M -0.203125 -5.34375 "/></g></g></g><g fill="#000000" fill-opacity="1"><g transform="translate(12.566365, 30.971112)"><g><path d="M -1.96875 -7.75 L -3.015625 -6.015625 L 1.859375 -3.078125 L 1.140625 -1.90625 L -3.734375 -4.84375 L -4.765625 -3.109375 L -5.734375 -3.703125 L -2.9375 -8.34375 Z M -1.96875 -7.75 "/></g></g></g><g fill="#000000" fill-opacity="1"><g transform="translate(15.572658, 26.126431)"><g><path d="M 1.21875 -1.625 L 0.390625 -0.53125 L -5.09375 -4.609375 L -4.265625 -5.703125 Z M 1.21875 -1.625 "/></g></g></g><g fill="#000000" fill-opacity="1"><g transform="translate(16.973769, 24.037037)"><g><path d="M 1.640625 -5.09375 L -1.71875 -8.203125 L -0.859375 -9.140625 L 4.15625 -4.5 L 3.21875 -3.46875 L -1.921875 -4.484375 L 1.34375 -1.453125 L 0.484375 -0.515625 L -4.53125 -5.15625 L -3.625 -6.140625 Z M 1.640625 -5.09375 "/></g></g></g><g fill="#000000" fill-opacity="1"><g transform="translate(21.485515, 19.104074)"><g><path d="M -1.25 -7.84375 C -0.632812 -8.332031 -0.03125 -8.597656 0.5625 -8.640625 C 1.164062 -8.691406 1.742188 -8.492188 2.296875 -8.046875 L 1.359375 -7 C 1.054688 -7.21875 0.738281 -7.316406 0.40625 -7.296875 C 0.0820312 -7.273438 -0.21875 -7.148438 -0.5 -6.921875 C -0.800781 -6.691406 -1.015625 -6.4375 -1.140625 -6.15625 C -1.265625 -5.875 -1.3125 -5.570312 -1.28125 -5.25 C -1.25 -4.832031 -1.046875 -4.390625 -0.671875 -3.921875 C -0.222656 -3.347656 0.265625 -2.984375 0.796875 -2.828125 C 1.328125 -2.679688 1.851562 -2.804688 2.375 -3.203125 C 2.59375 -3.378906 2.773438 -3.59375 2.921875 -3.84375 C 3.078125 -4.101562 3.195312 -4.378906 3.28125 -4.671875 L 2.75 -5.34375 L 1.5 -4.375 L 0.78125 -5.28125 L 3.125 -7.109375 L 4.8125 -4.953125 C 4.738281 -4.492188 4.546875 -4.019531 4.234375 -3.53125 C 3.929688 -3.050781 3.570312 -2.644531 3.15625 -2.3125 C 2.550781 -1.851562 1.945312 -1.585938 1.34375 -1.515625 C 0.738281 -1.453125 0.171875 -1.550781 -0.359375 -1.8125 C -0.890625 -2.082031 -1.351562 -2.472656 -1.75 -2.984375 C -2.144531 -3.484375 -2.40625 -4.019531 -2.53125 -4.59375 C -2.664062 -5.164062 -2.628906 -5.738281 -2.421875 -6.3125 C -2.222656 -6.882812 -1.832031 -7.394531 -1.25 -7.84375 Z M -1.25 -7.84375 "/></g></g></g><g fill="#000000" fill-opacity="1"><g transform="translate(27.291712, 14.730032)"><g/></g></g><g fill="#000000" fill-opacity="1"><g transform="translate(29.402927, 13.340484)"><g><path d="M 2.34375 -7.46875 L -0.625 -6.015625 L 0.09375 -4.5625 L 2.65625 -5.828125 L 3.15625 -4.78125 L 0.59375 -3.515625 L 1.875 -0.90625 L 0.625 -0.3125 L -2.375 -6.453125 L 1.84375 -8.5 Z M 2.34375 -7.46875 "/></g></g></g><g fill="#000000" fill-opacity="1"><g transform="translate(34.439995, 10.799653)"><g><path d="M 1.46875 -7.75 C 2.15625 -7.96875 2.773438 -8.003906 3.328125 -7.859375 C 3.890625 -7.710938 4.367188 -7.421875 4.765625 -6.984375 C 5.171875 -6.554688 5.476562 -6.015625 5.6875 -5.359375 C 5.90625 -4.660156 5.96875 -4.019531 5.875 -3.4375 C 5.78125 -2.863281 5.535156 -2.363281 5.140625 -1.9375 C 4.753906 -1.519531 4.238281 -1.210938 3.59375 -1.015625 C 2.914062 -0.796875 2.296875 -0.75 1.734375 -0.875 C 1.171875 -1.007812 0.6875 -1.289062 0.28125 -1.71875 C -0.113281 -2.144531 -0.414062 -2.6875 -0.625 -3.34375 C -0.832031 -4.03125 -0.894531 -4.664062 -0.8125 -5.25 C -0.738281 -5.84375 -0.507812 -6.351562 -0.125 -6.78125 C 0.257812 -7.21875 0.789062 -7.539062 1.46875 -7.75 Z M 0.71875 -3.8125 C 0.882812 -3.289062 1.097656 -2.890625 1.359375 -2.609375 C 1.628906 -2.328125 1.925781 -2.148438 2.25 -2.078125 C 2.582031 -2.003906 2.910156 -2.019531 3.234375 -2.125 C 3.546875 -2.226562 3.8125 -2.394531 4.03125 -2.625 C 4.25 -2.851562 4.394531 -3.160156 4.46875 -3.546875 C 4.539062 -3.929688 4.488281 -4.40625 4.3125 -4.96875 C 4.113281 -5.613281 3.800781 -6.097656 3.375 -6.421875 C 2.957031 -6.742188 2.4375 -6.804688 1.8125 -6.609375 C 1.1875 -6.410156 0.796875 -6.054688 0.640625 -5.546875 C 0.492188 -5.046875 0.519531 -4.46875 0.71875 -3.8125 Z M 0.71875 -3.8125 "/></g></g></g><g clip-path="url(#d905dfe505)"><g fill="#000000" fill-opacity="1"><g transform="translate(41.324874, 8.638656)"><g><path d="M 4.296875 -7.296875 C 4.578125 -7.222656 4.835938 -7.046875 5.078125 -6.765625 C 5.316406 -6.484375 5.460938 -6.148438 5.515625 -5.765625 C 5.585938 -5.253906 5.492188 -4.804688 5.234375 -4.421875 C 4.972656 -4.035156 4.566406 -3.765625 4.015625 -3.609375 C 4.273438 -3.472656 4.476562 -3.359375 4.625 -3.265625 C 4.769531 -3.179688 4.929688 -3.050781 5.109375 -2.875 C 5.285156 -2.695312 5.515625 -2.441406 5.796875 -2.109375 L 6.765625 -0.96875 L 5.140625 -0.734375 L 3.796875 -2.21875 C 3.503906 -2.5625 3.273438 -2.796875 3.109375 -2.921875 C 2.953125 -3.054688 2.789062 -3.140625 2.625 -3.171875 C 2.46875 -3.210938 2.253906 -3.210938 1.984375 -3.171875 L 1.65625 -3.125 L 2.0625 -0.296875 L 0.703125 -0.09375 L -0.265625 -6.859375 L 2.6875 -7.296875 C 3 -7.335938 3.285156 -7.363281 3.546875 -7.375 C 3.816406 -7.382812 4.066406 -7.359375 4.296875 -7.296875 Z M 3.6875 -4.578125 C 3.84375 -4.660156 3.960938 -4.773438 4.046875 -4.921875 C 4.128906 -5.078125 4.15625 -5.257812 4.125 -5.46875 C 4.070312 -5.820312 3.878906 -6.046875 3.546875 -6.140625 C 3.453125 -6.171875 3.34375 -6.1875 3.21875 -6.1875 C 3.101562 -6.1875 2.90625 -6.164062 2.625 -6.125 L 1.25 -5.921875 L 1.5 -4.1875 L 2.6875 -4.359375 C 3.175781 -4.429688 3.507812 -4.503906 3.6875 -4.578125 Z M 3.6875 -4.578125 "/></g></g></g></g><g fill="#000000" fill-opacity="1"><g transform="translate(48.013468, 7.779391)"><g/></g></g><g clip-path="url(#78fe6446e5)"><g fill="#000000" fill-opacity="1"><g transform="translate(50.5209, 7.567159)"><g><path d="M 5.734375 -6.21875 C 6.003906 -6.082031 6.222656 -5.851562 6.390625 -5.53125 C 6.566406 -5.207031 6.644531 -4.847656 6.625 -4.453125 C 6.582031 -3.941406 6.390625 -3.523438 6.046875 -3.203125 C 5.710938 -2.878906 5.257812 -2.703125 4.6875 -2.671875 C 4.914062 -2.492188 5.085938 -2.34375 5.203125 -2.21875 C 5.328125 -2.101562 5.457031 -1.9375 5.59375 -1.71875 C 5.738281 -1.507812 5.914062 -1.210938 6.125 -0.828125 L 6.8125 0.484375 L 5.171875 0.375 L 4.1875 -1.359375 C 3.957031 -1.753906 3.78125 -2.035156 3.65625 -2.203125 C 3.53125 -2.367188 3.394531 -2.484375 3.25 -2.546875 C 3.101562 -2.617188 2.894531 -2.664062 2.625 -2.6875 L 2.28125 -2.703125 L 2.078125 0.15625 L 0.703125 0.046875 L 1.1875 -6.765625 L 4.15625 -6.546875 C 4.476562 -6.523438 4.769531 -6.488281 5.03125 -6.4375 C 5.300781 -6.394531 5.535156 -6.320312 5.734375 -6.21875 Z M 4.578125 -3.6875 C 4.742188 -3.726562 4.882812 -3.816406 5 -3.953125 C 5.113281 -4.085938 5.175781 -4.257812 5.1875 -4.46875 C 5.21875 -4.832031 5.082031 -5.09375 4.78125 -5.25 C 4.695312 -5.289062 4.59375 -5.320312 4.46875 -5.34375 C 4.351562 -5.375 4.148438 -5.398438 3.859375 -5.421875 L 2.484375 -5.515625 L 2.359375 -3.765625 L 3.546875 -3.6875 C 4.046875 -3.65625 4.390625 -3.65625 4.578125 -3.6875 Z M 4.578125 -3.6875 "/></g></g></g></g><g fill="#000000" fill-opacity="1"><g transform="translate(57.198711, 8.049531)"><g><path d="M 6.875 -4.28125 L 3.28125 -5.09375 L 2.9375 -3.609375 L 6.28125 -2.859375 L 6.03125 -1.71875 L 2.6875 -2.46875 L 2.28125 -0.671875 L 6 0.171875 L 5.75 1.296875 L 0.6875 0.15625 L 2.1875 -6.5 L 7.125 -5.390625 Z M 6.875 -4.28125 "/></g></g></g><g fill="#000000" fill-opacity="1"><g transform="translate(63.230069, 9.389314)"><g><path d="M 5.359375 -5.40625 C 6.066406 -5.132812 6.582031 -4.753906 6.90625 -4.265625 C 7.226562 -3.773438 7.28125 -3.195312 7.0625 -2.53125 L 5.75 -2.984375 C 5.820312 -3.285156 5.800781 -3.550781 5.6875 -3.78125 C 5.582031 -4.007812 5.332031 -4.195312 4.9375 -4.34375 C 4.675781 -4.445312 4.410156 -4.492188 4.140625 -4.484375 C 3.878906 -4.484375 3.703125 -4.363281 3.609375 -4.125 C 3.535156 -3.9375 3.578125 -3.742188 3.734375 -3.546875 C 3.898438 -3.347656 4.21875 -3.09375 4.6875 -2.78125 C 5.125 -2.476562 5.472656 -2.203125 5.734375 -1.953125 C 6.003906 -1.710938 6.195312 -1.40625 6.3125 -1.03125 C 6.425781 -0.664062 6.390625 -0.242188 6.203125 0.234375 C 6.109375 0.484375 5.953125 0.722656 5.734375 0.953125 C 5.523438 1.179688 5.253906 1.34375 4.921875 1.4375 C 4.679688 1.53125 4.390625 1.554688 4.046875 1.515625 C 3.703125 1.484375 3.328125 1.390625 2.921875 1.234375 C 2.117188 0.929688 1.570312 0.515625 1.28125 -0.015625 C 0.988281 -0.546875 0.9375 -1.191406 1.125 -1.953125 L 2.40625 -1.59375 C 2.238281 -0.738281 2.550781 -0.160156 3.34375 0.140625 C 3.757812 0.304688 4.101562 0.34375 4.375 0.25 C 4.65625 0.15625 4.835938 -0.0078125 4.921875 -0.25 C 4.992188 -0.414062 4.992188 -0.570312 4.921875 -0.71875 C 4.859375 -0.863281 4.726562 -1.015625 4.53125 -1.171875 C 4.332031 -1.328125 4.019531 -1.546875 3.59375 -1.828125 C 3.050781 -2.191406 2.660156 -2.59375 2.421875 -3.03125 C 2.179688 -3.476562 2.160156 -3.96875 2.359375 -4.5 C 2.460938 -4.769531 2.632812 -5.015625 2.875 -5.234375 C 3.125 -5.453125 3.457031 -5.585938 3.875 -5.640625 C 4.300781 -5.691406 4.796875 -5.613281 5.359375 -5.40625 Z M 5.359375 -5.40625 "/></g></g></g><g fill="#000000" fill-opacity="1"><g transform="translate(69.009065, 11.576762)"><g><path d="M 7.40625 -3.515625 C 7.625 -3.222656 7.75 -2.882812 7.78125 -2.5 C 7.820312 -2.125 7.71875 -1.710938 7.46875 -1.265625 C 7.226562 -0.828125 6.929688 -0.515625 6.578125 -0.328125 C 6.222656 -0.148438 5.875 -0.0820312 5.53125 -0.125 C 5.15625 -0.164062 4.640625 -0.367188 3.984375 -0.734375 L 3.0625 -1.234375 L 1.8125 1.015625 L 0.609375 0.34375 L 3.921875 -5.625 L 6 -4.46875 C 6.382812 -4.257812 6.6875 -4.082031 6.90625 -3.9375 C 7.125 -3.789062 7.289062 -3.648438 7.40625 -3.515625 Z M 6.234375 -1.9375 C 6.429688 -2.289062 6.394531 -2.632812 6.125 -2.96875 C 6.03125 -3.101562 5.78125 -3.285156 5.375 -3.515625 L 4.578125 -3.953125 L 3.625 -2.25 L 4.421875 -1.8125 C 4.828125 -1.582031 5.179688 -1.457031 5.484375 -1.4375 C 5.785156 -1.425781 6.035156 -1.59375 6.234375 -1.9375 Z M 6.234375 -1.9375 "/></g></g></g><g fill="#000000" fill-opacity="1"><g transform="translate(74.415349, 14.567346)"><g><path d="M 8.046875 -1.03125 L 5.109375 -3.265625 L 4.171875 -2.046875 L 6.90625 0.03125 L 6.203125 0.953125 L 3.46875 -1.125 L 2.359375 0.34375 L 5.390625 2.640625 L 4.6875 3.5625 L 0.5625 0.421875 L 4.703125 -5.015625 L 8.734375 -1.9375 Z M 8.046875 -1.03125 "/></g></g></g><g fill="#000000" fill-opacity="1"><g transform="translate(79.347069, 18.280675)"><g><path d="M 7.515625 -2.234375 C 8.003906 -1.734375 8.296875 -1.1875 8.390625 -0.59375 C 8.484375 -0.0078125 8.347656 0.566406 7.984375 1.140625 L 6.8125 0.375 C 7.007812 0.0703125 7.09375 -0.238281 7.0625 -0.5625 C 7.03125 -0.894531 6.882812 -1.191406 6.625 -1.453125 C 6.25 -1.835938 5.820312 -2.003906 5.34375 -1.953125 C 4.863281 -1.898438 4.347656 -1.609375 3.796875 -1.078125 C 3.285156 -0.578125 2.953125 -0.0820312 2.796875 0.40625 C 2.648438 0.894531 2.796875 1.363281 3.234375 1.8125 C 3.515625 2.101562 3.832031 2.25 4.1875 2.25 C 4.539062 2.25 4.925781 2.125 5.34375 1.875 L 5.953125 3.125 C 5.285156 3.519531 4.65625 3.664062 4.0625 3.5625 C 3.46875 3.46875 2.914062 3.160156 2.40625 2.640625 C 1.976562 2.191406 1.695312 1.695312 1.5625 1.15625 C 1.4375 0.625 1.472656 0.0859375 1.671875 -0.453125 C 1.867188 -1.003906 2.21875 -1.523438 2.71875 -2.015625 C 3.164062 -2.453125 3.660156 -2.78125 4.203125 -3 C 4.742188 -3.226562 5.300781 -3.289062 5.875 -3.1875 C 6.457031 -3.082031 7.003906 -2.765625 7.515625 -2.234375 Z M 7.515625 -2.234375 "/></g></g></g><g fill="#000000" fill-opacity="1"><g transform="translate(83.998253, 23.104651)"><g><path d="M 7.90625 1.203125 L 6.71875 -0.4375 L 2.109375 2.90625 L 1.296875 1.796875 L 5.90625 -1.546875 L 4.734375 -3.171875 L 5.65625 -3.828125 L 8.828125 0.546875 Z M 7.90625 1.203125 "/></g></g></g><g fill="#000000" fill-opacity="1"><g transform="translate(87.353027, 27.647427)"><g><path d="M 3.1875 6.078125 L 2.5 4.75 L 3.59375 3.5 L 2.3125 1.078125 L 0.6875 1.296875 L 0 0 L 7.28125 -0.828125 L 7.96875 0.484375 Z M 3.53125 0.921875 L 4.40625 2.578125 L 6.203125 0.546875 Z M 3.53125 0.921875 "/></g></g></g><g fill="#000000" fill-opacity="1"><g transform="translate(90.480536, 33.561091)"><g><path d="M 7.9375 2.546875 C 7.925781 2.867188 7.820312 3.179688 7.625 3.484375 C 7.425781 3.785156 7.148438 3.992188 6.796875 4.109375 C 6.453125 4.234375 6.125 4.238281 5.8125 4.125 C 5.5 4.019531 5.265625 3.867188 5.109375 3.671875 C 5.117188 4.148438 5.007812 4.535156 4.78125 4.828125 C 4.5625 5.117188 4.285156 5.320312 3.953125 5.4375 C 3.578125 5.5625 3.179688 5.570312 2.765625 5.46875 C 2.359375 5.363281 2.039062 5.148438 1.8125 4.828125 C 1.695312 4.679688 1.585938 4.488281 1.484375 4.25 C 1.378906 4.007812 1.265625 3.710938 1.140625 3.359375 L 0.234375 0.671875 L 6.703125 -1.53125 L 7.609375 1.15625 C 7.722656 1.46875 7.804688 1.726562 7.859375 1.9375 C 7.910156 2.15625 7.9375 2.359375 7.9375 2.546875 Z M 6.15625 2.921875 C 6.332031 2.859375 6.460938 2.765625 6.546875 2.640625 C 6.628906 2.523438 6.675781 2.390625 6.6875 2.234375 C 6.707031 2.109375 6.660156 1.882812 6.546875 1.5625 L 6.0625 0.125 L 4.5625 0.640625 L 5.0625 2.109375 C 5.300781 2.816406 5.664062 3.085938 6.15625 2.921875 Z M 2.5 3.65625 C 2.601562 3.84375 2.742188 3.976562 2.921875 4.0625 C 3.097656 4.144531 3.300781 4.148438 3.53125 4.078125 C 3.78125 3.992188 3.945312 3.863281 4.03125 3.6875 C 4.113281 3.519531 4.140625 3.320312 4.109375 3.09375 C 4.078125 2.875 4.003906 2.585938 3.890625 2.234375 L 3.46875 1.015625 L 1.765625 1.59375 L 2.21875 2.9375 C 2.332031 3.25 2.425781 3.488281 2.5 3.65625 Z M 2.5 3.65625 "/></g></g></g><g fill="#000000" fill-opacity="1"><g transform="translate(92.558034, 39.977032)"><g><path d="M 0.453125 1.984375 L 0.140625 0.640625 L 6.796875 -0.859375 L 7.109375 0.484375 Z M 0.453125 1.984375 "/></g></g></g><g fill="#000000" fill-opacity="1"><g transform="translate(93.19406, 42.421744)"><g><path d="M 1.40625 1.953125 L 1.84375 5.359375 L 0.703125 5.5 L 0.09375 0.734375 L 6.875 -0.125 L 7.046875 1.234375 Z M 1.40625 1.953125 "/></g></g></g><g fill="#000000" fill-opacity="1"><g transform="translate(93.838628, 48.087551)"><g><path d="M 0.0625 2.03125 L 0.015625 0.65625 L 6.84375 0.453125 L 6.890625 1.828125 Z M 0.0625 2.03125 "/></g></g></g><g fill="#000000" fill-opacity="1"><g transform="translate(93.998965, 50.608176)"><g><path d="M 5.296875 5.984375 L 5.4375 3.96875 L -0.234375 3.59375 L -0.140625 2.21875 L 5.53125 2.59375 L 5.65625 0.578125 L 6.796875 0.65625 L 6.4375 6.0625 Z M 5.296875 5.984375 "/></g></g></g><g fill="#000000" fill-opacity="1"><g transform="translate(93.661541, 56.25001)"><g><path d="M 3.421875 3.96875 L 5.71875 6.078125 L 5.40625 7.625 L 2.015625 4.359375 L -0.78125 3.78125 L -0.5 2.4375 L 2.3125 3.015625 L 6.6875 1.359375 L 6.359375 2.953125 Z M 3.421875 3.96875 "/></g></g></g></g></g><g clip-path="url(#df35a1bca4)"><g transform="matrix(1, 0, 0, 1, 62, 26)"><g clip-path="url(#cbb04ec5d2)"><g clip-path="url(#f7dd69968b)"><path fill="#17a750" d="M 18.5 17.976562 C 18.597656 18.21875 18.71875 18.453125 18.792969 18.699219 C 19.644531 21.59375 20.5 24.484375 21.339844 27.382812 C 21.558594 28.144531 21.949219 28.753906 22.734375 28.988281 C 24.085938 29.390625 25.367188 28.148438 24.960938 26.777344 C 24.121094 23.953125 23.207031 21.148438 22.324219 18.339844 C 21.992188 17.277344 21.679688 16.207031 21.316406 15.15625 C 20.679688 13.335938 19.394531 12.1875 17.464844 12.132812 C 14.144531 12.03125 10.816406 12.03125 7.496094 12.128906 C 5.566406 12.183594 4.238281 13.3125 3.644531 15.144531 C 2.382812 19.027344 1.1875 22.933594 -0.0429688 26.824219 C -0.117188 27.054688 -0.257812 27.289062 -0.429688 27.460938 C -1.53125 28.59375 -2.660156 29.699219 -3.761719 30.832031 C -4.230469 31.3125 -4.765625 31.542969 -5.433594 31.535156 C -6.945312 31.519531 -8.457031 31.523438 -9.964844 31.53125 C -10.609375 31.539062 -11.148438 31.339844 -11.578125 30.851562 C -11.667969 30.75 -11.773438 30.65625 -11.871094 30.554688 C -12.984375 29.433594 -14.339844 28.457031 -15.132812 27.140625 C -15.925781 25.832031 -16.152344 24.175781 -16.625 22.671875 C -17.410156 20.195312 -18.1875 17.71875 -18.976562 15.242188 C -19.585938 13.320312 -21.09375 12.128906 -23.113281 12.097656 C -26.246094 12.050781 -29.386719 12.050781 -32.523438 12.09375 C -34.585938 12.121094 -36.082031 13.285156 -36.714844 15.261719 C -37.910156 18.996094 -39.089844 22.734375 -40.265625 26.472656 C -40.566406 27.433594 -40.332031 28.234375 -39.65625 28.71875 C -39.023438 29.171875 -38.09375 29.222656 -37.519531 28.695312 C -37.164062 28.371094 -36.882812 27.890625 -36.742188 27.429688 C -35.859375 24.542969 -35.027344 21.644531 -34.175781 18.753906 C -34.09375 18.488281 -33.964844 18.234375 -33.855469 17.976562 C -33.785156 17.984375 -33.714844 17.996094 -33.644531 18 C -33.613281 18.230469 -33.558594 18.460938 -33.558594 18.691406 C -33.550781 20.269531 -33.476562 21.855469 -33.582031 23.429688 C -33.644531 24.335938 -33.960938 25.234375 -34.234375 26.117188 C -35.472656 30.152344 -36.734375 34.179688 -37.984375 38.214844 C -38.011719 38.296875 -38.035156 38.382812 -38.082031 38.558594 C -36.5625 38.558594 -35.09375 38.558594 -33.554688 38.558594 C -33.554688 38.890625 -33.554688 39.140625 -33.554688 39.390625 C -33.554688 43.367188 -33.558594 47.339844 -33.546875 51.3125 C -33.546875 51.75 -33.523438 52.207031 -33.402344 52.621094 C -33.066406 53.773438 -32.011719 54.421875 -30.828125 54.269531 C -29.699219 54.125 -28.863281 53.1875 -28.855469 51.941406 C -28.835938 47.78125 -28.847656 43.621094 -28.84375 39.460938 C -28.84375 39.1875 -28.84375 38.914062 -28.84375 38.605469 C -28.15625 38.605469 -27.539062 38.605469 -26.839844 38.605469 C -26.839844 38.882812 -26.839844 39.128906 -26.839844 39.378906 C -26.839844 43.421875 -26.835938 47.46875 -26.84375 51.511719 C -26.84375 52.253906 -26.714844 52.941406 -26.203125 53.515625 C -25.546875 54.25 -24.722656 54.449219 -23.796875 54.203125 C -22.90625 53.964844 -22.261719 53.15625 -22.171875 52.226562 C -22.148438 51.972656 -22.152344 51.71875 -22.152344 51.464844 C -22.152344 47.441406 -22.152344 43.421875 -22.152344 39.402344 C -22.152344 39.152344 -22.152344 38.898438 -22.152344 38.570312 C -20.5 38.570312 -18.914062 38.570312 -17.25 38.570312 C -17.953125 36.285156 -18.628906 34.097656 -19.308594 31.90625 C -20.179688 29.09375 -21.214844 26.320312 -21.875 23.457031 C -22.261719 21.777344 -22.0625 19.960938 -22.117188 18.203125 C -22.121094 18.136719 -22.019531 18.066406 -21.878906 17.882812 C -21.734375 18.203125 -21.605469 18.425781 -21.535156 18.667969 C -20.742188 21.335938 -19.894531 23.992188 -19.199219 26.683594 C -18.867188 27.964844 -18.152344 28.941406 -17.300781 29.839844 C -15.621094 31.609375 -13.886719 33.328125 -12.144531 35.039062 C -11.710938 35.464844 -11.53125 35.90625 -11.535156 36.507812 C -11.550781 41.691406 -11.542969 46.875 -11.542969 52.054688 C -11.539062 52.3125 -11.546875 52.570312 -11.503906 52.820312 C -11.347656 53.761719 -10.617188 54.34375 -9.691406 54.292969 C -8.777344 54.238281 -8.105469 53.558594 -8.097656 52.601562 C -8.078125 50.230469 -8.089844 47.859375 -8.085938 45.488281 C -8.085938 45.277344 -8.15625 45.019531 -8.058594 44.875 C -7.898438 44.632812 -7.644531 44.34375 -7.398438 44.308594 C -7.214844 44.285156 -6.929688 44.605469 -6.792969 44.832031 C -6.691406 45.011719 -6.742188 45.285156 -6.742188 45.515625 C -6.738281 47.863281 -6.75 50.210938 -6.734375 52.558594 C -6.726562 53.378906 -6.28125 53.984375 -5.589844 54.21875 C -4.898438 54.453125 -4.0625 54.234375 -3.671875 53.609375 C -3.460938 53.277344 -3.355469 52.839844 -3.324219 52.441406 C -3.269531 51.746094 -3.308594 51.046875 -3.308594 50.347656 C -3.308594 45.585938 -3.296875 40.820312 -3.316406 36.058594 C -3.320312 35.433594 -3.15625 34.960938 -2.699219 34.515625 C -1.152344 33.003906 0.378906 31.480469 1.867188 29.914062 C 2.753906 28.980469 3.503906 27.96875 3.847656 26.644531 C 4.535156 23.972656 5.375 21.339844 6.15625 18.691406 C 6.230469 18.445312 6.347656 18.214844 6.445312 17.972656 C 6.527344 17.980469 6.609375 17.984375 6.691406 17.992188 C 6.722656 18.285156 6.78125 18.578125 6.78125 18.871094 C 6.785156 29.699219 6.785156 40.53125 6.792969 51.359375 C 6.792969 51.839844 6.832031 52.347656 6.988281 52.792969 C 7.359375 53.859375 8.339844 54.40625 9.464844 54.273438 C 10.503906 54.148438 11.3125 53.324219 11.445312 52.234375 C 11.476562 51.984375 11.472656 51.726562 11.472656 51.46875 C 11.472656 46.242188 11.472656 41.011719 11.472656 35.785156 C 11.472656 34.71875 11.773438 34.234375 12.4375 34.210938 C 13.144531 34.183594 13.480469 34.6875 13.480469 35.773438 C 13.480469 40.980469 13.464844 46.1875 13.5 51.390625 C 13.5 52.011719 13.660156 52.691406 13.9375 53.242188 C 14.371094 54.101562 15.351562 54.4375 16.332031 54.25 C 17.21875 54.082031 17.957031 53.335938 18.113281 52.414062 C 18.175781 52.050781 18.183594 51.675781 18.183594 51.304688 C 18.1875 40.519531 18.1875 29.738281 18.1875 18.953125 C 18.1875 18.644531 18.226562 18.335938 18.25 18.027344 C 18.332031 18.011719 18.414062 17.996094 18.5 17.976562 " fill-opacity="1" fill-rule="nonzero"/></g><g clip-path="url(#48b5d730b4)"><path fill="#17a750" d="M 12.46875 0.117188 C 9.730469 0.113281 7.523438 2.332031 7.53125 5.082031 C 7.535156 7.78125 9.742188 9.996094 12.441406 10.015625 C 15.164062 10.039062 17.40625 7.808594 17.414062 5.074219 C 17.421875 2.328125 15.21875 0.121094 12.46875 0.117188 " fill-opacity="1" fill-rule="nonzero"/></g></g></g></g><g fill="#d72932" fill-opacity="1"><g transform="translate(41.565267, 102.427528)"><g><path d="M 7.140625 -8.046875 C 7.554688 -7.816406 7.890625 -7.476562 8.140625 -7.03125 C 8.390625 -6.582031 8.476562 -6.023438 8.40625 -5.359375 C 8.34375 -4.710938 8.140625 -4.191406 7.796875 -3.796875 C 7.460938 -3.398438 7.070312 -3.128906 6.625 -2.984375 C 6.144531 -2.847656 5.414062 -2.832031 4.4375 -2.9375 L 3.0625 -3.078125 L 2.703125 0.296875 L 0.921875 0.09375 L 1.875 -8.84375 L 4.984375 -8.5 C 5.546875 -8.4375 6 -8.367188 6.34375 -8.296875 C 6.6875 -8.234375 6.953125 -8.148438 7.140625 -8.046875 Z M 6.546875 -5.546875 C 6.609375 -6.066406 6.382812 -6.46875 5.875 -6.75 C 5.695312 -6.851562 5.304688 -6.9375 4.703125 -7 L 3.5 -7.125 L 3.234375 -4.578125 L 4.4375 -4.453125 C 5.039062 -4.390625 5.53125 -4.425781 5.90625 -4.5625 C 6.28125 -4.695312 6.492188 -5.023438 6.546875 -5.546875 Z M 6.546875 -5.546875 "/></g></g></g><g fill="#d72932" fill-opacity="1"><g transform="translate(50.515586, 103.249783)"><g><path d="M 1.515625 -8.515625 C 1.679688 -8.710938 1.894531 -8.863281 2.15625 -8.96875 C 2.425781 -9.070312 2.757812 -9.125 3.15625 -9.125 C 3.644531 -9.125 4.125 -9.046875 4.59375 -8.890625 L 4.359375 -7.703125 C 4.066406 -7.765625 3.804688 -7.796875 3.578125 -7.796875 C 3.304688 -7.796875 3.117188 -7.726562 3.015625 -7.59375 C 2.910156 -7.46875 2.859375 -7.28125 2.859375 -7.03125 L 2.859375 -6.484375 L 4.140625 -6.484375 L 4.140625 -5.109375 L 2.859375 -5.109375 L 2.828125 0.015625 L 1.109375 0 L 1.140625 -5.125 L 0.1875 -5.125 L 0.1875 -6.5 L 1.140625 -6.5 L 1.140625 -7.140625 C 1.148438 -7.753906 1.273438 -8.210938 1.515625 -8.515625 Z M 1.515625 -8.515625 "/></g></g></g><g fill="#d72932" fill-opacity="1"><g transform="translate(55.33658, 103.371568)"><g><path d="M 6.03125 -9.34375 C 6.414062 -9.226562 6.75 -8.984375 7.03125 -8.609375 C 7.320312 -8.242188 7.492188 -7.800781 7.546875 -7.28125 C 7.617188 -6.601562 7.472656 -6.019531 7.109375 -5.53125 C 6.742188 -5.039062 6.191406 -4.707031 5.453125 -4.53125 C 5.804688 -4.332031 6.070312 -4.171875 6.25 -4.046875 C 6.4375 -3.921875 6.644531 -3.738281 6.875 -3.5 C 7.101562 -3.257812 7.390625 -2.910156 7.734375 -2.453125 L 8.9375 -0.90625 L 6.78125 -0.6875 L 5.109375 -2.71875 C 4.734375 -3.164062 4.445312 -3.484375 4.25 -3.671875 C 4.050781 -3.859375 3.847656 -3.976562 3.640625 -4.03125 C 3.429688 -4.082031 3.144531 -4.09375 2.78125 -4.0625 L 2.328125 -4.015625 L 2.703125 -0.28125 L 0.921875 -0.09375 L 0.015625 -9.03125 L 3.90625 -9.421875 C 4.332031 -9.472656 4.71875 -9.492188 5.0625 -9.484375 C 5.414062 -9.484375 5.738281 -9.4375 6.03125 -9.34375 Z M 5.09375 -5.828125 C 5.300781 -5.910156 5.460938 -6.050781 5.578125 -6.25 C 5.691406 -6.457031 5.738281 -6.695312 5.71875 -6.96875 C 5.664062 -7.445312 5.421875 -7.753906 4.984375 -7.890625 C 4.878906 -7.929688 4.742188 -7.953125 4.578125 -7.953125 C 4.410156 -7.953125 4.132812 -7.9375 3.75 -7.90625 L 1.9375 -7.71875 L 2.171875 -5.4375 L 3.765625 -5.59375 C 4.410156 -5.65625 4.851562 -5.734375 5.09375 -5.828125 Z M 5.09375 -5.828125 "/></g></g></g><g clip-path="url(#2b92720a0d)"><g transform="matrix(1, 0, 0, 1, 46, 26)"><g clip-path="url(#61ff5685c1)"><g clip-path="url(#c883827820)"><path fill="#35404e" d="M 34.746094 17.515625 C 34.847656 17.757812 34.96875 17.992188 35.042969 18.242188 C 35.898438 21.132812 36.757812 24.027344 37.601562 26.925781 C 37.820312 27.6875 38.210938 28.300781 39.003906 28.53125 C 40.359375 28.933594 41.648438 27.691406 41.238281 26.320312 C 40.394531 23.496094 39.476562 20.691406 38.589844 17.878906 C 38.257812 16.816406 37.945312 15.746094 37.578125 14.695312 C 36.9375 12.875 35.644531 11.726562 33.707031 11.667969 C 30.371094 11.570312 27.027344 11.570312 23.691406 11.667969 C 21.753906 11.722656 20.417969 12.847656 19.820312 14.683594 C 18.554688 18.570312 17.355469 22.476562 16.117188 26.367188 C 16.042969 26.597656 15.898438 26.832031 15.730469 27.003906 C 14.621094 28.136719 13.488281 29.242188 12.378906 30.375 C 11.910156 30.855469 11.371094 31.085938 10.699219 31.082031 C 9.179688 31.066406 7.664062 31.066406 6.144531 31.078125 C 5.5 31.082031 4.957031 30.886719 4.527344 30.398438 C 4.4375 30.292969 4.332031 30.199219 4.230469 30.101562 C 3.117188 28.976562 1.753906 28 0.957031 26.683594 C 0.160156 25.375 -0.0664062 23.71875 -0.542969 22.214844 C -1.332031 19.738281 -2.113281 17.257812 -2.90625 14.78125 C -3.519531 12.859375 -5.035156 11.664062 -7.0625 11.632812 C -10.210938 11.589844 -13.367188 11.589844 -16.519531 11.632812 C -18.589844 11.660156 -20.09375 12.824219 -20.726562 14.800781 C -21.929688 18.535156 -23.113281 22.273438 -24.296875 26.015625 C -24.601562 26.976562 -24.363281 27.777344 -23.683594 28.265625 C -23.050781 28.71875 -22.113281 28.769531 -21.535156 28.238281 C -21.179688 27.917969 -20.898438 27.433594 -20.753906 26.972656 C -19.871094 24.085938 -19.035156 21.1875 -18.175781 18.296875 C -18.097656 18.027344 -17.964844 17.773438 -17.859375 17.515625 C -17.785156 17.523438 -17.714844 17.535156 -17.644531 17.542969 C -17.613281 17.769531 -17.558594 18 -17.558594 18.230469 C -17.550781 19.8125 -17.476562 21.394531 -17.582031 22.96875 C -17.644531 23.878906 -17.964844 24.777344 -18.234375 25.660156 C -19.480469 29.699219 -20.746094 33.726562 -22.007812 37.761719 C -22.03125 37.84375 -22.054688 37.929688 -22.101562 38.105469 C -20.578125 38.105469 -19.101562 38.105469 -17.554688 38.105469 C -17.554688 38.441406 -17.554688 38.691406 -17.554688 38.941406 C -17.554688 42.914062 -17.558594 46.890625 -17.546875 50.867188 C -17.546875 51.304688 -17.523438 51.761719 -17.402344 52.175781 C -17.0625 53.328125 -16.003906 53.976562 -14.8125 53.824219 C -13.679688 53.679688 -12.839844 52.742188 -12.832031 51.492188 C -12.8125 47.332031 -12.824219 43.171875 -12.820312 39.007812 C -12.820312 38.734375 -12.820312 38.460938 -12.820312 38.152344 C -12.128906 38.152344 -11.511719 38.152344 -10.808594 38.152344 C -10.808594 38.429688 -10.808594 38.679688 -10.808594 38.929688 C -10.808594 42.972656 -10.804688 47.019531 -10.8125 51.066406 C -10.8125 51.808594 -10.683594 52.496094 -10.167969 53.070312 C -9.507812 53.804688 -8.679688 54.003906 -7.75 53.757812 C -6.855469 53.519531 -6.207031 52.710938 -6.117188 51.78125 C -6.09375 51.527344 -6.097656 51.269531 -6.097656 51.015625 C -6.097656 46.992188 -6.097656 42.972656 -6.097656 38.949219 C -6.097656 38.699219 -6.097656 38.449219 -6.097656 38.121094 C -4.4375 38.121094 -2.84375 38.121094 -1.171875 38.121094 C -1.878906 35.835938 -2.558594 33.644531 -3.238281 31.453125 C -4.117188 28.640625 -5.15625 25.863281 -5.820312 23 C -6.210938 21.316406 -6.007812 19.5 -6.0625 17.742188 C -6.0625 17.675781 -5.964844 17.605469 -5.824219 17.421875 C -5.679688 17.742188 -5.550781 17.96875 -5.476562 18.207031 C -4.679688 20.878906 -3.832031 23.535156 -3.128906 26.226562 C -2.796875 27.507812 -2.078125 28.488281 -1.222656 29.386719 C 0.464844 31.15625 2.207031 32.875 3.957031 34.585938 C 4.390625 35.011719 4.574219 35.453125 4.570312 36.054688 C 4.554688 41.242188 4.5625 46.425781 4.5625 51.609375 C 4.5625 51.867188 4.558594 52.125 4.601562 52.375 C 4.757812 53.316406 5.492188 53.902344 6.421875 53.847656 C 7.339844 53.792969 8.019531 53.113281 8.023438 52.15625 C 8.042969 49.785156 8.03125 47.410156 8.035156 45.039062 C 8.035156 44.832031 7.964844 44.570312 8.066406 44.425781 C 8.226562 44.183594 8.480469 43.894531 8.726562 43.859375 C 8.910156 43.835938 9.199219 44.15625 9.332031 44.382812 C 9.4375 44.5625 9.386719 44.835938 9.386719 45.066406 C 9.390625 47.417969 9.378906 49.765625 9.394531 52.113281 C 9.398438 52.933594 9.851562 53.542969 10.542969 53.773438 C 11.238281 54.007812 12.078125 53.789062 12.472656 53.164062 C 12.683594 52.832031 12.789062 52.394531 12.820312 51.996094 C 12.875 51.300781 12.835938 50.601562 12.835938 49.902344 C 12.835938 45.136719 12.847656 40.371094 12.828125 35.605469 C 12.824219 34.980469 12.992188 34.507812 13.449219 34.0625 C 15.003906 32.550781 16.542969 31.023438 18.035156 29.457031 C 18.925781 28.523438 19.679688 27.515625 20.023438 26.1875 C 20.71875 23.515625 21.558594 20.882812 22.347656 18.234375 C 22.421875 17.988281 22.539062 17.753906 22.636719 17.511719 C 22.71875 17.519531 22.800781 17.523438 22.882812 17.53125 C 22.914062 17.824219 22.972656 18.117188 22.972656 18.410156 C 22.980469 29.246094 22.976562 40.078125 22.984375 50.914062 C 22.988281 51.394531 23.023438 51.902344 23.179688 52.347656 C 23.554688 53.414062 24.539062 53.960938 25.671875 53.828125 C 26.714844 53.703125 27.523438 52.878906 27.660156 51.789062 C 27.691406 51.539062 27.6875 51.28125 27.6875 51.023438 C 27.6875 45.792969 27.6875 40.5625 27.6875 35.332031 C 27.6875 34.265625 27.988281 33.78125 28.65625 33.757812 C 29.367188 33.730469 29.703125 34.234375 29.703125 35.320312 C 29.703125 40.53125 29.6875 45.738281 29.722656 50.945312 C 29.726562 51.566406 29.882812 52.246094 30.164062 52.796875 C 30.601562 53.65625 31.585938 53.992188 32.570312 53.804688 C 33.460938 53.636719 34.203125 52.890625 34.359375 51.96875 C 34.421875 51.605469 34.429688 51.230469 34.429688 50.859375 C 34.433594 40.070312 34.433594 29.28125 34.4375 18.492188 C 34.4375 18.183594 34.476562 17.875 34.496094 17.566406 C 34.578125 17.550781 34.664062 17.535156 34.746094 17.515625 " fill-opacity="1" fill-rule="nonzero"/></g><path fill="#35404e" d="M 12.785156 25.617188 C 12.78125 23.414062 10.984375 21.621094 8.785156 21.625 C 6.597656 21.625 4.796875 23.433594 4.796875 25.628906 C 4.796875 27.828125 6.601562 29.625 8.800781 29.617188 C 11.007812 29.609375 12.789062 27.820312 12.785156 25.617188 " fill-opacity="1" fill-rule="nonzero"/></g></g></g><g clip-path="url(#7870484433)"><g transform="matrix(1, 0, 0, 1, 22, 25)"><g clip-path="url(#613b91ae91)"><g clip-path="url(#ea1d06e98c)"><path fill="#d72932" d="M 58.992188 18.5625 C 59.09375 18.800781 59.214844 19.035156 59.285156 19.285156 C 60.136719 22.171875 60.988281 25.058594 61.828125 27.949219 C 62.046875 28.710938 62.4375 29.320312 63.222656 29.554688 C 64.570312 29.953125 65.851562 28.714844 65.445312 27.34375 C 64.605469 24.527344 63.695312 21.730469 62.8125 18.925781 C 62.480469 17.863281 62.171875 16.796875 61.804688 15.746094 C 61.171875 13.929688 59.886719 12.785156 57.960938 12.726562 C 54.648438 12.625 51.324219 12.628906 48.011719 12.722656 C 46.085938 12.777344 44.753906 13.902344 44.164062 15.734375 C 42.90625 19.609375 41.714844 23.507812 40.484375 27.394531 C 40.410156 27.625 40.269531 27.855469 40.097656 28.027344 C 38.996094 29.160156 37.871094 30.261719 36.769531 31.394531 C 36.304688 31.875 35.769531 32.101562 35.101562 32.097656 C 33.59375 32.082031 32.082031 32.082031 30.578125 32.09375 C 29.933594 32.097656 29.394531 31.902344 28.96875 31.414062 C 28.878906 31.3125 28.773438 31.21875 28.675781 31.117188 C 27.566406 29.996094 26.210938 29.023438 25.417969 27.710938 C 24.628906 26.402344 24.402344 24.75 23.929688 23.25 C 23.148438 20.777344 22.371094 18.300781 21.582031 15.832031 C 20.972656 13.914062 19.46875 12.722656 17.453125 12.691406 C 14.324219 12.644531 11.191406 12.648438 8.058594 12.6875 C 6 12.714844 4.507812 13.878906 3.875 15.851562 C 2.679688 19.578125 1.503906 23.308594 0.332031 27.042969 C 0.0273438 28 0.265625 28.800781 0.941406 29.285156 C 1.570312 29.738281 2.496094 29.789062 3.074219 29.261719 C 3.425781 28.9375 3.707031 28.460938 3.847656 27.996094 C 4.726562 25.117188 5.558594 22.222656 6.410156 19.339844 C 6.492188 19.070312 6.621094 18.820312 6.726562 18.5625 C 6.796875 18.570312 6.867188 18.578125 6.9375 18.585938 C 6.96875 18.8125 7.023438 19.042969 7.027344 19.273438 C 7.035156 20.851562 7.105469 22.433594 7 24.003906 C 6.9375 24.910156 6.621094 25.808594 6.351562 26.6875 C 5.117188 30.714844 3.855469 34.738281 2.605469 38.761719 C 2.582031 38.847656 2.558594 38.933594 2.511719 39.109375 C 4.027344 39.109375 5.492188 39.109375 7.03125 39.109375 C 7.03125 39.441406 7.03125 39.691406 7.03125 39.941406 C 7.03125 43.90625 7.027344 47.875 7.035156 51.839844 C 7.039062 52.277344 7.0625 52.734375 7.179688 53.148438 C 7.515625 54.296875 8.570312 54.945312 9.75 54.789062 C 10.878906 54.648438 11.714844 53.710938 11.71875 52.464844 C 11.742188 48.316406 11.730469 44.160156 11.730469 40.007812 C 11.730469 39.734375 11.730469 39.460938 11.730469 39.15625 C 12.417969 39.15625 13.03125 39.15625 13.730469 39.15625 C 13.730469 39.429688 13.730469 39.679688 13.730469 39.925781 C 13.730469 43.964844 13.738281 48 13.730469 52.039062 C 13.726562 52.78125 13.855469 53.46875 14.367188 54.039062 C 15.023438 54.773438 15.847656 54.972656 16.769531 54.726562 C 17.660156 54.488281 18.304688 53.679688 18.390625 52.753906 C 18.414062 52.5 18.410156 52.242188 18.410156 51.992188 C 18.414062 47.976562 18.410156 43.960938 18.410156 39.949219 C 18.410156 39.699219 18.410156 39.449219 18.410156 39.121094 C 20.0625 39.121094 21.644531 39.121094 23.304688 39.121094 C 22.601562 36.839844 21.929688 34.652344 21.25 32.46875 C 20.382812 29.660156 19.347656 26.890625 18.6875 24.03125 C 18.300781 22.351562 18.503906 20.539062 18.445312 18.789062 C 18.445312 18.71875 18.546875 18.648438 18.683594 18.46875 C 18.828125 18.789062 18.957031 19.011719 19.027344 19.25 C 19.820312 21.914062 20.664062 24.566406 21.359375 27.253906 C 21.691406 28.53125 22.40625 29.507812 23.253906 30.40625 C 24.929688 32.171875 26.664062 33.886719 28.402344 35.59375 C 28.835938 36.019531 29.015625 36.457031 29.011719 37.0625 C 28.996094 42.234375 29.003906 47.410156 29.003906 52.582031 C 29.003906 52.835938 29 53.097656 29.042969 53.34375 C 29.199219 54.285156 29.929688 54.867188 30.851562 54.8125 C 31.765625 54.757812 32.4375 54.082031 32.445312 53.125 C 32.464844 50.757812 32.453125 48.394531 32.453125 46.027344 C 32.453125 45.816406 32.386719 45.558594 32.484375 45.410156 C 32.640625 45.171875 32.894531 44.882812 33.140625 44.847656 C 33.320312 44.824219 33.609375 45.144531 33.742188 45.371094 C 33.847656 45.546875 33.792969 45.824219 33.796875 46.054688 C 33.800781 48.398438 33.789062 50.742188 33.804688 53.085938 C 33.808594 53.902344 34.257812 54.507812 34.945312 54.742188 C 35.636719 54.972656 36.472656 54.753906 36.863281 54.132812 C 37.070312 53.800781 37.179688 53.363281 37.210938 52.964844 C 37.261719 52.273438 37.222656 51.574219 37.222656 50.878906 C 37.222656 46.125 37.234375 41.367188 37.214844 36.609375 C 37.210938 35.988281 37.378906 35.515625 37.832031 35.070312 C 39.375 33.5625 40.90625 32.039062 42.390625 30.476562 C 43.277344 29.542969 44.023438 28.539062 44.367188 27.214844 C 45.054688 24.546875 45.890625 21.917969 46.671875 19.277344 C 46.746094 19.03125 46.863281 18.796875 46.960938 18.558594 C 47.042969 18.5625 47.125 18.570312 47.207031 18.574219 C 47.238281 18.867188 47.296875 19.160156 47.296875 19.453125 C 47.300781 30.265625 47.296875 41.074219 47.308594 51.886719 C 47.308594 52.367188 47.347656 52.871094 47.5 53.320312 C 47.875 54.382812 48.851562 54.929688 49.976562 54.792969 C 51.011719 54.671875 51.816406 53.847656 51.949219 52.761719 C 51.984375 52.507812 51.976562 52.253906 51.980469 51.996094 C 51.980469 46.777344 51.980469 41.558594 51.980469 36.335938 C 51.980469 35.273438 52.28125 34.789062 52.941406 34.765625 C 53.648438 34.742188 53.980469 35.242188 53.980469 36.328125 C 53.980469 41.527344 53.96875 46.722656 54 51.917969 C 54.003906 52.539062 54.160156 53.214844 54.441406 53.765625 C 54.875 54.621094 55.851562 54.960938 56.832031 54.773438 C 57.714844 54.601562 58.453125 53.859375 58.609375 52.941406 C 58.667969 52.578125 58.679688 52.203125 58.679688 51.832031 C 58.683594 41.066406 58.679688 30.300781 58.683594 19.535156 C 58.683594 19.230469 58.722656 18.917969 58.746094 18.613281 C 58.828125 18.59375 58.910156 18.578125 58.992188 18.5625 " fill-opacity="1" fill-rule="nonzero"/></g><g clip-path="url(#f5e584ddaa)"><path fill="#d72932" d="M 17.996094 5.640625 C 17.964844 2.878906 15.765625 0.707031 13.019531 0.734375 C 10.289062 0.757812 8.082031 3.011719 8.125 5.730469 C 8.164062 8.417969 10.421875 10.644531 13.078125 10.613281 C 15.828125 10.582031 18.023438 8.359375 17.996094 5.640625 " fill-opacity="1" fill-rule="nonzero"/></g></g></g></g></svg>